<svg xmlns="http://www.w3.org/2000/svg" width="53" height="76" viewBox="0 0 53 76"><path fill="#fff" d="M46.94 75.995H6.048a6.058 6.058 0 0 1-6.057-6.058V6.33A6.058 6.058 0 0 1 6.048.27H46.94a6.058 6.058 0 0 1 6.057 6.058v63.608a6.058 6.058 0 0 1-6.057 6.058zm-20.635-1.704a4.829 4.829 0 0 0 4.827-4.827 4.828 4.828 0 1 0-4.828 4.827zm7.95-71.748h-15.9a.947.947 0 0 0 0 1.893h15.902a.946.946 0 1 0 0-1.893zm14.767 4.165H3.398v55.846h45.624zm-23.78 60.484h2.34c.636 0 1.154.515 1.154 1.15v2.524c0 .636-.518 1.15-1.153 1.15h-2.34a1.151 1.151 0 0 1-1.153-1.15v-2.523c0-.636.517-1.15 1.153-1.15z"/></svg>