<svg xmlns="http://www.w3.org/2000/svg" width="63" height="69" viewBox="0 0 63 69"><path fill="#fff" d="M62.642 5.282c-.72 1.565-1.59 3.639-2.61 6.22a808.343 808.343 0 0 0-3.248 8.331 527.6 527.6 0 0 0-3.374 9.058 4414.86 4414.86 0 0 1-3.021 8.288c-.904 2.465-1.923 5.259-3.066 8.382-.483 1.081-1.016 2.056-1.62 2.926-.602.872-1.503 1.31-2.708 1.31h-31.17c-1.202 0-2.15-.451-2.839-1.354A8.684 8.684 0 0 1 7.5 45.561L.202 18.258c-.306-1.2-.198-2.223.315-3.062.508-.843 1.84-1.262 4.006-1.262h45.953l5.411-11.711C56.424 1.08 57.18.389 58.14.146c.962-.239 1.863-.161 2.697.229.845.39 1.49 1.021 1.943 1.89.448.872.404 1.878-.137 3.017zm-40.543 57.22c0 1.802-.638 3.33-1.9 4.592-1.262 1.26-2.785 1.895-4.59 1.895-1.863 0-3.423-.634-4.685-1.895-1.261-1.262-1.891-2.79-1.891-4.593 0-1.801.63-3.347 1.89-4.643 1.263-1.289 2.823-1.936 4.687-1.936 1.804 0 3.327.647 4.589 1.936 1.262 1.296 1.9 2.842 1.9 4.643zm22.613 0c0 1.802-.629 3.33-1.89 4.592-1.263 1.26-2.795 1.895-4.597 1.895-1.863 0-3.428-.634-4.686-1.895-1.262-1.262-1.894-2.79-1.894-4.593 0-1.801.632-3.347 1.894-4.643 1.258-1.289 2.823-1.936 4.686-1.936 1.802 0 3.334.647 4.597 1.936 1.261 1.296 1.89 2.842 1.89 4.643z"/></svg>