<svg xmlns="http://www.w3.org/2000/svg" width="88" height="88" viewBox="0 0 88 88"><path fill="#fff" d="M44.006.019c24.27 0 43.975 19.705 43.975 43.986 0 24.271-19.705 43.976-43.975 43.976C19.724 87.981.02 68.276.02 44.005.019 19.724 19.724.019 44.006.019zm-.012 4.475c-1.073 0-2.145.077-3.193.164-.549.098-1.16.175-1.758.237l-.636.075c-2.195.313-4.316.7-6.386 1.361 5.4-.387 10.95-.25 15.802 2.156 1.284 4.126 8.992.075 8.617 4.702.063.064.188.174.25.25-.112.097.1.934.237.235 1.334 1.51 4.14 4.617 1.197 4.23-3.903-.536-2.88 7.158-.075 8.542 2.67 1.448 4.178-1.447 1.434-2.881-.374-3.592 6 2.218 3.193 4.153-.124.06-.212.164-.324.237.137-.511-.187-.025-.15.086-3.217 2.334-1.396 7.784-2.643 11.415-2.208 4.926 5.55 2.742 4.39-1.125-1.41-3.554 5.898-1.931 4.315-4.463 4.44 2.356 4.015-3.969 2.157-6.075.873-3.378 3.143.399 2.07 2.244.163 1.733 1.684 2.132 2.881 2.634.063.036.125.036.237.073 1.048.485 1.684 1.146.562 3.12-1.322 4.402-5.737 4.652-9.342 3.827-3.654 1.52-4.327 5.949-6.385 8.944-2.058 3.729-3.767 9.215-.087 12.53 3.529 3.37 7.557.439 10.463-1.844 5.588-.721 6.099 5.85 3.355 9.18-.1.488-.162.798-.162 1.046 5.887-6.896 9.503-15.763 9.503-25.542 0-1.506-.162-3.017-.324-4.476-2.245 1.222-6.236-5.524-2.158-2.309.811-.048 1.31-.296 1.684-.647-.474-2.443-1.097-4.825-1.995-7.095-.4-.488-.798-.935-1.123-1.197.013-.502-.037-.974-.074-1.437v-.086C73.116 13.6 59.62 4.494 44.006 4.494zM27.48 9.76c-6.023 5.15-15.227 13.245-18.92 20.828-1.658 4.753-1.384 9.542-1.197 14.53 1.697 4.827 4.977 8.816 7.583 13.17 1.671 2.095.86 4.49.711 6.784-.025.012.025.076 0 .086-.062 1.386.1 2.72 1.285 3.905 2.245 2.893 5.55 5.115 6.784 8.707.013.021-.012.048 0 .073a39.235 39.235 0 0 0 8.693 3.918c1.584-.125 3.205-.503 4.714-1.039v-.086c2.495-.897 4.89-2.232 6.947-3.754 3.442-4.176-2.993-7.48-6.473-6.296-4.016-2.682-6.934-6.785-11.486-8.78-3.704-3.592-12.048-1.361-11.898-8.146.386-3.217-2.208-4.789-4.153-6.31-1.497-4.975 7.62-6.82 7.745-1.349 3.005-.159 4.066-5.386 7.508-6.145 1.796-1.548 6.61.112 4.864-3.034 1.733-1.63 6.784-1.596 4.315-5.436-.836-3.73-5.425-5.525-6.947-1.272-4.14 1.12-2.47-7.907 1.759-6.71 3.055.175 2.656-2.482.798-3.344-.013-.137-.05-.198-.162-.086-.35-.137-.686-.25-1.11-.237-4.153-2.307 4.153-8.144-1.36-9.977zm11.736 6.15c-.162 0-.35.048-.486.073-1.871.374-1.31 3.493.96 1.36.636-.287.96-1.36 0-1.36-.187-.037-.324-.085-.474-.073zm3.106.71c-2.732.35-5.475 2.98-2.956 5.587 1.833 2.257-2.607 6.895 1.596 8.07 1.696-3.729 6.261-6.686 5.113-11.263-.473-1.933-2.12-2.593-3.753-2.395zm-8.22 4.552c-.174.012-.349.1-.56.162 1.097 2.056-1.46 4.678.486 6.46 2.22-.91 2.731-6.785.075-6.622zm22.911 9.416c-.524.037-.636.399.312 1.286-.873 2.08 1.484 2.206 2.32.798.187-1.236-1.759-2.133-2.632-2.084zM34.03 36.662c-.636.112-.786.51.549 1.433.162-.038 1.31-.3.648.399 2.07-1.235-.162-2.02-1.197-1.832zm-8.38 3.266c-.126-.012-.35.012-.724.162.05.051.1.137.162.164h.074c.387.098.774-.287.487-.326zm-8.145 11.101c-.536.15-.561.71.873 1.597.399.497 1.098.971 1.758.709.387-1.096-.411-1.77-1.271-2.07-.013-.062 0-.038 0-.077a3.83 3.83 0 0 0-.724-.159c-.262-.026-.461-.051-.636 0z"/></svg>