<svg><defs><font id="SegoeWP-Light" horiz-adv-x="1096"><font-face x-height="1024" ascent="1638" bbox="-342 -496 2357 2130" cap-height="1434" descent="-410" font-family="Segoe WP Light" font-weight="200" panose-1="2 11 3 2 4 2 4 2 2 3" underline-position="-119" underline-thickness="119" unicode-range="U+000D-U+F003" units-per-em="2048"/><glyph d="M166 0v1398h990V0H166zm148 148h694v1102H314V148z" glyph-name=".notdef" horiz-adv-x="1322"/><glyph glyph-name="uni000D" horiz-adv-x="0"/><glyph glyph-name="space" horiz-adv-x="561"/><glyph d="M332 403h-86l-10 1031h106zM291-18c-22.667 0-41.667 7.833-57 23.5s-23 34.834-23 57.501c0 23.333 7.667 42.5 23 57.5s34.333 22.5 57 22.5 42-7.5 58-22.5 24-34.167 24-57.5c0-22.667-8-41.834-24-57.501S313.667-18 291-18z" glyph-name="exclam" horiz-adv-x="582" unicode="!"/><glyph d="M506 985h-76l-10 449h96zm-248 0h-76l-10 449h96z" glyph-name="quotedbl" horiz-adv-x="686" unicode="&quot;"/><glyph d="M1128 946H856l-76-346h285l-18-78H764l-86-399h-80l86 399H416l-86-399h-80l86 399H53l19 78h280l76 346H135l19 78h290l88 410h80l-88-410h269l88 410h80l-89-410h275zm-620 0l-76-346h268l76 346H508z" glyph-name="numbersign" horiz-adv-x="1237" unicode="#"/><glyph d="M567 4l-.001-212.999h-78v209c-125.333 0-234.333 26.667-327 80v102c101.333-65.333 210.333-98 327-98v598C357.666 757.334 270.333 822.167 227 876.5s-65 119.166-65 194.499c0 90.667 29.333 169.667 88 237s138.334 108.666 239.001 123.999v182h78v-180c101.333 0 188-14.333 260-43v-103c-68.667 40-155.334 60-260.001 60v-607c122.667-67.333 207.667-129.166 255-185.499s71-122.833 71-199.5c0-93.333-28.5-171.666-85.5-234.999S670.333 18.667 567 4zm-78.001 1342c-71.333-11.333-127.668-40.668-169.001-88.001s-62-105.666-62-174.999c0-58.667 15.333-109.5 46-152.5s92.334-91.167 185.001-144.5v560zm77.998-711.001v-549c76 13.333 133.333 42.5 172 87.5s58 99.833 58 164.5c0 61.333-16.167 113.333-48.5 156s-92.833 89.667-181.5 141z" glyph-name="dollar" horiz-adv-x="1055" unicode="$"/><glyph d="M414 729c-102.667 0-183.667 33.668-243 101.001S82 984.667 82 1092c0 116.667 31.5 207.5 94.5 272.5S322 1462 424 1462c100 0 179.333-32.333 238-97s88-155 88-271c0-104-30.5-190.833-91.5-260.5S516 729 414 729zm8 651c-76.667 0-137.166-25.5-181.499-76.5s-66.5-122.167-66.5-213.5c0-86 21.5-154.333 64.5-205s102.167-76 177.5-76c76 0 135.5 26 178.5 78s64.5 121.667 64.5 209c0 94-21.333 164.833-64 212.5S494.667 1380 422 1380zM416.001-32.999h-99l863 1465h96zm781.999 8c-102 0-182.833 33.667-242.5 101S866 230.667 866 338c0 118 32 209.333 96 274s146 97 246 97 179.333-32.667 238-98 88-155.666 88-270.999c0-104-30.5-190.833-91.5-260.5S1300-24.999 1198-24.999zm8 652c-76 0-136.333-26-181-78s-67-123-67-213c0-86 21.5-154.333 64.5-205s102.167-76 177.5-76c76.667 0 136.5 25.833 179.5 77.5s64.5 121.5 64.5 209.5c0 94-21.333 165-64 213s-100.667 72-174 72z" glyph-name="percent" horiz-adv-x="1606" unicode="%"/><glyph d="M1260 0l-192.998 187.999c-134-142-293.667-213-479-213-140.667 0-250.334 36.167-329.001 108.5s-118 164.5-118 276.5c0 184 110.667 325.333 332 424-108 124.667-162 238.667-162 342 0 92.667 32.833 171.167 98.5 235.5s150.5 96.5 254.5 96.5c95.333 0 170.333-27.167 225-81.5s82-123.5 82-207.5c0-91.333-27.667-169.166-83-233.499S745.668 812 627.001 758c100-106 246.667-250.667 440-434 83.333 124 127.666 268.667 132.999 434h96c-4.667-178-60-344-166-498L1403-2zM563.002 822.999c116 51.333 196.833 102.666 242.5 153.999s68.5 111.333 68.5 180c0 66-21 118.667-63 158s-94 59-156 59c-75.333 0-135.333-24.167-180-72.5s-67-107.5-67-177.5c0-85.333 51.667-185.666 155-300.999zm442.998-573c-221.333 214-377.668 370.333-469.001 469-199.333-86.667-299-204-299-352 0-90 31.833-163.833 95.5-221.5s151.167-86.5 262.5-86.5c152.667 0 289.334 63.667 410.001 191z" glyph-name="ampersand" horiz-adv-x="1427" unicode="&amp;"/><glyph d="M258 985h-76l-10 449h96z" glyph-name="quotesingle" horiz-adv-x="438" unicode="'"/><glyph d="M453-326C251-90 150 200.333 150 545c0 360 102.333 656.333 307 889h98c-208.667-240-313-535.667-313-887 0-331.333 103-622.333 309-873h-98z" glyph-name="parenleft" horiz-adv-x="578" unicode="("/><glyph d="M125-326H27C233-75.333 336 215.667 336 547c0 351.333-104.333 647-313 887h98c204.667-234 307-530.333 307-889 0-346-101-636.333-303-871z" glyph-name="parenright" horiz-adv-x="578" unicode=")"/><glyph d="M469 1051l199-267-76-51-174 277-178-277-74 51 199 267-295 75 26 86 289-102-16 324h94l-14-324 286 102 27-86z" glyph-name="asterisk" horiz-adv-x="831" unicode="*"/><glyph d="M709 555V143h-84v412H213v84h412v412h84V639h411v-84H709z" glyph-name="plus" horiz-adv-x="1331" unicode="+"/><glyph d="M125-248H47l150 475h102z" glyph-name="comma" horiz-adv-x="455" unicode=","/><glyph d="M145 555v90h547v-90H145z" glyph-name="hyphen" horiz-adv-x="815" unicode="-"/><glyph d="M227-18c-22.667 0-41.667 7.833-57 23.5s-23 34.834-23 57.501c0 23.333 7.667 42.5 23 57.5s34.333 22.5 57 22.5 42-7.5 58-22.5 24-34.167 24-57.5c0-22.667-8-41.834-24-57.501S249.667-18 227-18z" glyph-name="period" horiz-adv-x="455" unicode="."/><glyph d="M63-238h-92l693 1672h96z" glyph-name="slash" horiz-adv-x="750" unicode="/"/><glyph d="M516-25c-132 0-235.332 60.668-309.999 182.001s-112 297.666-112 528.999c0 255.333 39.167 447.833 117.5 577.5S401.667 1458 547 1458c276 0 414-245 414-735 0-244-39-429.667-117-557S656.667-25 516-25zm23.001 1399c-110 0-195.667-56.334-257-169.001s-92-281.667-92-507c0-205.333 29.333-363.166 88-473.499s142-165.5 250-165.5c106 0 188.5 56.167 247.5 168.5s88.5 272.833 88.5 481.5c0 443.333-108.333 665-325 665z" glyph-name="zero" horiz-adv-x="1055" unicode="0"/><glyph d="M526 1466V0h-92v1321c-46-44-98.5-82-157.5-114S153 1146.667 83 1122v84c42 14 81 29.833 117 47.5s70.5 37.167 103.5 58.5 65 44.833 96 70.5S462 1436 494 1466h32z" glyph-name="one" horiz-adv-x="730" unicode="1"/><glyph d="M96 0l.002 67.001c0 44.667 3.667 84.834 11 120.501s18.5 68.5 33.5 98.5 33.667 58.167 56 84.5 48.333 52.666 78 78.999 63.334 53.333 101.001 81l123.5 90.5c43.333 31.333 83.833 62.333 121.5 93s70.5 63.667 98.5 99 50.167 74.166 66.5 116.499 24.5 90.833 24.5 145.5c0 94.667-26.167 168.167-78.5 220.5s-125.833 78.5-220.5 78.5c-64 0-125.667-14-185-42s-117.333-67-174-117v108c54.667 42 113.667 75 177 99s129.333 36 198 36c57.333 0 109.333-8.667 156-26s86.5-42 119.5-74 58.5-70.667 76.5-116 27-96 27-152c0-66-9.5-124.5-28.5-175.5s-44.833-97.333-77.5-139-70.834-80-114.501-115-89.834-69.833-138.501-104.5C482.334 510 427.667 469.167 383 433.5S302 363 274 329s-48.167-69-60.5-105S195 146.333 195 99V84h713V0H96z" glyph-name="two" horiz-adv-x="1055" unicode="2"/><glyph d="M115 51l.002 105c109.333-64.667 212.333-97 309-97 115.333 0 205.666 29.5 270.999 88.5s98 136.167 98 231.5c0 106-37.5 186.333-112.5 241s-181.833 82-320.5 82h-110v84h98c128 0 225.5 27.167 292.5 81.5s100.5 131.166 100.5 230.499c0 86-24.333 153.5-73 202.5s-119.667 73.5-213 73.5c-90 0-184.333-31.333-283-94v98c108 53.333 207 80 297 80 113.333 0 203.166-30.667 269.499-92S838 1223.333 838 1122c0-194-93-317.333-279-370v-4c100-10 180-47.167 240-111.5S889 491 889 393c0-125.333-43.333-226.333-130-303S560-25 422-25C315.333-25 213 .333 115 51z" glyph-name="three" horiz-adv-x="1055" unicode="3"/><glyph d="M826 1434V457.999h224v-83H826v-375h-92v375H50v90c64 72.667 129 150.834 195 234.501S374.167 867.667 434.5 953s115.833 169.333 166.5 252 93 159 127 229h98zM156 457.999h578v812c-48.667-84-99.167-165.333-151.5-244l-155-222.5-146.5-192.5z" glyph-name="four" horiz-adv-x="1087" unicode="4"/><glyph d="M160 29l.001 106c92-50.667 183.333-76 274-76 117.333 0 209 32.333 275 97s99 150.667 99 258c0 233.333-133 350-399 350-60 0-128.667-4-206-12l43 682h597v-84h-515l-33-510c68.667 5.333 118 8 148 8 151.333 0 266-37.167 344-111.5s117-177.833 117-310.5c0-134-41.333-242.667-124-326s-200.667-125-354-125C325.334-25 236.667-7 160 29z" glyph-name="five" horiz-adv-x="1055" unicode="5"/><glyph d="M889 1423l-.002-97.998c-68 32.667-138.333 49-211 49-71.333 0-135.333-17.5-192-52.5s-105-84.167-145-147.5-70.667-138.833-92-226.5-32-184.5-32-290.5h4c70 160 189.667 240 359 240 58.667 0 112-11.333 160-34s89.167-54 123.5-94 60.833-86.833 79.5-140.5 28-111.5 28-173.5c0-69.333-10.5-133.333-31.5-192s-50.5-109.334-88.5-152.001-83.167-76-135.5-100-109.833-36-172.5-36c-66 0-125 14.167-177 42.5s-96 70-132 125-63.5 123.333-82.5 205-28.5 175.5-28.5 281.5c0 125.333 12.333 239 37 341s60.834 189.167 108.501 261.5 106 128.166 175 167.499 147.833 59 236.5 59c78.667 0 148.334-11.667 209.001-35zM558.998 813.002c-47.333 0-91.17-9.834-131.504-29.501s-75.166-45.667-104.499-78-52.333-69.166-69-110.499-25-83.333-25-126c0-54.667 7.667-106.834 23-156.501s37-93.167 65-130.5 61.833-67.166 101.5-89.499 83.834-33.5 132.501-33.5c46 0 88.833 9.5 128.5 28.5s73.834 45.333 102.501 79 51.167 73.5 67.5 119.5 24.5 96 24.5 150c0 56-7.167 107.167-21.5 153.5s-35.166 86-62.499 119-60.5 58.667-99.5 77-82.833 27.5-131.5 27.5z" glyph-name="six" horiz-adv-x="1055" unicode="6"/><glyph d="M328 0c20.667 123.333 48.668 242.334 84.001 357.001s76.333 227.167 123 337.5 97.667 219.666 153 327.999l175 327.5h-758v84h882v-34l-189-356.5C739.334 929.167 686.167 815.667 638.5 703S549.333 476.5 514 361.5 451 126 431 0H328z" glyph-name="seven" horiz-adv-x="1055" unicode="7"/><glyph d="M107 400c0 38 5.5 75.499 16.5 112.499s27.667 71.833 50 104.5 50.166 62 83.499 88 72.666 47 117.999 63c-33.333 16-63.666 35.333-90.999 58S233.333 873.833 214 901.5s-34.166 57.667-44.499 90-15.5 65.833-15.5 100.5c0 52.667 9.5 101.334 28.5 146.001s45.167 83.334 78.5 116.001 73 58.167 119 76.5 95.667 27.5 149 27.5c54 0 104-9.333 150-28s85.667-44.334 119-77.001 59.333-71.334 78-116.001 28-93 28-145c0-35.333-5.167-69-15.5-101s-24.833-62-43.5-90-41.334-53.167-68.001-75.5-56.334-41.5-89.001-57.5c44-16 82.333-37 115-63s60-55.333 82-88 38.333-67.5 49-104.5 16-74.5 16-112.5c0-66.667-10.333-126.167-31-178.5s-49.5-96.666-86.5-132.999-81.333-64-133-83-108.834-28.5-171.501-28.5c-61.333 0-117.666 9.5-168.999 28.5s-95.666 46.5-132.999 82.5-66.5 80.167-87.5 132.5S107 332.667 107 400zm95-10.001c0-50 7.997-95.333 23.997-136s38.167-75.5 66.5-104.5 62.333-51.333 102-67 83.5-23.5 131.5-23.5c47.333 0 91 7.833 131 23.5s74.5 38 103.5 67 51.5 63.833 67.5 104.5 24 86 24 136c0 44.667-7.667 87-23 127s-37.166 75-65.499 105-62.666 53.833-102.999 71.5-85.166 26.5-134.499 26.5c-46 0-88.833-8.167-128.5-24.5s-74-39-103-68-51.667-63.833-68-104.5-24.5-85-24.5-133zM251.997 1089c0-40 7.166-77.169 21.499-111.502s34-64.166 59-89.499 54.333-45.333 88-60 69.5-22 107.5-22 74 7.333 108 22 63.5 34.834 88.5 60.501 44.833 55.667 59.5 90 22 71.166 22 110.499c0 40.667-7.167 78.334-21.5 113.001s-34 64.834-59 90.501-54.333 45.667-88 60-70.167 21.5-109.5 21.5c-41.333 0-78.833-7.5-112.5-22.5s-62.667-35.333-87-61-43.166-55.834-56.499-90.501-20-71.667-20-111z" glyph-name="eight" horiz-adv-x="1055" unicode="8"/><glyph d="M178 12l-.001 100.999c76.667-36 147-54 211-54 151.333 0 266.666 60.5 345.999 181.5s119 299.5 119 535.5h-4c-66-154-183.333-231-352-231-59.333 0-113.166 11-161.499 33s-90 52.5-125 91.5-62 85.333-81 139-28.5 112.5-28.5 176.5c0 70.667 10.833 135 32.5 193s51.834 107.667 90.501 149 84.5 73.5 137.5 96.5 110.5 34.5 172.5 34.5c63.333 0 120.666-13.5 171.999-40.5s95-67.667 131-122 63.667-122 83-203 29-175.5 29-283.5c0-133.333-12.167-251.666-36.5-354.999S853.333 263.5 806 192.5s-106-125-176-162S479-25 387-25c-71.333 0-141 12.333-209 37zm343.999 1362c-46.667 0-89.833-9.337-129.5-28.004s-73.834-44.5-102.501-77.5-51-72.167-67-117.5-24-94.333-24-147c0-58 7.833-110.167 23.5-156.5s37.5-85.666 65.5-117.999 61.667-57.166 101-74.499 83-26 131-26c44 0 85.667 8.833 125 26.5s73.5 41.334 102.5 71.001 52 64.334 69 104.001 25.5 81.5 25.5 125.5c0 60.667-7.833 116.667-23.5 168s-37.667 95.5-66 132.5-62.166 65.833-101.499 86.5-82.333 31-129 31z" glyph-name="nine" horiz-adv-x="1055" unicode="9"/><glyph d="M227 881c-22.667 0-41.667 8-57 24s-23 35.333-23 58 7.667 41.5 23 56.5 34.333 22.5 57 22.5 42-7.5 58-22.5 24-33.833 24-56.5-8-42-24-58-35.333-24-58-24zm0-899c-22.667 0-41.667 7.833-57 23.5s-23 34.834-23 57.501c0 23.333 7.667 42.5 23 57.5s34.333 22.5 57 22.5 42-7.5 58-22.5 24-34.167 24-57.5c0-22.667-8-41.834-24-57.501S249.667-18 227-18z" glyph-name="colon" horiz-adv-x="455" unicode=":"/><glyph d="M236 881c-23.333 0-42.5 8-57.5 24S156 940.333 156 963s7.5 41.5 22.5 56.5 34.167 22.5 57.5 22.5c22.667 0 41.834-7.5 57.501-22.5s23.5-33.833 23.5-56.5-7.833-42-23.5-58-34.834-24-57.501-24zM125-248H47l150 475h102z" glyph-name="semicolon" horiz-adv-x="455" unicode=";"/><glyph d="M250 580v18l833 467v-94L406 592v-4l677-334v-96z" glyph-name="less" horiz-adv-x="1331" unicode="&lt;"/><glyph d="M213 750v84h907v-84H213zm0-388v84h907v-84H213z" glyph-name="equal" horiz-adv-x="1331" unicode="="/><glyph d="M250 158v96l678 334v4L250 971v94l833-467v-18z" glyph-name="greater" horiz-adv-x="1331" unicode="&gt;"/><glyph d="M377 398c-6.667 16.667-12.498 38.5-17.498 65.5s-7.5 53.833-7.5 80.5c0 31.333 4.167 59.833 12.5 85.5s20 49.834 35 72.501 33 44.667 54 66 44.167 43 69.5 65c21.333 19.333 42.333 39.5 63 60.5s39 43.5 55 67.5 28.833 50.167 38.5 78.5 14.5 59.5 14.5 93.5c0 36.667-6.167 69.5-18.5 98.5s-29.5 53.667-51.5 74-48.5 35.833-79.5 46.5-65.167 16-102.5 16c-62.667 0-120.5-11-173.5-33s-102.833-52-149.5-90v107c47.333 36 97.166 62.667 149.499 80s110.5 26 174.5 26c49.333 0 95.166-7 137.499-21s79-34.5 110-61.5 55.333-60 73-99 26.5-83.5 26.5-133.5c0-38-5.333-72.667-16-104s-24.5-60.333-41.5-87-36.5-51.667-58.5-75l-67-68c-35.333-33.333-64.166-61.5-86.499-84.5s-39.833-43.833-52.5-62.5-21.5-36.834-26.5-54.501-7.5-38.5-7.5-62.5c0-30.667 2.667-58.5 8-83.5S452.667 415.333 458 398h-81zm35.002-416c-22.667 0-41.5 7.833-56.5 23.5s-22.5 34.834-22.5 57.501c0 23.333 7.5 42.5 22.5 57.5s33.833 22.5 56.5 22.5c23.333 0 42.833-7.5 58.5-22.5s23.5-34.167 23.5-57.5c0-22.667-7.833-41.834-23.5-57.501S435.335-18 412.002-18z" glyph-name="question" horiz-adv-x="881" unicode="?"/><glyph d="M1153 426l-4.001-.002c-60-158.667-157.667-238-293-238-93.333 0-167.166 33.5-221.499 100.5s-81.5 156.5-81.5 268.5c0 151.333 38 277.5 114 378.5s176 151.5 300 151.5c52 0 97.667-13.333 137-40s65.333-57.667 78-93h4c2.667 40.667 6 80.334 10 119.001h88l-51-584c0-144.667 51-217 153-217 82.667 0 150.834 41.667 204.501 125s80.5 190.666 80.5 321.999c0 199.333-60.333 358.333-181 477s-289.667 178-507 178c-212 0-384.833-72.667-518.5-218s-200.5-325.333-200.5-540c0-218 63.667-392.5 191-523.5s300.666-196.5 519.999-196.5c166 0 308 29.333 426 88v-93c-130.667-52.667-276-79-436-79-240.667 0-433.667 74.333-579 223S168 377.332 168 615.999c0 239.333 78.5 439.5 235.5 600.5s353.5 241.5 589.5 241.5c234 0 421.5-68.667 562.5-206S1767 940.333 1767 729c0-158-35.833-287.667-107.5-389S1498.333 188 1391 188c-148 0-227.333 79.333-238 238zm-190.001 578c-96 0-172.334-40-229.001-120s-85-186.333-85-319c0-90 19.167-161.333 57.5-214s91.5-79 159.5-79c90.667 0 162.834 46.333 216.501 139s80.5 211 80.5 355c0 78-17.833 137.167-53.5 177.5s-84.5 60.5-146.5 60.5z" glyph-name="at" horiz-adv-x="1933" unicode="@"/><glyph d="M1118 0L954 446H332L168 0H59l541 1434h94L1229 0h-111zM678 1200c-7.333 20-13.333 39.666-18 58.999A1424.032 1424.032 0 0 1 645 1309h-4c-11.333-44-22.333-79.667-33-107L367 537h553z" glyph-name="A" horiz-adv-x="1288" unicode="A"/><glyph d="M184 0l-.001 1434h377c112.667 0 202.334-30.333 269.001-91s100-141 100-241c0-83.333-22.167-155.5-66.5-216.5S757.334 781.333 678.001 756v-4c99.333-9.333 177.666-44.833 234.999-106.5s86-140.167 86-235.5c0-120.667-39-219.167-117-295.5S699.667 0 569 0H184zm98.999 1343V788.001h200c104 0 187.333 26.667 250 80s94 125.666 94 216.999c0 172-101.667 258-305 258h-239zm0-644.999l-.001-608h266c112.667 0 198.834 27 258.501 81s89.5 130.667 89.5 230c0 198-134.333 297-403 297h-211z" glyph-name="B" horiz-adv-x="1114" unicode="B"/><glyph d="M1137 47C1021-1 900-25 774-25c-196 0-355.833 65.833-479.5 197.5S109 476 109 688c0 232.667 67 419.167 201 559.5S614.333 1458 821 1458c110 0 215.333-17.667 316-53v-105c-100.667 45.333-206.667 68-318 68-180 0-326.333-61-439-183S211 900.667 211 698c0-195.333 53.833-349.5 161.5-462.5S616.667 66 782 66c132 0 250.333 25.667 355 77V47z" glyph-name="C" horiz-adv-x="1272" unicode="C"/><glyph d="M184 0v1434h359c238 0 419-59.333 543-178s186-291.667 186-519c0-218.667-66.5-396.167-199.5-532.5S756 0 522 0H184zm99 1343V90h225c212.667 0 376 55.167 490 165.5S1169 525 1169 733c0 406.667-213.667 610-641 610H283z" glyph-name="D" horiz-adv-x="1380" unicode="D"/><glyph d="M184 0v1434h670v-91H283V768h530v-90H283V90h604V0H184z" glyph-name="E" horiz-adv-x="1024" unicode="E"/><glyph d="M283 1343V758h530v-90H283V0h-99v1434h670v-91H283z" glyph-name="F" horiz-adv-x="952" unicode="F"/><glyph d="M1221 100C1073 16.667 920.669-25.001 764.002-25.001c-195.333 0-353.333 66.333-474 199s-181 306.667-181 522c0 217.333 65 398.666 195 543.999s303.667 218 521 218c126 0 248.333-25.333 367-76v-108c-130 62.667-257 94-381 94-180.667 0-325.834-61.667-435.501-185s-164.5-280.666-164.5-471.999c0-201.333 51.5-359.166 154.5-473.499S607.334 66 782.001 66c129.333 0 242.666 28 339.999 84v473H784v90h437V100z" glyph-name="G" horiz-adv-x="1368" unicode="G"/><glyph d="M1104 0v688H283V0h-99v1434h99V778h821v656h98V0h-98z" glyph-name="H" horiz-adv-x="1386" unicode="H"/><glyph d="M283 1434V0h-99v1434h99z" glyph-name="I" horiz-adv-x="467" unicode="I"/><glyph d="M487 494c0-346-120.001-519-360.001-519C89.666-25 53.333-20 18-10v96c39.333-13.333 76.333-20 111-20 92 0 158.333 34.833 199 104.5s61 178.167 61 325.5v938h98V494z" glyph-name="J" horiz-adv-x="664" unicode="J"/><glyph d="M922 0L311 686c-11.333 12.667-19.333 23.667-24 33h-4V0h-99v1434h99V758h4c8 14 16.667 25.667 26 35l580 641h129L393 739 1061 0H922z" glyph-name="K" horiz-adv-x="1079" unicode="K"/><glyph d="M184 0v1434h99V90h575V0H184z" glyph-name="L" horiz-adv-x="938" unicode="L"/><glyph d="M1427 0l.001 1018c0 24.667 3.667 95 11 211h-4c-20.667-54-38-95.667-52-125l-510-1104h-32l-512 1098c-16.667 35.333-32.334 80.333-47.001 135h-5c4.667-64 7-127.667 7-191V0h-99v1434h92L811 279c3.333-6.667 7-15.667 11-27s8.333-22.666 13-33.999c6.667-17.333 13.667-36.666 21-57.999h6l11 32c.667 2.667 12 34.334 34 95.001l527 1147h88V.003h-95z" glyph-name="M" horiz-adv-x="1706" unicode="M"/><glyph d="M1198 0L343.999 1159c-17.333 23.333-32.666 46.666-45.999 69.999l-13 20h-4c1.333-17.333 2-38.333 2-63v-1186h-99v1434h76l848-1149c18.667-25.333 39-56 61-92h5c-3.333 46.667-5 86.667-5 120v1121h99v-1434h-70z" glyph-name="N" horiz-adv-x="1452" unicode="N"/><glyph d="M774-25c-202.667 0-364.167 67.332-484.5 201.999S109 486.666 109 701.999c0 228.667 61.833 411.834 185.5 549.501S587 1458 801 1458c193.333 0 349.833-66.167 469.5-198.5S1450 953.667 1450 739c0-237.333-61.333-424-184-560S979.333-25 774-25zm10 1393c-166.667 0-303.832-60.335-411.499-181.002s-161.5-278.667-161.5-474c0-197.333 51-354.5 153-471.5s238-175.5 408-175.5c177.333 0 317.666 57.833 420.999 173.5s155 276.834 155 483.501c0 202.667-50.5 360.834-151.5 474.501S958 1368 784 1368z" glyph-name="O" horiz-adv-x="1559" unicode="O"/><glyph d="M283 575V-.001h-99v1434h346c147.333 0 260-34.167 338-102.5S985 1163.333 985 1032c0-133.333-43.5-242.833-130.5-328.5S645.667 575 489 575H283zm0 768l.001-677.001h204c129.333 0 227.666 30.833 294.999 92.5S883 907.333 883 1020c0 215.333-123.667 323-371 323H283z" glyph-name="P" horiz-adv-x="1114" unicode="P"/><glyph d="M774-25c-202.667 0-364.167 67.333-484.5 202S109 486.667 109 702c0 228.667 61.833 411.834 185.5 549.501s292.5 206.5 506.5 206.5c193.333 0 349.833-66.167 469.5-198.5s179.5-305.833 179.5-520.5c0-237.333-61.333-424-184-560-38-42.667-80.333-78.334-127-107.001l348-265h-167L1049 25C967.667-8.333 876-25 774-25zm10 1393c-166.667 0-303.832-60.335-411.499-181.002s-161.5-278.667-161.5-474c0-197.333 51-354.5 153-471.5s238-175.5 408-175.5c177.333 0 317.666 57.833 420.999 173.5s155 276.834 155 483.501c0 202.667-50.5 360.834-151.5 474.501S958 1368 784 1368z" glyph-name="Q" horiz-adv-x="1544" unicode="Q"/><glyph d="M918 0L726.998 419.998c-39.333 86.667-78.666 144.834-117.999 174.501s-88.666 44.5-147.999 44.5H283v-639h-99v1434h398c126.667 0 226.167-34.167 298.5-102.5s108.5-158.5 108.5-270.5c0-103.333-29.667-189.666-89-258.999S757.667 688 651 668v-4c56.667-22.667 112-91.667 166-207L1030 0H918zM282.998 1343l.001-614h247c109.333 0 196.166 28.667 260.499 86s96.5 136 96.5 236c0 91.333-29 162.833-87 214.5s-141 77.5-249 77.5h-268z" glyph-name="R" horiz-adv-x="1137" unicode="R"/><glyph d="M139 51l-.001 113c102.667-65.333 206.667-98 312-98 112 0 197 23.167 255 69.5s87 111.166 87 194.499c0 73.333-19.5 131.833-58.5 175.5s-123.5 103.167-253.5 178.5c-145.333 84.667-237.333 155.5-276 212.5s-58 122.833-58 197.5c0 101.333 39.333 187.333 118 258s183.667 106 315 106c85.333 0 170.666-14.333 255.999-43v-104c-84 38-173.667 57-269 57-97.333 0-174.5-24.667-231.5-74s-85.5-112-85.5-188c0-73.333 19.5-131.666 58.5-174.999s123.167-102.333 252.5-177c134-76 223.167-143.5 267.5-202.5s66.5-126.833 66.5-203.5c0-110-38.167-199.667-114.5-269S596.332-25 456.999-25C407.666-25 350.833-17.333 286.5-2S173 31 139 51z" glyph-name="S" horiz-adv-x="1018" unicode="S"/><glyph d="M573 1343V0h-98v1343H61v91h926v-91H573z" glyph-name="T" horiz-adv-x="1047" unicode="T"/><glyph d="M1161 573c0-398.667-170-598-510-598-323.333 0-485 192-485 576v883h98V565c0-332.667 135.333-499 406-499 262 0 393 161.667 393 485v883h98V573z" glyph-name="U" horiz-adv-x="1327" unicode="U"/><glyph d="M639 0h-74L41 1434h111L567 279c17.333-48 29.666-93.333 36.999-136h4c6.667 34 20.334 80 41.001 138l441 1153h106z" glyph-name="V" horiz-adv-x="1237" unicode="V"/><glyph d="M1362 0l-81.998-.002-319 1079c-16 55.333-25 100.333-27 135h-4c-2-29.333-12.333-73.666-31-132.999l-340-1081h-82l-426 1434h111l327-1149c14.667-52 25-94.333 31-127h4c4 24.667 15.667 67 35 127l354 1149h50l325-1149c15.333-53.333 25.666-95.666 30.999-126.999h4c3.333 18.667 8.666 40 15.999 64l336 1212h107z" glyph-name="W" horiz-adv-x="1833" unicode="W"/><glyph d="M961 0L631.001 547c-20.667 34-38.334 67.333-53.001 100h-5c-18-36.667-37-70-57-100L180 0H61l453 723-426 711h119l321-539c16.667-28 34-60 52-96h4l53 96 319 539h115L641 725 1081 0H961z" glyph-name="X" horiz-adv-x="1153" unicode="X"/><glyph d="M598 545l.001-545.001h-98v543l-439 891h111l334-691c12-24 27-59.333 45-106h4C564.334 661.666 580.667 696.333 604 741l350 693h107z" glyph-name="Y" horiz-adv-x="1106" unicode="Y"/><glyph d="M215 90h858V0H66v31l868 1312H135v91h952v-27z" glyph-name="Z" horiz-adv-x="1167" unicode="Z"/><glyph d="M209-326v1760h317v-84H301V-242h225v-84H209z" glyph-name="bracketleft" horiz-adv-x="578" unicode="["/><glyph d="M668-238L-29 1434h97L760-238h-92z" glyph-name="backslash" horiz-adv-x="750" unicode="\"/><glyph d="M51-326v84h225v1592H51v84h318V-326H51z" glyph-name="bracketright" horiz-adv-x="578" unicode="]"/><glyph d="M975 702l-307 613h-4L356 702h-96l385 756h41l385-756h-96z" glyph-name="asciicircum" horiz-adv-x="1331" unicode="^"/><glyph d="M0-268v90h850v-90H0z" glyph-name="underscore" horiz-adv-x="850" unicode="_"/><glyph d="M324 1188L76 1516h104l234-328h-90z" glyph-name="grave" horiz-adv-x="508" unicode="`"/><glyph d="M776 0l.001 205h-4c-32.667-70-80.167-125.833-142.5-167.5S498.001-25 422.001-25c-97.333 0-174.333 27.333-231 82s-85 123.667-85 207c0 178.667 118.333 286.667 355 324l315 47c0 220-82.667 330-248 330C415.334 965 305.667 919.667 199 829v111c38 30 89.5 55.667 154.5 77s126.167 32 183.5 32c105.333 0 186.833-32.667 244.5-98S868 790.667 868 666V0h-92zM494.001 510c-107.333-15.333-182.667-40.168-226-74.501s-65-90.166-65-167.499c0-60.667 20.167-110.667 60.5-150s96.5-59 168.5-59c98.667 0 180.667 36.5 246 109.5s98 167.167 98 282.5v100z" glyph-name="a" horiz-adv-x="1012" unicode="a"/><glyph d="M260 182h-4.001V0h-92v1516h92V813h4c36.667 75.333 89.167 133.5 157.5 174.5s143.5 61.5 225.5 61.5c130 0 231.5-44.833 304.5-134.5s109.5-211.5 109.5-365.5c0-171.333-42.333-309.833-127-415.5S735.332-25 599.999-25C446.666-25 333.333 44 260 182zm-4.001 381l-.001-128.999c0-102.667 32.333-190.834 97-264.501S502.665 59 607.998 59c104.667 0 189.667 44.833 255 134.5s98 207.5 98 353.5c0 128-30 229.667-90 305s-140 113-240 113c-119.333 0-211.666-40-276.999-120s-98-174-98-282z" glyph-name="b" horiz-adv-x="1147" unicode="b"/><glyph d="M827 45C751-1.667 660.331-25.002 554.998-25.002c-139.333 0-251.666 47.833-336.999 143.5s-128 220.834-128 375.501c0 162.667 48 295.834 144 399.501s219.333 155.5 370 155.5c78 0 153.667-16 227-48V897C757.666 942.333 677.333 965 590 965c-120 0-217.333-43.167-292-129.5S186 637.334 186 500.001C186 367.334 220.167 260.667 288.5 180S447 59 559 59c102.667 0 192 27.333 268 82V45z" glyph-name="c" horiz-adv-x="909" unicode="c"/><glyph d="M891 0v186.001h-4c-33.333-64.667-82.666-116-147.999-154s-139-57-221-57c-126 0-228.833 46-308.5 138s-119.5 219-119.5 381c0 165.333 43.5 299.166 130.5 401.499s199.833 153.5 338.5 153.5c153.333 0 262.666-63 327.999-189h4v656h92V0h-92zm0 623.001c0 95.333-30.167 176.167-90.5 242.5s-141.5 99.5-243.5 99.5c-107.333 0-196-41.167-266-123.5s-105-195.5-105-339.5c0-141.333 31.5-250.5 94.5-327.5s144.167-115.5 243.5-115.5c116.667 0 207 36.167 271 108.5s96 160.5 96 264.5v191z" glyph-name="d" horiz-adv-x="1147" unicode="d"/><glyph d="M186 508c0-140.667 32.5-250.667 97.5-330S437.667 59 551 59c114.667 0 226.667 42.333 336 127V88C781 12.667 662.667-25 532-25c-132 0-238.667 47.333-320 142S90 345.334 90 518.001c0 149.333 42.5 275.166 127.5 377.499S413 1049 549 1049c127.333 0 225-44.667 293-134s102-211.333 102-366v-41H186zm662 84c-4 118-32.332 209.667-84.999 275S637.667 965 545 965c-96 0-175.5-32.167-238.5-96.5S204.667 712 190 592h658z" glyph-name="e" horiz-adv-x="1034" unicode="e"/><glyph d="M612 1419c-24.667 19.333-61.999 29-111.999 29-126 0-189-84.667-189-254v-170h271v-84h-271V0h-92v940h-184v84h184v178c0 108 27.167 190 81.5 246s122.166 84 203.499 84c43.333 0 79.333-6.333 108-19v-94z" glyph-name="f" horiz-adv-x="565" unicode="f"/><glyph d="M983 76c0-192.667-41.999-333.665-125.999-422.998s-214.667-134-392-134c-98.667 0-200.334 26-305.001 78v96c108-60 210.333-90 307-90 282.667 0 424 149.333 424 448v133h-4c-80.667-139.333-203.667-209-369-209-126 0-228.833 45.667-308.5 137S90 330.668 90 494.001 133 790.667 219 894s199.333 155 340 155c150.667 0 260-62.333 328-187h4v162h92V76zm-91.999 555.002c0 90.667-30.499 169.001-91.499 235.001s-140.5 99-238.5 99c-112.667 0-203.334-42.333-272.001-127s-103-196.667-103-336c0-140 31.5-248.833 94.5-326.5s146.167-116.5 249.5-116.5c110 0 197.667 35.667 263 107s98 158.666 98 261.999v203z" glyph-name="g" horiz-adv-x="1147" unicode="g"/><glyph d="M860 0v614c0 121.333-22 210.166-66 266.499s-112.667 84.5-206 84.5c-88 0-165.333-34.333-232-103s-100-167-100-295v-567h-92v1516h92v-676h4c80.667 139.333 198 209 352 209 110.667 0 195-35.667 253-107S952 768.333 952 635V0h-92z" glyph-name="h" unicode="h"/><glyph d="M209 1282c-20 0-37.669 7.331-53.002 21.998s-23 33.334-23 56.001c0 22 7.833 39.833 23.5 53.5s33.167 20.5 52.5 20.5c20.667 0 38.834-6.667 54.501-20s23.5-31.333 23.5-54c0-21.333-7.667-39.666-23-54.999s-33.666-23-54.999-23zM163.998-.002v1024h92v-1024h-92z" glyph-name="i" horiz-adv-x="420" unicode="i"/><glyph d="M209 1282c-20 0-37.669 7.331-53.002 21.998s-23 33.334-23 56.001c0 22 7.833 39.833 23.5 53.5s33.167 20.5 52.5 20.5c20.667 0 38.834-6.667 54.501-20s23.5-31.333 23.5-54c0-21.333-7.667-39.666-23-54.999s-33.666-23-54.999-23zM255.998 28.998c0-340-120.667-510-362-510-48 0-96.667 11.667-146 35v96c53.333-31.333 105.333-47 156-47 173.333 0 260 136.333 260 409v1012h92v-995z" glyph-name="j" horiz-adv-x="420" unicode="j"/><glyph d="M750 0L260 506h-4V0h-92v1516h92V539h4l465 485h119L358 528 883 0H750z" glyph-name="k" horiz-adv-x="909" unicode="k"/><glyph d="M164 0v1516h92V0h-92z" glyph-name="l" horiz-adv-x="420" unicode="l"/><glyph d="M1448 0v616.001c0 128.667-20.167 219-60.5 271s-104.166 78-191.499 78c-80.667 0-150.334-34.667-209.001-104s-88-156.333-88-261v-600h-92v623c0 228-86.667 342-260 342-83.333 0-152.666-34.833-207.999-104.5s-83-159.834-83-270.501V0h-92v1024h92V854h4C331.334 984 435.667 1049 573 1049c74.667 0 138.5-21.5 191.5-64.5S853.333 885 872 815c32 74 77.833 131.5 137.5 172.5S1134 1049 1204 1049c224 0 336-138.667 336-416V0h-92z" glyph-name="m" horiz-adv-x="1683" unicode="m"/><glyph d="M860 0l-.002 596.001c0 246-88.667 369-266 369-98.667 0-179.667-36.167-243-108.5s-95-161.833-95-268.5v-588h-92v1024h92v-186h4c74.667 140.667 191.334 211 350.001 211 110.667 0 195.334-36.833 254.001-110.5S952 759.667 952 623V0h-92z" glyph-name="n" unicode="n"/><glyph d="M575-25c-149.333 0-267.5 49.168-354.5 147.501S90 348.667 90 506c0 170 45.5 303 136.5 399s210.833 144 359.5 144c146 0 261.333-47.667 346-143s127-227.333 127-396c0-159.333-43.167-288.333-129.5-387S725-25 575-25zm7 990.001c-120.667 0-216.834-40.667-288.501-122s-107.5-194.333-107.5-339c0-134 35-241.667 105-323s165.667-122 287-122c123.333 0 218.333 40 285 120s100 191 100 333c0 146-33.167 258-99.5 336s-160.166 117-281.499 117z" glyph-name="o" horiz-adv-x="1149" unicode="o"/><glyph d="M260 182h-4.001v-653h-92v1495h92V813h4c36.667 75.333 89.167 133.5 157.5 174.5s143.5 61.5 225.5 61.5c130 0 231.5-44.833 304.5-134.5s109.5-211.5 109.5-365.5c0-171.333-41.833-309.833-125.5-415.5S737.332-25 599.999-25C446.666-25 333.333 44 260 182zm-4.001 381l-.001-128.999c0-102.667 32.333-190.834 97-264.501S502.665 59 607.998 59c104.667 0 189.667 44.833 255 134.5s98 207.5 98 353.5c0 128-30 229.667-90 305s-140 113-240 113c-119.333 0-211.666-40-276.999-120s-98-174-98-282z" glyph-name="p" horiz-adv-x="1147" unicode="p"/><glyph d="M891-471l-.002 659h-4c-76-142-199.667-213-371-213-128 0-231 47-309 141s-117 220.667-117 380c0 170 44.333 304.667 133 404s201.334 149 338.001 149c152.667 0 261.334-63.667 326.001-191h4v166h92V-471h-92zm-.002 1085c0 102-29.666 186-88.999 252S660.333 965 555 965c-106 0-194-40.833-264-122.5S186 646.666 186 499.999c0-137.333 31.167-245.166 93.5-323.499S422.666 59 521.999 59c119.333 0 210.666 36.667 273.999 110s95 163 95 269v176z" glyph-name="q" horiz-adv-x="1147" unicode="q"/><glyph d="M647 928c-30.667 22-66.667 32.999-108 32.999-80.667 0-148.334-41.667-203.001-125s-82-201.666-82-354.999V0h-90v1024h90V797h4c23.333 78 60.333 138.667 111 182s109.334 65 176.001 65c38 0 72-6 102-18v-98z" glyph-name="r" horiz-adv-x="676" unicode="r"/><glyph d="M111 45l-.002 110.999c34.667-30 76.667-53.667 126-71s92-26 128-26c160.667 0 241 65.667 241 197 0 45.333-17.667 84-53 116s-92.666 65-171.999 99c-98 42.667-166.833 86.834-206.5 132.501s-59.5 101.167-59.5 166.5c0 83.333 31.833 150.666 95.5 201.999s142.167 77 235.5 77c88 0 163.333-18 226-54v-104c-76 49.333-154.667 74-236 74-67.333 0-121.666-17.5-162.999-52.5s-62-80.5-62-136.5c0-48.667 13-88.167 39-118.5S333.333 592.333 422 553c106.667-48 180-92.5 220-133.5S702 324 702 256c0-81.333-30.5-148.5-91.5-201.5S465.333-25 358-25c-98.667 0-181 23.333-247 70z" glyph-name="s" horiz-adv-x="795" unicode="s"/><glyph d="M569 14c-48-22.667-92.999-33.999-134.999-33.999-151.333 0-227 90.667-227 272v688h-184v84h184v266l46 16c16 4.667 31.333 9.667 46 15v-297h270v-84h-270v-676c0-70.667 11.167-121.834 33.5-153.501S392.667 63 446 63c38 0 79 12.333 123 37V14z" glyph-name="t" horiz-adv-x="608" unicode="t"/><glyph d="M840 0v186.001h-4c-71.333-140.667-181.333-211-330-211-242 0-363 152.333-363 457v592h93v-569c0-138.667 22.833-239.334 68.5-302.001S422 59 520 59c95.333 0 172.5 35 231.5 105S840 327.333 840 444v580h92V0h-92z" glyph-name="u" unicode="u"/><glyph d="M500 0h-84.001l-396 1024h103l305-815c14.667-39.333 25-75 31-107h4c8.667 42 18.334 76.333 29.001 103l315 819h100z" glyph-name="v" horiz-adv-x="928" unicode="v"/><glyph d="M1032 0h-85.999l-223 772c-6 21.333-11.333 50-16 86h-5c-1.333-15.333-8-43.333-20-84l-250-774h-86l-309 1024h102l238-817c6-21.333 10.667-50 14-86h8c1.333 19.333 7.666 48 18.999 86l260 817h63l232-817c5.333-19.333 10-48 14-86h8c0 19.333 5.667 48 17 86l243 817h95z" glyph-name="w" horiz-adv-x="1386" unicode="w"/><glyph d="M481 502L815.001-.001h-117l-270 432h-4l-36-57c-4.667-8-10.334-17-17.001-27l-226-348H33l342 500-336 524h108l228-367c29.333-47.333 47-76.666 53-87.999h4l51 84 238 371h108z" glyph-name="x" horiz-adv-x="862" unicode="x"/><glyph d="M414-209c-37.333-92-78.669-160.333-124.002-205s-103.666-67-174.999-67c-30 0-56.667 4.667-80 14v92c24-9.333 52-14 84-14 82 0 146.667 56.667 194 170l95 227-388 1016h103l309-834c6.667-18 11.334-31.667 14.001-41 2.667-12.667 5.667-24 9-34h4l24 69 330 840h100z" glyph-name="y" horiz-adv-x="928" unicode="y"/><glyph d="M207 84h661V0H57v35l680 905H106v84h787v-25z" glyph-name="z" horiz-adv-x="950" unicode="z"/><glyph d="M506-326c-84.667 3.333-148.5 27.336-191.5 72.003S250-136.33 250-34.997v297c0 158-52 244.667-156 260v64c104 14.667 156 95.667 156 243v314c0 101.333 21.5 174.333 64.5 219s106.833 68.667 191.5 72v-84c-58.667-3.333-100-22.333-124-57s-36-94.334-36-179.001v-293c0-148-48.333-236.667-145-266v-4C297.667 520.335 346 426.668 346 270V-6c0-84.667 12-144.334 36-179.001s65.333-53.667 124-57v-84z" glyph-name="braceleft" horiz-adv-x="578" unicode="{"/><glyph d="M184-481v2048h95V-481h-95z" glyph-name="bar" horiz-adv-x="463" unicode="|"/><glyph d="M483 522c-103.333-15.333-155-102.003-155-260.003v-297c0-102-21.5-175.167-64.5-219.5S156.667-322.669 72-326.002v84c54.667 3.333 94.834 21 120.501 53s38.5 93 38.5 183v276c0 156.667 48.667 250.334 146 281.001v4c-97.333 30-146 118.667-146 266v293c0 90-12.833 151-38.5 183s-65.834 49.667-120.501 53v84c84.667-3.333 148.5-27.166 191.5-71.499S328 1245 328 1143V829c0-147.333 51.667-228.333 155-243v-64z" glyph-name="braceright" horiz-adv-x="578" unicode="}"/><glyph d="M1087 711c-4.667-76-27.5-135.332-68.5-177.999s-95.833-64-164.5-64c-63.333 0-130.333 28-201 84-70 56-128.667 84-176 84-94 0-145-52.667-153-158h-78c4 75.333 26.667 134.5 68 177.5s96.333 64.5 165 64.5c63.333 0 128.333-26.667 195-80 46.667-36.667 81.667-60.834 105-72.501s49.666-17.5 78.999-17.5c88.667 0 139.334 53.333 152.001 160h77z" glyph-name="asciitilde" horiz-adv-x="1331" unicode="~"/><glyph glyph-name="uni00A0" horiz-adv-x="561"/><glyph d="M293 881c-22.667 0-42 7.5-58 22.5s-24 34.167-24 57.5c0 22.667 8 41.834 24 57.501s35.333 23.5 58 23.5 41.667-7.833 57-23.5 23-34.834 23-57.501c0-23.333-7.667-42.5-23-57.5S315.667 881 293 881zM242-408l10 1031h86l10-1031H242z" glyph-name="exclamdown" horiz-adv-x="582" unicode="¡"/><glyph d="M903 209c-60.667-37.333-134.334-60-221.001-68V-57h-92v198c-129.333 11.333-232.333 63.833-309 157.5s-115 213.167-115 358.5c0 143.333 38.167 265.166 114.5 365.499s179.5 161.5 309.5 183.5v199h92v-193c78.667 0 153.667-15.667 225-47v-104c-69.333 42-144.333 64.333-225 67v-903C768.666 231.666 842.333 258.333 903 305v-96zm-313 913c-102-19.333-182.167-70.5-240.5-153.5S262 784 262 664c0-122 29-222.167 87-300.5S487.333 239 590 225v897z" glyph-name="cent" horiz-adv-x="1055" unicode="¢"/><glyph d="M80 0v86c165.333 68.667 248 190.334 248 365.001v211H100v90h228v290c0 125.333 33 226 99 302s153.667 114 263 114c64 0 124.667-11.667 182-35v-94c-60 30-122 45-186 45-83.333 0-148.5-29.333-195.5-88s-70.5-144-70.5-256v-278h307v-90H420v-177C420 288.334 349 154.667 207 84h741V0H80z" glyph-name="sterling" horiz-adv-x="1055" unicode="£"/><glyph d="M946 293L811 428c-70-57.333-150.667-86-242-86-93.333 0-173.666 28.667-240.999 86l-135-135-60 61 137 131c-56 77.333-84 157.333-84 240 0 93.333 28 173.333 84 240l-137 133 60 61 135-135c75.333 56 155.666 84 240.999 84 91.333 0 171.333-28 240-84l137 135 60-61-138-133c56-67.333 84-147.333 84-240 0-88-28-168-84-240l138-131zm-375 731c-85.333 0-156.833-29.332-214.5-87.999S270 807.667 270 727s29.833-151 89.5-211S489 426 569 426c81.333 0 151.5 29.667 210.5 89S868 645 868 727c0 84-30 154.5-90 211.5S649 1024 571 1024z" glyph-name="currency" horiz-adv-x="1139" unicode="¤"/><glyph d="M602 745h344v-83H573V416h373v-84H573V0h-92v332H109v84h372v246H109v83h342L74 1434h102l307-572c24.667-45.333 40.334-77.333 47.001-96h5c13.333 44 27.666 77.333 42.999 100l311 568h96z" glyph-name="yen" horiz-adv-x="1055" unicode="¥"/><glyph d="M184 715v852h95V715h-95zm0-1196v852h95v-852h-95z" glyph-name="brokenbar" horiz-adv-x="463" unicode="¦"/><glyph d="M618 403c63.333-47.333 94.997-113.999 94.997-199.999 0-76-29.667-139.833-89-191.5s-136.333-77.5-231-77.5c-71.333 0-143.666 16.667-216.999 50v98c78.667-42.667 151.667-64 219-64 72.667 0 127.667 16.833 165 50.5s56 77.834 56 132.501c0 36-10.167 70-30.5 102s-67.166 65.667-140.499 101c-118 56-194 109.5-228 160.5s-51 108.5-51 172.5c0 114.667 54 200 162 256-82 55.333-123 128.333-123 219 0 83.333 27.333 150.666 82 201.999s130.334 77 227.001 77c73.333 0 138.333-12.333 195-37v-96c-57.333 32.667-123 49-197 49-140.667 0-211-62.667-211-188 0-53.333 18.5-97.333 55.5-132S464.333 1011.667 569 965c135.333-62.667 203-155.667 203-279 0-108-51.333-202.333-154-283zM405.997 946.001c-96-43.333-144-110.999-144-202.999 0-65.333 19.667-117.166 59-155.499s114-81.833 224-130.5c46 34 79.333 67.333 100 100s31 75.667 31 129c0 51.333-16 94.666-48 129.999s-106 78.666-222 129.999z" glyph-name="section" horiz-adv-x="918" unicode="§"/><glyph d="M575 1188c-18 0-34.332 6.5-48.999 19.5s-22 30.5-22 52.5c0 20.667 7.167 37.334 21.5 50.001s30.166 19 47.499 19c19.333 0 36.833-6.5 52.5-19.5s23.5-29.5 23.5-49.5c0-20.667-7.167-37.834-21.5-51.501S595.667 1188 575 1188zm-332.999 0c-18.667 0-35.332 6.5-49.999 19.5s-22 30.5-22 52.5c0 20.667 7.333 37.334 22 50.001s30.667 19 48 19c19.333 0 36.666-6.5 51.999-19.5s23-29.5 23-49.5c0-20.667-7-37.834-21-51.501s-31.333-20.5-52-20.5z" glyph-name="dieresis" horiz-adv-x="817" unicode="¨"/><glyph d="M903-25c-207.333 0-383.667 72.168-529 216.501s-218 318.833-218 523.5c0 206.667 73.167 382.167 219.5 526.5s321.5 216.5 525.5 216.5c205.333 0 381.333-72.333 528-217S1649 921.667 1649 717c0-205.333-72.833-380.333-218.5-525S1109-25 903-25zm-2.001 1407c-181.333 0-337.5-65.333-468.5-196s-196.5-287.667-196.5-471c0-182 65-338.167 195-468.5S717.666 51 900.999 51c184.667 0 342.167 65.333 472.5 196s195.5 286.667 195.5 468c0 183.333-65.5 340.333-196.5 471s-288.167 196-471.5 196zM1182 270.001C1100 222.668 1016.666 199 931.999 199c-139.333 0-256.833 47-352.5 141s-143.5 210.667-143.5 350c0 164 48.5 294.167 145.5 390.5s219.167 144.5 366.5 144.5c84.667 0 161.334-18 230.001-54v-86c-70.667 38.667-152.667 58-246 58-113.333 0-209-39.167-287-117.5S528 842.334 528 711.001c0-128 40.5-231.333 121.5-310s178.5-118 292.5-118c86.667 0 166.667 22.333 240 67v-80z" glyph-name="copyright" horiz-adv-x="1804" unicode="©"/><glyph d="M557 717v143h-4c-24.667-50-60.167-89.167-106.5-117.5S351 700 299 700c-70 0-124.667 19.667-164 59s-59 87.333-59 144c0 133.333 85.333 212 256 236l225 32c0 135.333-55.333 203-166 203-89.333 0-174-30.667-254-92v96c86 50.667 173.333 76 262 76 165.333 0 248-91.333 248-274V717h-90zm-188 352c-76-10.667-128.5-27.5-157.5-50.5S168 958.333 168 907c0-38 13-68.667 39-92s62.667-35 110-35c64 0 120 27.667 168 83s72 118 72 188v45z" glyph-name="ordfeminine" horiz-adv-x="745" unicode="ª"/><glyph d="M717 201L440 537l277 344h114L549 537l280-336H717zm-318 0L123 537l276 344h113L231 537l281-336H399z" glyph-name="guillemotleft" horiz-adv-x="952" unicode="«"/><glyph d="M1034 147v408H213v84h907V147h-86z" glyph-name="logicalnot" horiz-adv-x="1331" unicode="¬"/><glyph d="M145 555v90h547v-90H145z" glyph-name="uni00AD" horiz-adv-x="815" unicode="­"/><glyph d="M903-25c-207.333 0-383.667 72.168-529 216.501s-218 318.833-218 523.5c0 206.667 73.167 382.167 219.5 526.5s321.5 216.5 525.5 216.5c205.333 0 381.333-72.333 528-217S1649 921.667 1649 717c0-205.333-72.833-380.333-218.5-525S1109-25 903-25zm-2.001 1407c-181.333 0-337.5-65.333-468.5-196s-196.5-287.667-196.5-471c0-182 65-338.167 195-468.5S717.666 51 900.999 51c184.667 0 342.167 65.333 472.5 196s195.5 286.667 195.5 468c0 183.333-65.5 340.333-196.5 471s-288.167 196-471.5 196zM1155 242.001l-115.001 247c-33.333 71.333-65.666 119.333-96.999 144s-66.333 37-105 37H721v-428h-92v966h264c106 0 187.833-23.167 245.5-69.5s86.5-107.833 86.5-184.5c0-148-84-237.333-252-268v-4c56-11.333 109.333-69.333 160-174l127-266h-105zM720.998 1137V741h194c65.333 0 117.5 18.167 156.5 54.5s58.5 83.833 58.5 142.5c0 132.667-79.667 199-239 199h-170z" glyph-name="registered" horiz-adv-x="1804" unicode="®"/><glyph d="M0 1641v90h850v-90H0z" glyph-name="macron" horiz-adv-x="850" unicode="¯"/><glyph d="M397 930c-69.333 0-129 25-179 75s-75 109.667-75 179c0 68 24.5 126.667 73.5 176s107.833 74 176.5 74c70 0 129.833-24.5 179.5-73.5S647 1252.667 647 1184c0-70-24.5-129.833-73.5-179.5S465.667 930 397 930zm0 428c-47.333 0-87.833-17.167-121.5-51.5s-50.5-75.166-50.5-122.499c0-48.667 16.5-90.5 49.5-125.5s72.5-52.5 118.5-52.5c46.667 0 86.667 17.5 120 52.5s50 76.833 50 125.5c0 49.333-16 90.666-48 123.999s-71.333 50-118 50z" glyph-name="degree" horiz-adv-x="791" unicode="°"/><glyph d="M709 633V221h-84v412H213v84h412v411h84V717h411v-84H709zM213 0v84h907V0H213z" glyph-name="plusminus" horiz-adv-x="1331" unicode="±"/><glyph d="M596 884H78.001v100l239 234c40.667 39.333 73.167 73.333 97.5 102s43 54.334 56 77.001 21.5 43.5 25.5 62.5 6 38.833 6 59.5c0 102-52.667 153-158 153-72.667 0-146.334-32.667-221.001-98v102c37.333 25.333 74.666 44.666 111.999 57.999s75.666 20 114.999 20c38 0 72-5.333 102-16s55.5-25.834 76.5-45.501 37.167-43.167 48.5-70.5 17-57.666 17-90.999c0-26-3.167-51.667-9.5-77s-17.666-52.333-33.999-81-38.666-60-66.999-94-64.5-72.333-108.5-115L182 978v-4h414v-90z" glyph-name="uni00B2" horiz-adv-x="674" unicode="²"/><glyph d="M561 1111c0-36-6.339-69.332-19.006-99.999s-31-57.167-55-79.5-53.333-40-88-53-74-19.5-118-19.5c-71.333 0-135.666 15.667-192.999 47v96c66.667-42 131.667-63 195-63 60.667 0 107.834 15.667 141.501 47s50.5 73 50.5 125c0 112-78.333 168-235 168h-70v80h61c143.333 0 215 57.333 215 172 0 91.333-51 137-153 137-47.333 0-104.666-17.667-171.999-53v90c32.667 15.333 64.834 26.666 96.501 33.999s62.834 11 93.501 11c34.667 0 65.834-5 93.501-15s51.167-24.167 70.5-42.5 34.166-40.166 44.5-65.499 15.5-53.333 15.5-84c0-108-49.334-179.667-148-215v-4c56.666-12.667 99.833-38.334 129.5-77.001s44.5-84 44.5-136z" glyph-name="uni00B3" horiz-adv-x="674" unicode="³"/><glyph d="M227 1188h-90l234 328h104z" glyph-name="acute" horiz-adv-x="508" unicode="´"/><glyph d="M860 0v186h-4C786 45.333 676-25 526-25 408.667-25 321.334 16 264.001 98h-8v-489h-92v1415h92V455c0-140 23.167-241 69.5-303S443.667 59 541 59c96 0 173.167 35.167 231.5 105.5S860 328 860 444v580h92V0h-92z" glyph-name="uni00B5" horiz-adv-x="1116" unicode="µ"/><glyph d="M733 1348V0h-86v1348H449V0h-87v903c-70 0-129 25.333-177 76s-72 113.334-72 188.001c0 80.667 25.167 145.334 75.5 194.001s110.5 73 180.5 73h495v-86H733z" glyph-name="paragraph" horiz-adv-x="971" unicode="¶"/><glyph d="M227 625c-22.667 0-41.667 8-57 24s-23 35.333-23 58 7.667 41.5 23 56.5 34.333 22.5 57 22.5 42-7.5 58-22.5 24-33.833 24-56.5-8-42-24-58-35.333-24-58-24z" glyph-name="periodcentered" horiz-adv-x="455" unicode="·"/><glyph d="M57-430l-.001 74c33.333-4 62-6 86-6 106.667 0 160 30.667 160 92 0 57.333-48.333 86-145 86A515.422 515.422 0 0 1 94-188V0h72v-117c150 0 225-49 225-147 0-113.333-84.667-170-254-170-24 0-50.667 1.333-80 4z" glyph-name="cedilla" horiz-adv-x="412" unicode="¸"/><glyph d="M600 884H129v82h195v682l-209-70v88l295 94V966h190v-82z" glyph-name="uni00B9" horiz-adv-x="674" unicode="¹"/><glyph d="M420 696c-105.333 0-189.666 35.334-252.999 106.001s-95 161-95 271c0 119.333 32.833 212.666 98.5 279.999s150.834 101 255.501 101c105.333 0 188.666-33.667 249.999-101s92-160 92-278c0-108.667-31.333-199-94-271S526.667 696 420 696zm4 678c-78 0-140.5-27.001-187.5-81.001s-70.5-128-70.5-222c0-88.667 23.333-159.667 70-213s108.667-80 186-80c79.333 0 140.833 26.5 184.5 79.5s65.5 126.167 65.5 219.5c0 92.667-21.667 165.334-65 218.001s-104.333 79-183 79z" glyph-name="ordmasculine" horiz-adv-x="811" unicode="º"/><glyph d="M553 201H440l283 344-283 336h113l278-336zm-315 0H121l285 344-285 336h115l276-336z" glyph-name="guillemotright" horiz-adv-x="952" unicode="»"/><glyph d="M600 584H129v82h195v682l-209-70v88l295 94V666h190v-82zM430 0h-98l862 1434h96zm928 219V0h-82v219H883v64l385 567h90V297h110v-78h-110zm-84 522c-22-40.667-37-66.333-45-77L983 297h293v369l2 75h-4z" glyph-name="onequarter" horiz-adv-x="1513" unicode="¼"/><glyph d="M600 584H129v82h195v682l-209-70v88l295 94V666h190v-82zM430 0h-98l862 1434h96zm1112 0l-518.003-.002v100l240 234c40 39.333 72.167 73.333 96.5 102s43 54.334 56 77.001 21.5 43.5 25.5 62.5 6 38.833 6 59.5c0 102-52.667 153-158 153-74 0-147.667-32.667-221-98v103c74.667 51.333 150.334 77 227.001 77 38 0 72-5.333 102-16s55.5-25.834 76.5-45.501 37.167-43.167 48.5-70.5 17-57.666 17-90.999c0-25.333-3.167-50.666-9.5-75.999s-17.666-52.333-33.999-81-38.666-60-66.999-94-64.5-72.333-108.5-115L1128 94v-4h414V0z" glyph-name="onehalf" horiz-adv-x="1622" unicode="½"/><glyph d="M561 811c0-36-6.339-69.332-19.006-99.999s-31-57.167-55-79.5-53.333-40-88-53-74-19.5-118-19.5c-71.333 0-135.666 15.667-192.999 47v96c66.667-42 131.667-63 195-63 60.667 0 107.834 15.667 141.501 47s50.5 73 50.5 125c0 112-78.333 168-235 168h-70v80h61c143.333 0 215 57.333 215 172 0 91.333-51 137-153 137-47.333 0-104.666-17.667-171.999-53v90c32.667 15.333 64.834 26.666 96.501 33.999s62.834 11 93.501 11c34.667 0 65.834-5 93.501-15s51.167-24.167 70.5-42.5 34.166-40.166 44.5-65.499 15.5-53.333 15.5-84c0-108-49.334-179.667-148-215v-4c56.666-12.667 99.833-38.334 129.5-77.001S561 863 561 811zM429.994.001h-98l862 1434h96zm927.996 219v-219h-82v219h-393v64l385 567h90v-553h110v-78h-110zm-84 522c-22-40.667-37-66.333-45-77l-246-367h293v369l2 75h-4z" glyph-name="threequarters" horiz-adv-x="1513" unicode="¾"/><glyph d="M557 626c6.667-16.667 12.496-38.5 17.496-65.5s7.5-53.833 7.5-80.5c0-31.333-4.167-59.833-12.5-85.5s-20-49.834-35-72.501-33-44.667-54-66-44.167-43-69.5-65c-21.333-19.333-42.333-39.5-63-60.5s-39-43.5-55-67.5-28.833-50.167-38.5-78.5-14.5-59.5-14.5-93.5c0-36.667 6.167-69.5 18.5-98.5s29.5-53.667 51.5-74 48.5-35.833 79.5-46.5 65.167-16 102.5-16c62.667 0 120.5 11 173.5 33s102.833 52 149.5 90v-107c-47.333-36-97.166-62.667-149.499-80s-110.5-26-174.5-26c-49.333 0-95.166 7-137.499 21s-79 34.5-110 61.5-55.333 60-73 99-26.5 83.5-26.5 133.5c0 38 5.333 72.667 16 104s24.5 60.333 41.5 87 36.5 51.667 58.5 75l67 68 86 84.5c22.667 23 40.334 43.833 53.001 62.5s21.5 36.834 26.5 54.501S500 455 500 479c0 30.667-2.667 58.5-8 83.5S481.333 608.667 476 626h81zm-35.004 416c22.667 0 41.5-7.833 56.5-23.5s22.5-34.834 22.5-57.501c0-23.333-7.5-42.5-22.5-57.5s-33.833-22.5-56.5-22.5c-23.333 0-42.833 7.5-58.5 22.5s-23.5 34.167-23.5 57.5c0 22.667 7.833 41.834 23.5 57.501s35.167 23.5 58.5 23.5z" glyph-name="questiondown" horiz-adv-x="881" unicode="¿"/><glyph d="M1118 0L954 446H332L168 0H59l541 1434h94L1229 0h-111zM678 1200c-7.333 20-13.333 39.666-18 58.999A1424.032 1424.032 0 0 1 645 1309h-4c-11.333-44-22.333-79.667-33-107L367 537h553zm41 336l-248 328h104l234-328h-90z" glyph-name="Agrave" horiz-adv-x="1288" unicode="À"/><glyph d="M1118 0L954 446H332L168 0H59l541 1434h94L1229 0h-111zM678 1200c-7.333 20-13.333 39.666-18 58.999A1424.032 1424.032 0 0 1 645 1309h-4c-11.333-44-22.333-79.667-33-107L367 537h553zm-114 330h-90l234 328h104z" glyph-name="Aacute" horiz-adv-x="1288" unicode="Á"/><glyph d="M1118 0L954 446H332L168 0H59l541 1434h94L1229 0h-111zM678 1200c-7.333 20-13.333 39.666-18 58.999A1424.032 1424.032 0 0 1 645 1309h-4c-11.333-44-22.333-79.667-33-107L367 537h553zm121 335l-157 239-160-239h-82l221 336h45l219-336h-86z" glyph-name="Acircumflex" horiz-adv-x="1288" unicode="Â"/><glyph d="M1118 0L954 446H332L168 0H59l541 1434h94L1229 0h-111zM678 1200c-7.333 20-13.333 39.666-18 58.999A1424.032 1424.032 0 0 1 645 1309h-4c-11.333-44-22.333-79.667-33-107L367 537h553zm287 568c0-68.667-16.167-123-48.5-163s-75.833-60-130.5-60c-44 0-94.333 25.333-151 76-42.667 36.667-82.334 55-119.001 55-68 0-102-47.667-102-143h-72c0 66.667 16 120.167 48 160.5s74.667 60.5 128 60.5c48 0 101.333-24 160-72 44.667-39.333 83.667-59 117-59 26.667 0 49.334 12.333 68.001 37s28 60.667 28 108h74z" glyph-name="Atilde" horiz-adv-x="1288" unicode="Ã"/><glyph d="M1118 0L954 446H332L168 0H59l541 1434h94L1229 0h-111zM678 1200c-7.333 20-13.333 39.666-18 58.999A1424.032 1424.032 0 0 1 645 1309h-4c-11.333-44-22.333-79.667-33-107L367 537h553zm134 330c-18 0-34.332 6.5-48.999 19.5s-22 30.5-22 52.5c0 20.667 7.167 37.334 21.5 50.001s30.166 19 47.499 19c19.333 0 36.833-6.5 52.5-19.5s23.5-29.5 23.5-49.5c0-20.667-7.167-37.834-21.5-51.501S832.667 1530 812 1530zm-332.999 0c-18.667 0-35.332 6.5-49.999 19.5s-22 30.5-22 52.5c0 20.667 7.333 37.334 22 50.001s30.667 19 48 19c19.333 0 36.666-6.5 51.999-19.5s23-29.5 23-49.5c0-20.667-7-37.834-21-51.501s-31.333-20.5-52-20.5z" glyph-name="Adieresis" horiz-adv-x="1288" unicode="Ä"/><glyph d="M1118 0L954.002 446h-622l-164-446h-109l519 1374c-89.333 28-134 86.667-134 176 0 54 19.667 98.333 59 133s86.666 52 141.999 52c57.333 0 105.166-16.833 143.499-50.5S846 1606 846 1550c0-86-43.667-144-131-174L1229 0h-111zM645.002 1667c-38 0-68.667-10.668-92-32.001s-35-49.666-35-84.999c0-34.667 12.167-62.667 36.5-84s54.5-32 90.5-32c38 0 69 10.667 93 32s36 49.333 36 84c0 38-12.5 67-37.5 87s-55.5 30-91.5 30zm33-467c-7.333 20-13.333 39.666-18 58.999a1424.032 1424.032 0 0 1-15 50.001h-4c-11.333-44-22.333-79.667-33-107l-241-665h553z" glyph-name="Aring" horiz-adv-x="1288" unicode="Å"/><glyph d="M846 0v446H344L125 0H16l697 1434h803v-97H944V766h531v-90H944V90h604V0H846zm0 1337h-78L385 537h461v800z" glyph-name="AE" horiz-adv-x="1706" unicode="Æ"/><glyph d="M1137 47C993-9.667 852.999-33 716.999-23v-94c150 0 225-49 225-147 0-113.333-84.667-170-254-170-24 0-50.667 1.333-80 4v74c33.333-4 62-6 86-6 106.667 0 160 30.667 160 92 0 57.333-48.333 86-145 86A515.422 515.422 0 0 1 645-188v174C477 16.667 345.667 95.667 251 223S109 505.333 109 688c0 232.667 67 419.167 201 559.5S614.333 1458 821 1458c110 0 215.333-17.667 316-53v-105c-100.667 45.333-206.667 68-318 68-180 0-326.333-61-439-183S211 900.667 211 698c0-195.333 53.833-349.5 161.5-462.5S616.667 66 782 66c132 0 250.333 25.667 355 77V47z" glyph-name="Ccedilla" horiz-adv-x="1272" unicode="Ç"/><glyph d="M184 0v1434h670v-91H283V768h530v-90H283V90h604V0H184zm372 1536l-248 328h104l234-328h-90z" glyph-name="Egrave" horiz-adv-x="1024" unicode="È"/><glyph d="M184 0v1434h670v-91H283V768h530v-90H283V90h604V0H184zm322 1533h-90l234 328h104z" glyph-name="Eacute" horiz-adv-x="1024" unicode="É"/><glyph d="M184 0v1434h670v-91H283V768h530v-90H283V90h604V0H184zm515 1537l-157 239-160-239h-82l221 336h45l219-336h-86z" glyph-name="Ecircumflex" horiz-adv-x="1024" unicode="Ê"/><glyph d="M184 0v1434h670v-91H283V768h530v-90H283V90h604V0H184zm530 1536c-18 0-34.332 6.5-48.999 19.5s-22 30.5-22 52.5c0 20.667 7.167 37.334 21.5 50.001s30.166 19 47.499 19c19.333 0 36.833-6.5 52.5-19.5s23.5-29.5 23.5-49.5c0-20.667-7.167-37.834-21.5-51.501S734.667 1536 714 1536zm-332.999 0c-18.667 0-35.332 6.5-49.999 19.5s-22 30.5-22 52.5c0 20.667 7.333 37.334 22 50.001s30.667 19 48 19c19.333 0 36.666-6.5 51.999-19.5s23-29.5 23-49.5c0-20.667-7-37.834-21-51.501s-31.333-20.5-52-20.5z" glyph-name="Edieresis" horiz-adv-x="1024" unicode="Ë"/><glyph d="M283 1434V0h-99v1434h99zm-71 102l-248 328H68l234-328h-90z" glyph-name="Igrave" horiz-adv-x="467" unicode="Ì"/><glyph d="M283 1434V0h-99v1434h99zm-23 102h-90l234 328h104z" glyph-name="Iacute" horiz-adv-x="467" unicode="Í"/><glyph d="M283 1434V0h-99v1434h99zm107 103l-157 239-160-239H-9l221 336h45l219-336h-86z" glyph-name="Icircumflex" horiz-adv-x="467" unicode="Î"/><glyph d="M283 1434V0h-99v1434h99zm115 102c-18 0-34.332 6.5-48.999 19.5s-22 30.5-22 52.5c0 20.667 7.167 37.334 21.5 50.001s30.166 19 47.499 19c19.333 0 36.833-6.5 52.5-19.5s23.5-29.5 23.5-49.5c0-20.667-7.167-37.834-21.5-51.501S418.667 1536 398 1536zm-332.999 0c-18.667 0-35.332 6.5-49.999 19.5s-22 30.5-22 52.5c0 20.667 7.333 37.334 22 50.001s30.667 19 48 19c19.333 0 36.666-6.5 51.999-19.5s23-29.5 23-49.5c0-20.667-7-37.834-21-51.501s-31.333-20.5-52-20.5z" glyph-name="Idieresis" horiz-adv-x="467" unicode="Ï"/><glyph d="M184 0l-.002 668h-149v88h149v678h359c238.667 0 419.834-59.167 543.501-177.5s185.5-291.5 185.5-519.5c0-221.333-67.167-399.5-201.5-534.5S753.333 0 522 0H184zm98.998 1343V756h403v-88h-403V90h225c212 0 375.167 55 489.5 165s171.5 269.333 171.5 478c0 406.667-213.667 610-641 610h-245z" glyph-name="Eth" horiz-adv-x="1380" unicode="Ð"/><glyph d="M1198 0L343.999 1159c-17.333 23.333-32.666 46.666-45.999 69.999l-13 20h-4c1.333-17.333 2-38.333 2-63v-1186h-99v1434h76l848-1149c18.667-25.333 39-56 61-92h5c-3.333 46.667-5 86.667-5 120v1121h99v-1434h-70zm-97 1768c0-68.667-16.167-123-48.5-163s-75.833-60-130.5-60c-44 0-94.333 25.333-151 76-42.667 36.667-82.334 55-119.001 55-68 0-102-47.667-102-143h-72c0 66.667 16 120.167 48 160.5s74.667 60.5 128 60.5c48 0 101.333-24 160-72 44.667-39.333 83.667-59 117-59 26.667 0 49.334 12.333 68.001 37s28 60.667 28 108h74z" glyph-name="Ntilde" horiz-adv-x="1452" unicode="Ñ"/><glyph d="M774-25c-202.667 0-364.167 67.332-484.5 201.999S109 486.666 109 701.999c0 228.667 61.833 411.834 185.5 549.501S587 1458 801 1458c193.333 0 349.833-66.167 469.5-198.5S1450 953.667 1450 739c0-237.333-61.333-424-184-560S979.333-25 774-25zm10 1393c-166.667 0-303.832-60.335-411.499-181.002s-161.5-278.667-161.5-474c0-197.333 51-354.5 153-471.5s238-175.5 408-175.5c177.333 0 317.666 57.833 420.999 173.5s155 276.834 155 483.501c0 202.667-50.5 360.834-151.5 474.501S958 1368 784 1368zm82.002 167l-248 328h104l234-328h-90z" glyph-name="Ograve" horiz-adv-x="1559" unicode="Ò"/><glyph d="M774-25c-202.667 0-364.167 67.332-484.5 201.999S109 486.666 109 701.999c0 228.667 61.833 411.834 185.5 549.501S587 1458 801 1458c193.333 0 349.833-66.167 469.5-198.5S1450 953.667 1450 739c0-237.333-61.333-424-184-560S979.333-25 774-25zm10 1393c-166.667 0-303.832-60.335-411.499-181.002s-161.5-278.667-161.5-474c0-197.333 51-354.5 153-471.5s238-175.5 408-175.5c177.333 0 317.666 57.833 420.999 173.5s155 276.834 155 483.501c0 202.667-50.5 360.834-151.5 474.501S958 1368 784 1368zm-52.998 168h-90l234 328h104z" glyph-name="Oacute" horiz-adv-x="1559" unicode="Ó"/><glyph d="M774-25c-202.667 0-364.167 67.332-484.5 201.999S109 486.666 109 701.999c0 228.667 61.833 411.834 185.5 549.501S587 1458 801 1458c193.333 0 349.833-66.167 469.5-198.5S1450 953.667 1450 739c0-237.333-61.333-424-184-560S979.333-25 774-25zm10 1393c-166.667 0-303.832-60.335-411.499-181.002s-161.5-278.667-161.5-474c0-197.333 51-354.5 153-471.5s238-175.5 408-175.5c177.333 0 317.666 57.833 420.999 173.5s155 276.834 155 483.501c0 202.667-50.5 360.834-151.5 474.501S958 1368 784 1368zm151.002 168l-157 239-160-239h-82l221 336h45l219-336h-86z" glyph-name="Ocircumflex" horiz-adv-x="1559" unicode="Ô"/><glyph d="M774-25c-202.667 0-364.167 67.332-484.5 201.999S109 486.666 109 701.999c0 228.667 61.833 411.834 185.5 549.501S587 1458 801 1458c193.333 0 349.833-66.167 469.5-198.5S1450 953.667 1450 739c0-237.333-61.333-424-184-560S979.333-25 774-25zm10 1393c-166.667 0-303.832-60.335-411.499-181.002s-161.5-278.667-161.5-474c0-197.333 51-354.5 153-471.5s238-175.5 408-175.5c177.333 0 317.666 57.833 420.999 173.5s155 276.834 155 483.501c0 202.667-50.5 360.834-151.5 474.501S958 1368 784 1368zm307 399c0-68.667-16.167-123-48.5-163s-75.833-60-130.5-60c-44 0-94.333 25.333-151 76-42.667 36.667-82.334 55-119.001 55-68 0-102-47.667-102-143h-72c0 66.667 16 120.167 48 160.5s74.667 60.5 128 60.5c48 0 101.333-24 160-72 44.667-39.333 83.667-59 117-59 26.667 0 49.334 12.333 68.001 37s28 60.667 28 108h74z" glyph-name="Otilde" horiz-adv-x="1559" unicode="Õ"/><glyph d="M774-25c-202.667 0-364.167 67.332-484.5 201.999S109 486.666 109 701.999c0 228.667 61.833 411.834 185.5 549.501S587 1458 801 1458c193.333 0 349.833-66.167 469.5-198.5S1450 953.667 1450 739c0-237.333-61.333-424-184-560S979.333-25 774-25zm10 1393c-166.667 0-303.832-60.335-411.499-181.002s-161.5-278.667-161.5-474c0-197.333 51-354.5 153-471.5s238-175.5 408-175.5c177.333 0 317.666 57.833 420.999 173.5s155 276.834 155 483.501c0 202.667-50.5 360.834-151.5 474.501S958 1368 784 1368zm166.002 165c-18 0-34.332 6.5-48.999 19.5s-22 30.5-22 52.5c0 20.667 7.167 37.334 21.5 50.001s30.166 19 47.499 19c19.333 0 36.833-6.5 52.5-19.5s23.5-29.5 23.5-49.5c0-20.667-7.167-37.834-21.5-51.501s-31.833-20.5-52.5-20.5zm-332.999 0c-18.667 0-35.332 6.5-49.999 19.5s-22 30.5-22 52.5c0 20.667 7.333 37.334 22 50.001s30.667 19 48 19c19.333 0 36.666-6.5 51.999-19.5s23-29.5 23-49.5c0-20.667-7-37.834-21-51.501s-31.333-20.5-52-20.5z" glyph-name="Odieresis" horiz-adv-x="1559" unicode="Ö"/><glyph d="M999 203L666 539 332 203l-60 59 334 334-334 336 60 59 334-336 333 336 60-59-334-336 334-334z" glyph-name="multiply" horiz-adv-x="1331" unicode="×"/><glyph d="M317 147L147-55 84-4l178 213C160 342.333 109 506.666 109 701.999c0 228.667 61.833 411.834 185.5 549.501S587 1458 801 1458c156.667 0 289.667-43.667 399-131l139 166 64-53-141-168c125.333-134 188-311.667 188-533 0-237.333-61.333-424-184-560S979.333-25 774-25c-182.667 0-335 57.333-457 172zm822 1106c-96 76.667-214.332 115-354.999 115-166.667 0-303.834-60.333-411.501-181S211 908.333 211 713c0-172 39-314 117-426zm59-57L381.001 222.998c102-104.667 232.333-157 391-157 177.333 0 317.666 57.833 420.999 173.5s155 276.834 155 483.501c0 198.667-50 356.334-150 473.001z" glyph-name="Oslash" horiz-adv-x="1559" unicode="Ø"/><glyph d="M1161 573c0-398.667-170-598-510-598-323.333 0-485 192-485 576v883h98V565c0-332.667 135.333-499 406-499 262 0 393 161.667 393 485v883h98V573zm-478 963l-248 328h104l234-328h-90z" glyph-name="Ugrave" horiz-adv-x="1327" unicode="Ù"/><glyph d="M1161 573c0-398.667-170-598-510-598-323.333 0-485 192-485 576v883h98V565c0-332.667 135.333-499 406-499 262 0 393 161.667 393 485v883h98V573zm-498 962h-90l234 328h104z" glyph-name="Uacute" horiz-adv-x="1327" unicode="Ú"/><glyph d="M1161 573c0-398.667-170-598-510-598-323.333 0-485 192-485 576v883h98V565c0-332.667 135.333-499 406-499 262 0 393 161.667 393 485v883h98V573zm-302 964l-157 239-160-239h-82l221 336h45l219-336h-86z" glyph-name="Ucircumflex" horiz-adv-x="1327" unicode="Û"/><glyph d="M1161 573c0-398.667-170-598-510-598-323.333 0-485 192-485 576v883h98V565c0-332.667 135.333-499 406-499 262 0 393 161.667 393 485v883h98V573zm-301 964c-18 0-34.332 6.5-48.999 19.5s-22 30.5-22 52.5c0 20.667 7.167 37.334 21.5 50.001s30.166 19 47.499 19c19.333 0 36.833-6.5 52.5-19.5s23.5-29.5 23.5-49.5c0-20.667-7.167-37.834-21.5-51.501S880.667 1537 860 1537zm-332.999 0c-18.667 0-35.332 6.5-49.999 19.5s-22 30.5-22 52.5c0 20.667 7.333 37.334 22 50.001s30.667 19 48 19c19.333 0 36.666-6.5 51.999-19.5s23-29.5 23-49.5c0-20.667-7-37.834-21-51.501s-31.333-20.5-52-20.5z" glyph-name="Udieresis" horiz-adv-x="1327" unicode="Ü"/><glyph d="M598 545l.001-545.001h-98v543l-439 891h111l334-691c12-24 27-59.333 45-106h4C564.334 661.666 580.667 696.333 604 741l350 693h107zm-65.999 1022h-90l234 328h104z" glyph-name="Yacute" horiz-adv-x="1106" unicode="Ý"/><glyph d="M283 338V0h-99v1434h99v-238h247c303.333 0 455-134.333 455-403 0-136-44.333-245.833-133-329.5S641 338 485 338H283zm0 768l.001-678h204c127.333 0 225.166 30.5 293.499 91.5S883 667.333 883 780c0 217.333-123.667 326-371 326H283z" glyph-name="Thorn" horiz-adv-x="1114" unicode="Þ"/><glyph d="M430-6l-.001 94.001c48.667-19.333 95.667-29 141-29 94 0 168.833 29.333 224.5 88s83.5 136.667 83.5 234c0 103.333-36.333 189-109 257s-175 112.667-307 134v80c204.667 46.667 307 157.334 307 332.001 0 81.333-21.5 145.666-64.5 192.999s-102.833 71-179.5 71c-85.333 0-151.666-30.333-198.999-91s-71-145.667-71-255v-1100h-92v1114c0 130.667 33.667 232.667 101 306s157.333 110 270 110c99.333 0 179.333-30.667 240-92s91-142 91-242c0-176-85.333-301-256-375v-4c113.333-30 202.5-83.833 267.5-161.5S975 489.667 975 387c0-119.333-37-217.833-111-295.5S693.667-25 575-25c-46 0-94.333 6.333-145 19z" glyph-name="germandbls" horiz-adv-x="1061" unicode="ß"/><glyph d="M776 0l.001 205h-4c-32.667-70-80.167-125.833-142.5-167.5S498.001-25 422.001-25c-97.333 0-174.333 27.333-231 82s-85 123.667-85 207c0 178.667 118.333 286.667 355 324l315 47c0 220-82.667 330-248 330C415.334 965 305.667 919.667 199 829v111c38 30 89.5 55.667 154.5 77s126.167 32 183.5 32c105.333 0 186.833-32.667 244.5-98S868 790.667 868 666V0h-92zM494.001 510c-107.333-15.333-182.667-40.168-226-74.501s-65-90.166-65-167.499c0-60.667 20.167-110.667 60.5-150s96.5-59 168.5-59c98.667 0 180.667 36.5 246 109.5s98 167.167 98 282.5v100zM519 1188l-248 328h104l234-328h-90z" glyph-name="agrave" horiz-adv-x="1012" unicode="à"/><glyph d="M776 0l.001 205h-4c-32.667-70-80.167-125.833-142.5-167.5S498.001-25 422.001-25c-97.333 0-174.333 27.333-231 82s-85 123.667-85 207c0 178.667 118.333 286.667 355 324l315 47c0 220-82.667 330-248 330C415.334 965 305.667 919.667 199 829v111c38 30 89.5 55.667 154.5 77s126.167 32 183.5 32c105.333 0 186.833-32.667 244.5-98S868 790.667 868 666V0h-92zM494.001 510c-107.333-15.333-182.667-40.168-226-74.501s-65-90.166-65-167.499c0-60.667 20.167-110.667 60.5-150s96.5-59 168.5-59c98.667 0 180.667 36.5 246 109.5s98 167.167 98 282.5v100zM452 1188h-90l234 328h104z" glyph-name="aacute" horiz-adv-x="1012" unicode="á"/><glyph d="M776 0l.001 205h-4c-32.667-70-80.167-125.833-142.5-167.5S498.001-25 422.001-25c-97.333 0-174.333 27.333-231 82s-85 123.667-85 207c0 178.667 118.333 286.667 355 324l315 47c0 220-82.667 330-248 330C415.334 965 305.667 919.667 199 829v111c38 30 89.5 55.667 154.5 77s126.167 32 183.5 32c105.333 0 186.833-32.667 244.5-98S868 790.667 868 666V0h-92zM494.001 510c-107.333-15.333-182.667-40.168-226-74.501s-65-90.166-65-167.499c0-60.667 20.167-110.667 60.5-150s96.5-59 168.5-59c98.667 0 180.667 36.5 246 109.5s98 167.167 98 282.5v100zM670 1188l-157 239-160-239h-82l221 336h45l219-336h-86z" glyph-name="acircumflex" horiz-adv-x="1012" unicode="â"/><glyph d="M776 0l.001 205h-4c-32.667-70-80.167-125.833-142.5-167.5S498.001-25 422.001-25c-97.333 0-174.333 27.333-231 82s-85 123.667-85 207c0 178.667 118.333 286.667 355 324l315 47c0 220-82.667 330-248 330C415.334 965 305.667 919.667 199 829v111c38 30 89.5 55.667 154.5 77s126.167 32 183.5 32c105.333 0 186.833-32.667 244.5-98S868 790.667 868 666V0h-92zM494.001 510c-107.333-15.333-182.667-40.168-226-74.501s-65-90.166-65-167.499c0-60.667 20.167-110.667 60.5-150s96.5-59 168.5-59c98.667 0 180.667 36.5 246 109.5s98 167.167 98 282.5v100zM824 1423c0-68.667-16.167-123-48.5-163s-75.833-60-130.5-60c-44 0-94.333 25.333-151 76-42.667 36.667-82.334 55-119.001 55-68 0-102-47.667-102-143h-72c0 66.667 16 120.167 48 160.5s74.667 60.5 128 60.5c48 0 101.333-24 160-72 44.667-39.333 83.667-59 117-59 26.667 0 49.334 12.333 68.001 37s28 60.667 28 108h74z" glyph-name="atilde" horiz-adv-x="1012" unicode="ã"/><glyph d="M776 0l.001 205h-4c-32.667-70-80.167-125.833-142.5-167.5S498.001-25 422.001-25c-97.333 0-174.333 27.333-231 82s-85 123.667-85 207c0 178.667 118.333 286.667 355 324l315 47c0 220-82.667 330-248 330C415.334 965 305.667 919.667 199 829v111c38 30 89.5 55.667 154.5 77s126.167 32 183.5 32c105.333 0 186.833-32.667 244.5-98S868 790.667 868 666V0h-92zM494.001 510c-107.333-15.333-182.667-40.168-226-74.501s-65-90.166-65-167.499c0-60.667 20.167-110.667 60.5-150s96.5-59 168.5-59c98.667 0 180.667 36.5 246 109.5s98 167.167 98 282.5v100zM665 1188c-18 0-34.332 6.5-48.999 19.5s-22 30.5-22 52.5c0 20.667 7.167 37.334 21.5 50.001s30.166 19 47.499 19c19.333 0 36.833-6.5 52.5-19.5s23.5-29.5 23.5-49.5c0-20.667-7.167-37.834-21.5-51.501S685.667 1188 665 1188zm-332.999 0c-18.667 0-35.332 6.5-49.999 19.5s-22 30.5-22 52.5c0 20.667 7.333 37.334 22 50.001s30.667 19 48 19c19.333 0 36.666-6.5 51.999-19.5s23-29.5 23-49.5c0-20.667-7-37.834-21-51.501s-31.333-20.5-52-20.5z" glyph-name="adieresis" horiz-adv-x="1012" unicode="ä"/><glyph d="M776 0l.001 205h-4c-32.667-70-80.167-125.833-142.5-167.5S498.001-25 422.001-25c-97.333 0-174.333 27.333-231 82s-85 123.667-85 207c0 178.667 118.333 286.667 355 324l315 47c0 220-82.667 330-248 330C415.334 965 305.667 919.667 199 829v111c38 30 89.5 55.667 154.5 77s126.167 32 183.5 32c105.333 0 186.833-32.667 244.5-98S868 790.667 868 666V0h-92zM494.001 510c-107.333-15.333-182.667-40.168-226-74.501s-65-90.166-65-167.499c0-60.667 20.167-110.667 60.5-150s96.5-59 168.5-59c98.667 0 180.667 36.5 246 109.5s98 167.167 98 282.5v100zM521 1188c-57.333 0-105.167 16.833-143.5 50.5S320 1316.667 320 1372c0 53.333 19 97.333 57 132s86 52 144 52c58.667 0 106.834-16.833 144.501-50.5s56.5-78.167 56.5-133.5c0-53.333-19.333-97.333-58-132s-86.334-52-143.001-52zm-.001 301c-38 0-68.667-10.67-92-32.003s-35-49.666-35-84.999 12.167-63.666 36.5-84.999 54.5-32 90.5-32c38 0 69 10.833 93 32.5s36 49.834 36 84.501c0 38-12.5 67-37.5 87s-55.5 30-91.5 30z" glyph-name="aring" horiz-adv-x="1012" unicode="å"/><glyph d="M868 508c0-140.667 32.5-250.668 97.5-330.001s154.167-119 267.5-119c114.667 0 226.667 42.333 336 127v-98c-106-75.333-224.333-113-355-113-90.667 0-170.667 24.833-240 74.5S854.334 169.333 823.001 260h-4c-88.667-190-219-285-391-285-100 0-178.667 26.833-236 80.5s-86 123.167-86 208.5c0 95.333 33 170.333 99 225s161.667 85 287 91l284 12c0 248.667-79.667 373-239 373-124 0-236.667-44.667-338-134v109c107.333 72.667 223.333 109 348 109 153.333 0 251.666-84.667 294.999-254h4c84 169.333 211.667 254 383 254 126.667 0 224.5-44.333 293.5-133S1626 705 1626 549v-41H868zm662 83.999c-4 118-32.332 209.667-84.999 275s-125.334 98-218.001 98c-96 0-175.5-32.167-238.5-96.5s-101.833-156.5-116.5-276.5h658zm-753.999-84l-264-8c-104-3.333-181.5-22.833-232.5-58.5s-76.5-93.5-76.5-173.5c0-65.333 21.167-116.5 63.5-153.5s99.5-55.5 171.5-55.5c90.667 0 169.667 35.833 237 107.5s101 158.167 101 259.5v82z" glyph-name="ae" horiz-adv-x="1718" unicode="æ"/><glyph d="M827 45C751-1.667 660.331-25.002 554.998-25.002c-139.333 0-251.666 47.833-336.999 143.5s-128 220.834-128 375.501c0 162.667 48 295.834 144 399.501s219.333 155.5 370 155.5c78 0 153.667-16 227-48V897C757.666 942.333 677.333 965 590 965c-120 0-217.333-43.167-292-129.5S186 637.334 186 500.001C186 367.334 220.167 260.667 288.5 180S447 59 559 59c102.667 0 192 27.333 268 82V45zM402.998-430.002l-.001 74c33.333-4 62-6 86-6 106.667 0 160 30.667 160 92 0 57.333-48.333 86-145 86a515.422 515.422 0 0 1-63.999-4v188h72v-117c150 0 225-49 225-147 0-113.333-84.667-170-254-170-24 0-50.667 1.333-80 4z" glyph-name="ccedilla" horiz-adv-x="909" unicode="ç"/><glyph d="M186 508c0-140.667 32.5-250.667 97.5-330S437.667 59 551 59c114.667 0 226.667 42.333 336 127V88C781 12.667 662.667-25 532-25c-132 0-238.667 47.333-320 142S90 345.334 90 518.001c0 149.333 42.5 275.166 127.5 377.499S413 1049 549 1049c127.333 0 225-44.667 293-134s102-211.333 102-366v-41H186zm662 84c-4 118-32.332 209.667-84.999 275S637.667 965 545 965c-96 0-175.5-32.167-238.5-96.5S204.667 712 190 592h658zm-278.999 596l-248 328h104l234-328h-90z" glyph-name="egrave" horiz-adv-x="1034" unicode="è"/><glyph d="M186 508c0-140.667 32.5-250.667 97.5-330S437.667 59 551 59c114.667 0 226.667 42.333 336 127V88C781 12.667 662.667-25 532-25c-132 0-238.667 47.333-320 142S90 345.334 90 518.001c0 149.333 42.5 275.166 127.5 377.499S413 1049 549 1049c127.333 0 225-44.667 293-134s102-211.333 102-366v-41H186zm662 84c-4 118-32.332 209.667-84.999 275S637.667 965 545 965c-96 0-175.5-32.167-238.5-96.5S204.667 712 190 592h658zm-358.999 596h-90l234 328h104z" glyph-name="eacute" horiz-adv-x="1034" unicode="é"/><glyph d="M186 508c0-140.667 32.5-250.667 97.5-330S437.667 59 551 59c114.667 0 226.667 42.333 336 127V88C781 12.667 662.667-25 532-25c-132 0-238.667 47.333-320 142S90 345.334 90 518.001c0 149.333 42.5 275.166 127.5 377.499S413 1049 549 1049c127.333 0 225-44.667 293-134s102-211.333 102-366v-41H186zm662 84c-4 118-32.332 209.667-84.999 275S637.667 965 545 965c-96 0-175.5-32.167-238.5-96.5S204.667 712 190 592h658zm-143.999 596l-157 239-160-239h-82l221 336h45l219-336h-86z" glyph-name="ecircumflex" horiz-adv-x="1034" unicode="ê"/><glyph d="M186 508c0-140.667 32.5-250.667 97.5-330S437.667 59 551 59c114.667 0 226.667 42.333 336 127V88C781 12.667 662.667-25 532-25c-132 0-238.667 47.333-320 142S90 345.334 90 518.001c0 149.333 42.5 275.166 127.5 377.499S413 1049 549 1049c127.333 0 225-44.667 293-134s102-211.333 102-366v-41H186zm662 84c-4 118-32.332 209.667-84.999 275S637.667 965 545 965c-96 0-175.5-32.167-238.5-96.5S204.667 712 190 592h658zm-145.999 596c-18 0-34.332 6.5-48.999 19.5s-22 30.5-22 52.5c0 20.667 7.167 37.334 21.5 50.001s30.166 19 47.499 19c19.333 0 36.833-6.5 52.5-19.5s23.5-29.5 23.5-49.5c0-20.667-7.167-37.834-21.5-51.501s-31.833-20.5-52.5-20.5zm-332.999 0c-18.667 0-35.332 6.5-49.999 19.5s-22 30.5-22 52.5c0 20.667 7.333 37.334 22 50.001s30.667 19 48 19c19.333 0 36.666-6.5 51.999-19.5s23-29.5 23-49.5c0-20.667-7-37.834-21-51.501s-31.333-20.5-52-20.5z" glyph-name="edieresis" horiz-adv-x="1034" unicode="ë"/><glyph d="M164 0v1024h92V0h-92zm90 1188L6 1516h104l234-328h-90z" glyph-name="igrave" horiz-adv-x="420" unicode="ì"/><glyph d="M164 0v1024h92V0h-92zm9 1188H83l234 328h104z" glyph-name="iacute" horiz-adv-x="420" unicode="í"/><glyph d="M164 0v1024h92V0h-92zm205 1188l-157 239-160-239h-82l221 336h45l219-336h-86z" glyph-name="icircumflex" horiz-adv-x="420" unicode="î"/><glyph d="M164 0v1024h92V0h-92zm213 1188c-18 0-34.332 6.5-48.999 19.5s-22 30.5-22 52.5c0 20.667 7.167 37.334 21.5 50.001s30.166 19 47.499 19c19.333 0 36.833-6.5 52.5-19.5s23.5-29.5 23.5-49.5c0-20.667-7.167-37.834-21.5-51.501S397.667 1188 377 1188zm-332.999 0c-18.667 0-35.332 6.5-49.999 19.5s-22 30.5-22 52.5c0 20.667 7.333 37.334 22 50.001s30.667 19 48 19c19.333 0 36.666-6.5 51.999-19.5s23-29.5 23-49.5c0-20.667-7-37.834-21-51.501s-31.333-20.5-52-20.5z" glyph-name="idieresis" horiz-adv-x="420" unicode="ï"/><glyph d="M801 956l4 5.002c-68 120-141 218.667-219 296l-299-149-35 70 276 133c-84.667 76.667-168.667 144-252 202h150c54-38.667 116-90.334 186-155.001l301 149 35-71-280-136C776.667 1187.334 859 1061.667 915 923s84-276.334 84-413.001c0-156.667-40.333-285-121-385s-191-150-331-150c-146.667 0-259.5 48-338.5 144s-118.5 225-118.5 387c0 160.667 42.833 291.334 128.5 392S417 1049 557 1049c98 0 179.333-31 244-93zm-244 9.002c-111.333 0-201-42.332-269-126.999s-102-196-102-334 32.167-246.667 96.5-326 153.166-119 266.499-119c108.667 0 194.834 40.667 258.501 122S903 372.669 903 512.002c0 302-115.333 453-346 453z" glyph-name="eth" horiz-adv-x="1090" unicode="ð"/><glyph d="M860 0l-.002 596.001c0 246-88.667 369-266 369-98.667 0-179.667-36.167-243-108.5s-95-161.833-95-268.5v-588h-92v1024h92v-186h4c74.667 140.667 191.334 211 350.001 211 110.667 0 195.334-36.833 254.001-110.5S952 759.667 952 623V0h-92zm35.998 1423c0-68.667-16.167-123-48.5-163s-75.833-60-130.5-60c-44 0-94.333 25.333-151 76-42.667 36.667-82.334 55-119.001 55-68 0-102-47.667-102-143h-72c0 66.667 16 120.167 48 160.5s74.667 60.5 128 60.5c48 0 101.333-24 160-72 44.667-39.333 83.667-59 117-59 26.667 0 49.334 12.333 68.001 37s28 60.667 28 108h74z" glyph-name="ntilde" unicode="ñ"/><glyph d="M575-25c-149.333 0-267.5 49.168-354.5 147.501S90 348.667 90 506c0 170 45.5 303 136.5 399s210.833 144 359.5 144c146 0 261.333-47.667 346-143s127-227.333 127-396c0-159.333-43.167-288.333-129.5-387S725-25 575-25zm7 990.001c-120.667 0-216.834-40.667-288.501-122s-107.5-194.333-107.5-339c0-134 35-241.667 105-323s165.667-122 287-122c123.333 0 218.333 40 285 120s100 191 100 333c0 146-33.167 258-99.5 336s-160.166 117-281.499 117zM592 1188l-248 328h104l234-328h-90z" glyph-name="ograve" horiz-adv-x="1149" unicode="ò"/><glyph d="M575-25c-149.333 0-267.5 49.168-354.5 147.501S90 348.667 90 506c0 170 45.5 303 136.5 399s210.833 144 359.5 144c146 0 261.333-47.667 346-143s127-227.333 127-396c0-159.333-43.167-288.333-129.5-387S725-25 575-25zm7 990.001c-120.667 0-216.834-40.667-288.501-122s-107.5-194.333-107.5-339c0-134 35-241.667 105-323s165.667-122 287-122c123.333 0 218.333 40 285 120s100 191 100 333c0 146-33.167 258-99.5 336s-160.166 117-281.499 117zM541 1188h-90l234 328h104z" glyph-name="oacute" horiz-adv-x="1149" unicode="ó"/><glyph d="M575-25c-149.333 0-267.5 49.168-354.5 147.501S90 348.667 90 506c0 170 45.5 303 136.5 399s210.833 144 359.5 144c146 0 261.333-47.667 346-143s127-227.333 127-396c0-159.333-43.167-288.333-129.5-387S725-25 575-25zm7 990.001c-120.667 0-216.834-40.667-288.501-122s-107.5-194.333-107.5-339c0-134 35-241.667 105-323s165.667-122 287-122c123.333 0 218.333 40 285 120s100 191 100 333c0 146-33.167 258-99.5 336s-160.166 117-281.499 117zM748 1188l-157 239-160-239h-82l221 336h45l219-336h-86z" glyph-name="ocircumflex" horiz-adv-x="1149" unicode="ô"/><glyph d="M575-25c-149.333 0-267.5 49.168-354.5 147.501S90 348.667 90 506c0 170 45.5 303 136.5 399s210.833 144 359.5 144c146 0 261.333-47.667 346-143s127-227.333 127-396c0-159.333-43.167-288.333-129.5-387S725-25 575-25zm7 990.001c-120.667 0-216.834-40.667-288.501-122s-107.5-194.333-107.5-339c0-134 35-241.667 105-323s165.667-122 287-122c123.333 0 218.333 40 285 120s100 191 100 333c0 146-33.167 258-99.5 336s-160.166 117-281.499 117zM911 1423c0-68.667-16.167-123-48.5-163s-75.833-60-130.5-60c-44 0-94.333 25.333-151 76-42.667 36.667-82.334 55-119.001 55-68 0-102-47.667-102-143h-72c0 66.667 16 120.167 48 160.5s74.667 60.5 128 60.5c48 0 101.333-24 160-72 44.667-39.333 83.667-59 117-59 26.667 0 49.334 12.333 68.001 37s28 60.667 28 108h74z" glyph-name="otilde" horiz-adv-x="1149" unicode="õ"/><glyph d="M575-25c-149.333 0-267.5 49.168-354.5 147.501S90 348.667 90 506c0 170 45.5 303 136.5 399s210.833 144 359.5 144c146 0 261.333-47.667 346-143s127-227.333 127-396c0-159.333-43.167-288.333-129.5-387S725-25 575-25zm7 990.001c-120.667 0-216.834-40.667-288.501-122s-107.5-194.333-107.5-339c0-134 35-241.667 105-323s165.667-122 287-122c123.333 0 218.333 40 285 120s100 191 100 333c0 146-33.167 258-99.5 336s-160.166 117-281.499 117zM749 1188c-18 0-34.332 6.5-48.999 19.5s-22 30.5-22 52.5c0 20.667 7.167 37.334 21.5 50.001s30.166 19 47.499 19c19.333 0 36.833-6.5 52.5-19.5s23.5-29.5 23.5-49.5c0-20.667-7.167-37.834-21.5-51.501S769.667 1188 749 1188zm-332.999 0c-18.667 0-35.332 6.5-49.999 19.5s-22 30.5-22 52.5c0 20.667 7.333 37.334 22 50.001s30.667 19 48 19c19.333 0 36.666-6.5 51.999-19.5s23-29.5 23-49.5c0-20.667-7-37.834-21-51.501s-31.333-20.5-52-20.5z" glyph-name="odieresis" horiz-adv-x="1149" unicode="ö"/><glyph d="M668 866c-21.333 0-39.666 7.667-54.999 23s-23 33.666-23 54.999 7.667 39.333 23 54 33.666 22 54.999 22 39.166-7.333 53.499-22 21.5-32.667 21.5-54-7.167-39.666-21.5-54.999-32.166-23-53.499-23zM213 555v84h907v-84H213zm455-381c-21.333 0-39.666 7.667-54.999 23s-23 33.666-23 54.999 7.667 39.333 23 54 33.666 22 54.999 22 39.166-7.333 53.499-22 21.5-32.667 21.5-54-7.167-39.666-21.5-54.999-32.166-23-53.499-23z" glyph-name="divide" horiz-adv-x="1331" unicode="÷"/><glyph d="M961 870c65.333-93.333 98-213.333 98-360 0-159.333-43.167-288.333-129.5-387S725-25 575-25C447-25 340.667 12.667 256 88L90-96 29-39l170 189C126.333 247.333 90 366 90 506c0 170 45.5 303 136.5 399s210.833 144 359.5 144c132.667 0 239.667-38.333 321-115l172 190 62-55zm-115-4c-66 66-153.999 99-263.999 99-120.667 0-216.834-40.667-288.501-122S186 648.667 186 504c0-111.333 25.333-206.333 76-285zm51.001-67l-582-643c69.333-64.667 157-97 263-97 123.333 0 218.333 40 285 120s100 191 100 333c0 114-22 209.667-66 287z" glyph-name="oslash" horiz-adv-x="1149" unicode="ø"/><glyph d="M840 0v186.001h-4c-71.333-140.667-181.333-211-330-211-242 0-363 152.333-363 457v592h93v-569c0-138.667 22.833-239.334 68.5-302.001S422 59 520 59c95.333 0 172.5 35 231.5 105S840 327.333 840 444v580h92V0h-92zM558 1188l-248 328h104l234-328h-90z" glyph-name="ugrave" unicode="ù"/><glyph d="M840 0v186.001h-4c-71.333-140.667-181.333-211-330-211-242 0-363 152.333-363 457v592h93v-569c0-138.667 22.833-239.334 68.5-302.001S422 59 520 59c95.333 0 172.5 35 231.5 105S840 327.333 840 444v580h92V0h-92zM543 1188h-90l234 328h104z" glyph-name="uacute" unicode="ú"/><glyph d="M840 0v186.001h-4c-71.333-140.667-181.333-211-330-211-242 0-363 152.333-363 457v592h93v-569c0-138.667 22.833-239.334 68.5-302.001S422 59 520 59c95.333 0 172.5 35 231.5 105S840 327.333 840 444v580h92V0h-92zM726 1188l-157 239-160-239h-82l221 336h45l219-336h-86z" glyph-name="ucircumflex" unicode="û"/><glyph d="M840 0v186.001h-4c-71.333-140.667-181.333-211-330-211-242 0-363 152.333-363 457v592h93v-569c0-138.667 22.833-239.334 68.5-302.001S422 59 520 59c95.333 0 172.5 35 231.5 105S840 327.333 840 444v580h92V0h-92zM735 1188c-18 0-34.332 6.5-48.999 19.5s-22 30.5-22 52.5c0 20.667 7.167 37.334 21.5 50.001s30.166 19 47.499 19c19.333 0 36.833-6.5 52.5-19.5s23.5-29.5 23.5-49.5c0-20.667-7.167-37.834-21.5-51.501S755.667 1188 735 1188zm-332.999 0c-18.667 0-35.332 6.5-49.999 19.5s-22 30.5-22 52.5c0 20.667 7.333 37.334 22 50.001s30.667 19 48 19c19.333 0 36.666-6.5 51.999-19.5s23-29.5 23-49.5c0-20.667-7-37.834-21-51.501s-31.333-20.5-52-20.5z" glyph-name="udieresis" unicode="ü"/><glyph d="M414-209c-37.333-92-78.669-160.333-124.002-205s-103.666-67-174.999-67c-30 0-56.667 4.667-80 14v92c24-9.333 52-14 84-14 82 0 146.667 56.667 194 170l95 227-388 1016h103l309-834c6.667-18 11.334-31.667 14.001-41 2.667-12.667 5.667-24 9-34h4l24 69 330 840h100zm33.997 1397h-90l234 328h104z" glyph-name="yacute" horiz-adv-x="928" unicode="ý"/><glyph d="M260 182h-4.001v-653h-92v1987h92V813h4c36.667 75.333 89.167 133.5 157.5 174.5s143.5 61.5 225.5 61.5c130 0 231.5-44.833 304.5-134.5s109.5-211.5 109.5-365.5c0-171.333-41.833-309.833-125.5-415.5S737.332-25 599.999-25C446.666-25 333.333 44 260 182zm-4.001 381l-.001-128.999c0-102.667 32.333-190.834 97-264.501S502.665 59 607.998 59c104.667 0 189.667 44.833 255 134.5s98 207.5 98 353.5c0 128-30 229.667-90 305s-140 113-240 113c-119.333 0-211.666-40-276.999-120s-98-174-98-282z" glyph-name="thorn" horiz-adv-x="1147" unicode="þ"/><glyph d="M414-209c-37.333-92-78.669-160.333-124.002-205s-103.666-67-174.999-67c-30 0-56.667 4.667-80 14v92c24-9.333 52-14 84-14 82 0 146.667 56.667 194 170l95 227-388 1016h103l309-834c6.667-18 11.334-31.667 14.001-41 2.667-12.667 5.667-24 9-34h4l24 69 330 840h100zm221.997 1397c-18 0-34.332 6.5-48.999 19.5s-22 30.5-22 52.5c0 20.667 7.167 37.334 21.5 50.001s30.166 19 47.499 19c19.333 0 36.833-6.5 52.5-19.5s23.5-29.5 23.5-49.5c0-20.667-7.167-37.834-21.5-51.501s-31.833-20.5-52.5-20.5zm-332.999 0c-18.667 0-35.332 6.5-49.999 19.5s-22 30.5-22 52.5c0 20.667 7.333 37.334 22 50.001s30.667 19 48 19c19.333 0 36.666-6.5 51.999-19.5s23-29.5 23-49.5c0-20.667-7-37.834-21-51.501s-31.333-20.5-52-20.5z" glyph-name="ydieresis" horiz-adv-x="928" unicode="ÿ"/><glyph d="M1118 0L954 446H332L168 0H59l541 1434h94L1229 0h-111zM678 1200c-7.333 20-13.333 39.666-18 58.999A1424.032 1424.032 0 0 1 645 1309h-4c-11.333-44-22.333-79.667-33-107L367 537h553zm-290 336v84h508v-84H388z" glyph-name="Amacron" horiz-adv-x="1288" unicode="Ā"/><glyph d="M776 0l.001 205h-4c-32.667-70-80.167-125.833-142.5-167.5S498.001-25 422.001-25c-97.333 0-174.333 27.333-231 82s-85 123.667-85 207c0 178.667 118.333 286.667 355 324l315 47c0 220-82.667 330-248 330C415.334 965 305.667 919.667 199 829v111c38 30 89.5 55.667 154.5 77s126.167 32 183.5 32c105.333 0 186.833-32.667 244.5-98S868 790.667 868 666V0h-92zM494.001 510c-107.333-15.333-182.667-40.168-226-74.501s-65-90.166-65-167.499c0-60.667 20.167-110.667 60.5-150s96.5-59 168.5-59c98.667 0 180.667 36.5 246 109.5s98 167.167 98 282.5v100zM267 1188v84h508v-84H267z" glyph-name="amacron" horiz-adv-x="1012" unicode="ā"/><glyph d="M1118 0L954 446H332L168 0H59l541 1434h94L1229 0h-111zM678 1200c-7.333 20-13.333 39.666-18 58.999A1424.032 1424.032 0 0 1 645 1309h-4c-11.333-44-22.333-79.667-33-107L367 537h553zm241 572c-10.667-72-40.501-129.167-89.501-171.5s-109.833-63.5-182.5-63.5c-73.333 0-134.166 20.667-182.499 62s-75.5 99-81.5 173h84c4-50 22.5-89 55.5-117s75.167-42 126.5-42c45.333 0 85.5 14.5 120.5 43.5S825 1724 831 1772h88z" glyph-name="Abreve" horiz-adv-x="1288" unicode="Ă"/><glyph d="M776 0l.001 205h-4c-32.667-70-80.167-125.833-142.5-167.5S498.001-25 422.001-25c-97.333 0-174.333 27.333-231 82s-85 123.667-85 207c0 178.667 118.333 286.667 355 324l315 47c0 220-82.667 330-248 330C415.334 965 305.667 919.667 199 829v111c38 30 89.5 55.667 154.5 77s126.167 32 183.5 32c105.333 0 186.833-32.667 244.5-98S868 790.667 868 666V0h-92zM494.001 510c-107.333-15.333-182.667-40.168-226-74.501s-65-90.166-65-167.499c0-60.667 20.167-110.667 60.5-150s96.5-59 168.5-59c98.667 0 180.667 36.5 246 109.5s98 167.167 98 282.5v100zM784 1423c-10.667-72-40.501-129.167-89.501-171.5s-109.833-63.5-182.5-63.5c-73.333 0-134.166 20.667-182.499 62s-75.5 99-81.5 173h84c4-50 22.5-89 55.5-117s75.167-42 126.5-42c45.333 0 85.5 14.5 120.5 43.5S690 1375 696 1423h88z" glyph-name="abreve" horiz-adv-x="1012" unicode="ă"/><glyph d="M1118 0L954 446H332L168 0H59l541 1434h94L1229 0h-111zM678 1200c-7.333 20-13.333 39.666-18 58.999A1424.032 1424.032 0 0 1 645 1309h-4c-11.333-44-22.333-79.667-33-107L367 537h553zM1206-.001c-113.333-90-169.998-170.001-169.998-240.001 0-58.667 28-88 84-88 25.333 0 52 5.667 80 17v-70c-32.667-12-64-18-94-18-46.667 0-84.334 13.5-113.001 40.5s-43 64.5-43 112.5c0 36.667 14.167 77.334 42.5 122.001s70.166 86 125.499 124h88z" glyph-name="Aogonek" horiz-adv-x="1288" unicode="Ą"/><glyph d="M776 0l.001 205h-4c-32.667-70-80.167-125.833-142.5-167.5S498.001-25 422.001-25c-97.333 0-174.333 27.333-231 82s-85 123.667-85 207c0 178.667 118.333 286.667 355 324l315 47c0 220-82.667 330-248 330C415.334 965 305.667 919.667 199 829v111c38 30 89.5 55.667 154.5 77s126.167 32 183.5 32c105.333 0 186.833-32.667 244.5-98S868 790.667 868 666V0h-92zM494.001 510c-107.333-15.333-182.667-40.168-226-74.501s-65-90.166-65-167.499c0-60.667 20.167-110.667 60.5-150s96.5-59 168.5-59c98.667 0 180.667 36.5 246 109.5s98 167.167 98 282.5v100zM864-.002c-113.333-90-169.998-170.001-169.998-240.001 0-58.667 28-88 84-88 25.333 0 52 5.667 80 17v-70c-32.667-12-64-18-94-18-46.667 0-84.334 13.5-113.001 40.5s-43 64.5-43 112.5c0 36.667 14.167 77.334 42.5 122.001s70.166 86 125.499 124h88z" glyph-name="aogonek" horiz-adv-x="1012" unicode="ą"/><glyph d="M1137 47C1021-1 900-25 774-25c-196 0-355.833 65.833-479.5 197.5S109 476 109 688c0 232.667 67 419.167 201 559.5S614.333 1458 821 1458c110 0 215.333-17.667 316-53v-105c-100.667 45.333-206.667 68-318 68-180 0-326.333-61-439-183S211 900.667 211 698c0-195.333 53.833-349.5 161.5-462.5S616.667 66 782 66c132 0 250.333 25.667 355 77V47zM696 1536h-90l234 328h104z" glyph-name="Cacute" horiz-adv-x="1272" unicode="Ć"/><glyph d="M827 45C751-1.667 660.331-25.002 554.998-25.002c-139.333 0-251.666 47.833-336.999 143.5s-128 220.834-128 375.501c0 162.667 48 295.834 144 399.501s219.333 155.5 370 155.5c78 0 153.667-16 227-48V897C757.666 942.333 677.333 965 590 965c-120 0-217.333-43.167-292-129.5S186 637.334 186 500.001C186 367.334 220.167 260.667 288.5 180S447 59 559 59c102.667 0 192 27.333 268 82V45zM509.998 1188h-90l234 328h104z" glyph-name="cacute" horiz-adv-x="909" unicode="ć"/><glyph d="M1137 47C1021-1 900-25 774-25c-196 0-355.833 65.833-479.5 197.5S109 476 109 688c0 232.667 67 419.167 201 559.5S614.333 1458 821 1458c110 0 215.333-17.667 316-53v-105c-100.667 45.333-206.667 68-318 68-180 0-326.333-61-439-183S211 900.667 211 698c0-195.333 53.833-349.5 161.5-462.5S616.667 66 782 66c132 0 250.333 25.667 355 77V47zM920 1537l-157 239-160-239h-82l221 336h45l219-336h-86z" glyph-name="Ccircumflex" horiz-adv-x="1272" unicode="Ĉ"/><glyph d="M827 45C751-1.667 660.331-25.002 554.998-25.002c-139.333 0-251.666 47.833-336.999 143.5s-128 220.834-128 375.501c0 162.667 48 295.834 144 399.501s219.333 155.5 370 155.5c78 0 153.667-16 227-48V897C757.666 942.333 677.333 965 590 965c-120 0-217.333-43.167-292-129.5S186 637.334 186 500.001C186 367.334 220.167 260.667 288.5 180S447 59 559 59c102.667 0 192 27.333 268 82V45zM703.998 1188l-157 239-160-239h-82l221 336h45l219-336h-86z" glyph-name="ccircumflex" horiz-adv-x="909" unicode="ĉ"/><glyph d="M1137 47C1021-1 900-25 774-25c-196 0-355.833 65.833-479.5 197.5S109 476 109 688c0 232.667 67 419.167 201 559.5S614.333 1458 821 1458c110 0 215.333-17.667 316-53v-105c-100.667 45.333-206.667 68-318 68-180 0-326.333-61-439-183S211 900.667 211 698c0-195.333 53.833-349.5 161.5-462.5S616.667 66 782 66c132 0 250.333 25.667 355 77V47zM767 1536c-20.667 0-38.834 7.331-54.501 21.998s-23.5 33.334-23.5 56.001 7.833 40.5 23.5 53.5 33.167 19.5 52.5 19.5c20.667 0 39.167-6.5 55.5-19.5s24.5-30.833 24.5-53.5c0-21.333-7.667-39.666-23-54.999s-33.666-23-54.999-23z" glyph-name="Cdotaccent" horiz-adv-x="1272" unicode="Ċ"/><glyph d="M827 45C751-1.667 660.331-25.002 554.998-25.002c-139.333 0-251.666 47.833-336.999 143.5s-128 220.834-128 375.501c0 162.667 48 295.834 144 399.501s219.333 155.5 370 155.5c78 0 153.667-16 227-48V897C757.666 942.333 677.333 965 590 965c-120 0-217.333-43.167-292-129.5S186 637.334 186 500.001C186 367.334 220.167 260.667 288.5 180S447 59 559 59c102.667 0 192 27.333 268 82V45zM559.998 1188c-20.667 0-38.834 7.331-54.501 21.998s-23.5 33.334-23.5 56.001 7.833 40.5 23.5 53.5 33.167 19.5 52.5 19.5c20.667 0 39.167-6.5 55.5-19.5s24.5-30.833 24.5-53.5c0-21.333-7.667-39.666-23-54.999s-33.666-23-54.999-23z" glyph-name="cdotaccent" horiz-adv-x="909" unicode="ċ"/><glyph d="M1137 47C1021-1 900-25 774-25c-196 0-355.833 65.833-479.5 197.5S109 476 109 688c0 232.667 67 419.167 201 559.5S614.333 1458 821 1458c110 0 215.333-17.667 316-53v-105c-100.667 45.333-206.667 68-318 68-180 0-326.333-61-439-183S211 900.667 211 698c0-195.333 53.833-349.5 161.5-462.5S616.667 66 782 66c132 0 250.333 25.667 355 77V47zM802 1536h-45l-220 336h86l158-240 160 240h82z" glyph-name="Ccaron" horiz-adv-x="1272" unicode="Č"/><glyph d="M827 45C751-1.667 660.331-25.002 554.998-25.002c-139.333 0-251.666 47.833-336.999 143.5s-128 220.834-128 375.501c0 162.667 48 295.834 144 399.501s219.333 155.5 370 155.5c78 0 153.667-16 227-48V897C757.666 942.333 677.333 965 590 965c-120 0-217.333-43.167-292-129.5S186 637.334 186 500.001C186 367.334 220.167 260.667 288.5 180S447 59 559 59c102.667 0 192 27.333 268 82V45zM597.998 1188h-45l-220 336h86l158-240 160 240h82z" glyph-name="ccaron" horiz-adv-x="909" unicode="č"/><glyph d="M184 0v1434h359c238 0 419-59.333 543-178s186-291.667 186-519c0-218.667-66.5-396.167-199.5-532.5S756 0 522 0H184zm99 1343V90h225c212.667 0 376 55.167 490 165.5S1169 525 1169 733c0 406.667-213.667 610-641 610H283zm408 193h-45l-220 336h86l158-240 160 240h82z" glyph-name="Dcaron" horiz-adv-x="1380" unicode="Ď"/><glyph d="M891 0v186.001h-4c-33.333-64.667-82.666-116-147.999-154s-139-57-221-57c-126 0-228.833 46-308.5 138s-119.5 219-119.5 381c0 165.333 43.5 299.166 130.5 401.499s199.833 153.5 338.5 153.5c153.333 0 262.666-63 327.999-189h4v656h92V0h-92zm0 623.001c0 95.333-30.167 176.167-90.5 242.5s-141.5 99.5-243.5 99.5c-107.333 0-196-41.167-266-123.5s-105-195.5-105-339.5c0-141.333 31.5-250.5 94.5-327.5s144.167-115.5 243.5-115.5c116.667 0 207 36.167 271 108.5s96 160.5 96 264.5v191zM1301 1516l-126-261h-79l93 261h112z" glyph-name="dcaron" horiz-adv-x="1254" unicode="ď"/><glyph d="M184 0l-.002 668h-149v88h149v678h359c238.667 0 419.834-59.167 543.501-177.5s185.5-291.5 185.5-519.5c0-221.333-67.167-399.5-201.5-534.5S753.333 0 522 0H184zm98.998 1343V756h403v-88h-403V90h225c212 0 375.167 55 489.5 165s171.5 269.333 171.5 478c0 406.667-213.667 610-641 610h-245z" glyph-name="Dcroat" horiz-adv-x="1380" unicode="Đ"/><glyph d="M891 0v186.001h-4c-33.333-64.667-82.666-116-147.999-154s-139-57-221-57c-126 0-228.833 46-308.5 138s-119.5 219-119.5 381c0 165.333 43.5 299.166 130.5 401.499s199.833 153.5 338.5 153.5c153.333 0 262.666-63 327.999-189h4v371H556v84h335v201h92v-201h135v-84H983V0h-92zm0 623.001c0 95.333-30.167 176.167-90.5 242.5s-141.5 99.5-243.5 99.5c-107.333 0-196-41.167-266-123.5s-105-195.5-105-339.5c0-141.333 31.5-250.5 94.5-327.5s144.167-115.5 243.5-115.5c116.667 0 207 36.167 271 108.5s96 160.5 96 264.5v191z" glyph-name="dcroat" horiz-adv-x="1147" unicode="đ"/><glyph d="M184 0v1434h670v-91H283V768h530v-90H283V90h604V0H184zm89 1535v84h508v-84H273z" glyph-name="Emacron" horiz-adv-x="1024" unicode="Ē"/><glyph d="M186 508c0-140.667 32.5-250.667 97.5-330S437.667 59 551 59c114.667 0 226.667 42.333 336 127V88C781 12.667 662.667-25 532-25c-132 0-238.667 47.333-320 142S90 345.334 90 518.001c0 149.333 42.5 275.166 127.5 377.499S413 1049 549 1049c127.333 0 225-44.667 293-134s102-211.333 102-366v-41H186zm662 84c-4 118-32.332 209.667-84.999 275S637.667 965 545 965c-96 0-175.5-32.167-238.5-96.5S204.667 712 190 592h658zm-562.999 596v84h508v-84h-508z" glyph-name="emacron" horiz-adv-x="1034" unicode="ē"/><glyph d="M184 0v1434h670v-91H283V768h530v-90H283V90h604V0H184zm621 1772c-10.667-72-40.501-129.167-89.501-171.5s-109.833-63.5-182.5-63.5c-73.333 0-134.166 20.667-182.499 62s-75.5 99-81.5 173h84c4-50 22.5-89 55.5-117s75.167-42 126.5-42c45.333 0 85.5 14.5 120.5 43.5S711 1724 717 1772h88z" glyph-name="Ebreve" horiz-adv-x="1024" unicode="Ĕ"/><glyph d="M186 508c0-140.667 32.5-250.667 97.5-330S437.667 59 551 59c114.667 0 226.667 42.333 336 127V88C781 12.667 662.667-25 532-25c-132 0-238.667 47.333-320 142S90 345.334 90 518.001c0 149.333 42.5 275.166 127.5 377.499S413 1049 549 1049c127.333 0 225-44.667 293-134s102-211.333 102-366v-41H186zm662 84c-4 118-32.332 209.667-84.999 275S637.667 965 545 965c-96 0-175.5-32.167-238.5-96.5S204.667 712 190 592h658zm-37.999 831c-10.667-72-40.501-129.167-89.501-171.5S610.667 1188 538 1188c-73.333 0-134.166 20.667-182.499 62s-75.5 99-81.5 173h84c4-50 22.5-89 55.5-117s75.167-42 126.5-42c45.333 0 85.5 14.5 120.5 43.5s55.5 67.5 61.5 115.5h88z" glyph-name="ebreve" horiz-adv-x="1034" unicode="ĕ"/><glyph d="M184 0v1434h670v-91H283V768h530v-90H283V90h604V0H184zm340 1536c-20.667 0-38.834 7.331-54.501 21.998s-23.5 33.334-23.5 56.001 7.833 40.5 23.5 53.5 33.167 19.5 52.5 19.5c20.667 0 39.167-6.5 55.5-19.5s24.5-30.833 24.5-53.5c0-21.333-7.667-39.666-23-54.999s-33.666-23-54.999-23z" glyph-name="Edotaccent" horiz-adv-x="1024" unicode="Ė"/><glyph d="M186 508c0-140.667 32.5-250.667 97.5-330S437.667 59 551 59c114.667 0 226.667 42.333 336 127V88C781 12.667 662.667-25 532-25c-132 0-238.667 47.333-320 142S90 345.334 90 518.001c0 149.333 42.5 275.166 127.5 377.499S413 1049 549 1049c127.333 0 225-44.667 293-134s102-211.333 102-366v-41H186zm662 84c-4 118-32.332 209.667-84.999 275S637.667 965 545 965c-96 0-175.5-32.167-238.5-96.5S204.667 712 190 592h658zm-306.999 596c-20.667 0-38.834 7.331-54.501 21.998s-23.5 33.334-23.5 56.001 7.833 40.5 23.5 53.5 33.167 19.5 52.5 19.5c20.667 0 39.167-6.5 55.5-19.5s24.5-30.833 24.5-53.5c0-21.333-7.667-39.666-23-54.999s-33.666-23-54.999-23z" glyph-name="edotaccent" horiz-adv-x="1034" unicode="ė"/><glyph d="M184 0v1434h670v-91H283V768h530v-90H283V90h604V0H184zm661 0C731.667-90 675.002-170.001 675.002-240.001c0-58.667 28-88 84-88 25.333 0 52 5.667 80 17v-70c-32.667-12-64-18-94-18-46.667 0-84.334 13.5-113.001 40.5s-43 64.5-43 112.5c0 36.667 14.167 77.334 42.5 122.001S701.667-38 757 0h88z" glyph-name="Eogonek" horiz-adv-x="1024" unicode="Ę"/><glyph d="M186 508c0-140.667 32.5-250.667 97.5-330S437.667 59 551 59c114.667 0 226.667 42.333 336 127V88C781 12.667 662.667-25 532-25c-132 0-238.667 47.333-320 142S90 345.334 90 518.001c0 149.333 42.5 275.166 127.5 377.499S413 1049 549 1049c127.333 0 225-44.667 293-134s102-211.333 102-366v-41H186zm662 84c-4 118-32.332 209.667-84.999 275S637.667 965 545 965c-96 0-175.5-32.167-238.5-96.5S204.667 712 190 592h658zM675.001 0C561.668-90 505.003-170.001 505.003-240.001c0-58.667 28-88 84-88 25.333 0 52 5.667 80 17v-70c-32.667-12-64-18-94-18-46.667 0-84.334 13.5-113.001 40.5s-43 64.5-43 112.5c0 36.667 14.167 77.334 42.5 122.001S531.668-38 587.001 0h88z" glyph-name="eogonek" horiz-adv-x="1034" unicode="ę"/><glyph d="M184 0v1434h670v-91H283V768h530v-90H283V90h604V0H184zm358 1536h-45l-220 336h86l158-240 160 240h82z" glyph-name="Ecaron" horiz-adv-x="1024" unicode="Ě"/><glyph d="M186 508c0-140.667 32.5-250.667 97.5-330S437.667 59 551 59c114.667 0 226.667 42.333 336 127V88C781 12.667 662.667-25 532-25c-132 0-238.667 47.333-320 142S90 345.334 90 518.001c0 149.333 42.5 275.166 127.5 377.499S413 1049 549 1049c127.333 0 225-44.667 293-134s102-211.333 102-366v-41H186zm662 84c-4 118-32.332 209.667-84.999 275S637.667 965 545 965c-96 0-175.5-32.167-238.5-96.5S204.667 712 190 592h658zm-291.999 596h-45l-220 336h86l158-240 160 240h82z" glyph-name="ecaron" horiz-adv-x="1034" unicode="ě"/><glyph d="M1221 100C1073 16.667 920.669-25.001 764.002-25.001c-195.333 0-353.333 66.333-474 199s-181 306.667-181 522c0 217.333 65 398.666 195 543.999s303.667 218 521 218c126 0 248.333-25.333 367-76v-108c-130 62.667-257 94-381 94-180.667 0-325.834-61.667-435.501-185s-164.5-280.666-164.5-471.999c0-201.333 51.5-359.166 154.5-473.499S607.334 66 782.001 66c129.333 0 242.666 28 339.999 84v473H784v90h437V100zM934.002 1538l-157 239-160-239h-82l221 336h45l219-336h-86z" glyph-name="Gcircumflex" horiz-adv-x="1368" unicode="Ĝ"/><glyph d="M983 76c0-192.667-41.999-333.665-125.999-422.998s-214.667-134-392-134c-98.667 0-200.334 26-305.001 78v96c108-60 210.333-90 307-90 282.667 0 424 149.333 424 448v133h-4c-80.667-139.333-203.667-209-369-209-126 0-228.833 45.667-308.5 137S90 330.668 90 494.001 133 790.667 219 894s199.333 155 340 155c150.667 0 260-62.333 328-187h4v162h92V76zm-91.999 555.002c0 90.667-30.499 169.001-91.499 235.001s-140.5 99-238.5 99c-112.667 0-203.334-42.333-272.001-127s-103-196.667-103-336c0-140 31.5-248.833 94.5-326.5s146.167-116.5 249.5-116.5c110 0 197.667 35.667 263 107s98 158.666 98 261.999v203zM729.002 1188l-157 239-160-239h-82l221 336h45l219-336h-86z" glyph-name="gcircumflex" horiz-adv-x="1147" unicode="ĝ"/><glyph d="M1221 100C1073 16.667 920.669-25.001 764.002-25.001c-195.333 0-353.333 66.333-474 199s-181 306.667-181 522c0 217.333 65 398.666 195 543.999s303.667 218 521 218c126 0 248.333-25.333 367-76v-108c-130 62.667-257 94-381 94-180.667 0-325.834-61.667-435.501-185s-164.5-280.666-164.5-471.999c0-201.333 51.5-359.166 154.5-473.499S607.334 66 782.001 66c129.333 0 242.666 28 339.999 84v473H784v90h437V100zm-167 1670c-10.667-72-40.501-129.167-89.501-171.5s-109.833-63.5-182.5-63.5c-73.333 0-134.166 20.667-182.499 62s-75.5 99-81.5 173h84c4-50 22.5-89 55.5-117s75.167-42 126.5-42c45.333 0 85.5 14.5 120.5 43.5S960 1722 966 1770h88z" glyph-name="Gbreve" horiz-adv-x="1368" unicode="Ğ"/><glyph d="M983 76c0-192.667-41.999-333.665-125.999-422.998s-214.667-134-392-134c-98.667 0-200.334 26-305.001 78v96c108-60 210.333-90 307-90 282.667 0 424 149.333 424 448v133h-4c-80.667-139.333-203.667-209-369-209-126 0-228.833 45.667-308.5 137S90 330.668 90 494.001 133 790.667 219 894s199.333 155 340 155c150.667 0 260-62.333 328-187h4v162h92V76zm-91.999 555.002c0 90.667-30.499 169.001-91.499 235.001s-140.5 99-238.5 99c-112.667 0-203.334-42.333-272.001-127s-103-196.667-103-336c0-140 31.5-248.833 94.5-326.5s146.167-116.5 249.5-116.5c110 0 197.667 35.667 263 107s98 158.666 98 261.999v203zM846.002 1423c-10.667-72-40.501-129.167-89.501-171.5s-109.833-63.5-182.5-63.5c-73.333 0-134.166 20.667-182.499 62s-75.5 99-81.5 173h84c4-50 22.5-89 55.5-117s75.167-42 126.5-42c45.333 0 85.5 14.5 120.5 43.5s55.5 67.5 61.5 115.5h88z" glyph-name="gbreve" horiz-adv-x="1147" unicode="ğ"/><glyph d="M1221 100C1073 16.667 920.669-25.001 764.002-25.001c-195.333 0-353.333 66.333-474 199s-181 306.667-181 522c0 217.333 65 398.666 195 543.999s303.667 218 521 218c126 0 248.333-25.333 367-76v-108c-130 62.667-257 94-381 94-180.667 0-325.834-61.667-435.501-185s-164.5-280.666-164.5-471.999c0-201.333 51.5-359.166 154.5-473.499S607.334 66 782.001 66c129.333 0 242.666 28 339.999 84v473H784v90h437V100zM772.002 1536c-20.667 0-38.834 7.331-54.501 21.998s-23.5 33.334-23.5 56.001 7.833 40.5 23.5 53.5 33.167 19.5 52.5 19.5c20.667 0 39.167-6.5 55.5-19.5s24.5-30.833 24.5-53.5c0-21.333-7.667-39.666-23-54.999s-33.666-23-54.999-23z" glyph-name="Gdotaccent" horiz-adv-x="1368" unicode="Ġ"/><glyph d="M983 76c0-192.667-41.999-333.665-125.999-422.998s-214.667-134-392-134c-98.667 0-200.334 26-305.001 78v96c108-60 210.333-90 307-90 282.667 0 424 149.333 424 448v133h-4c-80.667-139.333-203.667-209-369-209-126 0-228.833 45.667-308.5 137S90 330.668 90 494.001 133 790.667 219 894s199.333 155 340 155c150.667 0 260-62.333 328-187h4v162h92V76zm-91.999 555.002c0 90.667-30.499 169.001-91.499 235.001s-140.5 99-238.5 99c-112.667 0-203.334-42.333-272.001-127s-103-196.667-103-336c0-140 31.5-248.833 94.5-326.5s146.167-116.5 249.5-116.5c110 0 197.667 35.667 263 107s98 158.666 98 261.999v203zM558.002 1188c-20.667 0-38.834 7.331-54.501 21.998s-23.5 33.334-23.5 56.001 7.833 40.5 23.5 53.5 33.167 19.5 52.5 19.5c20.667 0 39.167-6.5 55.5-19.5s24.5-30.833 24.5-53.5c0-21.333-7.667-39.666-23-54.999s-33.666-23-54.999-23z" glyph-name="gdotaccent" horiz-adv-x="1147" unicode="ġ"/><glyph d="M1221 100C1073 16.667 920.669-25.001 764.002-25.001c-195.333 0-353.333 66.333-474 199s-181 306.667-181 522c0 217.333 65 398.666 195 543.999s303.667 218 521 218c126 0 248.333-25.333 367-76v-108c-130 62.667-257 94-381 94-180.667 0-325.834-61.667-435.501-185s-164.5-280.666-164.5-471.999c0-201.333 51.5-359.166 154.5-473.499S607.334 66 782.001 66c129.333 0 242.666 28 339.999 84v473H784v90h437V100zM856.002-118.001l-126-261h-79l93 261h112z" glyph-name="Gcommaaccent" horiz-adv-x="1368" unicode="Ģ"/><glyph d="M470 1219l126 261h79l-93-261H470zM983 76c0-192.667-41.999-333.665-125.999-422.998s-214.667-134-392-134c-98.667 0-200.334 26-305.001 78v96c108-60 210.333-90 307-90 282.667 0 424 149.333 424 448v133h-4c-80.667-139.333-203.667-209-369-209-126 0-228.833 45.667-308.5 137S90 330.668 90 494.001 133 790.667 219 894s199.333 155 340 155c150.667 0 260-62.333 328-187h4v162h92V76zm-91.999 555.002c0 90.667-30.499 169.001-91.499 235.001s-140.5 99-238.5 99c-112.667 0-203.334-42.333-272.001-127s-103-196.667-103-336c0-140 31.5-248.833 94.5-326.5s146.167-116.5 249.5-116.5c110 0 197.667 35.667 263 107s98 158.666 98 261.999v203z" glyph-name="gcommaaccent" horiz-adv-x="1147" unicode="ģ"/><glyph d="M1104 0v688H283V0h-99v1434h99V778h821v656h98V0h-98zM848 1536l-157 239-160-239h-82l221 336h45l219-336h-86z" glyph-name="Hcircumflex" horiz-adv-x="1386" unicode="Ĥ"/><glyph d="M860 0v614c0 121.333-22 210.166-66 266.499s-112.667 84.5-206 84.5c-88 0-165.333-34.333-232-103s-100-167-100-295v-567h-92v1516h92v-676h4c80.667 139.333 198 209 352 209 110.667 0 195-35.667 253-107S952 768.333 952 635V0h-92zM731 1617l-157 239-160-239h-82l221 336h45l219-336h-86z" glyph-name="hcircumflex" unicode="ĥ"/><glyph d="M61 1045v91h123v298h99v-298h821v298h98v-298h123v-91h-123V0h-98v688H283V0h-99v1045H61zm1043-267v267H283V778h821z" glyph-name="Hbar" horiz-adv-x="1386" unicode="Ħ"/><glyph d="M883 0l-.003 590.001c0 120.667-22.167 209.167-66.5 265.5s-113.166 84.5-206.499 84.5c-19.333 0-41-2.5-65-7.5s-48.167-13.5-72.5-25.5-48.166-28-71.499-48-44-44.667-62-74-32.5-64-43.5-104-16.5-86-16.5-138v-543h-93v1231H51v84h135v201h93v-201h389v-84H279v-416h4c16 29.333 35.5 56.666 58.5 81.999s49.167 47.5 78.5 66.5 61.833 33.833 97.5 44.5 74.834 16 117.501 16c57.333 0 107.333-9.5 150-28.5s78-46.333 106-82 49-79 63-130 21-108.833 21-173.5V0h-92z" glyph-name="hbar" unicode="ħ"/><glyph d="M283 1434V0h-99v1434h99zm262 335c0-68.667-16.167-123-48.5-163s-75.833-60-130.5-60c-44 0-94.333 25.333-151 76-42.667 36.667-82.334 55-119.001 55-68 0-102-47.667-102-143h-72c0 66.667 16 120.167 48 160.5s74.667 60.5 128 60.5c48 0 101.333-24 160-72 44.667-39.333 83.667-59 117-59 26.667 0 49.334 12.333 68.001 37s28 60.667 28 108h74z" glyph-name="Itilde" horiz-adv-x="467" unicode="Ĩ"/><glyph d="M164 0v1024h92V0h-92zm360 1423c0-68.667-16.167-123-48.5-163s-75.833-60-130.5-60c-44 0-94.333 25.333-151 76-42.667 36.667-82.334 55-119.001 55-68 0-102-47.667-102-143h-72c0 66.667 16 120.167 48 160.5s74.667 60.5 128 60.5c48 0 101.333-24 160-72 44.667-39.333 83.667-59 117-59 26.667 0 49.334 12.333 68.001 37s28 60.667 28 108h74z" glyph-name="itilde" horiz-adv-x="420" unicode="ĩ"/><glyph d="M283 1434V0h-99v1434h99zm-302 102v84h508v-84H-19z" glyph-name="Imacron" horiz-adv-x="467" unicode="Ī"/><glyph d="M164 0v1024h92V0h-92zM-44 1188v84h508v-84H-44z" glyph-name="imacron" horiz-adv-x="420" unicode="ī"/><glyph d="M283 1434V0h-99v1434h99zm216 337c-10.667-72-40.501-129.167-89.501-171.5s-109.833-63.5-182.5-63.5c-73.333 0-134.166 20.667-182.499 62S-31 1697-37 1771h84c4-50 22.5-89 55.5-117s75.167-42 126.5-42c45.333 0 85.5 14.5 120.5 43.5S405 1723 411 1771h88z" glyph-name="Ibreve" horiz-adv-x="467" unicode="Ĭ"/><glyph d="M164 0v1024h92V0h-92zm314 1423c-10.667-72-40.501-129.167-89.501-171.5s-109.833-63.5-182.5-63.5c-73.333 0-134.166 20.667-182.499 62S-52 1349-58 1423h84c4-50 22.5-89 55.5-117s75.167-42 126.5-42c45.333 0 85.5 14.5 120.5 43.5S384 1375 390 1423h88z" glyph-name="ibreve" horiz-adv-x="420" unicode="ĭ"/><glyph d="M283 1434V0h-99v1434h99zM283 0C169.667-90 113.002-170.001 113.002-240.001c0-58.667 28-88 84-88 25.333 0 52 5.667 80 17v-70c-32.667-12-64-18-94-18-46.667 0-84.334 13.5-113.001 40.5s-43 64.5-43 112.5c0 36.667 14.167 77.334 42.5 122.001S139.667-38 195 0h88z" glyph-name="Iogonek" horiz-adv-x="467" unicode="Į"/><glyph d="M209 1282c-20 0-37.669 7.331-53.002 21.998s-23 33.334-23 56.001c0 22 7.833 39.833 23.5 53.5s33.167 20.5 52.5 20.5c20.667 0 38.834-6.667 54.501-20s23.5-31.333 23.5-54c0-21.333-7.667-39.666-23-54.999s-33.666-23-54.999-23zM163.998-.002v1024h92v-1024h-92zm94 0C144.665-90.002 88-170.003 88-240.003c0-58.667 28-88 84-88 25.333 0 52 5.667 80 17v-70c-32.667-12-64-18-94-18-46.667 0-84.334 13.5-113.001 40.5s-43 64.5-43 112.5c0 36.667 14.167 77.334 42.5 122.001s70.166 86 125.499 124h88z" glyph-name="iogonek" horiz-adv-x="420" unicode="į"/><glyph d="M283 1434V0h-99v1434h99zm-52 103c-20.667 0-38.834 7.331-54.501 21.998s-23.5 33.334-23.5 56.001 7.833 40.5 23.5 53.5 33.167 19.5 52.5 19.5c20.667 0 39.167-6.5 55.5-19.5s24.5-30.833 24.5-53.5c0-21.333-7.667-39.666-23-54.999s-33.666-23-54.999-23z" glyph-name="Idotaccent" horiz-adv-x="467" unicode="İ"/><glyph d="M164 0v1024h92V0h-92z" glyph-name="dotlessi" horiz-adv-x="420" unicode="ı"/><glyph d="M974 494c0-346-120.001-519-360.001-519-37.333 0-73.666 5-108.999 15v96c39.333-13.333 76.333-20 111-20 92 0 158.333 34.833 199 104.5s61 178.167 61 325.5v938h98V494zm-691.001 940V0h-99v1434h99z" glyph-name="IJ" horiz-adv-x="1151" unicode="Ĳ"/><glyph d="M209 1282c-20 0-37.669 7.331-53.002 21.998s-23 33.334-23 56.001c0 22 7.833 39.833 23.5 53.5s33.167 20.5 52.5 20.5c20.667 0 38.834-6.667 54.501-20s23.5-31.333 23.5-54c0-21.333-7.667-39.666-23-54.999s-33.666-23-54.999-23zM163.998-.002v1024h92v-1024h-92zm465 1282.002c-20 0-37.669 7.331-53.002 21.998s-23 33.334-23 56.001c0 22 7.833 39.833 23.5 53.5s33.167 20.5 52.5 20.5c20.667 0 38.834-6.667 54.501-20s23.5-31.333 23.5-54c0-21.333-7.667-39.666-23-54.999s-33.666-23-54.999-23zM675.996 28.996c0-340-120.667-510-362-510-48 0-96.667 11.667-146 35v96c53.333-31.333 105.333-47 156-47 173.333 0 260 136.333 260 409v1012h92v-995z" glyph-name="ij" horiz-adv-x="840" unicode="ĳ"/><glyph d="M487 494c0-346-120.001-519-360.001-519C89.666-25 53.333-20 18-10v96c39.333-13.333 76.333-20 111-20 92 0 158.333 34.833 199 104.5s61 178.167 61 325.5v938h98V494zm103.999 1042l-157 239-160-239h-82l221 336h45l219-336h-86z" glyph-name="Jcircumflex" horiz-adv-x="664" unicode="Ĵ"/><glyph d="M256 29c0-340-120.667-510-362-510-48 0-96.667 11.667-146 35v96c53.333-31.333 105.333-47 156-47 173.333 0 260 136.333 260 409v1012h92V29zm104 1159l-157 239-160-239h-82l221 336h45l219-336h-86z" glyph-name="jcircumflex" horiz-adv-x="420" unicode="ĵ"/><glyph d="M922 0L311 686c-11.333 12.667-19.333 23.667-24 33h-4V0h-99v1434h99V758h4c8 14 16.667 25.667 26 35l580 641h129L393 739 1061 0H922zM668-118L542-379h-79l93 261h112z" glyph-name="Kcommaaccent" horiz-adv-x="1079" unicode="Ķ"/><glyph d="M750 0L260 506h-4V0h-92v1516h92V539h4l465 485h119L358 528 883 0H750zM561-118L435-379h-79l93 261h112z" glyph-name="kcommaaccent" horiz-adv-x="909" unicode="ķ"/><glyph d="M750 0L260 506h-4V0h-92v1024h92V539h4l465 485h119L358 528 883 0H750z" glyph-name="kgreenlandic" horiz-adv-x="909" unicode="ĸ"/><glyph d="M184 0v1434h99V90h575V0H184zm375 1536h-90l234 328h104z" glyph-name="Lacute" horiz-adv-x="938" unicode="Ĺ"/><glyph d="M164 0v1516h92V0h-92zm75 1621h-90l234 328h104z" glyph-name="lacute" horiz-adv-x="420" unicode="ĺ"/><glyph d="M184 0v1434h99V90h575V0H184zm242-430l-.001 74c33.333-4 62-6 86-6 106.667 0 160 30.667 160 92 0 57.333-48.333 86-145 86A515.422 515.422 0 0 1 463-188V0h72v-117c150 0 225-49 225-147 0-113.333-84.667-170-254-170-24 0-50.667 1.333-80 4z" glyph-name="Lcommaaccent" horiz-adv-x="938" unicode="Ļ"/><glyph d="M164 0v1516h92V0h-92zm-34-430l-.001 74c33.333-4 62-6 86-6 106.667 0 160 30.667 160 92 0 57.333-48.333 86-145 86A515.422 515.422 0 0 1 167-188V0h72v-117c150 0 225-49 225-147 0-113.333-84.667-170-254-170-24 0-50.667 1.333-80 4z" glyph-name="lcommaaccent" horiz-adv-x="420" unicode="ļ"/><glyph d="M184 0v1434h99V90h575V0H184zm641 1434l-126-261h-79l93 261h112z" glyph-name="Lcaron" horiz-adv-x="938" unicode="Ľ"/><glyph d="M164 0v1516h92V0h-92zm410 1516l-126-261h-79l93 261h112z" glyph-name="lcaron" horiz-adv-x="527" unicode="ľ"/><glyph d="M184 0v1434h99V90h575V0H184zm471 625c-22.667 0-41.667 8-57 24s-23 35.333-23 58 7.667 41.5 23 56.5 34.333 22.5 57 22.5 42-7.5 58-22.5 24-33.833 24-56.5-8-42-24-58-35.333-24-58-24z" glyph-name="Ldot" horiz-adv-x="938" unicode="Ŀ"/><glyph d="M164 0v1516h92V0h-92zm291 625c-22.667 0-41.667 8-57 24s-23 35.333-23 58 7.667 41.5 23 56.5 34.333 22.5 57 22.5 42-7.5 58-22.5 24-33.833 24-56.5-8-42-24-58-35.333-24-58-24z" glyph-name="ldot" horiz-adv-x="538" unicode="ŀ"/><glyph d="M184 0v569L70 500v96l114 70v768h99V725l366 223v-96L283 629V90h575V0H184z" glyph-name="Lslash" horiz-adv-x="938" unicode="Ł"/><glyph d="M297 700V0h-92v631L25 494v96l180 137v789h92V797l182 135v-96z" glyph-name="lslash" horiz-adv-x="502" unicode="ł"/><glyph d="M1198 0L343.999 1159c-17.333 23.333-32.666 46.666-45.999 69.999l-13 20h-4c1.333-17.333 2-38.333 2-63v-1186h-99v1434h76l848-1149c18.667-25.333 39-56 61-92h5c-3.333 46.667-5 86.667-5 120v1121h99v-1434h-70zM708.999 1536h-90l234 328h104z" glyph-name="Nacute" horiz-adv-x="1452" unicode="Ń"/><glyph d="M860 0l-.002 596.001c0 246-88.667 369-266 369-98.667 0-179.667-36.167-243-108.5s-95-161.833-95-268.5v-588h-92v1024h92v-186h4c74.667 140.667 191.334 211 350.001 211 110.667 0 195.334-36.833 254.001-110.5S952 759.667 952 623V0h-92zM538.998 1188h-90l234 328h104z" glyph-name="nacute" unicode="ń"/><glyph d="M1198 0L343.999 1159c-17.333 23.333-32.666 46.666-45.999 69.999l-13 20h-4c1.333-17.333 2-38.333 2-63v-1186h-99v1434h76l848-1149c18.667-25.333 39-56 61-92h5c-3.333 46.667-5 86.667-5 120v1121h99v-1434h-70zM799.999-117.999l-126-261h-79l93 261h112z" glyph-name="Ncommaaccent" horiz-adv-x="1452" unicode="Ņ"/><glyph d="M860 0l-.002 596.001c0 246-88.667 369-266 369-98.667 0-179.667-36.167-243-108.5s-95-161.833-95-268.5v-588h-92v1024h92v-186h4c74.667 140.667 191.334 211 350.001 211 110.667 0 195.334-36.833 254.001-110.5S952 759.667 952 623V0h-92zM626.998-117.999l-126-261h-79l93 261h112z" glyph-name="ncommaaccent" unicode="ņ"/><glyph d="M1198 0L343.999 1159c-17.333 23.333-32.666 46.666-45.999 69.999l-13 20h-4c1.333-17.333 2-38.333 2-63v-1186h-99v1434h76l848-1149c18.667-25.333 39-56 61-92h5c-3.333 46.667-5 86.667-5 120v1121h99v-1434h-70zM762.999 1536h-45l-220 336h86l158-240 160 240h82z" glyph-name="Ncaron" horiz-adv-x="1452" unicode="Ň"/><glyph d="M860 0l-.002 596.001c0 246-88.667 369-266 369-98.667 0-179.667-36.167-243-108.5s-95-161.833-95-268.5v-588h-92v1024h92v-186h4c74.667 140.667 191.334 211 350.001 211 110.667 0 195.334-36.833 254.001-110.5S952 759.667 952 623V0h-92zM593.998 1188h-45l-220 336h86l158-240 160 240h82z" glyph-name="ncaron" unicode="ň"/><glyph d="M940 0l-.002 596.001c0 246-88.667 369-266 369-98.667 0-179.667-36.167-243-108.5s-95-161.833-95-268.5v-588h-92v1024h92v-186h4c74.667 140.667 191.334 211 350.001 211 110.667 0 195.334-36.833 254.001-110.5s88-178.834 88-315.501V0h-92zM46.998 985.001h-73l125 449h104z" glyph-name="napostrophe" horiz-adv-x="1176" unicode="ŉ"/><glyph d="M1268 0c0-282-109.666-423.001-328.999-423.001-38 0-74.333 5-109 15v96c40-13.333 77-20 111-20 84.667 0 145.667 26.333 183 79s56 136.334 56 251.001v3l-836 1158a506.526 506.526 0 0 0-24.501 35l-21.5 35-13 20h-4c.667-8.667 1.167-18.167 1.5-28.5s.5-21.833.5-34.5V0h-99v1434h76l848-1172c9.333-12.667 19-26.667 29-42l32-50h5c-1.333 23.333-2.5 45-3.5 65s-1.5 38.333-1.5 55v1144h99V0z" glyph-name="Eng" horiz-adv-x="1444" unicode="Ŋ"/><glyph d="M952 2c0-143.333-24.499-249.834-73.499-319.501s-122.833-104.5-221.5-104.5c-20 0-42.333 3-67 9s-46.667 14.667-66 26v96c21.333-15.333 43.666-27 66.999-35s45.333-12 66-12c70.667 0 122.167 27.833 154.5 83.5S860-113.334 860 1.999v594c0 246-88.667 369-266 369-99.333 0-180.333-36.333-243-109-63.333-72.667-95-162-95-268v-588h-92v1024h92v-186h4c74.667 140.667 191.334 211 350.001 211 111.333 0 196.166-36.667 254.499-110S952 760.333 952 623V2z" glyph-name="eng" unicode="ŋ"/><glyph d="M774-25c-202.667 0-364.167 67.332-484.5 201.999S109 486.666 109 701.999c0 228.667 61.833 411.834 185.5 549.501S587 1458 801 1458c193.333 0 349.833-66.167 469.5-198.5S1450 953.667 1450 739c0-237.333-61.333-424-184-560S979.333-25 774-25zm10 1393c-166.667 0-303.832-60.335-411.499-181.002s-161.5-278.667-161.5-474c0-197.333 51-354.5 153-471.5s238-175.5 408-175.5c177.333 0 317.666 57.833 420.999 173.5s155 276.834 155 483.501c0 202.667-50.5 360.834-151.5 474.501S958 1368 784 1368zm-247.998 168v84h508v-84h-508z" glyph-name="Omacron" horiz-adv-x="1559" unicode="Ō"/><glyph d="M575-25c-149.333 0-267.5 49.168-354.5 147.501S90 348.667 90 506c0 170 45.5 303 136.5 399s210.833 144 359.5 144c146 0 261.333-47.667 346-143s127-227.333 127-396c0-159.333-43.167-288.333-129.5-387S725-25 575-25zm7 990.001c-120.667 0-216.834-40.667-288.501-122s-107.5-194.333-107.5-339c0-134 35-241.667 105-323s165.667-122 287-122c123.333 0 218.333 40 285 120s100 191 100 333c0 146-33.167 258-99.5 336s-160.166 117-281.499 117zM334 1188v84h508v-84H334z" glyph-name="omacron" horiz-adv-x="1149" unicode="ō"/><glyph d="M774-25c-202.667 0-364.167 67.332-484.5 201.999S109 486.666 109 701.999c0 228.667 61.833 411.834 185.5 549.501S587 1458 801 1458c193.333 0 349.833-66.167 469.5-198.5S1450 953.667 1450 739c0-237.333-61.333-424-184-560S979.333-25 774-25zm10 1393c-166.667 0-303.832-60.335-411.499-181.002s-161.5-278.667-161.5-474c0-197.333 51-354.5 153-471.5s238-175.5 408-175.5c177.333 0 317.666 57.833 420.999 173.5s155 276.834 155 483.501c0 202.667-50.5 360.834-151.5 474.501S958 1368 784 1368zm275 404c-10.667-72-40.501-129.167-89.501-171.5s-109.833-63.5-182.5-63.5c-73.333 0-134.166 20.667-182.499 62s-75.5 99-81.5 173h84c4-50 22.5-89 55.5-117s75.167-42 126.5-42c45.333 0 85.5 14.5 120.5 43.5S965 1724 971 1772h88z" glyph-name="Obreve" horiz-adv-x="1559" unicode="Ŏ"/><glyph d="M575-25c-149.333 0-267.5 49.168-354.5 147.501S90 348.667 90 506c0 170 45.5 303 136.5 399s210.833 144 359.5 144c146 0 261.333-47.667 346-143s127-227.333 127-396c0-159.333-43.167-288.333-129.5-387S725-25 575-25zm7 990.001c-120.667 0-216.834-40.667-288.501-122s-107.5-194.333-107.5-339c0-134 35-241.667 105-323s165.667-122 287-122c123.333 0 218.333 40 285 120s100 191 100 333c0 146-33.167 258-99.5 336s-160.166 117-281.499 117zM852 1423c-10.667-72-40.501-129.167-89.501-171.5s-109.833-63.5-182.5-63.5c-73.333 0-134.166 20.667-182.499 62s-75.5 99-81.5 173h84c4-50 22.5-89 55.5-117s75.167-42 126.5-42c45.333 0 85.5 14.5 120.5 43.5S758 1375 764 1423h88z" glyph-name="obreve" horiz-adv-x="1149" unicode="ŏ"/><glyph d="M774-25c-202.667 0-364.167 67.332-484.5 201.999S109 486.666 109 701.999c0 228.667 61.833 411.834 185.5 549.501S587 1458 801 1458c193.333 0 349.833-66.167 469.5-198.5S1450 953.667 1450 739c0-237.333-61.333-424-184-560S979.333-25 774-25zm10 1393c-166.667 0-303.832-60.335-411.499-181.002s-161.5-278.667-161.5-474c0-197.333 51-354.5 153-471.5s238-175.5 408-175.5c177.333 0 317.666 57.833 420.999 173.5s155 276.834 155 483.501c0 202.667-50.5 360.834-151.5 474.501S958 1368 784 1368zm81.002 169h-74l211 317h110zm-222 0h-73l211 317h110z" glyph-name="Ohungarumlaut" horiz-adv-x="1559" unicode="Ő"/><glyph d="M575-25c-149.333 0-267.5 49.168-354.5 147.501S90 348.667 90 506c0 170 45.5 303 136.5 399s210.833 144 359.5 144c146 0 261.333-47.667 346-143s127-227.333 127-396c0-159.333-43.167-288.333-129.5-387S725-25 575-25zm7 990.001c-120.667 0-216.834-40.667-288.501-122s-107.5-194.333-107.5-339c0-134 35-241.667 105-323s165.667-122 287-122c123.333 0 218.333 40 285 120s100 191 100 333c0 146-33.167 258-99.5 336s-160.166 117-281.499 117zM676 1188h-74l211 317h110zm-222 0h-73l211 317h110z" glyph-name="ohungarumlaut" horiz-adv-x="1149" unicode="ő"/><glyph d="M1077 0C961-16.667 866.999-24.999 794.999-24.999c-217.333 0-386 67.667-506 203s-180 310-180 524c0 229.333 62.333 412.666 187 549.999S592.333 1458 811 1458c94 0 182.667-8 266-24h670v-91h-571V768h530v-90h-530V90h604V0h-703zm0 1341c-86.667 18-177.333 27-272 27-182 0-326.5-61-433.5-183S211 905.667 211 713c0-194.667 50.667-351.167 152-469.5S607.666 66 792.999 66C885.666 66 980.333 76 1077 96v1245z" glyph-name="OE" horiz-adv-x="1935" unicode="Œ"/><glyph d="M1057 508c0-139.333 32.166-249 96.499-329s153.5-120 267.5-120c116 0 228 42.333 336 127V88c-104.667-75.333-221.334-113-350.001-113-196 0-327.667 99-395 297h-4C930.665 74 786.332-25 574.999-25c-150.667 0-269.167 49.667-355.5 149s-129.5 226.666-129.5 381.999c0 172 45.667 305.5 137 400.5s211 142.5 359 142.5c104 0 193.333-26.667 268-80s126.667-125.666 156-216.999h4c76.667 198 212.334 297 407.001 297 126.667 0 224-44.167 292-132.5s102-210.833 102-367.5v-41h-758zm661 84c-4 118-32.332 209.667-84.999 275S1507.667 965 1415 965c-96.667 0-176.667-32.667-240-98s-101.333-157-114-275h657zM582 965c-120.667 0-216.834-40.667-288.501-122s-107.5-194.333-107.5-339c0-134 35-241.667 105-323s165.667-122 287-122c123.333 0 218.333 40 285 120s100 191 100 333c0 146-33.167 258-99.5 336S703.333 965 582 965z" glyph-name="oe" horiz-adv-x="1886" unicode="œ"/><glyph d="M918 0L726.998 419.998c-39.333 86.667-78.666 144.834-117.999 174.501s-88.666 44.5-147.999 44.5H283v-639h-99v1434h398c126.667 0 226.167-34.167 298.5-102.5s108.5-158.5 108.5-270.5c0-103.333-29.667-189.666-89-258.999S757.667 688 651 668v-4c56.667-22.667 112-91.667 166-207L1030 0H918zM282.998 1343l.001-614h247c109.333 0 196.166 28.667 260.499 86s96.5 136 96.5 236c0 91.333-29 162.833-87 214.5s-141 77.5-249 77.5h-268zm272.001 193h-90l234 328h104z" glyph-name="Racute" horiz-adv-x="1137" unicode="Ŕ"/><glyph d="M647 928c-30.667 22-66.667 32.999-108 32.999-80.667 0-148.334-41.667-203.001-125s-82-201.666-82-354.999V0h-90v1024h90V797h4c23.333 78 60.333 138.667 111 182s109.334 65 176.001 65c38 0 72-6 102-18v-98zm-256 260h-90l234 328h104z" glyph-name="racute" horiz-adv-x="676" unicode="ŕ"/><glyph d="M918 0L726.998 419.998c-39.333 86.667-78.666 144.834-117.999 174.501s-88.666 44.5-147.999 44.5H283v-639h-99v1434h398c126.667 0 226.167-34.167 298.5-102.5s108.5-158.5 108.5-270.5c0-103.333-29.667-189.666-89-258.999S757.667 688 651 668v-4c56.667-22.667 112-91.667 166-207L1030 0H918zM282.998 1343l.001-614h247c109.333 0 196.166 28.667 260.499 86s96.5 136 96.5 236c0 91.333-29 162.833-87 214.5s-141 77.5-249 77.5h-268zM640.999-118.002l-126-261h-79l93 261h112z" glyph-name="Rcommaaccent" horiz-adv-x="1137" unicode="Ŗ"/><glyph d="M647 928c-30.667 22-66.667 32.999-108 32.999-80.667 0-148.334-41.667-203.001-125s-82-201.666-82-354.999V0h-90v1024h90V797h4c23.333 78 60.333 138.667 111 182s109.334 65 176.001 65c38 0 72-6 102-18v-98zM502-118.001l-126-261h-79l93 261h112z" glyph-name="rcommaaccent" horiz-adv-x="676" unicode="ŗ"/><glyph d="M918 0L726.998 419.998c-39.333 86.667-78.666 144.834-117.999 174.501s-88.666 44.5-147.999 44.5H283v-639h-99v1434h398c126.667 0 226.167-34.167 298.5-102.5s108.5-158.5 108.5-270.5c0-103.333-29.667-189.666-89-258.999S757.667 688 651 668v-4c56.667-22.667 112-91.667 166-207L1030 0H918zM282.998 1343l.001-614h247c109.333 0 196.166 28.667 260.499 86s96.5 136 96.5 236c0 91.333-29 162.833-87 214.5s-141 77.5-249 77.5h-268zm293.001 193h-45l-220 336h86l158-240 160 240h82z" glyph-name="Rcaron" horiz-adv-x="1137" unicode="Ř"/><glyph d="M647 928c-30.667 22-66.667 32.999-108 32.999-80.667 0-148.334-41.667-203.001-125s-82-201.666-82-354.999V0h-90v1024h90V797h4c23.333 78 60.333 138.667 111 182s109.334 65 176.001 65c38 0 72-6 102-18v-98zm-235 260h-45l-220 336h86l158-240 160 240h82z" glyph-name="rcaron" horiz-adv-x="676" unicode="ř"/><glyph d="M139 51l-.001 113c102.667-65.333 206.667-98 312-98 112 0 197 23.167 255 69.5s87 111.166 87 194.499c0 73.333-19.5 131.833-58.5 175.5s-123.5 103.167-253.5 178.5c-145.333 84.667-237.333 155.5-276 212.5s-58 122.833-58 197.5c0 101.333 39.333 187.333 118 258s183.667 106 315 106c85.333 0 170.666-14.333 255.999-43v-104c-84 38-173.667 57-269 57-97.333 0-174.5-24.667-231.5-74s-85.5-112-85.5-188c0-73.333 19.5-131.666 58.5-174.999s123.167-102.333 252.5-177c134-76 223.167-143.5 267.5-202.5s66.5-126.833 66.5-203.5c0-110-38.167-199.667-114.5-269S596.332-25 456.999-25C407.666-25 350.833-17.333 286.5-2S173 31 139 51zm358.999 1484h-90l234 328h104z" glyph-name="Sacute" horiz-adv-x="1018" unicode="Ś"/><glyph d="M111 45l-.002 110.999c34.667-30 76.667-53.667 126-71s92-26 128-26c160.667 0 241 65.667 241 197 0 45.333-17.667 84-53 116s-92.666 65-171.999 99c-98 42.667-166.833 86.834-206.5 132.501s-59.5 101.167-59.5 166.5c0 83.333 31.833 150.666 95.5 201.999s142.167 77 235.5 77c88 0 163.333-18 226-54v-104c-76 49.333-154.667 74-236 74-67.333 0-121.666-17.5-162.999-52.5s-62-80.5-62-136.5c0-48.667 13-88.167 39-118.5S333.333 592.333 422 553c106.667-48 180-92.5 220-133.5S702 324 702 256c0-81.333-30.5-148.5-91.5-201.5S465.333-25 358-25c-98.667 0-181 23.333-247 70zm269.998 1143h-90l234 328h104z" glyph-name="sacute" horiz-adv-x="795" unicode="ś"/><glyph d="M139 51l-.001 113c102.667-65.333 206.667-98 312-98 112 0 197 23.167 255 69.5s87 111.166 87 194.499c0 73.333-19.5 131.833-58.5 175.5s-123.5 103.167-253.5 178.5c-145.333 84.667-237.333 155.5-276 212.5s-58 122.833-58 197.5c0 101.333 39.333 187.333 118 258s183.667 106 315 106c85.333 0 170.666-14.333 255.999-43v-104c-84 38-173.667 57-269 57-97.333 0-174.5-24.667-231.5-74s-85.5-112-85.5-188c0-73.333 19.5-131.666 58.5-174.999s123.167-102.333 252.5-177c134-76 223.167-143.5 267.5-202.5s66.5-126.833 66.5-203.5c0-110-38.167-199.667-114.5-269S596.332-25 456.999-25C407.666-25 350.833-17.333 286.5-2S173 31 139 51zm541.999 1485l-157 239-160-239h-82l221 336h45l219-336h-86z" glyph-name="Scircumflex" horiz-adv-x="1018" unicode="Ŝ"/><glyph d="M111 45l-.002 110.999c34.667-30 76.667-53.667 126-71s92-26 128-26c160.667 0 241 65.667 241 197 0 45.333-17.667 84-53 116s-92.666 65-171.999 99c-98 42.667-166.833 86.834-206.5 132.501s-59.5 101.167-59.5 166.5c0 83.333 31.833 150.666 95.5 201.999s142.167 77 235.5 77c88 0 163.333-18 226-54v-104c-76 49.333-154.667 74-236 74-67.333 0-121.666-17.5-162.999-52.5s-62-80.5-62-136.5c0-48.667 13-88.167 39-118.5S333.333 592.333 422 553c106.667-48 180-92.5 220-133.5S702 324 702 256c0-81.333-30.5-148.5-91.5-201.5S465.333-25 358-25c-98.667 0-181 23.333-247 70zm464.998 1143l-157 239-160-239h-82l221 336h45l219-336h-86z" glyph-name="scircumflex" horiz-adv-x="795" unicode="ŝ"/><glyph d="M139 51l-.001 113c102.667-65.333 206.667-98 312-98 112 0 197 23.167 255 69.5s87 111.166 87 194.499c0 73.333-19.5 131.833-58.5 175.5s-123.5 103.167-253.5 178.5c-145.333 84.667-237.333 155.5-276 212.5s-58 122.833-58 197.5c0 101.333 39.333 187.333 118 258s183.667 106 315 106c85.333 0 170.666-14.333 255.999-43v-104c-84 38-173.667 57-269 57-97.333 0-174.5-24.667-231.5-74s-85.5-112-85.5-188c0-73.333 19.5-131.666 58.5-174.999s123.167-102.333 252.5-177c134-76 223.167-143.5 267.5-202.5s66.5-126.833 66.5-203.5c0-110-38.167-199.667-114.5-269S596.332-25 456.999-25C407.666-25 350.833-17.333 286.5-2S173 31 139 51zm257.999-481l-.001 74c33.333-4 62-6 86-6 106.667 0 160 30.667 160 92 0 57.333-48.333 86-145 86a515.422 515.422 0 0 1-63.999-4V0h72v-117c150 0 225-49 225-147 0-113.333-84.667-170-254-170-24 0-50.667 1.333-80 4z" glyph-name="Scedilla" horiz-adv-x="1018" unicode="Ş"/><glyph d="M111 45l-.002 110.999c34.667-30 76.667-53.667 126-71s92-26 128-26c160.667 0 241 65.667 241 197 0 45.333-17.667 84-53 116s-92.666 65-171.999 99c-98 42.667-166.833 86.834-206.5 132.501s-59.5 101.167-59.5 166.5c0 83.333 31.833 150.666 95.5 201.999s142.167 77 235.5 77c88 0 163.333-18 226-54v-104c-76 49.333-154.667 74-236 74-67.333 0-121.666-17.5-162.999-52.5s-62-80.5-62-136.5c0-48.667 13-88.167 39-118.5S333.333 592.333 422 553c106.667-48 180-92.5 220-133.5S702 324 702 256c0-81.333-30.5-148.5-91.5-201.5S465.333-25 358-25c-98.667 0-181 23.333-247 70zm165.998-475.001l-.001 74c33.333-4 62-6 86-6 106.667 0 160 30.667 160 92 0 57.333-48.333 86-145 86a515.422 515.422 0 0 1-63.999-4v188h72v-117c150 0 225-49 225-147 0-113.333-84.667-170-254-170-24 0-50.667 1.333-80 4z" glyph-name="scedilla" horiz-adv-x="795" unicode="ş"/><glyph d="M139 51l-.001 113c102.667-65.333 206.667-98 312-98 112 0 197 23.167 255 69.5s87 111.166 87 194.499c0 73.333-19.5 131.833-58.5 175.5s-123.5 103.167-253.5 178.5c-145.333 84.667-237.333 155.5-276 212.5s-58 122.833-58 197.5c0 101.333 39.333 187.333 118 258s183.667 106 315 106c85.333 0 170.666-14.333 255.999-43v-104c-84 38-173.667 57-269 57-97.333 0-174.5-24.667-231.5-74s-85.5-112-85.5-188c0-73.333 19.5-131.666 58.5-174.999s123.167-102.333 252.5-177c134-76 223.167-143.5 267.5-202.5s66.5-126.833 66.5-203.5c0-110-38.167-199.667-114.5-269S596.332-25 456.999-25C407.666-25 350.833-17.333 286.5-2S173 31 139 51zm426.999 1516h-45l-220 336h86l158-240 160 240h82z" glyph-name="Scaron" horiz-adv-x="1018" unicode="Š"/><glyph d="M111 45l-.002 110.999c34.667-30 76.667-53.667 126-71s92-26 128-26c160.667 0 241 65.667 241 197 0 45.333-17.667 84-53 116s-92.666 65-171.999 99c-98 42.667-166.833 86.834-206.5 132.501s-59.5 101.167-59.5 166.5c0 83.333 31.833 150.666 95.5 201.999s142.167 77 235.5 77c88 0 163.333-18 226-54v-104c-76 49.333-154.667 74-236 74-67.333 0-121.666-17.5-162.999-52.5s-62-80.5-62-136.5c0-48.667 13-88.167 39-118.5S333.333 592.333 422 553c106.667-48 180-92.5 220-133.5S702 324 702 256c0-81.333-30.5-148.5-91.5-201.5S465.333-25 358-25c-98.667 0-181 23.333-247 70zm333.998 1143h-45l-220 336h86l158-240 160 240h82z" glyph-name="scaron" horiz-adv-x="795" unicode="š"/><glyph d="M573 1343V0h-98v1343H61v91h926v-91H573zM447-430l-.001 74c33.333-4 62-6 86-6 106.667 0 160 30.667 160 92 0 57.333-48.333 86-145 86A515.422 515.422 0 0 1 484-188V0h72v-117c150 0 225-49 225-147 0-113.333-84.667-170-254-170-24 0-50.667 1.333-80 4z" glyph-name="Tcommaaccent" horiz-adv-x="1047" unicode="Ţ"/><glyph d="M569 14c-48-22.667-92.999-33.999-134.999-33.999-151.333 0-227 90.667-227 272v688h-184v84h184v266l46 16c16 4.667 31.333 9.667 46 15v-297h270v-84h-270v-676c0-70.667 11.167-121.834 33.5-153.501S392.667 63 446 63c38 0 79 12.333 123 37V14zM278.001-429.999l-.001 74c33.333-4 62-6 86-6 106.667 0 160 30.667 160 92 0 57.333-48.333 86-145 86a515.422 515.422 0 0 1-63.999-4v188h72v-117c150 0 225-49 225-147 0-113.333-84.667-170-254-170-24 0-50.667 1.333-80 4z" glyph-name="tcommaaccent" horiz-adv-x="608" unicode="ţ"/><glyph d="M573 1343V0h-98v1343H61v91h926v-91H573zm-26 193h-45l-220 336h86l158-240 160 240h82z" glyph-name="Tcaron" horiz-adv-x="1047" unicode="Ť"/><glyph d="M569 14c-48-22.667-92.999-33.999-134.999-33.999-151.333 0-227 90.667-227 272v688h-184v84h184v266l46 16c16 4.667 31.333 9.667 46 15v-297h270v-84h-270v-676c0-70.667 11.167-121.834 33.5-153.501S392.667 63 446 63c38 0 79 12.333 123 37V14zm106.001 1502l-126-261h-79l93 261h112z" glyph-name="tcaron" horiz-adv-x="664" unicode="ť"/><glyph d="M573 1343V767h324v-91H573V0h-98v676H151v91h324v576H61v91h926v-91H573z" glyph-name="Tbar" horiz-adv-x="1047" unicode="Ŧ"/><glyph d="M569 14c-48-22.667-92.999-33.999-134.999-33.999-151.333 0-227 90.667-227 272v320h-164v84h164v284h-184v84h184v266l46 16c16 4.667 31.333 9.667 46 15v-297h270v-84h-270v-284h240v-84h-240v-308c0-70.667 11.167-121.834 33.5-153.501S392.667 63 446 63c38 0 79 12.333 123 37V14z" glyph-name="tbar" horiz-adv-x="608" unicode="ŧ"/><glyph d="M1161 573c0-398.667-170-598-510-598-323.333 0-485 192-485 576v883h98V565c0-332.667 135.333-499 406-499 262 0 393 161.667 393 485v883h98V573zM978 1771c0-68.667-16.167-123-48.5-163s-75.833-60-130.5-60c-44 0-94.333 25.333-151 76-42.667 36.667-82.334 55-119.001 55-68 0-102-47.667-102-143h-72c0 66.667 16 120.167 48 160.5s74.667 60.5 128 60.5c48 0 101.333-24 160-72 44.667-39.333 83.667-59 117-59 26.667 0 49.334 12.333 68.001 37s28 60.667 28 108h74z" glyph-name="Utilde" horiz-adv-x="1327" unicode="Ũ"/><glyph d="M840 0v186.001h-4c-71.333-140.667-181.333-211-330-211-242 0-363 152.333-363 457v592h93v-569c0-138.667 22.833-239.334 68.5-302.001S422 59 520 59c95.333 0 172.5 35 231.5 105S840 327.333 840 444v580h92V0h-92zm11 1423c0-68.667-16.167-123-48.5-163s-75.833-60-130.5-60c-44 0-94.333 25.333-151 76-42.667 36.667-82.334 55-119.001 55-68 0-102-47.667-102-143h-72c0 66.667 16 120.167 48 160.5s74.667 60.5 128 60.5c48 0 101.333-24 160-72 44.667-39.333 83.667-59 117-59 26.667 0 49.334 12.333 68.001 37s28 60.667 28 108h74z" glyph-name="utilde" unicode="ũ"/><glyph d="M1161 573c0-398.667-170-598-510-598-323.333 0-485 192-485 576v883h98V565c0-332.667 135.333-499 406-499 262 0 393 161.667 393 485v883h98V573zm-753 962v84h508v-84H408z" glyph-name="Umacron" horiz-adv-x="1327" unicode="Ū"/><glyph d="M840 0v186.001h-4c-71.333-140.667-181.333-211-330-211-242 0-363 152.333-363 457v592h93v-569c0-138.667 22.833-239.334 68.5-302.001S422 59 520 59c95.333 0 172.5 35 231.5 105S840 327.333 840 444v580h92V0h-92zM280 1188v84h508v-84H280z" glyph-name="umacron" unicode="ū"/><glyph d="M1161 573c0-398.667-170-598-510-598-323.333 0-485 192-485 576v883h98V565c0-332.667 135.333-499 406-499 262 0 393 161.667 393 485v883h98V573zM927 1771c-10.667-72-40.501-129.167-89.501-171.5s-109.833-63.5-182.5-63.5c-73.333 0-134.166 20.667-182.499 62s-75.5 99-81.5 173h84c4-50 22.5-89 55.5-117s75.167-42 126.5-42c45.333 0 85.5 14.5 120.5 43.5S833 1723 839 1771h88z" glyph-name="Ubreve" horiz-adv-x="1327" unicode="Ŭ"/><glyph d="M840 0v186.001h-4c-71.333-140.667-181.333-211-330-211-242 0-363 152.333-363 457v592h93v-569c0-138.667 22.833-239.334 68.5-302.001S422 59 520 59c95.333 0 172.5 35 231.5 105S840 327.333 840 444v580h92V0h-92zm-29 1423c-10.667-72-40.501-129.167-89.501-171.5s-109.833-63.5-182.5-63.5c-73.333 0-134.166 20.667-182.499 62s-75.5 99-81.5 173h84c4-50 22.5-89 55.5-117s75.167-42 126.5-42c45.333 0 85.5 14.5 120.5 43.5S717 1375 723 1423h88z" glyph-name="ubreve" unicode="ŭ"/><glyph d="M1161 573c0-398.667-170-598-510-598-323.333 0-485 192-485 576v883h98V565c0-332.667 135.333-499 406-499 262 0 393 161.667 393 485v883h98V573zm-488 962c-57.333 0-105.167 16.833-143.5 50.5S472 1663.667 472 1719c0 53.333 19 97.333 57 132s86 52 144 52c58.667 0 106.834-16.833 144.501-50.5s56.5-78.167 56.5-133.5c0-53.333-19.333-97.333-58-132s-86.334-52-143.001-52zm-.001 301c-38 0-68.667-10.67-92-32.003s-35-49.666-35-84.999 12.167-63.666 36.5-84.999 54.5-32 90.5-32c38 0 69 10.833 93 32.5s36 49.834 36 84.501c0 38-12.5 67-37.5 87s-55.5 30-91.5 30z" glyph-name="Uring" horiz-adv-x="1327" unicode="Ů"/><glyph d="M840 0v186.001h-4c-71.333-140.667-181.333-211-330-211-242 0-363 152.333-363 457v592h93v-569c0-138.667 22.833-239.334 68.5-302.001S422 59 520 59c95.333 0 172.5 35 231.5 105S840 327.333 840 444v580h92V0h-92zM538 1188c-57.333 0-105.167 16.833-143.5 50.5S337 1316.667 337 1372c0 53.333 19 97.333 57 132s86 52 144 52c58.667 0 106.834-16.833 144.501-50.5s56.5-78.167 56.5-133.5c0-53.333-19.333-97.333-58-132s-86.334-52-143.001-52zm-.001 301c-38 0-68.667-10.67-92-32.003s-35-49.666-35-84.999 12.167-63.666 36.5-84.999 54.5-32 90.5-32c38 0 69 10.833 93 32.5s36 49.834 36 84.501c0 38-12.5 67-37.5 87s-55.5 30-91.5 30z" glyph-name="uring" unicode="ů"/><glyph d="M1161 573c0-398.667-170-598-510-598-323.333 0-485 192-485 576v883h98V565c0-332.667 135.333-499 406-499 262 0 393 161.667 393 485v883h98V573zm-403 963h-74l211 317h110zm-222 0h-73l211 317h110z" glyph-name="Uhungarumlaut" horiz-adv-x="1327" unicode="Ű"/><glyph d="M840 0v186.001h-4c-71.333-140.667-181.333-211-330-211-242 0-363 152.333-363 457v592h93v-569c0-138.667 22.833-239.334 68.5-302.001S422 59 520 59c95.333 0 172.5 35 231.5 105S840 327.333 840 444v580h92V0h-92zM643 1188h-74l211 317h110zm-222 0h-73l211 317h110z" glyph-name="uhungarumlaut" unicode="ű"/><glyph d="M1161 573c0-398.667-170-598-510-598-323.333 0-485 192-485 576v883h98V565c0-332.667 135.333-499 406-499 262 0 393 161.667 393 485v883h98V573zM783 0C669.667-90 613.002-170.001 613.002-240.001c0-58.667 28-88 84-88 25.333 0 52 5.667 80 17v-70c-32.667-12-64-18-94-18-46.667 0-84.334 13.5-113.001 40.5s-43 64.5-43 112.5c0 36.667 14.167 77.334 42.5 122.001S639.667-38 695 0h88z" glyph-name="Uogonek" horiz-adv-x="1327" unicode="Ų"/><glyph d="M840 0v186.001h-4c-71.333-140.667-181.333-211-330-211-242 0-363 152.333-363 457v592h93v-569c0-138.667 22.833-239.334 68.5-302.001S422 59 520 59c95.333 0 172.5 35 231.5 105S840 327.333 840 444v580h92V0h-92zm92 .001C818.667-89.999 762.002-170 762.002-240c0-58.667 28-88 84-88 25.333 0 52 5.667 80 17v-70c-32.667-12-64-18-94-18-46.667 0-84.334 13.5-113.001 40.5s-43 64.5-43 112.5c0 36.667 14.167 77.334 42.5 122.001s70.166 86 125.499 124h88z" glyph-name="uogonek" unicode="ų"/><glyph d="M1362 0l-81.998-.002-319 1079c-16 55.333-25 100.333-27 135h-4c-2-29.333-12.333-73.666-31-132.999l-340-1081h-82l-426 1434h111l327-1149c14.667-52 25-94.333 31-127h4c4 24.667 15.667 67 35 127l354 1149h50l325-1149c15.333-53.333 25.666-95.666 30.999-126.999h4c3.333 18.667 8.666 40 15.999 64l336 1212h107zm-276 1536l-157 239-160-239h-82l221 336h45l219-336h-86z" glyph-name="Wcircumflex" horiz-adv-x="1833" unicode="Ŵ"/><glyph d="M1032 0h-85.999l-223 772c-6 21.333-11.333 50-16 86h-5c-1.333-15.333-8-43.333-20-84l-250-774h-86l-309 1024h102l238-817c6-21.333 10.667-50 14-86h8c1.333 19.333 7.666 48 18.999 86l260 817h63l232-817c5.333-19.333 10-48 14-86h8c0 19.333 5.667 48 17 86l243 817h95zM861.001 1188l-157 239-160-239h-82l221 336h45l219-336h-86z" glyph-name="wcircumflex" horiz-adv-x="1386" unicode="ŵ"/><glyph d="M598 545l.001-545.001h-98v543l-439 891h111l334-691c12-24 27-59.333 45-106h4C564.334 661.666 580.667 696.333 604 741l350 693h107zm106.001 990l-157 239-160-239h-82l221 336h45l219-336h-86z" glyph-name="Ycircumflex" horiz-adv-x="1106" unicode="Ŷ"/><glyph d="M414-209c-37.333-92-78.669-160.333-124.002-205s-103.666-67-174.999-67c-30 0-56.667 4.667-80 14v92c24-9.333 52-14 84-14 82 0 146.667 56.667 194 170l95 227-388 1016h103l309-834c6.667-18 11.334-31.667 14.001-41 2.667-12.667 5.667-24 9-34h4l24 69 330 840h100zm198.997 1397l-157 239-160-239h-82l221 336h45l219-336h-86z" glyph-name="ycircumflex" horiz-adv-x="928" unicode="ŷ"/><glyph d="M598 545l.001-545.001h-98v543l-439 891h111l334-691c12-24 27-59.333 45-106h4C564.334 661.666 580.667 696.333 604 741l350 693h107zm118.001 990c-18 0-34.332 6.5-48.999 19.5s-22 30.5-22 52.5c0 20.667 7.167 37.334 21.5 50.001s30.166 19 47.499 19c19.333 0 36.833-6.5 52.5-19.5s23.5-29.5 23.5-49.5c0-20.667-7.167-37.834-21.5-51.501s-31.833-20.5-52.5-20.5zm-332.999 0c-18.667 0-35.332 6.5-49.999 19.5s-22 30.5-22 52.5c0 20.667 7.333 37.334 22 50.001s30.667 19 48 19c19.333 0 36.666-6.5 51.999-19.5s23-29.5 23-49.5c0-20.667-7-37.834-21-51.501s-31.333-20.5-52-20.5z" glyph-name="Ydieresis" horiz-adv-x="1106" unicode="Ÿ"/><glyph d="M215 90h858V0H66v31l868 1312H135v91h952v-27zm381 1447h-90l234 328h104z" glyph-name="Zacute" horiz-adv-x="1167" unicode="Ź"/><glyph d="M207 84h661V0H57v35l680 905H106v84h787v-25zm274 1104h-90l234 328h104z" glyph-name="zacute" horiz-adv-x="950" unicode="ź"/><glyph d="M215 90h858V0H66v31l868 1312H135v91h952v-27zm398 1445c-20.667 0-38.834 7.331-54.501 21.998s-23.5 33.334-23.5 56.001 7.833 40.5 23.5 53.5 33.167 19.5 52.5 19.5c20.667 0 39.167-6.5 55.5-19.5s24.5-30.833 24.5-53.5c0-21.333-7.667-39.666-23-54.999s-33.666-23-54.999-23z" glyph-name="Zdotaccent" horiz-adv-x="1167" unicode="Ż"/><glyph d="M207 84h661V0H57v35l680 905H106v84h787v-25zm292 1104c-20.667 0-38.834 7.331-54.501 21.998s-23.5 33.334-23.5 56.001 7.833 40.5 23.5 53.5 33.167 19.5 52.5 19.5c20.667 0 39.167-6.5 55.5-19.5s24.5-30.833 24.5-53.5c0-21.333-7.667-39.666-23-54.999s-33.666-23-54.999-23z" glyph-name="zdotaccent" horiz-adv-x="950" unicode="ż"/><glyph d="M215 90h858V0H66v31l868 1312H135v91h952v-27zm433 1445h-45l-220 336h86l158-240 160 240h82z" glyph-name="Zcaron" horiz-adv-x="1167" unicode="Ž"/><glyph d="M207 84h661V0H57v35l680 905H106v84h787v-25zm323 1104h-45l-220 336h86l158-240 160 240h82z" glyph-name="zcaron" horiz-adv-x="950" unicode="ž"/><glyph d="M557 1419c-24.667 19.333-61.999 29-111.999 29-126 0-189-84.667-189-254V0h-92v1202c0 108 27.167 190 81.5 246s122.166 84 203.499 84c43.333 0 79.333-6.333 108-19v-94z" glyph-name="longs" horiz-adv-x="510" unicode="ſ"/><glyph d="M89 762h1193c-12 186-69.167 333-171.5 441S878 1365 720 1365c-156 0-290.333-32.333-403-97v115c105.333 50 233.333 75 384 75 212.667 0 379.834-65.667 501.501-197s182.5-312.666 182.5-543.999c0-214.667-60.667-391.834-182-531.501S920.668-24 720.001-24c-202 0-357.667 66.5-467 199.5s-164 328.5-164 586.5zm1193-90l-1088-.001c3.333-184 51.666-331 144.999-441s220-165 380-165c160.667 0 290.834 54.833 390.501 164.5S1266.667 487.333 1282 672z" glyph-name="uni018F" horiz-adv-x="1494" unicode="Ə"/><glyph d="M911 1339c-21.333 8.667-44.331 13-68.998 13-118.667 0-187.667-67-207-201l-33-231h172v-82h-184l-98-705c-20.667-147.333-56.5-252.833-107.5-316.5S266.669-279 184.002-279c-22.667 0-46.334 4.333-71.001 13v82c27.333-8.667 49.666-13 66.999-13 117.333 0 190.333 108 219 324l97 711H391v82h117l33 231c13.333 94 45.5 164.667 96.5 212s114.833 71 191.5 71c30 0 57.333-3.667 82-11v-84z" glyph-name="florin" horiz-adv-x="1055" unicode="ƒ"/><glyph d="M848 516c0 140.667-32.5 250.667-97.5 330S596.333 965 483 965c-114.667 0-226.667-42.333-336-127v98c106 75.333 224.333 113 355 113 132 0 238.667-47.333 320-142s122-228.334 122-401.001c0-149.333-42.5-275.166-127.5-377.499S621-25 485-25c-127.333 0-225 44.667-293 134S90 320.333 90 475v41h758zm-662-84c4-118 32.332-209.667 84.999-275S396.333 59 489 59c96 0 175.5 32.167 238.5 96.5S829.333 312 844 432H186z" glyph-name="uni01DD" horiz-adv-x="1034" unicode="ǝ"/><glyph d="M1118 0L954 446H332L168 0H59l541 1434h94L1229 0h-111zM678 1200c-7.333 20-13.333 39.666-18 58.999A1424.032 1424.032 0 0 1 645 1309h-4c-11.333-44-22.333-79.667-33-107L367 537h553zm-33 167c-57.333 0-105.167 16.833-143.5 50.5S444 1495.667 444 1551c0 53.333 19 97.333 57 132s86 52 144 52c58.667 0 106.834-16.833 144.501-50.5s56.5-78.167 56.5-133.5c0-53.333-19.333-97.333-58-132s-86.334-52-143.001-52zm-.001 301c-38 0-68.667-10.67-92-32.003s-35-49.666-35-84.999 12.167-63.666 36.5-84.999 54.5-32 90.5-32c38 0 69 10.833 93 32.5s36 49.834 36 84.501c0 38-12.5 67-37.5 87s-55.5 30-91.5 30zm-17 134h-90l234 328h104z" glyph-name="Aringacute" horiz-adv-x="1288" unicode="Ǻ"/><glyph d="M815 0l.001 205h-4c-32.667-70-80.167-125.833-142.5-167.5S537.001-25 461.001-25c-97.333 0-174.333 27.333-231 82s-85 123.667-85 207c0 178.667 118.333 286.667 355 324l315 47c0 220-82.667 330-248 330C454.334 965 344.667 919.667 238 829v111c38 30 89.5 55.667 154.5 77s126.167 32 183.5 32c105.333 0 186.833-32.667 244.5-98S907 790.667 907 666V0h-92zM533.001 510c-107.333-15.333-182.667-40.168-226-74.501s-65-90.166-65-167.499c0-60.667 20.167-110.667 60.5-150s96.5-59 168.5-59c98.667 0 180.667 36.5 246 109.5s98 167.167 98 282.5v100zM560 1188c-57.333 0-105.167 16.833-143.5 50.5S359 1316.667 359 1372c0 53.333 19 97.333 57 132s86 52 144 52c58.667 0 106.834-16.833 144.501-50.5s56.5-78.167 56.5-133.5c0-53.333-19.333-97.333-58-132s-86.334-52-143.001-52zm-.001 301c-38 0-68.667-10.67-92-32.003s-35-49.666-35-84.999 12.167-63.666 36.5-84.999 54.5-32 90.5-32c38 0 69 10.833 93 32.5s36 49.834 36 84.501c0 38-12.5 67-37.5 87s-55.5 30-91.5 30zm-27 131h-90l234 328h104z" glyph-name="aringacute" horiz-adv-x="1012" unicode="ǻ"/><glyph d="M846 0v446H344L125 0H16l697 1434h803v-97H944V766h531v-90H944V90h604V0H846zm0 1337h-78L385 537h461v800zm197 199h-90l234 328h104z" glyph-name="AEacute" horiz-adv-x="1706" unicode="Ǽ"/><glyph d="M868 508c0-140.667 32.5-250.668 97.5-330.001s154.167-119 267.5-119c114.667 0 226.667 42.333 336 127v-98c-106-75.333-224.333-113-355-113-90.667 0-170.667 24.833-240 74.5S854.334 169.333 823.001 260h-4c-88.667-190-219-285-391-285-100 0-178.667 26.833-236 80.5s-86 123.167-86 208.5c0 95.333 33 170.333 99 225s161.667 85 287 91l284 12c0 248.667-79.667 373-239 373-124 0-236.667-44.667-338-134v109c107.333 72.667 223.333 109 348 109 153.333 0 251.666-84.667 294.999-254h4c84 169.333 211.667 254 383 254 126.667 0 224.5-44.333 293.5-133S1626 705 1626 549v-41H868zm662 83.999c-4 118-32.332 209.667-84.999 275s-125.334 98-218.001 98c-96 0-175.5-32.167-238.5-96.5s-101.833-156.5-116.5-276.5h658zm-753.999-84l-264-8c-104-3.333-181.5-22.833-232.5-58.5s-76.5-93.5-76.5-173.5c0-65.333 21.167-116.5 63.5-153.5s99.5-55.5 171.5-55.5c90.667 0 169.667 35.833 237 107.5s101 158.167 101 259.5v82zm40 680.001h-90l234 328h104z" glyph-name="aeacute" horiz-adv-x="1718" unicode="ǽ"/><glyph d="M317 147L147-55 84-4l178 213C160 342.333 109 506.666 109 701.999c0 228.667 61.833 411.834 185.5 549.501S587 1458 801 1458c156.667 0 289.667-43.667 399-131l139 166 64-53-141-168c125.333-134 188-311.667 188-533 0-237.333-61.333-424-184-560S979.333-25 774-25c-182.667 0-335 57.333-457 172zm822 1106c-96 76.667-214.332 115-354.999 115-166.667 0-303.834-60.333-411.501-181S211 908.333 211 713c0-172 39-314 117-426zm59-57L381.001 222.998c102-104.667 232.333-157 391-157 177.333 0 317.666 57.833 420.999 173.5s155 276.834 155 483.501c0 198.667-50 356.334-150 473.001zm-464.998 340h-90l234 328h104z" glyph-name="Oslashacute" horiz-adv-x="1559" unicode="Ǿ"/><glyph d="M961 870c65.333-93.333 98-213.333 98-360 0-159.333-43.167-288.333-129.5-387S725-25 575-25C447-25 340.667 12.667 256 88L90-96 29-39l170 189C126.333 247.333 90 366 90 506c0 170 45.5 303 136.5 399s210.833 144 359.5 144c132.667 0 239.667-38.333 321-115l172 190 62-55zm-115-4c-66 66-153.999 99-263.999 99-120.667 0-216.834-40.667-288.501-122S186 648.667 186 504c0-111.333 25.333-206.333 76-285zm51.001-67l-582-643c69.333-64.667 157-97 263-97 123.333 0 218.333 40 285 120s100 191 100 333c0 114-22 209.667-66 287zm-334 389h-90l234 328h104z" glyph-name="oslashacute" horiz-adv-x="1149" unicode="ǿ"/><glyph d="M139 51l-.001 113c102.667-65.333 206.667-98 312-98 112 0 197 23.167 255 69.5s87 111.166 87 194.499c0 73.333-19.5 131.833-58.5 175.5s-123.5 103.167-253.5 178.5c-145.333 84.667-237.333 155.5-276 212.5s-58 122.833-58 197.5c0 101.333 39.333 187.333 118 258s183.667 106 315 106c85.333 0 170.666-14.333 255.999-43v-104c-84 38-173.667 57-269 57-97.333 0-174.5-24.667-231.5-74s-85.5-112-85.5-188c0-73.333 19.5-131.666 58.5-174.999s123.167-102.333 252.5-177c134-76 223.167-143.5 267.5-202.5s66.5-126.833 66.5-203.5c0-110-38.167-199.667-114.5-269S596.332-25 456.999-25C407.666-25 350.833-17.333 286.5-2S173 31 139 51zm448.999-169l-126-261h-79l93 261h112z" glyph-name="Scommaaccent" horiz-adv-x="1018" unicode="Ș"/><glyph d="M111 45l-.002 110.999c34.667-30 76.667-53.667 126-71s92-26 128-26c160.667 0 241 65.667 241 197 0 45.333-17.667 84-53 116s-92.666 65-171.999 99c-98 42.667-166.833 86.834-206.5 132.501s-59.5 101.167-59.5 166.5c0 83.333 31.833 150.666 95.5 201.999s142.167 77 235.5 77c88 0 163.333-18 226-54v-104c-76 49.333-154.667 74-236 74-67.333 0-121.666-17.5-162.999-52.5s-62-80.5-62-136.5c0-48.667 13-88.167 39-118.5S333.333 592.333 422 553c106.667-48 180-92.5 220-133.5S702 324 702 256c0-81.333-30.5-148.5-91.5-201.5S465.333-25 358-25c-98.667 0-181 23.333-247 70zm362.998-163.001l-126-261h-79l93 261h112z" glyph-name="scommaaccent" horiz-adv-x="795" unicode="ș"/><glyph d="M573 1343V0h-98v1343H61v91h926v-91H573zm39-1461L486-379h-79l93 261h112z" glyph-name="uni021A" horiz-adv-x="1047" unicode="Ț"/><glyph d="M569 14c-48-22.667-92.999-33.999-134.999-33.999-151.333 0-227 90.667-227 272v688h-184v84h184v266l46 16c16 4.667 31.333 9.667 46 15v-297h270v-84h-270v-676c0-70.667 11.167-121.834 33.5-153.501S392.667 63 446 63c38 0 79 12.333 123 37V14zM445.001-117.999l-126-261h-79l93 261h112z" glyph-name="uni021B" horiz-adv-x="608" unicode="ț"/><glyph d="M256 29c0-340-120.667-510-362-510-48 0-96.667 11.667-146 35v96c53.333-31.333 105.333-47 156-47 173.333 0 260 136.333 260 409v1012h92V29z" glyph-name="uni0237" horiz-adv-x="420" unicode="ȷ"/><glyph d="M848 516c0 140.667-32.5 250.667-97.5 330S596.333 965 483 965c-114.667 0-226.667-42.333-336-127v98c106 75.333 224.333 113 355 113 132 0 238.667-47.333 320-142s122-228.334 122-401.001c0-149.333-42.5-275.166-127.5-377.499S621-25 485-25c-127.333 0-225 44.667-293 134S90 320.333 90 475v41h758zm-662-84c4-118 32.332-209.667 84.999-275S396.333 59 489 59c96 0 175.5 32.167 238.5 96.5S829.333 312 844 432H186z" glyph-name="uni0259" horiz-adv-x="1034" unicode="ə"/><glyph d="M219 985H113l153 449h76z" glyph-name="uni02BB" horiz-adv-x="438" unicode="ʻ"/><glyph d="M186 985h-73l125 449h104z" glyph-name="afii57929" horiz-adv-x="438" unicode="ʼ"/><glyph d="M528 1188l-157 239-160-239h-82l221 336h45l219-336h-86z" glyph-name="circumflex" horiz-adv-x="766" unicode="ˆ"/><glyph d="M412 1188h-45l-220 336h86l158-240 160 240h82z" glyph-name="caron" horiz-adv-x="766" unicode="ˇ"/><glyph d="M61 1188v84h508v-84H61z" glyph-name="uni02C9" horiz-adv-x="635" unicode="ˉ"/><glyph d="M573 1423c-10.667-72-40.501-129.167-89.501-171.5s-109.833-63.5-182.5-63.5c-73.333 0-134.166 20.667-182.499 62S43 1349 37 1423h84c4-50 22.5-89 55.5-117s75.167-42 126.5-42c45.333 0 85.5 14.5 120.5 43.5S479 1375 485 1423h88z" glyph-name="breve" horiz-adv-x="610" unicode="˘"/><glyph d="M182 1188c-20.667 0-38.834 7.331-54.501 21.998s-23.5 33.334-23.5 56.001 7.833 40.5 23.5 53.5 33.167 19.5 52.5 19.5c20.667 0 39.167-6.5 55.5-19.5s24.5-30.833 24.5-53.5c0-21.333-7.667-39.666-23-54.999s-33.666-23-54.999-23z" glyph-name="dotaccent" horiz-adv-x="365" unicode="˙"/><glyph d="M297 1188c-57.333 0-105.167 16.833-143.5 50.5S96 1316.667 96 1372c0 53.333 19 97.333 57 132s86 52 144 52c58.667 0 106.834-16.833 144.501-50.5s56.5-78.167 56.5-133.5c0-53.333-19.333-97.333-58-132s-86.334-52-143.001-52zm-.001 301c-38 0-68.667-10.67-92-32.003s-35-49.666-35-84.999 12.167-63.666 36.5-84.999 54.5-32 90.5-32c38 0 69 10.833 93 32.5s36 49.834 36 84.501c0 38-12.5 67-37.5 87s-55.5 30-91.5 30z" glyph-name="ring" horiz-adv-x="594" unicode="˚"/><glyph d="M305 0C191.667-90 135.002-170.001 135.002-240.001c0-58.667 28-88 84-88 25.333 0 52 5.667 80 17v-70c-32.667-12-64-18-94-18-46.667 0-84.334 13.5-113.001 40.5s-43 64.5-43 112.5c0 36.667 14.167 77.334 42.5 122.001S161.667-38 217 0h88z" glyph-name="ogonek" horiz-adv-x="362" unicode="˛"/><glyph d="M664 1423c0-68.667-16.167-123-48.5-163s-75.833-60-130.5-60c-44 0-94.333 25.333-151 76-42.667 36.667-82.334 55-119.001 55-68 0-102-47.667-102-143h-72c0 66.667 16 120.167 48 160.5s74.667 60.5 128 60.5c48 0 101.333-24 160-72 44.667-39.333 83.667-59 117-59 26.667 0 49.334 12.333 68.001 37s28 60.667 28 108h74z" glyph-name="tilde" horiz-adv-x="649" unicode="˜"/><glyph d="M365 1188h-74l211 317h110zm-222 0H70l211 317h110z" glyph-name="hungarumlaut" horiz-adv-x="633" unicode="˝"/><glyph d="M214 1187h-49l90 369h105z" glyph-name="tonos" horiz-adv-x="559" unicode="΄"/><glyph d="M581 1315c0-20.667-7.166-37.833-21.499-51.5s-31.833-20.5-52.5-20.5c-8 0-16.167 1.5-24.5 4.5s-16 7.5-23 13.5-12.667 13.5-17 22.5-6.5 19.5-6.5 31.5c0 11.333 2.167 21.333 6.5 30s9.833 16 16.5 22 14.167 10.5 22.5 13.5 16.166 4.5 23.499 4.5c19.333 0 36.833-6.5 52.5-19.5s23.5-29.833 23.5-50.5zm-304.999-125h-49l90 369h104zm-131 125c0-20.667-7.166-37.833-21.499-51.5s-31.833-20.5-52.5-20.5c-8 0-16.333 1.5-25 4.5s-16.334 7.5-23.001 13.5-12.167 13.5-16.5 22.5-6.5 19.5-6.5 31.5c0 11.333 2.167 21.333 6.5 30s9.833 16 16.5 22 14 10.5 22 13.5 16 4.5 24 4.5c19.333 0 36.833-6.5 52.5-19.5s23.5-29.833 23.5-50.5z" glyph-name="dieresistonos" horiz-adv-x="581" unicode="΅"/><glyph d="M1118 0L954 446H332L168 0H59l541 1434h94L1229 0h-111zM678 1200c-7.333 20-13.333 39.666-18 58.999A1424.032 1424.032 0 0 1 645 1309h-4c-11.333-44-22.333-79.667-33-107L367 537h553zm-497-134h-49l90 369h105z" glyph-name="Alphatonos" horiz-adv-x="1288" unicode="Ά"/><glyph d="M287 0v1434h670v-91H386V768h530v-90H386V90h604V0H287zM15 1066h-49l90 369h105z" glyph-name="Epsilontonos" horiz-adv-x="1126" unicode="Έ"/><glyph d="M1207 0v688H386V0h-99v1434h99V778h821v656h98V0h-98zM15 1066h-49l90 369h105z" glyph-name="Etatonos" horiz-adv-x="1489" unicode="Ή"/><glyph d="M456 1434V0h-99v1434h99zM16 1066h-49l90 369h105z" glyph-name="Iotatonos" horiz-adv-x="640" unicode="Ί"/><glyph d="M876-25c-202.667 0-364.167 67.332-484.5 201.999S211 486.666 211 701.999c0 228.667 61.833 411.834 185.5 549.501S689 1458 903 1458c193.333 0 349.833-66.167 469.5-198.5S1552 953.667 1552 739c0-237.333-61.333-424-184-560S1081.333-25 876-25zm10 1393c-166.667 0-303.832-60.335-411.499-181.002s-161.5-278.667-161.5-474c0-197.333 51-354.5 153-471.5s238-175.5 408-175.5c177.333 0 317.666 57.833 420.999 173.5s155 276.834 155 483.501c0 202.667-50.5 360.834-151.5 474.501S1060 1368 886 1368zM56.002 1066h-49l90 369h105z" glyph-name="Omicrontonos" horiz-adv-x="1661" unicode="Ό"/><glyph d="M700 545l.001-545.001h-98v543l-439 891h111l334-691c12-24 27-59.333 45-106h4C666.334 661.666 682.667 696.333 706 741l350 693h107zm-746.999 521h-49l90 369h105z" glyph-name="Upsilontonos" horiz-adv-x="1208" unicode="Ύ"/><glyph d="M1075 0l.001 90.001c250 184.667 375 412.667 375 684 0 181.333-50.667 325.666-152 432.999s-236.333 161-405 161c-176 0-316.667-53.667-422-161s-158-250.333-158-429c0-273.333 125.667-502.666 377-687.999v-90h-477v90h352c-236 178.667-354 408.667-354 690 0 205.333 61.667 369.666 185 492.999S680.667 1458 880 1458c204.667 0 367.834-60 489.501-180s182.5-284.667 182.5-494c0-137.333-31.833-267-95.5-389S1306.667 171.333 1198 90h354V0h-477zM56.001 1066h-49l90 369h105z" glyph-name="Omegatonos" horiz-adv-x="1649" unicode="Ώ"/><glyph d="M457 2c-14.667-5.333-29.167-8.999-43.5-10.999s-27.166-3-38.499-3c-37.333 0-69.333 6.167-96 18.5s-48.5 29.666-65.5 51.999-29.5 49.166-37.5 80.499-12 66.333-12 105v780h92v-782c0-37.333 4.667-67.166 14-89.499S290.667 113 304 101s27.333-19.833 42-23.5 27.667-5.5 39-5.5c17.333 0 31.333.833 42 2.5s20.667 4.167 30 7.5V2zm84 1313c0-20.667-7.166-37.833-21.499-51.5s-31.833-20.5-52.5-20.5c-8 0-16.167 1.5-24.5 4.5s-16 7.5-23 13.5-12.667 13.5-17 22.5-6.5 19.5-6.5 31.5c0 11.333 2.167 21.333 6.5 30s9.833 16 16.5 22 14.167 10.5 22.5 13.5 16.166 4.5 23.499 4.5c19.333 0 36.833-6.5 52.5-19.5s23.5-29.833 23.5-50.5zm-304.999-125h-49l90 369h104zm-131 125c0-20.667-7.166-37.833-21.499-51.5s-31.833-20.5-52.5-20.5c-8 0-16.333 1.5-25 4.5s-16.334 7.5-23.001 13.5-12.167 13.5-16.5 22.5-6.5 19.5-6.5 31.5c0 11.333 2.167 21.333 6.5 30s9.833 16 16.5 22 14 10.5 22 13.5 16 4.5 24 4.5c19.333 0 36.833-6.5 52.5-19.5s23.5-29.833 23.5-50.5z" glyph-name="iotadieresistonos" horiz-adv-x="518" unicode="ΐ"/><glyph d="M1118 0L954 446H332L168 0H59l541 1434h94L1229 0h-111zM678 1200c-7.333 20-13.333 39.666-18 58.999A1424.032 1424.032 0 0 1 645 1309h-4c-11.333-44-22.333-79.667-33-107L367 537h553z" glyph-name="Alpha" horiz-adv-x="1288" unicode="Α"/><glyph d="M184 0l-.001 1434h377c112.667 0 202.334-30.333 269.001-91s100-141 100-241c0-83.333-22.167-155.5-66.5-216.5S757.334 781.333 678.001 756v-4c99.333-9.333 177.666-44.833 234.999-106.5s86-140.167 86-235.5c0-120.667-39-219.167-117-295.5S699.667 0 569 0H184zm98.999 1343V788.001h200c104 0 187.333 26.667 250 80s94 125.666 94 216.999c0 172-101.667 258-305 258h-239zm0-644.999l-.001-608h266c112.667 0 198.834 27 258.501 81s89.5 130.667 89.5 230c0 198-134.333 297-403 297h-211z" glyph-name="Beta" horiz-adv-x="1114" unicode="Β"/><glyph d="M283 1343V0h-99v1434h674v-91H283z" glyph-name="Gamma" horiz-adv-x="938" unicode="Γ"/><glyph d="M82 0v59l518 1375h94L1206 59V0H82zm596 1200c-8 22.667-14.167 42.33-18.5 58.997s-9.166 33.334-14.499 50.001h-4c-4-15.333-8.833-32.666-14.5-51.999S614.667 1219.333 608 1202L201 90h884z" glyph-name="Delta" horiz-adv-x="1288" unicode="Δ"/><glyph d="M184 0v1434h670v-91H283V768h530v-90H283V90h604V0H184z" glyph-name="Epsilon" horiz-adv-x="1024" unicode="Ε"/><glyph d="M215 90h858V0H66v31l868 1312H135v91h952v-27z" glyph-name="Zeta" horiz-adv-x="1167" unicode="Ζ"/><glyph d="M1104 0v688H283V0h-99v1434h99V778h821v656h98V0h-98z" glyph-name="Eta" horiz-adv-x="1386" unicode="Η"/><glyph d="M1450 739c0-127.333-17.332-238.667-51.999-334s-82.167-174.833-142.5-238.5S1123.835 55 1041.502 23s-171.5-48-267.5-48c-108 0-203.333 19-286 57s-152.167 89.833-208.5 155.5-98.833 142.667-127.5 231-43 182.833-43 283.5c0 108.667 15 209.167 45 301.5s74.167 172.166 132.5 239.499 130.666 120 216.999 158 185.5 57 297.5 57c99.333 0 189-17.833 269-53.5s148.167-85.167 204.5-148.5 99.666-139.166 129.999-227.499S1450 843.667 1450 739zm-102-16.001c0 106.667-13.832 200.168-41.499 280.501S1240.167 1151 1190.5 1205s-109.167 94.667-178.5 122-145.333 41-228 41c-82 0-157.833-15.333-227.5-46s-130.167-74.334-181.5-131.001-91.5-125.5-120.5-206.5-43.5-171.5-43.5-271.5c0-99.333 13.333-189 40-269s64.5-148 113.5-204 108-99 177-129 145.833-45 230.5-45 162.167 13.833 232.5 41.5 131 69 182 124 90.667 123.5 119 205.5 42.5 177.333 42.5 286zM528.002 672v90h502v-90h-502z" glyph-name="Theta" horiz-adv-x="1559" unicode="Θ"/><glyph d="M283 1434V0h-99v1434h99z" glyph-name="Iota" horiz-adv-x="467" unicode="Ι"/><glyph d="M922 0L311 686c-11.333 12.667-19.333 23.667-24 33h-4V0h-99v1434h99V758h4c8 14 16.667 25.667 26 35l580 641h129L393 739 1061 0H922z" glyph-name="Kappa" horiz-adv-x="1079" unicode="Κ"/><glyph d="M1118 0L678 1200c-8 22.667-14.167 42.334-18.5 59.001s-9.166 33.334-14.499 50.001h-4c-4-15.333-8.833-32.666-14.5-51.999s-11.834-37.666-18.501-54.999L168 .004H59l541 1434h94l535-1434h-111z" glyph-name="Lambda" horiz-adv-x="1288" unicode="Λ"/><glyph d="M1427 0l.001 1018c0 24.667 3.667 95 11 211h-4c-20.667-54-38-95.667-52-125l-510-1104h-32l-512 1098c-16.667 35.333-32.334 80.333-47.001 135h-5c4.667-64 7-127.667 7-191V0h-99v1434h92L811 279c3.333-6.667 7-15.667 11-27s8.333-22.666 13-33.999c6.667-17.333 13.667-36.666 21-57.999h6l11 32c.667 2.667 12 34.334 34 95.001l527 1147h88V.003h-95z" glyph-name="Mu" horiz-adv-x="1706" unicode="Μ"/><glyph d="M1198 0L343.999 1159c-17.333 23.333-32.666 46.666-45.999 69.999l-13 20h-4c1.333-17.333 2-38.333 2-63v-1186h-99v1434h76l848-1149c18.667-25.333 39-56 61-92h5c-3.333 46.667-5 86.667-5 120v1121h99v-1434h-70z" glyph-name="Nu" horiz-adv-x="1444" unicode="Ν"/><glyph d="M96 1343v91h852v-91H96zm146-665v90h561v-90H242zM68 0v90h909V0H68z" glyph-name="Xi" horiz-adv-x="1044" unicode="Ξ"/><glyph d="M774-25c-202.667 0-364.167 67.332-484.5 201.999S109 486.666 109 701.999c0 228.667 61.833 411.834 185.5 549.501S587 1458 801 1458c193.333 0 349.833-66.167 469.5-198.5S1450 953.667 1450 739c0-237.333-61.333-424-184-560S979.333-25 774-25zm10 1393c-166.667 0-303.832-60.335-411.499-181.002s-161.5-278.667-161.5-474c0-197.333 51-354.5 153-471.5s238-175.5 408-175.5c177.333 0 317.666 57.833 420.999 173.5s155 276.834 155 483.501c0 202.667-50.5 360.834-151.5 474.501S958 1368 784 1368z" glyph-name="Omicron" horiz-adv-x="1559" unicode="Ο"/><glyph d="M1135 0v1343H283V0h-99v1434h1049V0h-98z" glyph-name="Pi" horiz-adv-x="1417" unicode="Π"/><glyph d="M283 575V-.001h-99v1434h346c147.333 0 260-34.167 338-102.5S985 1163.333 985 1032c0-133.333-43.5-242.833-130.5-328.5S645.667 575 489 575H283zm0 768l.001-677.001h204c129.333 0 227.666 30.833 294.999 92.5S883 907.333 883 1020c0 215.333-123.667 323-371 323H283z" glyph-name="Rho" horiz-adv-x="1114" unicode="Ρ"/><glyph d="M18 0v35l543 706-463 645v48h856v-91H250l430-600L182 90h817V0H18z" glyph-name="Sigma" horiz-adv-x="1057" unicode="Σ"/><glyph d="M573 1343V0h-98v1343H61v91h926v-91H573z" glyph-name="Tau" horiz-adv-x="1047" unicode="Τ"/><glyph d="M598 545l.001-545.001h-98v543l-439 891h111l334-691c12-24 27-59.333 45-106h4C564.334 661.666 580.667 696.333 604 741l350 693h107z" glyph-name="Upsilon" horiz-adv-x="1106" unicode="Υ"/><glyph d="M1464 750c0-66-7.164-125.667-21.497-179s-34.333-100.5-60-141.5-55.834-76.167-90.501-105.5-72.334-53.333-113.001-72-83.5-32.5-128.5-41.5S960.334 197 915 197h-79V-16h-99v213h-78c-85.333 0-161.833 12.833-229.5 38.5S304.167 297.667 256.5 345 172.333 450 147 518s-38 144.667-38 230c0 90 14.5 168.833 43.5 236.5S221 1108.667 271 1154s108.5 79.333 175.5 102 138.833 34 215.5 34h75v160h99v-160h75c85.333 0 162.166-13 230.499-39s126.333-62.833 174-110.5 84.334-104.667 110-171S1464 830 1464 750zm-102-2c0 70.667-10.331 134.001-30.998 190.001s-50.5 103.5-89.5 142.5-86.333 68.667-142 89-118.5 30.5-188.5 30.5h-75v-913h79c69.333 0 131.666 10.167 186.999 30.5S1204.167 367.667 1242.5 407s67.833 87.5 88.5 144.5 31 122.5 31 196.5zm-624.995 452l-75.002.003c-60.667 0-118.167-8.5-172.5-25.5s-102.166-43.833-143.499-80.5-74.166-83.834-98.499-141.501-36.5-126.834-36.5-207.501c0-82.667 12.167-153 36.5-211s57-105.333 98-142 88.5-63.334 142.5-80.001 111-25 171-25h78v913z" glyph-name="Phi" horiz-adv-x="1573" unicode="Φ"/><glyph d="M961 0L631.001 547c-20.667 34-38.334 67.333-53.001 100h-5c-18-36.667-37-70-57-100L180 0H61l453 723-426 711h119l321-539c16.667-28 34-60 52-96h4l53 96 319 539h115L641 725 1081 0H961z" glyph-name="Chi" horiz-adv-x="1153" unicode="Χ"/><glyph d="M844 500h92.002c62 0 118.5 8.667 169.5 26s94.5 43.5 130.5 78.5 64 78.833 84 131.5 30 114 30 184v514h98V913c0-68-10.833-132.5-32.5-193.5s-54-114.333-97-160-96.333-82-160-109S1020.668 410 936.001 410h-92V0h-99v410h-92c-86 0-161 13.5-225 40.5s-117.333 63.333-160 109-74.5 99-95.5 160-31.5 125.5-31.5 193.5v521h99V920c0-61.333 8.5-117.833 25.5-169.5s42.833-96 77.5-133 77.667-65.833 129-86.5S583.667 500 653 500h92v934h99V500z" glyph-name="Psi" horiz-adv-x="1589" unicode="Ψ"/><glyph d="M973 0l.001 90.001c250 184.667 375 412.667 375 684 0 181.333-50.667 325.666-152 432.999s-236.333 161-405 161c-176 0-316.667-53.667-422-161s-158-250.333-158-429c0-273.333 125.667-502.666 377-687.999v-90h-477v90h352c-236 178.667-354 408.667-354 690 0 205.333 61.667 369.666 185 492.999S578.667 1458 778 1458c204.667 0 367.834-60 489.501-180s182.5-284.667 182.5-494c0-137.333-31.833-267-95.5-389S1204.667 171.333 1096 90h354V0H973z" glyph-name="Omega" horiz-adv-x="1546" unicode="Ω"/><glyph d="M283 1434V0h-99v1434h99zm114 102c-18 0-34.332 6.5-48.999 19.5s-22 30.5-22 52.5c0 20.667 7.167 37.334 21.5 50.001s30.166 19 47.499 19c19.333 0 36.833-6.5 52.5-19.5s23.5-29.5 23.5-49.5c0-20.667-7.167-37.834-21.5-51.501S417.667 1536 397 1536zm-332.999 0c-18.667 0-35.332 6.5-49.999 19.5s-22 30.5-22 52.5c0 20.667 7.333 37.334 22 50.001s30.667 19 48 19c19.333 0 36.666-6.5 51.999-19.5s23-29.5 23-49.5c0-20.667-7-37.834-21-51.501s-31.333-20.5-52-20.5z" glyph-name="Iotadieresis" horiz-adv-x="467" unicode="Ϊ"/><glyph d="M598 545l.001-545.001h-98v543l-439 891h111l334-691c12-24 27-59.333 45-106h4C564.334 661.666 580.667 696.333 604 741l350 693h107zm126.001 990c-18 0-34.332 6.5-48.999 19.5s-22 30.5-22 52.5c0 20.667 7.167 37.334 21.5 50.001s30.166 19 47.499 19c19.333 0 36.833-6.5 52.5-19.5s23.5-29.5 23.5-49.5c0-20.667-7.167-37.834-21.5-51.501s-31.833-20.5-52.5-20.5zm-332.999 0c-18.667 0-35.332 6.5-49.999 19.5s-22 30.5-22 52.5c0 20.667 7.333 37.334 22 50.001s30.667 19 48 19c19.333 0 36.666-6.5 51.999-19.5s23-29.5 23-49.5c0-20.667-7-37.834-21-51.501s-31.333-20.5-52-20.5z" glyph-name="Upsilondieresis" horiz-adv-x="1106" unicode="Ϋ"/><glyph d="M899 502l-53.5 177.002c-17.667 56-39 105.167-64 147.5s-55.333 76-91 101-80.167 37.5-133.5 37.5c-55.333 0-104.833-11.833-148.5-35.5s-80.834-56.834-111.501-99.501-54-93.834-70-153.501-24-125.5-24-197.5c0-65.333 7.333-124 22-176s35.5-96 62.5-132 59.833-63.667 98.5-83 82-29 130-29c40.667 0 78.334 8.833 113.001 26.5s66.667 43 96 76 56.333 72.833 81 119.5 47.667 99 69 157zm222-513.998c-23.333 0-43.495 7.17-60.495 21.504s-32.5 36.666-46.5 66.999-27.333 69-40 116-26.334 103.167-41.001 168.5h-4c-28.667-69.333-58.334-128.333-89.001-177s-63.334-88.5-98.001-119.5-72.167-53.667-112.5-68-84.833-21.5-133.5-21.5c-58 0-111 11.667-159 35s-89 56.666-123 99.999-60.5 95.666-79.5 156.999-28.5 130-28.5 206c0 84.667 10 162.167 30 232.5s49 131 87 182 84.833 90.667 140.5 119 119.5 42.5 191.5 42.5c41.333 0 78.5-5.667 111.5-17s62.333-26.833 88-46.5 48.167-43 67.5-70 36.666-55.833 51.999-86.5 28.666-62.5 39.999-95.5 22-65.833 32-98.5h2c6.667 22.667 16 50.667 28 84l37.5 104 38 107c12.333 35.333 22.5 66.666 30.5 93.999h104l-43.5-116-53.5-138-55.5-141-48.5-125 41-163.5c12-45.667 22.833-84.5 32.5-116.5s18.5-58 26.5-78 15.667-35.5 23-46.5 14.5-18.333 21.5-22 14.167-5.5 21.5-5.5c10 0 19.333.833 28 2.5s17.667 4.167 27 7.5v-80c-14-4.667-27.667-8.167-41-10.5s-28-3.5-44-3.5zM582.005 1187.01h-49l90 369h105z" glyph-name="alphatonos" horiz-adv-x="1223" unicode="ά"/><glyph d="M827 29c-18-7.333-39.834-14.166-65.501-20.499s-53.167-12-82.5-17-59.166-9-89.499-12-58.833-4.5-85.5-4.5c-74.667 0-138.667 8-192 24s-97 37.5-131 64.5-59 58.667-75 95-24 74.833-24 115.5c0 37.333 7.333 71.333 22 102s34.334 57.167 59.001 79.5 53 40.666 85 54.999 65.333 23.833 100 28.5v4c-27.333 5.333-54.666 14.333-81.999 27s-51.666 28.667-72.999 48-38.666 42-51.999 68-20 55.333-20 88c0 52 11.333 95.667 34 131s52.167 63.666 88.5 84.999 77.5 36.5 123.5 45.5 92.333 13.5 139 13.5c22.667 0 46.834-1.667 72.501-5s51-7.5 76-12.5 48.5-10.333 70.5-16 41-11.167 57-16.5v-96c-19.333 8-40.666 15.833-63.999 23.5s-47.333 14.334-72 20.001-49.334 10.167-74.001 13.5-47.334 5-68.001 5c-98.667 0-171.167-16.833-217.5-50.5s-69.5-81.167-69.5-142.5c0-41.333 11.833-75 35.5-101s53.334-46.333 89.001-61 74.5-24.5 116.5-29.5 81-7.5 117-7.5h59.5c11 0 21.667.167 32 .5s18.833.833 25.5 1.5v-88c-12.667 0-26.334.333-41.001 1-12.667 0-27.334.167-44.001.5s-34.667.5-54 .5c-122.667 0-215.834-17.333-279.501-52s-95.5-89.667-95.5-165c0-29.333 6.333-57 19-83s32.667-48.667 60-68 62.666-34.5 105.999-45.5S458.667 59 520 59c25.333 0 51.833 2 79.5 6s55 9.167 82 15.5 53 13.333 78 21S807 117 827 125V29zM462.999 1187h-49l90 369h105z" glyph-name="epsilontonos" horiz-adv-x="897" unicode="έ"/><glyph d="M860-424l-.001 1008c0 60-4.5 113.333-13.5 160s-24.167 86-45.5 118-49.5 56.5-84.5 73.5-78.5 25.5-130.5 25.5c-54 0-101.667-11-143-33s-75.833-50.167-103.5-84.5-48.5-73-62.5-116-21-85.5-21-127.5V0h-92v713c0 20.667-.5 44.334-1.5 71.001s-2.667 54-5 82-5.166 55.667-8.499 83-7.333 52.333-12 75h92c2-10 4.333-22.667 7-38s5-32 7-50 3.667-36.333 5-55 2-36 2-52h4c22.667 48.667 49 87.5 79 116.5s60.833 51.167 92.5 66.5 63.167 25.333 94.5 30 60 7 86 7c56.667 0 106.667-9.5 150-28.5s79.5-46.333 108.5-82S915.333 859.167 930 807.5s22-109.834 22-174.501v-1057h-92zM537.999 1187h-49l90 369h105z" glyph-name="etatonos" horiz-adv-x="1116" unicode="ή"/><glyph d="M457 2c-14.667-5.333-29.167-8.999-43.5-10.999s-27.166-3-38.499-3c-37.333 0-69.333 6.167-96 18.5s-48.5 29.666-65.5 51.999-29.5 49.166-37.5 80.499-12 66.333-12 105v780h92v-782c0-37.333 4.667-67.166 14-89.499S290.667 113 304 101s27.333-19.833 42-23.5 27.667-5.5 39-5.5c17.333 0 31.333.833 42 2.5s20.667 4.167 30 7.5V2zM207 1187h-49l90 369h105z" glyph-name="iotatonos" horiz-adv-x="518" unicode="ί"/><glyph d="M252 457c0-68.667 8.166-127.996 24.499-177.996s39.666-91.333 69.999-124 67-56.834 110-72.501 91.5-23.5 145.5-23.5c47.333 0 92.333 8.5 135 25.5s80 42.5 112 76.5 57.5 76.833 76.5 128.5 28.5 112.167 28.5 181.5c0 96-11.833 191.5-35.5 286.5s-55.5 183.833-95.5 266.5h98c18.667-37.333 35.667-77.5 51-120.5s28.5-87.833 39.5-134.5 19.5-94.334 25.5-143.001 9-97.667 9-147c0-81.333-11.167-153.333-33.5-216s-53.166-115.334-92.499-158.001-86.166-75-140.499-97-113.5-33-177.5-33c-75.333 0-140.666 11.5-195.999 34.5s-101.333 55-138 96-63.834 89.833-81.501 146.5-26.5 118.667-26.5 186v355c0 29.333-1.833 53.833-5.5 73.5s-8.834 35.5-15.501 47.5-14.667 20.5-24 25.5-19.666 7.5-30.999 7.5c-9.333 0-17.333-.5-24-1.5s-15-2.833-25-5.5v77c12 4 24.667 7 38 9s26.333 3 39 3c44 0 78.333-15.833 103-47.5S252 901.667 252 837V457zm590.999 858c0-20.667-7.166-37.833-21.499-51.5S789.667 1243 769 1243c-8 0-16.167 1.5-24.5 4.5s-16 7.5-23 13.5-12.667 13.5-17 22.5-6.5 19.5-6.5 31.5c0 11.333 2.167 21.333 6.5 30s9.833 16 16.5 22 14.167 10.5 22.5 13.5 16.166 4.5 23.499 4.5c19.333 0 36.833-6.5 52.5-19.5s23.5-29.833 23.5-50.5zM538 1190h-49l90 369h104zm-131 125c0-20.667-7.166-37.833-21.499-51.5s-31.833-20.5-52.5-20.5c-8 0-16.333 1.5-25 4.5S291.667 1255 285 1261s-12.167 13.5-16.5 22.5-6.5 19.5-6.5 31.5c0 11.333 2.167 21.333 6.5 30s9.833 16 16.5 22 14 10.5 22 13.5 16 4.5 24 4.5c19.333 0 36.833-6.5 52.5-19.5s23.5-29.833 23.5-50.5z" glyph-name="upsilondieresistonos" horiz-adv-x="1155" unicode="ΰ"/><glyph d="M883 502l-53.5 177.002c-17.667 56-39 105.167-64 147.5s-55.333 76-91 101-80.167 37.5-133.5 37.5c-55.333 0-104.833-11.833-148.5-35.5s-80.834-56.834-111.501-99.501-54-93.834-70-153.501-24-125.5-24-197.5c0-65.333 7.333-124 22-176s35.5-96 62.5-132 59.833-63.667 98.5-83 82-29 130-29c40.667 0 78.334 8.833 113.001 26.5s66.667 43 96 76 56.333 72.833 81 119.5 47.667 99 69 157zm222-513.998c-23.333 0-43.495 7.17-60.495 21.504s-32.5 36.666-46.5 66.999-27.333 69-40 116-26.334 103.167-41.001 168.5h-4c-28.667-69.333-58.334-128.333-89.001-177s-63.334-88.5-98.001-119.5-72.167-53.667-112.5-68-84.833-21.5-133.5-21.5c-58 0-111 11.667-159 35s-89 56.666-123 99.999-60.5 95.666-79.5 156.999-28.5 130-28.5 206c0 84.667 10 162.167 30 232.5s49 131 87 182 84.833 90.667 140.5 119 119.5 42.5 191.5 42.5c41.333 0 78.5-5.667 111.5-17s62.333-26.833 88-46.5 48.167-43 67.5-70 36.666-55.833 51.999-86.5 28.666-62.5 39.999-95.5 22-65.833 32-98.5h2c6.667 22.667 16 50.667 28 84l37.5 104 38 107c12.333 35.333 22.5 66.666 30.5 93.999h104l-43.5-116-53.5-138-55.5-141-48.5-125 41-163.5c12-45.667 22.833-84.5 32.5-116.5s18.5-58 26.5-78 15.667-35.5 23-46.5 14.5-18.333 21.5-22 14.167-5.5 21.5-5.5c10 0 19.333.833 28 2.5s17.667 4.167 27 7.5v-80c-14-4.667-27.667-8.167-41-10.5s-28-3.5-44-3.5z" glyph-name="alpha" horiz-adv-x="1223" unicode="α"/><glyph d="M975 387c0-58.667-8.997-113.168-26.997-163.501s-44-93.833-78-130.5-75.833-65.5-125.5-86.5-106.167-31.5-169.5-31.5c-32.667 0-64.167 2.833-94.5 8.5s-59 13.167-86 22.5-52.167 19.666-75.5 30.999-44.333 23-63 35v-467h-92v1511c0 68.667 9.833 129 29.5 181s46.667 95.333 81 130 74.666 60.834 120.999 78.501 96.166 26.5 149.499 26.5c51.333 0 97.5-8.333 138.5-25s75.667-39.834 104-69.501 50.166-65 65.499-106 23-85.5 23-133.5c0-43.333-6.167-83.833-18.5-121.5s-30-72.334-53-104.001-51-60.167-84-85.5-69.833-46.666-110.5-63.999v-4c60.667-15.333 113.667-36.666 159-63.999S852.333 695.333 883 658s53.667-78.833 69-124.5S975 439 975 387zm-95.997-6.001c0 44.667-7.666 87.999-22.999 129.999s-39.666 80.167-72.999 114.5-76.333 64.333-129 90-116.334 44.5-191.001 56.5v80c44.667 10 86.167 24 124.5 42s71.833 40.833 100.5 68.5 51.167 59.834 67.5 96.501 24.5 78.334 24.5 125.001c0 36-4.667 70-14 102s-24 60-44 84-45.333 43-76 57-67.334 21-110.001 21c-40 0-77-6.833-111-20.5s-63.5-34.5-88.5-62.5-44.667-63.833-59-107.5-21.5-95.5-21.5-155.5V168l66-37.5c23.333-13 48-24.833 74-35.5s53.667-19.334 83-26.001 60-10 92-10c46 0 88 7.333 126 22s70.5 35.667 97.5 63 47.833 61 62.5 101 22 85.333 22 136z" glyph-name="beta" horiz-adv-x="1061" unicode="β"/><glyph d="M989 967c0-90.667-10.331-178.666-30.998-263.999s-50.334-169.833-89.001-253.5-85.5-167.334-140.5-251.001-116.833-168.834-185.5-255.501v-105c0-38-.167-76.333-.5-115s-.833-75.667-1.5-111-1.334-66.333-2.001-93H438c2.667 30.667 4.667 66 6 106s2.166 81.5 2.499 124.5.333 86.167 0 129.5-.5 83.666-.5 120.999c-14.667 73.333-35 151-61 233s-56.667 166.5-92 253.5-75 175.667-119 266-91.667 180.833-143 271.5h110c52-92 97.833-179.667 137.5-263S353.333 597.165 384 519.498s57.667-153.167 81-226.5 44.333-146.333 63-219h4c50.667 66.667 98 135.667 142 207s82.167 143.5 114.5 216.5 57.833 145.833 76.5 218.5 28 144 28 214c0 18.667-.167 34.834-.5 48.501S891 1007.333 889 1024h96c1.333-10 2.333-19.5 3-28.5s1-18.5 1-28.5z" glyph-name="gamma" horiz-adv-x="1063" unicode="γ"/><glyph d="M1094 459c0-71.333-12.001-136.664-36.001-195.997s-58-110.333-102-153-97.333-75.834-160-99.501-132.667-35.5-210-35.5c-74 0-141.333 12-202 36s-112.834 56.833-156.501 98.5-77.5 90.667-101.5 147-36 116.833-36 181.5c0 73.333 13.333 138.5 40 195.5s61.5 107 104.5 150 92 79.333 147 109 110.833 53.834 167.5 72.501l-84.5 56c-30.333 20.667-58.666 44.334-84.999 71.001s-48.333 56.834-66 90.501-26.5 72.167-26.5 115.5c0 39.333 9.333 74.166 28 104.499s44.834 55.666 78.501 75.999 73.5 35.666 119.5 45.999 96 15.5 150 15.5c64 0 122.5-7.167 175.5-21.5s101.167-31.166 144.5-50.499v-106c-23.333 14-48 26.667-74 38s-52.667 21.166-80 29.499-55 14.833-83 19.5-55 7-81 7c-90.667 0-160-14.5-208-43.5s-72-69.833-72-122.5c0-31.333 7.167-59.333 21.5-84s35.833-49.334 64.5-74.001 64.667-50.334 108-77.001l152-92c54-32 103.333-66.5 148-103.5S962 783 994 741s56.667-86.5 74-133.5 26-96.5 26-148.5zm-97.001-14.998c0 58-10.336 110.17-31.003 156.503s-48 88.166-82 125.499-72.5 71.166-115.5 101.499-86.833 58.166-131.5 83.499c-27.333-8.667-57.666-19.167-90.999-31.5s-66.666-27.166-99.999-44.499-65.666-37.833-96.999-61.5-59-51.167-83-82.5-43.333-67.333-58-108-22-86.334-22-137.001c0-62 11.167-117.167 33.5-165.5s52.166-88.833 89.5-121.5 80.832-57.5 130.5-74.5 101.833-25.5 156.5-25.5 106.334 8.5 155.001 25.5 91.167 42 127.5 75 65.166 73.333 86.5 121 32 102.167 32 163.5z" glyph-name="delta" horiz-adv-x="1184" unicode="δ"/><glyph d="M827 29c-18-7.333-39.834-14.166-65.501-20.499s-53.167-12-82.5-17-59.166-9-89.499-12-58.833-4.5-85.5-4.5c-74.667 0-138.667 8-192 24s-97 37.5-131 64.5-59 58.667-75 95-24 74.833-24 115.5c0 37.333 7.333 71.333 22 102s34.334 57.167 59.001 79.5 53 40.666 85 54.999 65.333 23.833 100 28.5v4c-27.333 5.333-54.666 14.333-81.999 27s-51.666 28.667-72.999 48-38.666 42-51.999 68-20 55.333-20 88c0 52 11.333 95.667 34 131s52.167 63.666 88.5 84.999 77.5 36.5 123.5 45.5 92.333 13.5 139 13.5c22.667 0 46.834-1.667 72.501-5s51-7.5 76-12.5 48.5-10.333 70.5-16 41-11.167 57-16.5v-96c-19.333 8-40.666 15.833-63.999 23.5s-47.333 14.334-72 20.001-49.334 10.167-74.001 13.5-47.334 5-68.001 5c-98.667 0-171.167-16.833-217.5-50.5s-69.5-81.167-69.5-142.5c0-41.333 11.833-75 35.5-101s53.334-46.333 89.001-61 74.5-24.5 116.5-29.5 81-7.5 117-7.5h59.5c11 0 21.667.167 32 .5s18.833.833 25.5 1.5v-88c-12.667 0-26.334.333-41.001 1-12.667 0-27.334.167-44.001.5s-34.667.5-54 .5c-122.667 0-215.834-17.333-279.501-52s-95.5-89.667-95.5-165c0-29.333 6.333-57 19-83s32.667-48.667 60-68 62.666-34.5 105.999-45.5S458.667 59 520 59c25.333 0 51.833 2 79.5 6s55 9.167 82 15.5 53 13.333 78 21S807 117 827 125V29z" glyph-name="epsilon" horiz-adv-x="897" unicode="ε"/><glyph d="M895-164c0-17.333-1.67-32.83-5.004-46.496s-7.666-26.334-12.999-38.001-11.166-22.334-17.499-32.001l-19.5-28.5h-90l21 29.5c6.667 9 12.334 18 17.001 27s8.334 18.333 11.001 28 4 21.167 4 34.5c0 23.333-4.5 44.833-13.5 64.5s-25.5 37.334-49.5 53-56.5 29.168-97.5 40.5S549-11.33 485-3.997C423 3.335 366.833 18.168 316.5 40.5s-93.333 52-129 89S124.333 211 105 263 76 374.668 76 442c0 88.667 16.5 175.334 49.5 260s78.5 167.668 136.5 249 126.667 161.5 206 240.5 165 157.5 257 235.5v5H236v84h604v-82l-139-125.5c-49.333-46.332-98.666-95.832-147.999-148.5s-96.833-107.833-142.5-165.5-86-116.834-121-177.501-63-122.167-84-184.5-31.5-124.5-31.5-186.5c0-56.667 7-105.5 21-146.5s35-75.667 63-104 62.833-51 104.5-68 90.167-30.167 145.5-39.5c28.667-4.667 58.167-9.834 88.5-15.501s59.833-12.5 88.5-20.5 55.667-18 81-30 47.666-26.5 67-43.5 34.5-37.167 45.5-60.5 16.5-50.666 16.5-82z" glyph-name="zeta" horiz-adv-x="905" unicode="ζ"/><glyph d="M860-424l-.001 1008c0 60-4.5 113.333-13.5 160s-24.167 86-45.5 118-49.5 56.5-84.5 73.5-78.5 25.5-130.5 25.5c-54 0-101.667-11-143-33s-75.833-50.167-103.5-84.5-48.5-73-62.5-116-21-85.5-21-127.5V0h-92v713c0 20.667-.5 44.334-1.5 71.001s-2.667 54-5 82-5.166 55.667-8.499 83-7.333 52.333-12 75h92c2-10 4.333-22.667 7-38s5-32 7-50 3.667-36.333 5-55 2-36 2-52h4c22.667 48.667 49 87.5 79 116.5s60.833 51.167 92.5 66.5 63.167 25.333 94.5 30 60 7 86 7c56.667 0 106.667-9.5 150-28.5s79.5-46.333 108.5-82S915.333 859.167 930 807.5s22-109.834 22-174.501v-1057h-92z" glyph-name="eta" horiz-adv-x="1116" unicode="η"/><glyph d="M1057 770c0-128-11.166-241.331-33.499-339.998s-54.5-181.834-96.5-249.501S833.501 61.667 772.501 27s-130.167-52-207.5-52c-73.333 0-139.333 16.667-198 50s-108.5 82.5-149.5 147.5-72.5 145.333-94.5 241-33 205.5-33 329.5 10.5 235.333 31.5 334 52.5 182.167 94.5 250.5 94.667 120.833 158 157.5 137.333 55 222 55c80.667 0 150.167-18 208.5-54S910.667 1398.5 948 1331.5s64.833-147.833 82.5-242.5 26.5-201 26.5-319zm-93.999 43.002c0 55.333-2.5 109.67-7.5 163.003s-13.333 103.833-25 151.5-27 91.5-46 131.5-42.5 74.667-70.5 104-61 52.166-99 68.499-81.667 24.5-131 24.5c-44.667 0-85.5-8-122.5-24s-70.167-38.333-99.5-67-55-63-77-103-40.333-83.833-55-131.5-25.667-98.334-33-152.001-11-108.834-11-165.501h777zm-777-83.996c0-116 9.668-216.167 29.001-300.5s46.333-153.833 81-208.5 75.834-95.167 123.501-121.5 99.5-39.5 155.5-39.5c56.667 0 108.667 14 156 42s88.166 70 122.499 126 61.166 125.833 80.499 209.5 29 181.167 29 292.5h-777z" glyph-name="theta" horiz-adv-x="1147" unicode="θ"/><glyph d="M457 2c-14.667-5.333-29.167-8.999-43.5-10.999s-27.166-3-38.499-3c-37.333 0-69.333 6.167-96 18.5s-48.5 29.666-65.5 51.999-29.5 49.166-37.5 80.499-12 66.333-12 105v780h92v-782c0-37.333 4.667-67.166 14-89.499S290.667 113 304 101s27.333-19.833 42-23.5 27.667-5.5 39-5.5c17.333 0 31.333.833 42 2.5s20.667 4.167 30 7.5V2z" glyph-name="iota" horiz-adv-x="518" unicode="ι"/><glyph d="M854 0L449 537 256 315V0h-92v1024h92V444l344 396 70 78c22 24 43.5 44.667 64.5 62s41.5 31 61.5 41 40.667 15 62 15c9.333 0 17.833-.167 25.5-.5s16.167-1.5 25.5-3.5v-82c-5.333.667-9 1.167-11 1.5s-3.833.5-5.5.5H874c-31.333 0-63.833-15.667-97.5-47S702.333 830.667 655 776L512 610 973 0H854z" glyph-name="kappa" horiz-adv-x="1073" unicode="κ"/><glyph d="M877 0L541.002 921.999l-404-922h-100l459 1028-72 211c-8 24-17.667 47.833-29 71.5s-25.333 45-42 64-36.334 34.333-59.001 46-49.667 17.5-81 17.5c-14.667 0-29.834-1.333-45.501-4s-31.167-5.667-46.5-9v88c16.667 2.667 33 4.834 49 6.501s31.667 2.5 47 2.5c39.333 0 74-5.667 104-17s56.833-28.166 80.5-50.499 44.667-50.333 63-84S500 1297.667 516 1253L975 0h-98z" glyph-name="lambda" horiz-adv-x="1020" unicode="λ"/><glyph d="M862 182c-32.667-64-77.666-114.502-134.999-151.502s-122.333-55.5-195-55.5c-40 0-74.167 3.333-102.5 10s-52.833 15.834-73.5 27.501-38.334 25.167-53.001 40.5-29 31.666-43 48.999h-4v-497h-92v1419h92v-578c0-48 3.333-95.167 10-141.5s20.167-87.666 40.5-123.999 49.333-65.666 87-87.999S481 59 543 59c44 0 85.333 8.5 124 25.5s72.167 42.167 100.5 75.5 50.833 74.833 67.5 124.5 25 107.167 25 172.5v567h92V229c0-29.333 1.833-54 5.5-74s8.834-36.167 15.501-48.5 14.667-21.166 24-26.499 19.666-8 30.999-8c9.333 0 17.333.5 24 1.5s15 2.833 25 5.5v-77c-12-4-24.667-7-38-9s-26.333-3-39-3c-44 0-76.667 16.667-98 50S868.667 120.667 866 182h-4z" glyph-name="mu" horiz-adv-x="1130" unicode="μ"/><glyph d="M958 864c0-56-6.833-112.833-20.5-170.5s-31.667-114.167-54-169.5-47.833-108.833-76.5-160.5-57.667-100.167-87-145.5-57.833-86.5-85.5-123.5S582.333 26 561 0H451L33 1024h104L518 94c21.333 26.667 44.666 57.5 69.999 92.5s50.833 72.667 76.5 113 50.334 83 74.001 128 44.667 90.833 63 137.5 33 93.667 44 141S862 800 862 846c0 36-1.667 67.667-5 95s-9 55-17 83h102c5.333-21.333 9.333-46 12-74s4-56.667 4-86z" glyph-name="nu" horiz-adv-x="1077" unicode="ν"/><glyph d="M874-170c0-35.333-5.83-66.498-17.496-93.498s-24.167-49.833-37.5-68.5h-90c15.333 21.333 27.333 42.833 36 64.5s13 45.167 13 70.5c0 20-2.5 40-7.5 60s-17.333 38.667-37 56-48.834 33.166-87.501 47.499-91.667 25.5-159 33.5c-62.667 8-118.667 22.667-168 44s-91.166 49-125.5 83-60.5 74-78.5 120-27 97.333-27 154c0 50.667 8.834 99.167 26.5 145.5s42.668 88.333 75 126 71.167 70.167 116.5 97.5 95.666 47.333 150.999 60c-34 10-65.167 23.667-93.5 41s-52.833 37.833-73.5 61.5-36.834 50-48.501 79-17.5 60.5-17.5 94.5c0 50 11.5 93.167 34.5 129.5S310 1302.667 344 1328s70.333 46 109 62 74 28.333 106 37v5H198v84h576v-84c-30.667-6.667-63.167-14.5-97.5-23.5s-68.333-19.667-102-32-65.834-26.833-96.501-43.5-57.667-36-81-58-42-47-56-75-21-59.333-21-94c0-34 7.667-64.5 23-91.5s36.5-50.667 63.5-71 58.667-37.333 95-51S577.333 868 620 860c22.667 0 42.5.333 59.5 1s36.167 1.667 57.5 3v-88c-12 1.333-24.667 2-38 2h-42c-77.333 0-145.5-10.667-204.5-32s-108.333-49.333-148-84-69.667-74-90-118S184 455.333 184 410c0-40.667 5.167-78.167 15.5-112.5s27.833-65 52.5-92 57.667-50 99-69 93-33.167 155-42.5c68.667-10 126.5-23 173.5-39s85-35 114-57 49.667-47 62-75 18.5-59 18.5-93z" glyph-name="xi" horiz-adv-x="911" unicode="ξ"/><glyph d="M1059 510c0-71.333-9.666-139.331-28.999-203.998s-49-121.5-89-170.5-90.333-88-151-117-132.334-43.5-215.001-43.5c-81.333 0-152.333 14.333-213 43s-111.167 67.167-151.5 115.5S140 238.168 120 302.501 90 434.667 90 506c0 96 14 178.333 42 247s65 125 111 169 98.833 76.167 158.5 96.5S522.667 1049 586 1049c72 0 137.167-12 195.5-36s108-58.833 149-104.5 72.667-102 95-169S1059 596 1059 510zm-95.999 2.002c0 76-8.998 142.502-26.998 199.502s-43.5 104.167-76.5 141.5-73 65.333-120 84-99.5 28-157.5 28c-60 0-114.333-10.333-163-31s-90.334-50.667-125.001-90-61.334-87.5-80.001-144.5-28-122.167-28-195.5c0-65.333 8.833-125.333 26.5-180s43.167-101.667 76.5-141 74.333-69.833 123-91.5 104-32.5 166-32.5c66 0 123.167 11.167 171.5 33.5s88.333 53.666 120 93.999 55.167 88.166 70.5 143.499 23 116 23 182z" glyph-name="omicron" horiz-adv-x="1149" unicode="ο"/><glyph d="M930 940V248.001c0-117.333 45.667-176 137-176 9.333 0 30.333 3.333 63 10v-80c-26-9.333-54.667-14-86-14-67.333 0-118.5 22.667-153.5 68s-52.5 108-52.5 188v696H367v-682c0-100-7.667-186-23-258h-94c16 65.333 24 151.333 24 258v682C194.667 937.334 115.667 914.667 37 872v97c73.333 36.667 152.333 55 237 55h869v-84H930z" glyph-name="pi" horiz-adv-x="1284" unicode="π"/><glyph d="M1059 541c0-89.333-10.834-168.999-32.501-238.999s-52.5-129.333-92.5-178-88.667-85.667-146-111-122-38-194-38c-39.333 0-75.333 3.5-108 10.5s-62.667 16.667-90 29S343.833 41.167 321.5 57.5s-42.833 34.166-61.5 53.499h-4v-506h-92v930c0 80.667 9.833 152.834 29.5 216.501s48 117.5 85 161.5 82.333 77.667 136 101 114.167 35 181.5 35c80.667 0 150.167-14.5 208.5-43.5s106.333-67.333 144-115 65.5-102 83.5-163 27-123.167 27-186.5zm-98.001.001c0 60-7.999 115.832-23.999 167.499S897.833 805 867.5 843s-67.833 67.833-112.5 89.5S659.333 965 602 965c-63.333 0-116.833-11.833-160.5-35.5s-79.334-55.167-107.001-94.5-47.667-84.666-60-135.999-18.5-104.666-18.5-159.999v-312c16-24 35.5-46.333 58.5-67s49-38.5 78-53.5 60.667-26.667 95-35 70.5-12.5 108.5-12.5c55.333 0 105.5 9.833 150.5 29.5s83.333 49.5 115 89.5 56.167 90.167 73.5 150.5 26 131.166 26 212.499z" glyph-name="rho" horiz-adv-x="1149" unicode="ρ"/><glyph d="M877-170c0-35.333-5.998-66.505-17.998-93.505s-24.667-49.833-38-68.5h-96c15.333 18.667 28.333 39.834 39 63.501s16 51.167 16 82.5c0 29.333-5.5 54.333-16.5 75s-28.167 38.334-51.5 53.001-53.333 26.667-90 36-81 17.333-133 24c-67.333 8.667-126 26.5-176 53.5s-91.5 60.333-124.5 100-57.667 83.667-74 132-24.5 98.5-24.5 150.5c0 94.667 12.833 179.834 38.5 255.501s61.667 139.834 108 192.501 101.666 93 165.999 121 134.833 42 211.5 42c20.667 0 41.5-1.5 62.5-4.5s41.167-6.667 60.5-11 37.166-9.333 53.499-15 29.833-11.5 40.5-17.5V897c-30.667 20.667-66.5 37.167-107.5 49.5S642 965 602 965c-69.333 0-129.833-14.667-181.5-44s-95-68.166-130-116.499S229.333 701 212 639s-26-125.333-26-190c0-53.333 8-100.5 24-141.5S249 231 279 201s66.5-54.5 109.5-73.5S480.333 94.667 535 86c68.667-11.333 125-24.666 169-39.999s78.833-33.333 104.5-54 43.5-44.334 53.5-71 15-57 15-91z" glyph-name="sigma1" horiz-adv-x="942" unicode="ς"/><glyph d="M874 944c18-26 35.669-53.831 53.002-83.498s33-62.834 47-99.501 25.167-77.334 33.5-122.001 12.5-95.334 12.5-152.001c0-69.333-9.833-135-29.5-197s-48.834-116.333-87.501-163-86.667-83.667-144-111-123.333-41-198-41c-72.667 0-138.167 13-196.5 39s-107.833 62.167-148.5 108.5-71.834 101.833-93.501 166.5-32.5 135.667-32.5 213c0 80.667 9.833 153.334 29.5 218.001s50.167 119.5 91.5 164.5S304.833 964 368.5 988s139.5 36 227.5 36h537v-80H874zm50.002-443.998c0 53.333-4.665 101.833-13.998 145.5s-21 83.5-35 119.5-29.5 68.667-46.5 98l-48.5 81h-168c-74.667 0-138.834-9.667-192.501-29s-97.834-48-132.501-86-60.167-84.667-76.5-140-24.5-119-24.5-191c0-65.333 9.333-124.833 28-178.5s44.5-99.834 77.5-138.501 72.5-68.667 118.5-90 96.333-32 151-32c56 0 106.333 10.833 151 32.5s82.667 51.834 114 90.501 55.5 85 72.5 139 25.5 113.667 25.5 179z" glyph-name="sigma" horiz-adv-x="1149" unicode="σ"/><glyph d="M530 944l-.004-692.001c0-33.333 3.833-61.5 11.5-84.5s18-41.5 31-55.5 28.333-24.167 46-30.5 36.834-9.5 57.501-9.5c9.333 0 23 1 41 3s34.333 5 49 9v-82c-19.333-5.333-36.666-9-51.999-11s-30.666-3-45.999-3c-82 0-140.833 25.5-176.5 76.5S438 187.666 438 280.999v663H268c-43.333 0-84.666-6.667-123.999-20S71 896.333 43 881v88c26.667 14 58.5 26.667 95.5 38s80.167 17 129.5 17h688v-80H530z" glyph-name="tau" horiz-adv-x="997" unicode="τ"/><glyph d="M252 457c0-68.667 8.166-127.996 24.499-177.996s39.666-91.333 69.999-124 67-56.834 110-72.501 91.5-23.5 145.5-23.5c47.333 0 92.333 8.5 135 25.5s80 42.5 112 76.5 57.5 76.833 76.5 128.5 28.5 112.167 28.5 181.5c0 96-11.833 191.5-35.5 286.5s-55.5 183.833-95.5 266.5h98c18.667-37.333 35.667-77.5 51-120.5s28.5-87.833 39.5-134.5 19.5-94.334 25.5-143.001 9-97.667 9-147c0-81.333-11.167-153.333-33.5-216s-53.166-115.334-92.499-158.001-86.166-75-140.499-97-113.5-33-177.5-33c-75.333 0-140.666 11.5-195.999 34.5s-101.333 55-138 96-63.834 89.833-81.501 146.5-26.5 118.667-26.5 186v355c0 29.333-1.833 53.833-5.5 73.5s-8.834 35.5-15.501 47.5-14.667 20.5-24 25.5-19.666 7.5-30.999 7.5c-9.333 0-17.333-.5-24-1.5s-15-2.833-25-5.5v77c12 4 24.667 7 38 9s26.333 3 39 3c44 0 78.333-15.833 103-47.5S252 901.667 252 837V457z" glyph-name="upsilon" horiz-adv-x="1165" unicode="υ"/><glyph d="M1327 508c0-67.333-10.834-132.998-32.501-196.998s-53.834-120.833-96.501-170.5-95.667-89.667-159-120-136.666-45.5-219.999-45.5h-67v-456h-93v456h-61c-76 0-145.167 12.167-207.5 36.5s-116 59.5-161 105.5-79.833 102.167-104.5 168.5-37 141.166-37 224.499c0 54.667 5.667 107 17 157s26.5 96.833 45.5 140.5 40.833 83.667 65.5 120 50.334 68.5 77.001 96.5h106c-28-32.667-55-67.5-81-104.5s-48.833-76.833-68.5-119.5S214 711.667 202 663s-18-101-18-157c0-78 12-145 36-201s55.333-102.333 94-139 82.5-63.667 131.5-81S544 59 594 59h65v734c0 78.667 21.667 141 65 187s107 69 191 69c62.667 0 119.5-13.5 170.5-40.5s94.333-64.5 130-112.5 63.167-105.167 82.5-171.5 29-138.5 29-216.5zm-96 6.002c0 69.333-8.666 131.834-25.999 187.501s-40.5 103-69.5 142-62.167 69-99.5 90-76 31.5-116 31.5c-29.333 0-54.5-4.333-75.5-13s-38.333-20.667-52-36-23.834-33.333-30.501-54-10-43-10-67v-736h67c61.333 0 117.333 11.5 168 34.5s94 54.833 130 95.5 64 88.667 84 144 30 115.666 30 180.999z" glyph-name="phi" horiz-adv-x="1415" unicode="φ"/><glyph d="M1022-479c-30 0-56.67 4.667-80.003 14s-45.5 25.5-66.5 48.5-42.167 53.667-63.5 92-45 86.5-71 144.5l-193 440-402-727h-105l462 818-198 440c-15.333 34-29.666 62.333-42.999 85s-26.166 40.5-38.499 53.5-24.833 22.167-37.5 27.5-25.667 8-39 8c-16.667 0-32.334-3-47-9v86c8 2 16.5 3.667 25.5 5s19.166 2 30.5 2c24.666 0 47-3.167 67-9.5s38.832-17 56.5-32 34.333-34.667 50-59S361 894 377 858l184-417 326 583h102L606 348l254-565c24.667-55.333 50.834-98.833 78.501-130.5S998.667-395 1036-395c20 0 37 2 51 6v-83c-10-2-20.333-3.667-31-5s-22-2-34-2z" glyph-name="chi" horiz-adv-x="1102" unicode="χ"/><glyph d="M721-481v456.002h-57c-72 0-139.167 12.333-201.5 37S346 73.169 300 121.502s-82.167 108.166-108.5 179.499-39.5 154-39.5 248v475h96v-475c0-81.333 11.333-152.666 34-213.999s53.167-112.5 91.5-153.5 82.5-71.667 132.5-92 102.667-30.5 158-30.5h57v1272h92v-1272h57c53.333 0 105 10 155 30s94.5 50.167 133.5 90.5 70.333 91.166 94 152.499S1288 465.667 1288 549v475h96V551c0-94-13.667-177-41-249s-64.5-132.167-111.5-180.5S1130 36.667 1068 12 940-25 870-25h-57v-456h-92z" glyph-name="psi" horiz-adv-x="1536" unicode="ψ"/><glyph d="M1536 463c0-74-8.832-141-26.499-201s-43.5-111.167-77.5-153.5-75.833-75.166-125.5-98.499-106.167-35-169.5-35c-40 0-76.333 6.5-109 19.5s-61.667 30.5-87 52.5-47.333 47.167-66 75.5-34 57.833-46 88.5h-4c-11.333-30-26.666-59.167-45.999-87.5s-42.166-53.5-68.499-75.5-56.333-39.667-90-53-70.5-20-110.5-20c-64 0-120.333 12-169 36s-89.5 57.5-122.5 100.5-57.833 94.333-74.5 154-25 125.5-25 197.5c0 56 4.167 110.333 12.5 163s18.833 102.834 31.5 150.501 26.5 92.334 41.5 134.001 29.5 79.5 43.5 113.5h98c-14.667-36.667-29.834-77.667-45.501-123s-29.834-92.833-42.501-142.5-23-100-31-151-12-100.5-12-148.5c0-64.667 7.333-121.834 22-171.501s34.667-91.5 60-125.5 55.5-59.667 90.5-77 73.167-26 114.5-26c40.667 0 78.167 8.5 112.5 25.5s64 42.667 89 77 44.333 77.5 58 129.5 20.5 113.333 20.5 184v275h92v-275c0-72 6.833-134.167 20.5-186.5s32.834-95.5 57.501-129.5 54-59.167 88-75.5 71.667-24.5 113-24.5 79.5 9.5 114.5 28.5 65.333 46 91 81 45.667 77 60 126 21.5 103.833 21.5 164.5c0 48-4 97.5-12 148.5s-18.333 101.333-31 151-26.834 97.167-42.501 142.5-30.834 86.333-45.501 123h96c14-34 28.667-71.833 44-113.5s29.5-86.334 42.5-134.001 23.667-97.834 32-150.501 12.5-107 12.5-163z" glyph-name="omega" horiz-adv-x="1655" unicode="ω"/><glyph d="M457 2c-14.667-5.333-29.167-8.999-43.5-10.999s-27.166-3-38.499-3c-37.333 0-69.333 6.167-96 18.5s-48.5 29.666-65.5 51.999-29.5 49.166-37.5 80.499-12 66.333-12 105v780h92v-782c0-37.333 4.667-67.166 14-89.499S290.667 113 304 101s27.333-19.833 42-23.5 27.667-5.5 39-5.5c17.333 0 31.333.833 42 2.5s20.667 4.167 30 7.5V2zm-81 1186c-18 0-34.332 6.5-48.999 19.5s-22 30.5-22 52.5c0 20.667 7.167 37.334 21.5 50.001s30.166 19 47.499 19c19.333 0 36.833-6.5 52.5-19.5s23.5-29.5 23.5-49.5c0-20.667-7.167-37.834-21.5-51.501S396.667 1188 376 1188zm-332.999 0c-18.667 0-35.332 6.5-49.999 19.5s-22 30.5-22 52.5c0 20.667 7.333 37.334 22 50.001s30.667 19 48 19c19.333 0 36.666-6.5 51.999-19.5s23-29.5 23-49.5c0-20.667-7-37.834-21-51.501s-31.333-20.5-52-20.5z" glyph-name="iotadieresis" horiz-adv-x="518" unicode="ϊ"/><glyph d="M252 457c0-68.667 8.166-127.996 24.499-177.996s39.666-91.333 69.999-124 67-56.834 110-72.501 91.5-23.5 145.5-23.5c47.333 0 92.333 8.5 135 25.5s80 42.5 112 76.5 57.5 76.833 76.5 128.5 28.5 112.167 28.5 181.5c0 96-11.833 191.5-35.5 286.5s-55.5 183.833-95.5 266.5h98c18.667-37.333 35.667-77.5 51-120.5s28.5-87.833 39.5-134.5 19.5-94.334 25.5-143.001 9-97.667 9-147c0-81.333-11.167-153.333-33.5-216s-53.166-115.334-92.499-158.001-86.166-75-140.499-97-113.5-33-177.5-33c-75.333 0-140.666 11.5-195.999 34.5s-101.333 55-138 96-63.834 89.833-81.501 146.5-26.5 118.667-26.5 186v355c0 29.333-1.833 53.833-5.5 73.5s-8.834 35.5-15.501 47.5-14.667 20.5-24 25.5-19.666 7.5-30.999 7.5c-9.333 0-17.333-.5-24-1.5s-15-2.833-25-5.5v77c12 4 24.667 7 38 9s26.333 3 39 3c44 0 78.333-15.833 103-47.5S252 901.667 252 837V457zm462.999 731c-18 0-34.332 6.5-48.999 19.5s-22 30.5-22 52.5c0 20.667 7.167 37.334 21.5 50.001s30.166 19 47.499 19c19.333 0 36.833-6.5 52.5-19.5s23.5-29.5 23.5-49.5c0-20.667-7.167-37.834-21.5-51.501s-31.833-20.5-52.5-20.5zM382 1188c-18.667 0-35.332 6.5-49.999 19.5s-22 30.5-22 52.5c0 20.667 7.333 37.334 22 50.001s30.667 19 48 19c19.333 0 36.666-6.5 51.999-19.5s23-29.5 23-49.5c0-20.667-7-37.834-21-51.501s-31.333-20.5-52-20.5z" glyph-name="upsilondieresis" horiz-adv-x="1165" unicode="ϋ"/><glyph d="M575-25c-149.333 0-267.5 49.168-354.5 147.501S90 348.667 90 506c0 170 45.5 303 136.5 399s210.833 144 359.5 144c146 0 261.333-47.667 346-143s127-227.333 127-396c0-159.333-43.167-288.333-129.5-387S725-25 575-25zm7 990.001c-120.667 0-216.834-40.667-288.501-122s-107.5-194.333-107.5-339c0-134 35-241.667 105-323s165.667-122 287-122c123.333 0 218.333 40 285 120s100 191 100 333c0 146-33.167 258-99.5 336s-160.166 117-281.499 117zM550 1187h-49l90 369h105z" glyph-name="omicrontonos" horiz-adv-x="1149" unicode="ό"/><glyph d="M252 457c0-68.667 8.166-127.996 24.499-177.996s39.666-91.333 69.999-124 67-56.834 110-72.501 91.5-23.5 145.5-23.5c47.333 0 92.333 8.5 135 25.5s80 42.5 112 76.5 57.5 76.833 76.5 128.5 28.5 112.167 28.5 181.5c0 96-11.833 191.5-35.5 286.5s-55.5 183.833-95.5 266.5h98c18.667-37.333 35.667-77.5 51-120.5s28.5-87.833 39.5-134.5 19.5-94.334 25.5-143.001 9-97.667 9-147c0-81.333-11.167-153.333-33.5-216s-53.166-115.334-92.499-158.001-86.166-75-140.499-97-113.5-33-177.5-33c-75.333 0-140.666 11.5-195.999 34.5s-101.333 55-138 96-63.834 89.833-81.501 146.5-26.5 118.667-26.5 186v355c0 29.333-1.833 53.833-5.5 73.5s-8.834 35.5-15.501 47.5-14.667 20.5-24 25.5-19.666 7.5-30.999 7.5c-9.333 0-17.333-.5-24-1.5s-15-2.833-25-5.5v77c12 4 24.667 7 38 9s26.333 3 39 3c44 0 78.333-15.833 103-47.5S252 901.667 252 837V457zm299.999 730h-49l90 369h105z" glyph-name="upsilontonos" horiz-adv-x="1165" unicode="ύ"/><glyph d="M1536 463c0-74-8.832-141-26.499-201s-43.5-111.167-77.5-153.5-75.833-75.166-125.5-98.499-106.167-35-169.5-35c-40 0-76.333 6.5-109 19.5s-61.667 30.5-87 52.5-47.333 47.167-66 75.5-34 57.833-46 88.5h-4c-11.333-30-26.666-59.167-45.999-87.5s-42.166-53.5-68.499-75.5-56.333-39.667-90-53-70.5-20-110.5-20c-64 0-120.333 12-169 36s-89.5 57.5-122.5 100.5-57.833 94.333-74.5 154-25 125.5-25 197.5c0 56 4.167 110.333 12.5 163s18.833 102.834 31.5 150.501 26.5 92.334 41.5 134.001 29.5 79.5 43.5 113.5h98c-14.667-36.667-29.834-77.667-45.501-123s-29.834-92.833-42.501-142.5-23-100-31-151-12-100.5-12-148.5c0-64.667 7.333-121.834 22-171.501s34.667-91.5 60-125.5 55.5-59.667 90.5-77 73.167-26 114.5-26c40.667 0 78.167 8.5 112.5 25.5s64 42.667 89 77 44.333 77.5 58 129.5 20.5 113.333 20.5 184v275h92v-275c0-72 6.833-134.167 20.5-186.5s32.834-95.5 57.501-129.5 54-59.167 88-75.5 71.667-24.5 113-24.5 79.5 9.5 114.5 28.5 65.333 46 91 81 45.667 77 60 126 21.5 103.833 21.5 164.5c0 48-4 97.5-12 148.5s-18.333 101.333-31 151-26.834 97.167-42.501 142.5-30.834 86.333-45.501 123h96c14-34 28.667-71.833 44-113.5s29.5-86.334 42.5-134.001 23.667-97.834 32-150.501 12.5-107 12.5-163zm-719.999 724h-49l90 369h105z" glyph-name="omegatonos" horiz-adv-x="1655" unicode="ώ"/><glyph d="M751 1366c-79.333 0-151.003-11.668-215.003-35.001s-118.667-55.333-164-96-80.166-88.667-104.499-144-36.5-115-36.5-179c0-66 11.833-126.167 35.5-180.5s57.834-101 102.501-140 99.167-69.333 163.5-91 137.166-32.5 218.499-32.5c83.333 0 157.333 11.333 222 34s119.334 53.834 164.001 93.501 78.5 86.5 101.5 140.5 34.5 112.667 34.5 176c0 62.667-12.5 121.667-37.5 177s-60.167 103.5-105.5 144.5-100.166 73.333-164.499 97S829.667 1366 751 1366zM799.997-.001l-98-.001v376c-91.333 8-172.666 26-243.999 54s-131.333 64.667-180 110-85.667 98.833-111 160.5-38 130.167-38 205.5c0 81.333 15.833 155.833 47.5 223.5s75.5 126 131.5 175 122 87 198 114 158.333 40.5 247 40.5c91.333 0 175.166-12.833 251.499-38.5s141.833-62 196.5-109 97.167-103.667 127.5-170 45.5-140.166 45.5-221.499c0-74.667-13-143.167-39-205.5s-63.667-117-113-164-109.5-85.5-180.5-115.5-151.5-49.667-241.5-59v-376z" glyph-name="uni03D8" horiz-adv-x="1503" unicode="Ϙ"/><glyph d="M530-471v448.001c-68.667 5.333-130.167 22-184.5 50S245 92.168 207 138.501 140 239.167 120 301.5 90 432 90 506c0 84.667 11.833 160.667 35.5 228s57.334 124.333 101.001 171 96 82.334 157 107.001 128.5 37 202.5 37c72.667 0 138.167-12.333 196.5-37s108-60.167 149-106.5 72.5-102.833 94.5-169.5 33-142 33-226c0-74-9.833-142.333-29.5-205S981.167 187.667 943.5 141 860 56.833 806 28.5 691-17 623-23v-448h-93zm52 1436.001c-60 0-114.332-10.5-162.999-31.5s-90.334-51.167-125.001-90.5-61.334-87.5-80.001-144.5-28-121.833-28-194.5c0-66.667 9-127.334 27-182.001s44-101.5 78-140.5 75.167-69.167 123.5-90.5 102.833-32 163.5-32c62 0 116.833 10.333 164.5 31S830.333 140.5 863 179.5 920.5 266 937.5 322 963 441.333 963 512c0 146.667-33 258.834-99 336.501s-160 116.5-282 116.5z" glyph-name="uni03D9" horiz-adv-x="1149" unicode="ϙ"/><glyph d="M283 708L282.999-.003h-99v1434h670v-91h-571v-544h335c32.667 0 62.5-3.667 89.5-11s50.333-18.666 70-33.999 35-34.666 46-57.999 16.5-51 16.5-83c0-19.333-1.833-40.166-5.5-62.499s-8.5-41.833-14.5-58.5h-95c6.667 15.333 11.834 33.5 15.501 54.5s5.5 42.167 5.5 63.5c0 34.667-12.333 59.667-37 75s-60 23-106 23H283z" glyph-name="uni03DC" horiz-adv-x="952" unicode="Ϝ"/><glyph d="M810 940H598c-118.667 0-209.5-30.5-272.5-91.5S231 694 231 568V461h523v-84H231v-848h-86V549c0 156 38.333 274.167 115 354.5S452 1024 606 1024h204v-84z" glyph-name="uni03DD" horiz-adv-x="884" unicode="ϝ"/><glyph d="M935 0c42 91.333 75.002 187.332 99.002 287.999s36 208 36 322c0 41.333-1.833 81-5.5 119s-9.167 75-16.5 111l-480-373-49 63 508 399c-12.667 42-28.834 81.667-48.501 119s-43.5 74-71.5 110l-545-426-50 62 541 425c-50 47.333-107.5 83.833-172.5 109.5s-130.833 38.5-197.5 38.5c-82.667 0-161.334-15.667-236.001-47S103 1246.333 39 1193v109c68 53.333 137.833 92.833 209.5 118.5S401 1459 491 1459c49.333 0 97.166-5.833 143.499-17.5s90.5-28 132.5-49 81.5-46.333 118.5-76 70.5-62.5 100.5-98.5c60.667-80.667 106.834-172.5 138.501-275.5S1172 726.333 1172 603c0-207.333-43.333-408.333-130-603H935z" glyph-name="uni03E0" horiz-adv-x="1281" unicode="Ϡ"/><glyph d="M567-489c36 59.333 68.001 117.167 96.001 173.5s51.5 113.5 70.5 171.5 33.333 118 43 180 14.5 128.667 14.5 200c0 14.667-.333 30.667-1 48s-1.5 34.666-2.5 51.999-2.333 33.833-4 49.5-3.5 29.5-5.5 41.5l-493-180-31 81 511 185c-12.667 51.333-29 102.666-49 153.999s-43.333 103-70 155l-508-184-29 80 493 182c-92 144.667-197.333 260.5-316 347.5s-248.334 147.5-389.001 181.5v105c140.667-32.667 269.5-87.167 386.5-163.5s221.833-172.5 314.5-288.5c94-123.333 165.5-255.666 214.5-396.999s73.5-290.333 73.5-447c0-67.333-4.167-131.666-12.5-192.999s-21-121.333-38-180S797-252.167 771-310.5 714.667-428.333 680-489H567z" glyph-name="uni03E1" horiz-adv-x="1010" unicode="ϡ"/><glyph d="M289 1434l418.999-736.001c18-32 32.833-61.333 44.5-88s21.5-54.667 29.5-84h4C798.666 566.666 826.333 625.333 869 702l408 732h102V0h-97v973c0 19.333.333 41.833 1 67.5s1.667 53.167 3 82.5 3 59.5 5 90.5l6 91.5h-8c-19.333-51.333-37.333-93.833-54-127.5s-31.667-62.167-45-85.5L804 399h-37l-393 688-19.5 35-26 48-27 54.5c-9 19-16.5 36.833-22.5 53.5h-10c.667-23.333 1.5-46 2.5-68s1.833-45 2.5-69 1.167-49.833 1.5-77.5.5-58.5.5-92.5V0h-92v1434h105z" glyph-name="uni03FA" horiz-adv-x="1563" unicode="Ϻ"/><glyph d="M1079 0h-91.002v878l-29.5-63.5c-10.333-21.667-23.166-44.5-38.499-68.5l-276-476h-37l-284 476-20 34.5c-6 10.333-11.5 20.5-16.5 30.5l-15 31-16.5 36V-470h-91v1494h99l290-485c18.667-32.667 43.334-79 74.001-139l37 71.5 36 65.5 284 487h95V0z" glyph-name="uni03FB" horiz-adv-x="1243" unicode="ϻ"/><glyph d="M184 0v1434h670v-91H283V768h530v-90H283V90h604V0H184zm372 1536l-248 328h104l234-328h-90z" glyph-name="uni0400" horiz-adv-x="1024" unicode="Ѐ"/><glyph d="M184 0v1434h670v-91H283V768h530v-90H283V90h604V0H184zm530 1536c-18 0-34.332 6.5-48.999 19.5s-22 30.5-22 52.5c0 20.667 7.167 37.334 21.5 50.001s30.166 19 47.499 19c19.333 0 36.833-6.5 52.5-19.5s23.5-29.5 23.5-49.5c0-20.667-7.167-37.834-21.5-51.501S734.667 1536 714 1536zm-332.999 0c-18.667 0-35.332 6.5-49.999 19.5s-22 30.5-22 52.5c0 20.667 7.333 37.334 22 50.001s30.667 19 48 19c19.333 0 36.666-6.5 51.999-19.5s23-29.5 23-49.5c0-20.667-7-37.834-21-51.501s-31.333-20.5-52-20.5z" glyph-name="afii10023" horiz-adv-x="1024" unicode="Ё"/><glyph d="M1286 375c0-53.333-7.497-104.165-22.497-152.498s-37.833-90.833-68.5-127.5-69.834-65.834-117.501-87.501-103.834-32.5-168.501-32.5c-30 0-59.167 2.667-87.5 8s-52.166 11-71.5 17v100c20.668-8 45.335-15.333 74.002-22s57-10 85-10c48 0 89.167 8.5 123.5 25.5s62.5 39.667 84.5 68 38 60.833 48 97.5 15 74.667 15 114c0 49.333-7.833 94.666-23.5 135.999s-38.834 76.833-69.501 106.5-68.834 52.667-114.501 69S873.667 709 813 709H532V0h-98v1343H61v91h926v-91H532V799h295c66 0 127.167-8.5 183.5-25.5s104.833-43 145.5-78 72.5-79.167 95.5-132.5 34.5-116 34.5-188z" glyph-name="afii10051" horiz-adv-x="1409" unicode="Ђ"/><glyph d="M283 1343V0h-99v1434h674v-91H283zm241 213h-90l234 328h104z" glyph-name="afii10052" horiz-adv-x="889" unicode="Ѓ"/><glyph d="M774-25c-98.667 0-188.83 17.332-270.497 51.999s-151.667 83.167-210 145.5-103.666 137.333-135.999 225-48.5 184.5-48.5 290.5c0 124 19 233.833 57 329.5s89.333 176.167 154 241.5 140.167 114.833 226.5 148.5 177.833 50.5 274.5 50.5c74 0 136.167-5.667 186.5-17s93.5-23.333 129.5-36v-105c-41.333 18.667-87.5 34.667-138.5 48s-110.833 20-179.5 20c-82 0-158.333-13.5-229-40.5s-132.834-66.333-186.501-118-97.167-114.834-130.5-189.501-53.333-160-60-256h702v-92h-704c2.667-104 20.5-194 53.5-270s76-139 129-189 113.167-87 180.5-111 136.666-36 207.999-36c75.333 0 142.833 7.5 202.5 22.5s110.5 33.167 152.5 54.5v-96c-18-7.333-38.833-15.166-62.5-23.499S1024.168 7.333 994.501 0 931.667-13.333 895-18s-77-7-121-7z" glyph-name="afii10053" horiz-adv-x="1272" unicode="Є"/><glyph d="M139 51l-.001 113c102.667-65.333 206.667-98 312-98 112 0 197 23.167 255 69.5s87 111.166 87 194.499c0 73.333-19.5 131.833-58.5 175.5s-123.5 103.167-253.5 178.5c-145.333 84.667-237.333 155.5-276 212.5s-58 122.833-58 197.5c0 101.333 39.333 187.333 118 258s183.667 106 315 106c85.333 0 170.666-14.333 255.999-43v-104c-84 38-173.667 57-269 57-97.333 0-174.5-24.667-231.5-74s-85.5-112-85.5-188c0-73.333 19.5-131.666 58.5-174.999s123.167-102.333 252.5-177c134-76 223.167-143.5 267.5-202.5s66.5-126.833 66.5-203.5c0-110-38.167-199.667-114.5-269S596.332-25 456.999-25C407.666-25 350.833-17.333 286.5-2S173 31 139 51z" glyph-name="afii10054" horiz-adv-x="1018" unicode="Ѕ"/><glyph d="M283 1434V0h-99v1434h99z" glyph-name="afii10055" horiz-adv-x="467" unicode="І"/><glyph d="M283 1434V0h-99v1434h99zm114 102c-18 0-34.332 6.5-48.999 19.5s-22 30.5-22 52.5c0 20.667 7.167 37.334 21.5 50.001s30.166 19 47.499 19c19.333 0 36.833-6.5 52.5-19.5s23.5-29.5 23.5-49.5c0-20.667-7.167-37.834-21.5-51.501S417.667 1536 397 1536zm-332.999 0c-18.667 0-35.332 6.5-49.999 19.5s-22 30.5-22 52.5c0 20.667 7.333 37.334 22 50.001s30.667 19 48 19c19.333 0 36.666-6.5 51.999-19.5s23-29.5 23-49.5c0-20.667-7-37.834-21-51.501s-31.333-20.5-52-20.5z" glyph-name="afii10056" horiz-adv-x="467" unicode="Ї"/><glyph d="M487 494c0-346-120.001-519-360.001-519C89.666-25 53.333-20 18-10v96c39.333-13.333 76.333-20 111-20 92 0 158.333 34.833 199 104.5s61 178.167 61 325.5v938h98V494z" glyph-name="afii10057" horiz-adv-x="664" unicode="Ј"/><glyph d="M1042 0l-.003 1341h-454c-11.333-88.667-23.666-180.334-36.999-275.001s-27-186-41-274l-40.5-245c-13-75.333-24.833-137.666-35.5-186.999-11.333-52-25-100.833-41-146.5s-36-85.667-60-120-52.833-61.5-86.5-81.5-73.5-30-119.5-30C105.665-18 87.332-16.667 72-14S43-8 31-4V96C57.666 82.667 88.333 76 123 76c30 0 56.333 7.667 79 23s42.5 37.333 59.5 66 32 63.5 45 104.5S331.667 356.667 343 408c7.333 32 15.166 70.333 23.5 115l27 148.5c9.666 54.333 19.333 112.333 29 174l29 190.5 28.5 199c9.333 67.333 18 133.666 26 198.999h635v-637h325c56.667 0 109.5-7.167 158.5-21.5s91.5-36.833 127.5-67.5 64.333-70.167 85-118.5 31-106.833 31-175.5c0-56.667-9.333-110-28-160s-46.167-93.833-82.5-131.5-81.333-67.5-135-89.5-115.167-33-184.5-33h-396zm723 406.001c0 54-7.667 100-23 138s-38 69-68 93-67 41.667-111 53-94.667 17-152 17h-270v-617h276c61.333 0 114 8 158 24s80 38 108 66 48.667 61.333 62 100 20 80.667 20 126z" glyph-name="afii10058" horiz-adv-x="1995" unicode="Љ"/><glyph d="M1929 414c0-56.667-9.334-110-28.001-160s-46.167-93.833-82.5-131.5S1737.333 55 1684 33 1569 0 1499 0h-395v707H283V0h-99v1434h99V797h821v637h98V797h326c56 0 108.5-7.167 157.5-21.5S1777 738.667 1813 708s64.333-70.167 85-118.5 31-106.833 31-175.5zm-102-8c0 54-7.667 100-23 138s-38 69-68 93-67 41.667-111 53-94.667 17-152 17h-271V90h277c61.333 0 114 8 158 24s80 38 108 66 48.667 61.333 62 100 20 80.667 20 126z" glyph-name="afii10059" horiz-adv-x="2056" unicode="Њ"/><glyph d="M1190 0l.001 383c0 54-5.833 102.5-17.5 145.5s-30.167 79.333-55.5 109-58.333 52.334-99 68.001-90 23.5-148 23.5h-297v-729h-98v1343h-414v91h926v-91h-414v-524h301c64.667 0 122.667-8 174-24s94.666-41.333 129.999-76 62.5-79.334 81.5-134.001 28.5-120.667 28.5-198V0h-98z" glyph-name="afii10060" horiz-adv-x="1421" unicode="Ћ"/><glyph d="M922 0L311 686c-11.333 12.667-19.333 23.667-24 33h-4V0h-99v1434h99V758h4c8 14 16.667 25.667 26 35l580 641h129L393 739 1061 0H922zM598 1556h-90l234 328h104z" glyph-name="afii10061" horiz-adv-x="1079" unicode="Ќ"/><glyph d="M1169 0v1186c0 11.333.167 22.5.5 33.5s.833 20.833 1.5 29.5h-4l-12.5-20.5a522.763 522.763 0 0 0-16-24.999l-17-24.5c-5.667-8-10.167-14.667-13.5-20L254 .001h-70v1434h99v-1121c0-16-.333-35.5-1-58.5s-1.667-43.5-3-61.5h4c7.333 12 17 27 29 45l32 47 848 1149h76V.001h-99zM712 1537l-248 328h104l234-328h-90z" glyph-name="uni040D" horiz-adv-x="1452" unicode="Ѝ"/><glyph d="M631 377c-25.333-59.333-51.665-113.667-78.998-163s-57.333-91.666-90-126.999-68.834-62.833-108.501-82.5-84.5-29.5-134.5-29.5c-28.667 0-55.5 2.833-80.5 8.5s-46.167 12.5-63.5 20.5v107c21.333-12.667 45.333-23 72-31s50.667-12 72-12c38.667 0 72.5 7.5 101.5 22.5s55.667 36.333 80 64 47.166 61.167 68.499 100.5 43.333 83.333 66 132l-474 1047h111l358-811c4-8 8.333-17.333 13-28l14.5-34 15-36 13.5-33h4c8 22.667 16.667 44.167 26 64.5s17 38.166 23 53.499l344 824h104zm-55.999 1209c38.667 0 73.5 5.667 104.5 17s57.667 26.666 80 45.999 40 41.666 53 66.999 21.167 51.666 24.5 78.999h98c-6.667-36-19.167-71.167-37.5-105.5s-42.5-64.833-72.5-91.5-66-48-108-64-89.667-24-143-24-100 8-140 24-73.667 37.333-101 64-49.166 57.167-65.499 91.5-27.833 69.5-34.5 105.5h98c3.333-27.333 10.666-53.666 21.999-78.999s27-47.666 47-66.999 44.333-34.666 73-45.999 62-17 100-17h2z" glyph-name="afii10062" horiz-adv-x="1098" unicode="Ў"/><glyph d="M738 0v-384h-96V0H184v1434h99V90h821v1344h98V0H738z" glyph-name="afii10145" horiz-adv-x="1386" unicode="Џ"/><glyph d="M1118 0L954 446H332L168 0H59l541 1434h94L1229 0h-111zM678 1200c-7.333 20-13.333 39.666-18 58.999A1424.032 1424.032 0 0 1 645 1309h-4c-11.333-44-22.333-79.667-33-107L367 537h553z" glyph-name="afii10017" horiz-adv-x="1288" unicode="А"/><glyph d="M1010 414c0-56.667-9.333-110-28-160s-46.167-93.833-82.5-131.5S818.167 55 764.5 33 649.333 0 580 0H184v1434h721v-91H283V797h325c56.667 0 109.5-7.167 158.5-21.5S858 738.667 894 708s64.333-70.167 85-118.5 31-106.833 31-175.5zm-103-8c0 54-7.667 100-23 138s-38 69-68 93-67 41.667-111 53-94.667 17-152 17H283V90h276c61.333 0 114 8 158 24s80 38 108 66 48.667 61.333 62 100 20 80.667 20 126z" glyph-name="afii10018" horiz-adv-x="1102" unicode="Б"/><glyph d="M184 0l-.001 1434h377c112.667 0 202.334-30.333 269.001-91s100-141 100-241c0-83.333-22.167-155.5-66.5-216.5S757.334 781.333 678.001 756v-4c99.333-9.333 177.666-44.833 234.999-106.5s86-140.167 86-235.5c0-120.667-39-219.167-117-295.5S699.667 0 569 0H184zm98.999 1343V788.001h200c104 0 187.333 26.667 250 80s94 125.666 94 216.999c0 172-101.667 258-305 258h-239zm0-644.999l-.001-608h266c112.667 0 198.834 27 258.501 81s89.5 130.667 89.5 230c0 198-134.333 297-403 297h-211z" glyph-name="afii10019" horiz-adv-x="1114" unicode="В"/><glyph d="M283 1343V0h-99v1434h674v-91H283z" glyph-name="afii10020" horiz-adv-x="889" unicode="Г"/><glyph d="M1235-384V.001H120v-384H20v474h116c49.333 96 96.333 200 141 312s84 226.667 118 344S456.5 980.667 477.5 1098s32.5 229.333 34.5 336h618V90h201v-474h-96zm-203 1727l-428 .001c-2-56-8-116.833-18-182.5s-23-134.334-39-206.001-34.667-145-56-220-45-149.667-71-224-53.833-147-83.5-218S276 154 244 90h788v1253z" glyph-name="afii10021" horiz-adv-x="1351" unicode="Д"/><glyph d="M184 0v1434h670v-91H283V768h530v-90H283V90h604V0H184z" glyph-name="afii10022" horiz-adv-x="1024" unicode="Е"/><glyph d="M1534 0L923.999 686c-3.333 3.333-7.333 7.833-12 13.5s-9 12.167-13 19.5h-4V0h-98v719h-4c-4.667-7.333-9.167-13.833-13.5-19.5S771.333 689.333 768 686L158 0H18l668 739-629 695h129l580-641c3.333-3.333 7.833-8.5 13.5-15.5S789.667 764 793 758h4v676h98V758h4c3.333 6 7.833 12.5 13.5 19.5s10.167 12.167 13.5 15.5l579 641h129l-628-695L1673 0h-139z" glyph-name="afii10024" horiz-adv-x="1692" unicode="Ж"/><glyph d="M991 393c0-54-10.497-106.162-31.497-156.495s-52.333-94.833-94-133.5-93.334-69.667-155.001-93-133.167-35-214.5-35c-79.333 0-150.333 9.167-213 27.5s-116 41.5-160 69.5v106c27.333-20.667 56.666-38.5 87.999-53.5s63.333-27.333 96-37 65.167-16.834 97.5-21.501 63.5-7 93.5-7c66 0 123.833 8.667 173.5 26s91 40.666 124 69.999 57.833 63.333 74.5 102 25 79.334 25 122.001c0 55.333-10 103.333-30 144s-49 74.167-87 100.5-84.333 46-139 59-116.667 19.5-186 19.5H324v84h98c63.333 0 120.5 7.167 171.5 21.5S688 842.67 724 870.003s63.667 60.5 83 99.5 29 83.167 29 132.5c0 38-6.333 73.667-19 107s-31.667 62.166-57 86.499-57 43.5-95 57.5-82.333 21-133 21c-61.333 0-119.333-9.333-174-28s-103.667-44-147-76v98c22 12 44.833 23.333 68.5 34s49 20.167 76 28.5 55.833 15 86.5 20 63.667 7.5 99 7.5c62.667 0 118.334-8.667 167-26s89.668-41.166 123-71.499 58.5-66.333 75.5-108 25.5-86.5 25.5-134.5c0-92.667-25.332-170.334-76-233.001s-123.666-106.334-219-131.001v-4c59.334-4 111.167-17 155.5-39s81.166-49.5 110.499-82.5 51.333-69.833 66-110.5S991 435.667 991 393z" glyph-name="afii10025" horiz-adv-x="1104" unicode="З"/><glyph d="M1169 0v1186c0 11.333.167 22.5.5 33.5s.833 20.833 1.5 29.5h-4l-12.5-20.5a522.763 522.763 0 0 0-16-24.999l-17-24.5c-5.667-8-10.167-14.667-13.5-20L254 .001h-70v1434h99v-1121c0-16-.333-35.5-1-58.5s-1.667-43.5-3-61.5h4c7.333 12 17 27 29 45l32 47 848 1149h76V.001h-99z" glyph-name="afii10026" horiz-adv-x="1452" unicode="И"/></font>
</defs>
</svg>
