<svg><defs><font id="SegoeWP-Semibold" horiz-adv-x="0"><font-face x-height="1024" ascent="1638" bbox="-887 -666.003 2907 2277" cap-height="1434" descent="-410" font-family="Segoe WP Semibold" font-weight="600" panose-1="2 11 7 2 4 2 4 2 2 3" underline-position="-119" underline-thickness="119" unicode-range="U+000D-U+FFFD" units-per-em="2048"/><glyph d="M854 1061l-.001-641.998c0-32.667 1.5-61.334 4.5-86.001s9.833-45.167 20.5-61.5 26.334-28.5 47.001-36.5 48.667-12 84-12c23.333 0 44.833 1.833 64.5 5.5s36.5 10.834 50.5 21.501 24.833 25.5 32.5 44.5 11.5 44.167 11.5 75.5v893h199v-827c0-35.333 1.167-66.333 3.5-93s8.666-48.834 18.999-66.501 25.833-31 46.5-40 49.334-13.5 86.001-13.5c24.667 0 47 2 67 6s36.667 11.5 50 22.5 23.666 26 30.999 45 11 43.5 11 73.5v1043h199v-1050c0-78-10.167-142-30.5-192s-47.666-89.167-81.999-117.5-73.666-48-117.999-59-90.5-16.5-138.5-16.5c-61.333 0-113.5 9.5-156.5 28.5s-74.167 48.5-93.5 88.5h-5c-16.667-22.667-35.667-41.5-57-56.5s-43.666-27-66.999-36-47-15.333-71-19-47.333-5.5-70-5.5c-35.333 0-68.833 3.167-100.5 9.5s-61 17.166-88 32.499-51 35.833-72 61.5-38.167 57.5-51.5 95.5c-27.333-7.333-54.5-12.833-81.5-16.5s-53.833-5.5-80.5-5.5c-50 0-97.5 6.5-142.5 19.5s-84.5 33-118.5 60-61.167 61-81.5 102-30.5 89.167-30.5 144.5c0 66 14 125 42 177s65.667 97.333 113 136 101.666 70.5 162.999 95.5S588.667 932.667 656 944v117h198zM655.999 712.002c-43.333-8-84.166-18-122.499-30s-72-26.5-101-43.5-52-36.667-69-59-25.5-48.166-25.5-77.499c0-22.667 5.167-41.334 15.5-56.001s24-26.167 41-34.5 36.5-14 58.5-17 44.667-4.5 68-4.5 46.166 1.333 68.499 4 44.5 7 66.5 13v305zM1340 1752h-139v350h139v-350zm-78-299c-15.333-18.667-34.83-32.496-58.496-41.496s-49.5-13.5-77.5-13.5c-32.667 0-60.167 5.667-82.5 17s-40.5 27-54.5 47-24 43.333-30 70-9 55.667-9 87c0 10 .167 20.667.5 32s1.166 21.666 2.499 30.999h124c-2-19.333-3.333-34.333-4-45s-1-18.667-1-24c0-32.667 5.667-58.334 17-77.001s29.666-28 54.999-28 42.666 9.667 51.999 29 14 50.333 14 93v24.5c0 7.667-.333 16.834-1 27.5h124c-.667-10-1.167-20.832-1.5-32.5s-.5-21.833-.5-30.5c0-38 4.833-66 14.5-84s27.5-27 53.5-27c27.333 0 46 9.333 56 28s15 44.667 15 78c0 11.333-.333 22.666-1 33.999s-1.667 22.666-3 33.999h123c1.333-9.333 2.166-18.833 2.499-28.5s.5-17.167.5-22.5c0-74.667-17.667-132.167-53-172.5s-83.333-60.5-144-60.5c-26 0-50.333 4.333-73 13s-41 22.667-55 42h-5zM2194 .006v1516h199V.006h-199z" arabic-form="isolated" glyph-name="uniFDF2" horiz-adv-x="2565" unicode="اﻟﻠّٰﻪ"/><glyph d="M854 1061l-.001-641.998c0-32.667 1.5-61.334 4.5-86.001s9.833-45.167 20.5-61.5 26.334-28.5 47.001-36.5 48.667-12 84-12c23.333 0 44.833 1.833 64.5 5.5s36.5 10.834 50.5 21.501 24.833 25.5 32.5 44.5 11.5 44.167 11.5 75.5v893h199v-827c0-35.333 1.167-66.333 3.5-93s8.666-48.834 18.999-66.501 25.833-31 46.5-40 49.334-13.5 86.001-13.5c24.667 0 47 2 67 6s36.667 11.5 50 22.5 23.666 26 30.999 45 11 43.5 11 73.5v1043h199v-1050c0-78-10.167-142-30.5-192s-47.666-89.167-81.999-117.5-73.666-48-117.999-59-90.5-16.5-138.5-16.5c-61.333 0-113.5 9.5-156.5 28.5s-74.167 48.5-93.5 88.5h-5c-16.667-22.667-35.667-41.5-57-56.5s-43.666-27-66.999-36-47-15.333-71-19-47.333-5.5-70-5.5c-35.333 0-68.833 3.167-100.5 9.5s-61 17.166-88 32.499-51 35.833-72 61.5-38.167 57.5-51.5 95.5c-27.333-7.333-54.5-12.833-81.5-16.5s-53.833-5.5-80.5-5.5c-50 0-97.5 6.5-142.5 19.5s-84.5 33-118.5 60-61.167 61-81.5 102-30.5 89.167-30.5 144.5c0 66 14 125 42 177s65.667 97.333 113 136 101.666 70.5 162.999 95.5S588.667 932.667 656 944v117h198zM655.999 712.002c-43.333-8-84.166-18-122.499-30s-72-26.5-101-43.5-52-36.667-69-59-25.5-48.166-25.5-77.499c0-22.667 5.167-41.334 15.5-56.001s24-26.167 41-34.5 36.5-14 58.5-17 44.667-4.5 68-4.5 46.166 1.333 68.499 4 44.5 7 66.5 13v305zM1340 1752h-139v350h139v-350zm-78-299c-15.333-18.667-34.83-32.496-58.496-41.496s-49.5-13.5-77.5-13.5c-32.667 0-60.167 5.667-82.5 17s-40.5 27-54.5 47-24 43.333-30 70-9 55.667-9 87c0 10 .167 20.667.5 32s1.166 21.666 2.499 30.999h124c-2-19.333-3.333-34.333-4-45s-1-18.667-1-24c0-32.667 5.667-58.334 17-77.001s29.666-28 54.999-28 42.666 9.667 51.999 29 14 50.333 14 93v24.5c0 7.667-.333 16.834-1 27.5h124c-.667-10-1.167-20.832-1.5-32.5s-.5-21.833-.5-30.5c0-38 4.833-66 14.5-84s27.5-27 53.5-27c27.333 0 46 9.333 56 28s15 44.667 15 78c0 11.333-.333 22.666-1 33.999s-1.667 22.666-3 33.999h123c1.333-9.333 2.166-18.833 2.499-28.5s.5-17.167.5-22.5c0-74.667-17.667-132.167-53-172.5s-83.333-60.5-144-60.5c-26 0-50.333 4.333-73 13s-41 22.667-55 42h-5z" glyph-name="uniFEDF_uniFEE0_afii57457_uni0670_uniFEEA.liga" horiz-adv-x="2052" unicode="ﻟﻠّٰﻪ"/><glyph d="M684 504c-19.333 4-41.833 7.668-67.5 11.001s-51.834 5-78.501 5c-25.333 0-49.833-2.167-73.5-6.5s-44.5-11.833-62.5-22.5-32.5-25-43.5-43-16.5-40.333-16.5-67c0-25.333 4.5-46.833 13.5-64.5s21.667-32 38-43 36-19 59-24 48.167-7.5 75.5-7.5h228v-242h-649l-45 232h144l2 5c-21.333 32-37.166 64.833-47.499 98.5s-15.5 66.167-15.5 97.5c0 47.333 9.5 91.166 28.5 131.499s46.333 75.333 82 105 78.667 53 129 70S491 765 553 765c22 0 43.167-1.167 63.5-3.5s42.833-5.5 67.5-9.5V504z" arabic-form="isolated" glyph-name="afii57409" horiz-adv-x="855" unicode="ء"/><glyph d="M142 0v1516h199V0H142zm465 1713c-18-19.333-35.832-35.001-53.499-47.001s-34.667-21.167-51-27.5-31.833-10.5-46.5-12.5-28.334-3-41.001-3c-34.667 0-67.334 4.833-98.001 14.5s-60.334 20.5-89.001 32.5-56.667 22.833-84 32.5-54.666 14.5-81.999 14.5c-18.667 0-36.5-4.333-53.5-13s-35.167-21.667-54.5-39l-74 85c18 19.333 35.667 34.833 53 46.5s34.166 20.834 50.499 27.501 31.833 11 46.5 13 28.334 3 41.001 3c34.667 0 67.334-5 98.001-15s60.334-20.833 89.001-32.5l83.5-32.5c27-10 54.167-15 81.5-15 20.667 0 39.167 4.167 55.5 12.5s34.166 21.833 53.499 40.5z" arabic-form="isolated" glyph-name="afii57410" horiz-adv-x="513" unicode="آ"/><glyph d="M142 0v1516h199V0H142zm234 1901c-13.333 3.333-26.333 5.833-39 7.5s-23.334 2.5-32.001 2.5c-26 0-47.833-5.333-65.5-16s-26.5-29-26.5-55c0-26.667 10-46.5 30-59.5s49-19.5 87-19.5h92v-111h-369v105h82l1 4c-28 34.667-42 69.667-42 105 0 23.333 4.833 44.833 14.5 64.5s23.5 36.667 41.5 51 39.667 25.5 65 33.5 53.333 12 84 12c20.667 0 46.334-2.667 77.001-8v-116z" arabic-form="isolated" glyph-name="afii57411" horiz-adv-x="513" unicode="أ"/><glyph d="M0-196c70.667-28 133.169-47.664 187.502-58.997s106.5-17 156.5-17c58 0 106.167 8.167 144.5 24.5s69.166 37.666 92.499 63.999 40.333 56.666 51 90.999 17.667 69.5 21 105.5c-48-18.667-98-28-150-28-42.667 0-85.167 6.333-127.5 19s-80.5 32.667-114.5 60-61.5 62.5-82.5 105.5-31.5 94.833-31.5 155.5c0 34 4 68.5 12 103.5s19.333 68.833 34 101.5 32.167 63.334 52.5 92 43 53.5 68 74.5 51.667 37.668 80 50 58.166 18.5 89.499 18.5c51.333 0 97.5-14.5 138.5-43.5s80.5-73.5 118.5-133.5c39.333-61.332 68.333-133.832 87-217.5s28-172.833 28-267.5c0-85.333-9.833-165.833-29.5-241.5S775.166-280.333 733.499-337s-94.667-101.5-159-134.5S433.333-521 344-521c-28 0-55.667 1.5-83 4.5s-55 7.667-83 14S121.333-488 92-478s-60 21.667-92 35v247zm649.002 437.003c-4 24.667-11.331 52.67-21.998 84.003s-23.667 61-39 89-32.5 51.667-51.5 71-39.5 29-61.5 29c-18.667 0-36.167-6-52.5-18s-30.5-26.833-42.5-44.5-21.5-36.834-28.5-57.501-10.5-39.334-10.5-56.001c0-22 4.833-40.667 14.5-56s22.667-27.833 39-37.5 35.166-16.834 56.499-21.501 43.666-7 66.999-7c22 0 44.5 1.833 67.5 5.5s44.167 10.167 63.5 19.5zM614.004 1312.01c-13.333 3.333-26.333 5.833-39 7.5s-23.334 2.5-32.001 2.5c-26 0-47.833-5.333-65.5-16s-26.5-29-26.5-55c0-26.667 10-46.5 30-59.5s49-19.5 87-19.5h92v-111h-369v105h82l1 4c-28 34.667-42 69.667-42 105 0 23.333 4.833 44.833 14.5 64.5s23.5 36.667 41.5 51 39.667 25.5 65 33.5 53.333 12 84 12c20.667 0 46.334-2.667 77.001-8v-116z" arabic-form="isolated" glyph-name="afii57412" horiz-adv-x="1026" unicode="ؤ"/><glyph d="M142 0v1516h199V0H142zm234-269c-13.333 3.333-26.332 5.832-38.999 7.499s-23.334 2.5-32.001 2.5c-26 0-47.833-5.5-65.5-16.5s-26.5-29.167-26.5-54.5c0-26.667 10-46.667 30-60s49-20 87-20h92v-110H53v104h82l1 5C108-376.334 94-341.667 94-307c0 23.333 4.833 45 14.5 65s23.5 37.167 41.5 51.5 39.667 25.5 65 33.5 53.333 12 84 12c22 0 47.667-3 77-9v-115z" arabic-form="isolated" glyph-name="afii57413" horiz-adv-x="513" unicode="إ"/><glyph d="M414 754c-12-44-22.5-84.169-31.5-120.502s-16.5-70-22.5-101-10.5-60-13.5-87-4.5-53.5-4.5-79.5c0-38 4-74.833 12-110.5s24.333-67.334 49-95.001 59.667-50 105-67 105-25.5 179-25.5c64 0 125.167 6.167 183.5 18.5s109.833 28.333 154.5 48 80.334 42 107.001 67 40 50.167 40 75.5c0 14-4.333 26.667-13 38s-20.5 21.833-35.5 31.5-32.333 19.334-52 29.001l-61.5 31.5c-29.333 15.333-56.166 32.166-80.499 50.499s-45.333 38.833-63 61.5-31.5 48.167-41.5 76.5-15 60.5-15 96.5c0 60.667 14.5 115 43.5 163s70.333 89.833 124 125.5 118.667 65.334 195 89.001 162.166 42.167 257.499 55.5v-241c-68-9.333-128.667-19-182-29s-98.333-21.667-135-35-64.5-28.5-83.5-45.5-28.5-36.833-28.5-59.5c0-14 3.667-26.333 11-37s18-21 32-31 31-20 51-30l67-33c33.333-16.667 62.833-33.5 88.5-50.5s47.167-35.667 64.5-56 30.5-42.833 39.5-67.5 13.5-53 13.5-85c0-39.333-7.167-79.166-21.5-119.499s-35.333-79.166-63-116.499-61.667-72.333-102-105-86.333-61-138-85-108.667-43-171-57-129.5-21-201.5-21c-98.667 0-181.834 13-249.501 39S299-77.833 257-31.5s-72.167 101.333-90.5 165S139 267 139 343c0 66.667 7 133.667 21 201s33 137.333 57 210h197zm29 470c-13.333 3.333-26.333 5.833-39 7.5s-23.334 2.5-32.001 2.5c-26 0-47.833-5.333-65.5-16s-26.5-29-26.5-55c0-26.667 10-46.5 30-59.5s49-19.5 87-19.5h92V973h-369v105h82l1 4c-28 34.667-42 69.667-42 105 0 23.333 4.833 44.833 14.5 64.5s23.5 36.667 41.5 51 39.667 25.5 65 33.5 53.333 12 84 12c20.667 0 46.334-2.667 77.001-8v-116z" arabic-form="isolated" glyph-name="afii57414" horiz-adv-x="1539" unicode="ئ"/><glyph d="M142 0v1516h199V0H142z" arabic-form="isolated" glyph-name="afii57415" horiz-adv-x="513" unicode="ا"/><glyph d="M374 650c-5.333-22-9.837-42.336-13.504-61.003s-7-36.5-10-53.5-5.167-33.667-6.5-50-2-33.166-2-50.499c0-16 .833-31.167 2.5-45.5s4.834-28 9.501-41 11.167-25.333 19.5-37 19.166-22.5 32.5-32.5c20-15.333 45-27.333 75-36s68-15.167 114-19.5 101.332-7.166 166-8.499 141.666-2 231-2c99.332 0 182.332 1.333 249 4s120 9.5 160 20.5 68.332 28 85 51 25 54.833 25 95.5v453h199V377c0-63.333-9-117.5-27-162.5s-43.668-82.5-77-112.5-73.167-53.833-119.5-71.5-97.666-31-153.999-40-117.166-14.667-182.499-17S1017-30 947-30c-80 0-154.5.667-223.5 2S591.332-22.668 534-16 425.333 1.333 380 16s-84.333 35-117 61c-23.333 18.667-42.833 40-58.5 64s-28.334 49.5-38 76.5-16.668 55.167-21 84.5-6.5 59-6.5 89c0 45.333 3.332 89.333 10 132s15.333 85 26 127h199zm679-1017.003H830v203h223v-203z" arabic-form="isolated" glyph-name="afii57416" horiz-adv-x="1881" unicode="ب"/><glyph d="M411 1068c82-56 152.5-113.837 211.5-173.504S730 774.329 768 712.996s66-123.166 84-185.499 27-123.833 27-184.5c0-55.333-8.833-105.5-26.5-150.5s-42.667-83.5-75-115.5-71.666-56.833-117.999-74.5-98.5-26.5-156.5-26.5c-56.667 0-107 7.667-151 23s-81.167 37.333-111.5 66-53.333 63.334-69 104.001-23.5 86.667-23.5 138c0 56.667 7 110.834 21 162.501s32.167 99.334 54.5 143.001S271.167 695.667 299.5 731s56.833 65.333 85.5 90l-49.5 40.5c-17 13.667-35.167 27.167-54.5 40.5zm-69-726.004c0-23.333 4.499-42.669 13.499-58.002s21-27.666 36-36.999 32.5-15.833 52.5-19.5 41-5.5 63-5.5c60.667 0 105.334 10.667 134.001 32s43 51.333 43 90c0 52-13 106.833-39 164.5s-67.333 118.5-124 182.5c-24.667-19.333-47.834-42-69.501-68s-40.667-54.167-57-84.5-29.166-62.166-38.499-95.499-14-67-14-101zm113.999 928.994h-222v203h222v-203zm337 0h-222v203h222v-203z" arabic-form="isolated" glyph-name="afii57417" horiz-adv-x="1026" unicode="ة"/><glyph d="M374 650c-5.333-22-9.837-42.336-13.504-61.003s-7-36.5-10-53.5-5.167-33.667-6.5-50-2-33.166-2-50.499c0-16 .833-31.167 2.5-45.5s4.834-28 9.501-41 11.167-25.333 19.5-37 19.166-22.5 32.5-32.5c20-15.333 45-27.333 75-36s68-15.167 114-19.5 101.332-7.166 166-8.499 141.666-2 231-2c99.332 0 182.332 1.333 249 4s120 9.5 160 20.5 68.332 28 85 51 25 54.833 25 95.5v453h199V377c0-63.333-9-117.5-27-162.5s-43.668-82.5-77-112.5-73.167-53.833-119.5-71.5-97.666-31-153.999-40-117.166-14.667-182.499-17S1017-30 947-30c-80 0-154.5.667-223.5 2S591.332-22.668 534-16 425.333 1.333 380 16s-84.333 35-117 61c-23.333 18.667-42.833 40-58.5 64s-28.334 49.5-38 76.5-16.668 55.167-21 84.5-6.5 59-6.5 89c0 45.333 3.332 89.333 10 132s15.333 85 26 127h199zm509.996 410h-222v203h222v-203zm337.004 0H999v203h222v-203z" arabic-form="isolated" glyph-name="afii57418" horiz-adv-x="1881" unicode="ت"/><glyph d="M374 650c-5.333-22-9.837-42.336-13.504-61.003s-7-36.5-10-53.5-5.167-33.667-6.5-50-2-33.166-2-50.499c0-16 .833-31.167 2.5-45.5s4.834-28 9.501-41 11.167-25.333 19.5-37 19.166-22.5 32.5-32.5c20-15.333 45-27.333 75-36s68-15.167 114-19.5 101.332-7.166 166-8.499 141.666-2 231-2c99.332 0 182.332 1.333 249 4s120 9.5 160 20.5 68.332 28 85 51 25 54.833 25 95.5v453h199V377c0-63.333-9-117.5-27-162.5s-43.668-82.5-77-112.5-73.167-53.833-119.5-71.5-97.666-31-153.999-40-117.166-14.667-182.499-17S1017-30 947-30c-80 0-154.5.667-223.5 2S591.332-22.668 534-16 425.333 1.333 380 16s-84.333 35-117 61c-23.333 18.667-42.833 40-58.5 64s-28.334 49.5-38 76.5-16.668 55.167-21 84.5-6.5 59-6.5 89c0 45.333 3.332 89.333 10 132s15.333 85 26 127h199zm508.996 410h-222v203h222v-203zm338.004 0H999v203h222v-203zm-168 280H830v203h223v-203z" arabic-form="isolated" glyph-name="afii57419" horiz-adv-x="1881" unicode="ث"/><glyph d="M171 896c42 13.333 83.669 23.499 125.002 30.499s86 10.5 134 10.5c49.333 0 92.833-4 130.5-12s72.667-18.167 105-30.5 63.166-25.5 92.499-39.5 60.833-27.167 94.5-39.5 70.667-22.833 111-31.5 87.166-13.334 140.499-14.001l-46-262c-146-39.333-266.167-80.166-360.5-122.499s-169-85.5-224-129.5-93.167-88.167-114.5-132.5S327 35.333 327-8c0-34 6.167-67.667 18.5-101s33.333-63.333 63-90 69.167-48.334 118.5-65.001 111.333-25 186-25c62.667 0 126.667 6.667 192 20s136 33.666 212 60.999v-234c-40.667-14-78.834-26-114.501-36s-70-18.167-103-24.5-65.5-11-97.5-14-64.333-4.5-97-4.5c-98 0-183.333 12.167-256 36.5s-132.667 58-180 101-82.666 94.333-105.999 154-35 124.834-35 195.501c0 39.333 3.833 79.5 11.5 120.5s20.667 81.667 39 122 42.5 80 72.5 119 67.167 76.167 111.5 111.5 96.666 68.5 156.999 99.5 129.833 59.167 208.5 84.5v9c-23.333 12-45 22.5-65 31.5s-40.667 16.5-62 22.5-44.333 10.333-69 13-53 4-85 4c-49.333 0-97.666-3.167-144.999-9.5S211 678.333 171 667v229zM884.002-35.001h-223v203h223v-203z" arabic-form="isolated" glyph-name="afii57420" horiz-adv-x="1197" unicode="ج"/><glyph d="M171 896c42 13.333 83.669 23.499 125.002 30.499s86 10.5 134 10.5c49.333 0 92.833-4 130.5-12s72.667-18.167 105-30.5 63.166-25.5 92.499-39.5 60.833-27.167 94.5-39.5 70.667-22.833 111-31.5 87.166-13.334 140.499-14.001l-46-262c-146-39.333-266.167-80.166-360.5-122.499s-169-85.5-224-129.5-93.167-88.167-114.5-132.5S327 35.333 327-8c0-34 6.167-67.667 18.5-101s33.333-63.333 63-90 69.167-48.334 118.5-65.001 111.333-25 186-25c62.667 0 126.667 6.667 192 20s136 33.666 212 60.999v-234c-40.667-14-78.834-26-114.501-36s-70-18.167-103-24.5-65.5-11-97.5-14-64.333-4.5-97-4.5c-98 0-183.333 12.167-256 36.5s-132.667 58-180 101-82.666 94.333-105.999 154-35 124.834-35 195.501c0 39.333 3.833 79.5 11.5 120.5s20.667 81.667 39 122 42.5 80 72.5 119 67.167 76.167 111.5 111.5 96.666 68.5 156.999 99.5 129.833 59.167 208.5 84.5v9c-23.333 12-45 22.5-65 31.5s-40.667 16.5-62 22.5-44.333 10.333-69 13-53 4-85 4c-49.333 0-97.666-3.167-144.999-9.5S211 678.333 171 667v229z" arabic-form="isolated" glyph-name="afii57421" horiz-adv-x="1197" unicode="ح"/><glyph d="M171 896c42 13.333 83.669 23.499 125.002 30.499s86 10.5 134 10.5c49.333 0 92.833-4 130.5-12s72.667-18.167 105-30.5 63.166-25.5 92.499-39.5 60.833-27.167 94.5-39.5 70.667-22.833 111-31.5 87.166-13.334 140.499-14.001l-46-262c-146-39.333-266.167-80.166-360.5-122.499s-169-85.5-224-129.5-93.167-88.167-114.5-132.5S327 35.333 327-8c0-34 6.167-67.667 18.5-101s33.333-63.333 63-90 69.167-48.334 118.5-65.001 111.333-25 186-25c62.667 0 126.667 6.667 192 20s136 33.666 212 60.999v-234c-40.667-14-78.834-26-114.501-36s-70-18.167-103-24.5-65.5-11-97.5-14-64.333-4.5-97-4.5c-98 0-183.333 12.167-256 36.5s-132.667 58-180 101-82.666 94.333-105.999 154-35 124.834-35 195.501c0 39.333 3.833 79.5 11.5 120.5s20.667 81.667 39 122 42.5 80 72.5 119 67.167 76.167 111.5 111.5 96.666 68.5 156.999 99.5 129.833 59.167 208.5 84.5v9c-23.333 12-45 22.5-65 31.5s-40.667 16.5-62 22.5-44.333 10.333-69 13-53 4-85 4c-49.333 0-97.666-3.167-144.999-9.5S211 678.333 171 667v229zm571.002 254h-223v203h223v-203z" arabic-form="isolated" glyph-name="afii57422" horiz-adv-x="1197" unicode="خ"/><glyph d="M519 1024c107.333-120 190.166-236.332 248.499-348.999s87.5-222.667 87.5-330c0-73.333-12-134-36-182s-56.667-86-98-114-89.833-47.667-145.5-59-115.167-17-178.5-17c-38 0-82.667 2.167-134 6.5S157.666-9.333 100.999 0l-48 248c72-9.333 137.667-16.5 197-21.5s112-7.5 158-7.5c77.333 0 134.833 10.333 172.5 31s56.5 56.667 56.5 108c0 47.333-9.5 96.166-28.5 146.499s-45.167 102.833-78.5 157.5S457.333 773.833 412 833.5L264 1024h255z" arabic-form="isolated" glyph-name="afii57423" horiz-adv-x="1026" unicode="د"/><glyph d="M519 1024c107.333-120 190.166-236.332 248.499-348.999s87.5-222.667 87.5-330c0-73.333-12-134-36-182s-56.667-86-98-114-89.833-47.667-145.5-59-115.167-17-178.5-17c-38 0-82.667 2.167-134 6.5S157.666-9.333 100.999 0l-48 248c72-9.333 137.667-16.5 197-21.5s112-7.5 158-7.5c77.333 0 134.833 10.333 172.5 31s56.5 56.667 56.5 108c0 47.333-9.5 96.166-28.5 146.499s-45.167 102.833-78.5 157.5S457.333 773.833 412 833.5L264 1024h255zm-40 237H256v203h223v-203z" arabic-form="isolated" glyph-name="afii57424" horiz-adv-x="1026" unicode="ذ"/><glyph d="M0-234c45.333-13.333 83.831-23.001 115.498-29.001s61.167-9 88.5-9c54.667 0 99.834 9.667 135.501 29s63.834 45.5 84.501 78.5 35 71.333 43 115 12 90.167 12 139.5c0 46-3.167 91.667-9.5 137s-15.5 91.5-27.5 138.5-26.5 96-43.5 147l-56.5 163.5h218c19.333-49.333 36.666-99.666 51.999-150.999s28.333-102.666 39-153.999 18.834-101.833 24.501-151.5 8.5-97.167 8.5-142.5c0-102.667-12.667-191.5-38-266.5s-59.5-137-102.5-186-93.333-85.5-151-109.5-118.5-36-182.5-36c-32.667 0-65.5 3.167-98.5 9.5S41.333-494.333 0-479v245z" arabic-form="isolated" glyph-name="afii57425" horiz-adv-x="855" unicode="ر"/><glyph d="M0-234c45.333-13.333 83.831-23.001 115.498-29.001s61.167-9 88.5-9c54.667 0 99.834 9.667 135.501 29s63.834 45.5 84.501 78.5 35 71.333 43 115 12 90.167 12 139.5c0 46-3.167 91.667-9.5 137s-15.5 91.5-27.5 138.5-26.5 96-43.5 147l-56.5 163.5h218c19.333-49.333 36.666-99.666 51.999-150.999s28.333-102.666 39-153.999 18.834-101.833 24.501-151.5 8.5-97.167 8.5-142.5c0-102.667-12.667-191.5-38-266.5s-59.5-137-102.5-186-93.333-85.5-151-109.5-118.5-36-182.5-36c-32.667 0-65.5 3.167-98.5 9.5S41.333-494.333 0-479v245zM521.998 918.999h-223v203h223v-203z" arabic-form="isolated" glyph-name="afii57426" horiz-adv-x="855" unicode="ز"/><glyph d="M373 329c-6-37.333-11.001-70.501-15.001-99.501s-7.167-55.333-9.5-79-4-45.167-5-64.5-1.5-37.666-1.5-54.999c0-53.333 4.5-99.166 13.5-137.499s24.833-69.833 47.5-94.5 53.334-43 92.001-55 87.667-18 147-18c68 0 125 8 171 24s83.167 40.833 111.5 74.5 48.5 77 60.5 130 18 116.5 18 190.5c0 28.667-.833 57.667-2.5 87s-4.334 61.833-8.001 97.5-8.167 75.167-13.5 118.5l-19 150h199c6.667-58 12.834-109.333 18.501-154s10.167-86 13.5-124c2-19.333 6.667-35.333 14-48s17.833-22.667 31.5-30 30.5-12.333 50.5-15 43.667-4 71-4c20 0 39.167 1.5 57.5 4.5s34.5 9.667 48.5 20 25.333 25.166 34 44.499 13 45.333 13 78v279h199V439c0-37.333 1.167-69.5 3.5-96.5s8.833-49.333 19.5-67 26.834-30.834 48.501-39.501 51.834-13 90.501-13c22 0 42.333 1.5 61 4.5s34.667 9.5 48 19.5 23.833 24.667 31.5 44 11.5 45.666 11.5 78.999v467h199v-480c0-77.333-9.833-140.5-29.5-189.5s-45.834-87.5-78.5-115.5c-32.667-28-70.167-47.333-112.5-58s-86.166-16-131.499-16c-26.667 0-53 1.833-79 5.5s-50.333 10-73 19-43.334 21.167-62.001 36.5-34.334 35-47.001 59h-6c-13.333-20-29-37.5-47-52.5s-37.5-27.5-58.5-37.5-42.833-17.5-65.5-22.5-44.667-7.5-66-7.5c-34.667 0-66.334 4.333-95.001 13s-53.667 23.667-75 45c-1.333 0-2.5-.167-3.5-.5s-2.167-.5-3.5-.5c-5.333-91.333-20-171.666-44-240.999s-58.5-127.333-103.5-174-101-81.834-168-105.501-146.167-35.5-237.5-35.5-168.333 11.667-231 35-113.5 57.5-152.5 102.5-67.167 100.333-84.5 166S143-76.668 143 7.999c0 23.333.667 46.833 2 70.5s3.333 48.334 6 74.001 6.167 53 10.5 82S171.333 295 178 329h195z" arabic-form="isolated" glyph-name="afii57427" horiz-adv-x="2394" unicode="س"/><glyph d="M373 329c-6-37.333-11.001-70.501-15.001-99.501s-7.167-55.333-9.5-79-4-45.167-5-64.5-1.5-37.666-1.5-54.999c0-53.333 4.5-99.166 13.5-137.499s24.833-69.833 47.5-94.5 53.334-43 92.001-55 87.667-18 147-18c68 0 125 8 171 24s83.167 40.833 111.5 74.5 48.5 77 60.5 130 18 116.5 18 190.5c0 28.667-.833 57.667-2.5 87s-4.334 61.833-8.001 97.5-8.167 75.167-13.5 118.5l-19 150h199c6.667-58 12.834-109.333 18.501-154s10.167-86 13.5-124c2-19.333 6.667-35.333 14-48s17.833-22.667 31.5-30 30.5-12.333 50.5-15 43.667-4 71-4c20 0 39.167 1.5 57.5 4.5s34.5 9.667 48.5 20 25.333 25.166 34 44.499 13 45.333 13 78v279h199V439c0-37.333 1.167-69.5 3.5-96.5s8.833-49.333 19.5-67 26.834-30.834 48.501-39.501 51.834-13 90.501-13c22 0 42.333 1.5 61 4.5s34.667 9.5 48 19.5 23.833 24.667 31.5 44 11.5 45.666 11.5 78.999v467h199v-480c0-77.333-9.833-140.5-29.5-189.5s-45.834-87.5-78.5-115.5c-32.667-28-70.167-47.333-112.5-58s-86.166-16-131.499-16c-26.667 0-53 1.833-79 5.5s-50.333 10-73 19-43.334 21.167-62.001 36.5-34.334 35-47.001 59h-6c-13.333-20-29-37.5-47-52.5s-37.5-27.5-58.5-37.5-42.833-17.5-65.5-22.5-44.667-7.5-66-7.5c-34.667 0-66.334 4.333-95.001 13s-53.667 23.667-75 45c-1.333 0-2.5-.167-3.5-.5s-2.167-.5-3.5-.5c-5.333-91.333-20-171.666-44-240.999s-58.5-127.333-103.5-174-101-81.834-168-105.501-146.167-35.5-237.5-35.5-168.333 11.667-231 35-113.5 57.5-152.5 102.5-67.167 100.333-84.5 166S143-76.668 143 7.999c0 23.333.667 46.833 2 70.5s3.333 48.334 6 74.001 6.167 53 10.5 82S171.333 295 178 329h195zm1165 559.999h-222v203h222v-203zm338 0h-222v203h222v-203zM1708 1169h-223v203h223v-203z" arabic-form="isolated" glyph-name="afii57428" horiz-adv-x="2394" unicode="ش"/><glyph d="M373 329l-14.003-99.996c-4-29.333-7.333-55.666-10-79s-4.5-44.832-5.5-64.5-1.5-38.833-1.5-57.5c0-52 4.667-97 14-135s25.5-69.333 48.5-94 54-43 93-55 88.167-18 147.5-18c68 0 125 8 171 24s82.667 41.167 110 75.5 46.833 78.5 58.5 132.5 17.5 119 17.5 195c0 27.333-.833 56.333-2.5 87s-4.667 64-9 100-10.166 75.167-17.499 117.5S956.332 546.67 945 598.003h205c10-56 18.167-106.333 24.5-151s12.166-84 17.5-118c2-14 4.5-26.5 7.5-37.5s8.5-20.833 16.5-29.5 19.332-16.167 34-22.5 35-11.166 61-14.5c17.332 46 39.165 95.168 65.498 147.5s57 104.167 92 155.5 74.167 100.666 117.5 147.999 90.833 89 142.5 125 107.334 64.667 167.001 86 123.167 32 190.5 32c80 0 150-13.333 210-40s110-63.5 150-110.5 69.833-103 89.5-168 29.5-135.5 29.5-211.5c0-67.333-7.667-124.333-23-171s-37-85.5-65-116.5-61.333-55.333-100-73-81.5-30.834-128.5-39.501-97.167-14-150.5-16-108.666-3-165.999-3c-114.667 0-210.167.167-286.5.5S1506.333-28 1457-26s-88.166 5-116.499 9-51.5 9.667-69.5 17c-14.667 5.333-28.167 12.666-40.5 21.999s-23.5 19.666-33.5 30.999c-1.333-.667-2.166-1-2.499-1s-1.166-.333-2.499-1c-4-94-17.833-176.667-41.5-248s-58.334-131-104-179-102.668-84.167-171-108.5-148.834-36.5-241.5-36.5c-90.668 0-167.335 11.667-230.002 35s-113.334 57.333-152 102-66.5 99.834-83.5 165.5S143-77.332 143 8c0 23.334.666 46.834 2 70.5s3.332 48.5 6 74.5 6.166 53.334 10.5 82 9.832 60 16.5 94h195zm1135-109.996c20.667-1.333 49.5-2.169 86.5-2.502s76.833-.666 119.5-.999 85.667-.5 129-.5h114c82 0 149.333 1.333 202 4s94.167 9.5 124.5 20.5 51.5 27.333 63.5 49 18 51.5 18 89.5c0 50-7.167 93.5-21.5 130.5s-34.5 67.5-60.5 91.5-57.333 42-94 54-77.667 18-123 18c-69.333 0-133-13-191-39s-110.333-60.167-157-102.5-87.5-90.666-122.5-144.999-64.167-109.833-87.5-166.5z" arabic-form="isolated" glyph-name="afii57429" horiz-adv-x="2737" unicode="ص"/><glyph d="M373 329l-14.003-99.996c-4-29.333-7.333-55.666-10-79s-4.5-44.832-5.5-64.5-1.5-38.833-1.5-57.5c0-52 4.667-97 14-135s25.5-69.333 48.5-94 54-43 93-55 88.167-18 147.5-18c68 0 125 8 171 24s82.667 41.167 110 75.5 46.833 78.5 58.5 132.5 17.5 119 17.5 195c0 27.333-.833 56.333-2.5 87s-4.667 64-9 100-10.166 75.167-17.499 117.5S956.332 546.67 945 598.003h205c10-56 18.167-106.333 24.5-151s12.166-84 17.5-118c2-14 4.5-26.5 7.5-37.5s8.5-20.833 16.5-29.5 19.332-16.167 34-22.5 35-11.166 61-14.5c17.332 46 39.165 95.168 65.498 147.5s57 104.167 92 155.5 74.167 100.666 117.5 147.999 90.833 89 142.5 125 107.334 64.667 167.001 86 123.167 32 190.5 32c80 0 150-13.333 210-40s110-63.5 150-110.5 69.833-103 89.5-168 29.5-135.5 29.5-211.5c0-67.333-7.667-124.333-23-171s-37-85.5-65-116.5-61.333-55.333-100-73-81.5-30.834-128.5-39.501-97.167-14-150.5-16-108.666-3-165.999-3c-114.667 0-210.167.167-286.5.5S1506.333-28 1457-26s-88.166 5-116.499 9-51.5 9.667-69.5 17c-14.667 5.333-28.167 12.666-40.5 21.999s-23.5 19.666-33.5 30.999c-1.333-.667-2.166-1-2.499-1s-1.166-.333-2.499-1c-4-94-17.833-176.667-41.5-248s-58.334-131-104-179-102.668-84.167-171-108.5-148.834-36.5-241.5-36.5c-90.668 0-167.335 11.667-230.002 35s-113.334 57.333-152 102-66.5 99.834-83.5 165.5S143-77.332 143 8c0 23.334.666 46.834 2 70.5s3.332 48.5 6 74.5 6.166 53.334 10.5 82 9.832 60 16.5 94h195zm1135-109.996c20.667-1.333 49.5-2.169 86.5-2.502s76.833-.666 119.5-.999 85.667-.5 129-.5h114c82 0 149.333 1.333 202 4s94.167 9.5 124.5 20.5 51.5 27.333 63.5 49 18 51.5 18 89.5c0 50-7.167 93.5-21.5 130.5s-34.5 67.5-60.5 91.5-57.333 42-94 54-77.667 18-123 18c-69.333 0-133-13-191-39s-110.333-60.167-157-102.5-87.5-90.666-122.5-144.999-64.167-109.833-87.5-166.5zM1840 1099h-223v203h223v-203z" arabic-form="isolated" glyph-name="afii57430" horiz-adv-x="2737" unicode="ض"/><glyph d="M3 248c20.667-4 43.331-7.331 67.998-9.998s50-5 76-7 52.333-3.5 79-4.5 52.334-1.833 77.001-2.5c1.333 4.667 2.833 9.5 4.5 14.5s3.5 10.167 5.5 15.5v1262h199v-904l5-1c31.333 43.333 66.5 84.166 105.5 122.499s81.333 71.666 127 99.999 94.5 50.833 146.5 67.5 106.667 25 164 25c80.667 0 151-13.5 211-40.5s109.833-64.333 149.5-112 69.334-104.334 89.001-170.001 29.5-137.167 29.5-214.5c0-67.333-7.667-124.333-23-171s-36.833-85.5-64.5-116.5-60.834-55.333-99.501-73-81.5-30.834-128.5-39.501-97.167-14-150.5-16-108.666-3-165.999-3c-119.333 0-222.833.667-310.5 2s-164.667 3.333-231 6-124.5 5.834-174.5 9.5S94-4.666 50 0zm480.997-28.998c20.667-1.333 49.331-2.169 85.998-2.502s76.334-.666 119.001-.999 85.5-.5 128.5-.5h113.5c82 0 149.333 1.333 202 4s94.334 9.5 125.001 20.5 52 27.333 64 49 18 51.5 18 89.5c0 51.333-7.167 95.833-21.5 133.5s-34.5 69-60.5 94-57.333 43.5-94 55.5-77.667 18-123 18c-69.333 0-133-13.167-191-39.5s-110.167-61-156.5-104-87-92.167-122-147.5-64.167-111.666-87.5-168.999z" arabic-form="isolated" glyph-name="afii57431" horiz-adv-x="1710" unicode="ط"/><glyph d="M3 248c20.667-4 43.331-7.331 67.998-9.998s50-5 76-7 52.333-3.5 79-4.5 52.334-1.833 77.001-2.5c1.333 4.667 2.833 9.5 4.5 14.5s3.5 10.167 5.5 15.5v1262h199v-904l5-1c31.333 43.333 66.5 84.166 105.5 122.499s81.333 71.666 127 99.999 94.5 50.833 146.5 67.5 106.667 25 164 25c80.667 0 151-13.5 211-40.5s109.833-64.333 149.5-112 69.334-104.334 89.001-170.001 29.5-137.167 29.5-214.5c0-67.333-7.667-124.333-23-171s-36.833-85.5-64.5-116.5-60.834-55.333-99.501-73-81.5-30.834-128.5-39.501-97.167-14-150.5-16-108.666-3-165.999-3c-119.333 0-222.833.667-310.5 2s-164.667 3.333-231 6-124.5 5.834-174.5 9.5S94-4.666 50 0zm480.997-28.998c20.667-1.333 49.331-2.169 85.998-2.502s76.334-.666 119.001-.999 85.5-.5 128.5-.5h113.5c82 0 149.333 1.333 202 4s94.334 9.5 125.001 20.5 52 27.333 64 49 18 51.5 18 89.5c0 51.333-7.167 95.833-21.5 133.5s-34.5 69-60.5 94-57.333 43.5-94 55.5-77.667 18-123 18c-69.333 0-133-13.167-191-39.5s-110.167-61-156.5-104-87-92.167-122-147.5-64.167-111.666-87.5-168.999zM1108.99 1100h-223v203h223v-203z" arabic-form="isolated" glyph-name="afii57432" horiz-adv-x="1710" unicode="ظ"/><glyph d="M856 390c-112.667-30-205.004-62.004-277.004-96.004s-128.833-69-170.5-105-70.5-72-86.5-108-24-71-24-105c0-31.333 6.167-62.666 18.5-93.999s33.833-59.666 64.5-84.999 71.334-46 122.001-62 114.667-24 192-24c58.667 0 119.667 5.167 183 15.5s129.333 26.5 198 48.5v-232c-71.333-22.667-137.833-39-199.5-49s-123.5-15-185.5-15c-102 0-190.167 12-264.5 36s-135.666 57.333-183.999 100-84.333 93.334-108 152.001-35.5 122.667-35.5 192c0 84.667 16.667 161 50 229s83.333 129.667 150 185c-40 46-71.333 96.667-94 152s-34 114.333-34 177c0 64 12.333 122.333 37 175s58.5 97.834 101.5 135.501 93.667 67 152 88 121.5 31.5 189.5 31.5c40 0 81.667-4 125-12V880c-23.333 3.333-48.5 6.333-75.5 9s-53.167 4-78.5 4c-32 0-63-3-93-9s-56.833-16.667-80.5-32-42.667-36-57-62-21.5-59-21.5-99c0-38.667 6.833-77 20.5-115s34.834-71 63.501-99c58.667 32 121.334 60 188.001 84s138 45.667 214 65V390z" arabic-form="isolated" glyph-name="afii57433" horiz-adv-x="1026" unicode="ع"/><glyph d="M856 390c-112.667-30-205.004-62.004-277.004-96.004s-128.833-69-170.5-105-70.5-72-86.5-108-24-71-24-105c0-31.333 6.167-62.666 18.5-93.999s33.833-59.666 64.5-84.999 71.334-46 122.001-62 114.667-24 192-24c58.667 0 119.667 5.167 183 15.5s129.333 26.5 198 48.5v-232c-71.333-22.667-137.833-39-199.5-49s-123.5-15-185.5-15c-102 0-190.167 12-264.5 36s-135.666 57.333-183.999 100-84.333 93.334-108 152.001-35.5 122.667-35.5 192c0 84.667 16.667 161 50 229s83.333 129.667 150 185c-40 46-71.333 96.667-94 152s-34 114.333-34 177c0 64 12.333 122.333 37 175s58.5 97.834 101.5 135.501 93.667 67 152 88 121.5 31.5 189.5 31.5c40 0 81.667-4 125-12V880c-23.333 3.333-48.5 6.333-75.5 9s-53.167 4-78.5 4c-32 0-63-3-93-9s-56.833-16.667-80.5-32-42.667-36-57-62-21.5-59-21.5-99c0-38.667 6.833-77 20.5-115s34.834-71 63.501-99c58.667 32 121.334 60 188.001 84s138 45.667 214 65V390zm-260.004 921h-223v203h223v-203z" arabic-form="isolated" glyph-name="afii57434" horiz-adv-x="1026" unicode="غ"/><glyph d="M871 1623v-260L248 980c82.667-40.667 158.667-83.167 228-127.5s129-91.666 179-141.999 88.833-104.333 116.5-162S813 428.667 813 362c0-26.667-2.5-54.667-7.5-84s-14.333-58.333-28-87-32.5-55.834-56.5-81.501-55.333-48.167-94-67.5-85.5-34.833-140.5-46.5-120.167-17.5-195.5-17.5H0c-23.333 0-40.833 11.167-52.5 33.5S-70 63.665-70 100.998c0 36.667 5.833 66.167 17.5 88.5s29.167 33.5 52.5 33.5h294c62 0 113.333 2 154 6s73.167 10.833 97.5 20.5 41.5 22.834 51.5 39.501 15 37.667 15 63c0 40-13 79.833-39 119.5S508.167 551.833 456.5 593.5s-115.667 84.667-192 129S100 813.333 0 862v206zm-642-100H7v203h222v-203zm337 0H344v203h222v-203z" glyph-name="uni063B.init" horiz-adv-x="1026" unicode="ػ"/><glyph d="M871 1623l-.001-260.002-623-383c84.667-42 160-84.167 226-126.5s122.5-86.5 169.5-132.5 84.5-94.333 112.5-145 46-105.334 54-164.001c3.333-19.333 7.666-38.833 12.999-58.5s15.666-39.167 30.999-58.5c6.667-9.333 14.667-18.166 24-26.499s20.833-16 34.5-23 29.834-12.5 48.501-16.5 40.334-6 65.001-6v-245h-22c-25.333 0-50.666 2.833-75.999 8.5s-49.5 14.5-72.5 26.5-44.5 27.5-64.5 46.5-37.333 42.167-52 69.5h-6c-16.667-22-37.667-42.167-63-60.5s-56-34.166-92-47.499-77.667-23.833-125-31.5-101.333-11.5-162-11.5H0c-23.333 0-40.833 11.167-52.5 33.5S-70 63.665-70 100.998c0 36.667 5.833 66.167 17.5 88.5s29.167 33.5 52.5 33.5h294c62 0 113.333 2 154 6s73.167 10.833 97.5 20.5 41.5 22.834 51.5 39.501 15 37.667 15 63c0 40-13 79.833-39 119.5S508.167 551.833 456.5 593.5s-115.667 84.667-192 129S100 813.333 0 862v206zm-642.001-100h-222v203h222v-203zm337 0h-222v203h222v-203z" glyph-name="uni063B.medi" horiz-adv-x="1026" unicode="ػ"/><glyph d="M1726 1623l-.002-260.002-623-383c84.667-41.333 160-83.333 226-126s122.5-87 169.5-133 84.333-94.5 112-145.5 45.834-105.5 54.501-163.5c4-26 10.5-50.333 19.5-73s22-42.5 39-59.5 38.333-30.5 64-40.5 56.834-15.333 93.501-16v-245h-22c-25.333 0-50.666 2.833-75.999 8.5s-49.5 14.5-72.5 26.5-44.5 27.5-64.5 46.5-37.333 42.167-52 69.5h-6c-23.333-28.667-49.833-52.5-79.5-71.5s-64.5-34.5-104.5-46.5C1373.334 1.665 1339.667-5.668 1303-11.001s-77.167-9.5-121.5-12.5-92.833-4.833-145.5-5.5-110-1-172-1c-64 0-125.5.833-184.5 2.5s-114.167 6-165.5 13-98.333 17.667-141 32-79.334 34.166-110.001 59.499c-23.333 18.667-42.833 39.834-58.5 63.501s-28.334 49.167-38.001 76.5-16.667 56-21 86-6.5 60.333-6.5 91c0 43.333 3.333 86.833 10 130.5s15.334 85.5 26.001 125.5h199l-13-61.5c-4-19-7.333-37-10-54s-4.834-33.5-6.5-49.5-2.5-32.667-2.5-50c0-36 4.832-67 14.5-93s26.166-47.667 49.5-65c20-14.667 45.332-26.167 76-34.5s68.333-14.666 113-18.999 97-7 157-8 129.333-1.5 208-1.5c85.333 0 160.833 1.167 226.5 3.5S1307 227 1351 239c26.667 7.333 47.834 15.5 63.501 24.5s27.334 18.5 35.001 28.5 12.5 20.333 14.5 31 3 21 3 31c0 78-51.833 158-155.5 240s-255.834 171.333-456.5 268v206zm-640-100H864v203h222v-203zm337 0h-222v203h222v-203z" glyph-name="uni063B.fina" horiz-adv-x="1881" unicode="ػ"/><glyph d="M871 1623v-260L248 980c82.667-40.667 158.667-83.167 228-127.5s129-91.666 179-141.999 88.833-104.333 116.5-162S813 428.667 813 362c0-26.667-2.5-54.667-7.5-84s-14.333-58.333-28-87-32.5-55.834-56.5-81.501-55.333-48.167-94-67.5-85.5-34.833-140.5-46.5-120.167-17.5-195.5-17.5H0c-23.333 0-40.833 11.167-52.5 33.5S-70 63.665-70 100.998c0 36.667 5.833 66.167 17.5 88.5s29.167 33.5 52.5 33.5h294c62 0 113.333 2 154 6s73.167 10.833 97.5 20.5 41.5 22.834 51.5 39.501 15 37.667 15 63c0 40-13 79.833-39 119.5S508.167 551.833 456.5 593.5s-115.667 84.667-192 129S100 813.333 0 862v206zM369-308H147v203h222v-203zm338 0H485v203h222v-203zM538-588H315v203h223v-203z" glyph-name="uni063C.init" horiz-adv-x="1026" unicode="ؼ"/><glyph d="M871 1623l-.001-260.002-623-383c84.667-42 160-84.167 226-126.5s122.5-86.5 169.5-132.5 84.5-94.333 112.5-145 46-105.334 54-164.001c3.333-19.333 7.666-38.833 12.999-58.5s15.666-39.167 30.999-58.5c6.667-9.333 14.667-18.166 24-26.499s20.833-16 34.5-23 29.834-12.5 48.501-16.5 40.334-6 65.001-6v-245h-22c-25.333 0-50.666 2.833-75.999 8.5s-49.5 14.5-72.5 26.5-44.5 27.5-64.5 46.5-37.333 42.167-52 69.5h-6c-16.667-22-37.667-42.167-63-60.5s-56-34.166-92-47.499-77.667-23.833-125-31.5-101.333-11.5-162-11.5H0c-23.333 0-40.833 11.167-52.5 33.5S-70 63.665-70 100.998c0 36.667 5.833 66.167 17.5 88.5s29.167 33.5 52.5 33.5h294c62 0 113.333 2 154 6s73.167 10.833 97.5 20.5 41.5 22.834 51.5 39.501 15 37.667 15 63c0 40-13 79.833-39 119.5S508.167 551.833 456.5 593.5s-115.667 84.667-192 129S100 813.333 0 862v206zM368.999-308.002h-222v203h222v-203zm338 0h-222v203h222v-203zm-169-280h-223v203h223v-203z" glyph-name="uni063C.medi" horiz-adv-x="1026" unicode="ؼ"/><glyph d="M1726 1623l-.002-260.002-623-383c84.667-41.333 160-83.333 226-126s122.5-87 169.5-133 84.333-94.5 112-145.5 45.834-105.5 54.501-163.5c4-26 10.5-50.333 19.5-73s22-42.5 39-59.5 38.333-30.5 64-40.5 56.834-15.333 93.501-16v-245h-22c-25.333 0-50.666 2.833-75.999 8.5s-49.5 14.5-72.5 26.5-44.5 27.5-64.5 46.5-37.333 42.167-52 69.5h-6c-23.333-28.667-49.833-52.5-79.5-71.5s-64.5-34.5-104.5-46.5C1373.334 1.665 1339.667-5.668 1303-11.001s-77.167-9.5-121.5-12.5-92.833-4.833-145.5-5.5-110-1-172-1c-64 0-125.5.833-184.5 2.5s-114.167 6-165.5 13-98.333 17.667-141 32-79.334 34.166-110.001 59.499c-23.333 18.667-42.833 39.834-58.5 63.501s-28.334 49.167-38.001 76.5-16.667 56-21 86-6.5 60.333-6.5 91c0 43.333 3.333 86.833 10 130.5s15.334 85.5 26.001 125.5h199l-13-61.5c-4-19-7.333-37-10-54s-4.834-33.5-6.5-49.5-2.5-32.667-2.5-50c0-36 4.832-67 14.5-93s26.166-47.667 49.5-65c20-14.667 45.332-26.167 76-34.5s68.333-14.666 113-18.999 97-7 157-8 129.333-1.5 208-1.5c85.333 0 160.833 1.167 226.5 3.5S1307 227 1351 239c26.667 7.333 47.834 15.5 63.501 24.5s27.334 18.5 35.001 28.5 12.5 20.333 14.5 31 3 21 3 31c0 78-51.833 158-155.5 240s-255.834 171.333-456.5 268v206zM882.998-308.002h-222v203h222v-203zm338.002 0H999v203h222v-203zm-169-280H829v203h223v-203z" glyph-name="uni063C.fina" horiz-adv-x="1881" unicode="ؼ"/><glyph d="M513 837l-.001-474.001c0-80-10.333-145-31-195s-48.334-89.167-83.001-117.5-74.5-47.5-119.5-57.5-91.833-15-140.5-15h-139c-23.333 0-40.833 11.333-52.5 34s-17.5 52.334-17.5 89.001 5.833 66.167 17.5 88.5S-23.335 223-.002 223h149c28 0 52.333 1.333 73 4s37.834 9 51.501 19 23.834 24.833 30.501 44.5 10 46.167 10 79.5v467h199zm-172.001 585h138l242-362h-165l-147 219-144-219h-161zm-68-1789.001h-222v203h222v-203zm337 0h-222v203h222v-203z" glyph-name="uni063D.init" horiz-adv-x="684" unicode="ؽ"/><glyph d="M513 439c0-37.333 1.001-69.496 3.001-96.496s8.5-49.333 19.5-67 28-30.834 51-39.501 55.5-13 97.5-13v-245h-36c-60.667 0-111.5 9.5-152.5 28.5s-71.167 48.5-90.5 88.5h-5c-17.333-23.333-36.833-42.5-58.5-57.5s-44.334-27-68.001-36-47.5-15.167-71.5-18.5-46.333-5-67-5H0c-23.333 0-40.833 11.167-52.5 33.5S-70 63.669-70 101.002c0 36.667 5.833 66.167 17.5 88.5s29.167 33.5 52.5 33.5h149c26 0 49.333 1.667 70 5s38 10.166 52 20.499 24.667 25.166 32 44.499 11 45 11 77v467h199V439zm-171.999 983h138l242-362h-165l-147 219-144-219h-161zm-68-1788.996h-222v203h222v-203zm337 0h-222v203h222v-203z" glyph-name="uni063D.medi" horiz-adv-x="684" unicode="ؽ"/><glyph d="M386 556c-13.333-49.333-24.001-95.663-32.001-138.996s-12-89.333-12-138c0-43.333 5.167-83.5 15.5-120.5s29.5-69.167 57.5-96.5 66.333-48.833 115-64.5 111.667-23.5 189-23.5c48.667 0 92.667 1.833 132 5.5s73 9.834 101 18.501 49.667 19.667 65 33 23 30 23 50c0 22-5.667 42.167-17 60.5S999.333 178.671 986 198.004c-13.333 20.667-23.666 42.167-30.999 64.5s-11 45.833-11 70.5c0 34.667 6.5 67.167 19.5 97.5s30.833 56.666 53.5 78.999 49.5 39.833 80.5 52.5 64.833 19 101.5 19c24.667 0 47.667-2.667 69-8s41.166-13.833 59.499-25.5 36-27 53-46 33.5-41.833 49.5-68.5l56.5-92c16.333-26 34.333-47.833 54-65.5s42.5-30.834 68.5-39.501 59.667-13 101-13v-245h-21c-53.333 0-98.666 6.167-135.999 18.5s-70.5 30.666-99.5 54.999-55.667 54.5-80 90.5-50.166 77.333-77.499 124c-19.333 32.667-36.833 55-52.5 67s-32.834 18-51.501 18c-16.667 0-30-5.333-40-16s-15-24.667-15-42c0-15.333 4.5-30 13.5-44s20.167-29.667 33.5-47c33.333-43.333 50-90.333 50-141 0-60-16.333-110.833-49-152.5S1109.667-167.333 1057-194s-112-46-178-58-132.333-18-199-18c-105.333 0-192.5 14.5-261.5 43.5s-124 67.5-165 115.5S183.667-7.5 167 55.5 142 184 142 252c0 52 4 103.333 12 154s18.667 100.667 32 150h200zm316.999 594h138l242-362h-165l-147 219-144-219h-161z" glyph-name="uni063D.fina" horiz-adv-x="1710" unicode="ؽ"/><glyph d="M513 837l-.001-474.001c0-80-10.333-145-31-195s-48.334-89.167-83.001-117.5-74.5-47.5-119.5-57.5-91.833-15-140.5-15h-139c-23.333 0-40.833 11.333-52.5 34s-17.5 52.334-17.5 89.001 5.833 66.167 17.5 88.5S-23.335 223-.002 223h149c28 0 52.333 1.333 73 4s37.834 9 51.501 19 23.834 24.833 30.501 44.5 10 46.167 10 79.5v467h199zM272.999-367.001h-222v203h222v-203zm337 0h-222v203h222v-203zM349.999 1060h-222v203h222v-203zm337 0h-222v203h222v-203z" glyph-name="uni063E.init" horiz-adv-x="684" unicode="ؾ"/><glyph d="M513 439c0-37.333 1.001-69.496 3.001-96.496s8.5-49.333 19.5-67 28-30.834 51-39.501 55.5-13 97.5-13v-245h-36c-60.667 0-111.5 9.5-152.5 28.5s-71.167 48.5-90.5 88.5h-5c-17.333-23.333-36.833-42.5-58.5-57.5s-44.334-27-68.001-36-47.5-15.167-71.5-18.5-46.333-5-67-5H0c-23.333 0-40.833 11.167-52.5 33.5S-70 63.669-70 101.002c0 36.667 5.833 66.167 17.5 88.5s29.167 33.5 52.5 33.5h149c26 0 49.333 1.667 70 5s38 10.166 52 20.499 24.667 25.166 32 44.499 11 45 11 77v467h199V439zM273.001-366.996h-222v203h222v-203zm337 0h-222v203h222v-203zM350.001 1060h-222v203h222v-203zm337 0h-222v203h222v-203z" glyph-name="uni063E.medi" horiz-adv-x="684" unicode="ؾ"/><glyph d="M386 556c-13.333-49.333-24.001-95.663-32.001-138.996s-12-89.333-12-138c0-43.333 5.167-83.5 15.5-120.5s29.5-69.167 57.5-96.5 66.333-48.833 115-64.5 111.667-23.5 189-23.5c48.667 0 92.667 1.833 132 5.5s73 9.834 101 18.501 49.667 19.667 65 33 23 30 23 50c0 22-5.667 42.167-17 60.5S999.333 178.671 986 198.004c-13.333 20.667-23.666 42.167-30.999 64.5s-11 45.833-11 70.5c0 34.667 6.5 67.167 19.5 97.5s30.833 56.666 53.5 78.999 49.5 39.833 80.5 52.5 64.833 19 101.5 19c24.667 0 47.667-2.667 69-8s41.166-13.833 59.499-25.5 36-27 53-46 33.5-41.833 49.5-68.5l56.5-92c16.333-26 34.333-47.833 54-65.5s42.5-30.834 68.5-39.501 59.667-13 101-13v-245h-21c-53.333 0-98.666 6.167-135.999 18.5s-70.5 30.666-99.5 54.999-55.667 54.5-80 90.5-50.166 77.333-77.499 124c-19.333 32.667-36.833 55-52.5 67s-32.834 18-51.501 18c-16.667 0-30-5.333-40-16s-15-24.667-15-42c0-15.333 4.5-30 13.5-44s20.167-29.667 33.5-47c33.333-43.333 50-90.333 50-141 0-60-16.333-110.833-49-152.5S1109.667-167.333 1057-194s-112-46-178-58-132.333-18-199-18c-105.333 0-192.5 14.5-261.5 43.5s-124 67.5-165 115.5S183.667-7.5 167 55.5 142 184 142 252c0 52 4 103.333 12 154s18.667 100.667 32 150h200zm288.999 285.003h-222v203h222v-203zm337.001 0H790v203h222v-203z" glyph-name="uni063E.fina" horiz-adv-x="1710" unicode="ؾ"/><glyph d="M513 837l-.001-474.001c0-80-10.333-145-31-195s-48.334-89.167-83.001-117.5-74.5-47.5-119.5-57.5-91.833-15-140.5-15h-139c-23.333 0-40.833 11.333-52.5 34s-17.5 52.334-17.5 89.001 5.833 66.167 17.5 88.5S-23.335 223-.002 223h149c28 0 52.333 1.333 73 4s37.834 9 51.501 19 23.834 24.833 30.501 44.5 10 46.167 10 79.5v467h199zM272.999-367.001h-222v203h222v-203zm337 0h-222v203h222v-203zM348.999 1060h-222v203h222v-203zm338 0h-222v203h222v-203zm-168 280h-223v203h223v-203z" glyph-name="uni063F.init" horiz-adv-x="684" unicode="ؿ"/><glyph d="M513 439c0-37.333 1.001-69.496 3.001-96.496s8.5-49.333 19.5-67 28-30.834 51-39.501 55.5-13 97.5-13v-245h-36c-60.667 0-111.5 9.5-152.5 28.5s-71.167 48.5-90.5 88.5h-5c-17.333-23.333-36.833-42.5-58.5-57.5s-44.334-27-68.001-36-47.5-15.167-71.5-18.5-46.333-5-67-5H0c-23.333 0-40.833 11.167-52.5 33.5S-70 63.669-70 101.002c0 36.667 5.833 66.167 17.5 88.5s29.167 33.5 52.5 33.5h149c26 0 49.333 1.667 70 5s38 10.166 52 20.499 24.667 25.166 32 44.499 11 45 11 77v467h199V439zM273.001-366.996h-222v203h222v-203zm337 0h-222v203h222v-203zM349.001 1060h-222v203h222v-203zm338 0h-222v203h222v-203zm-168 280h-223v203h223v-203z" glyph-name="uni063F.medi" horiz-adv-x="684" unicode="ؿ"/><glyph d="M386 556c-13.333-49.333-24.001-95.663-32.001-138.996s-12-89.333-12-138c0-43.333 5.167-83.5 15.5-120.5s29.5-69.167 57.5-96.5 66.333-48.833 115-64.5 111.667-23.5 189-23.5c48.667 0 92.667 1.833 132 5.5s73 9.834 101 18.501 49.667 19.667 65 33 23 30 23 50c0 22-5.667 42.167-17 60.5S999.333 178.671 986 198.004c-13.333 20.667-23.666 42.167-30.999 64.5s-11 45.833-11 70.5c0 34.667 6.5 67.167 19.5 97.5s30.833 56.666 53.5 78.999 49.5 39.833 80.5 52.5 64.833 19 101.5 19c24.667 0 47.667-2.667 69-8s41.166-13.833 59.499-25.5 36-27 53-46 33.5-41.833 49.5-68.5l56.5-92c16.333-26 34.333-47.833 54-65.5s42.5-30.834 68.5-39.501 59.667-13 101-13v-245h-21c-53.333 0-98.666 6.167-135.999 18.5s-70.5 30.666-99.5 54.999-55.667 54.5-80 90.5-50.166 77.333-77.499 124c-19.333 32.667-36.833 55-52.5 67s-32.834 18-51.501 18c-16.667 0-30-5.333-40-16s-15-24.667-15-42c0-15.333 4.5-30 13.5-44s20.167-29.667 33.5-47c33.333-43.333 50-90.333 50-141 0-60-16.333-110.833-49-152.5S1109.667-167.333 1057-194s-112-46-178-58-132.333-18-199-18c-105.333 0-192.5 14.5-261.5 43.5s-124 67.5-165 115.5S183.667-7.5 167 55.5 142 184 142 252c0 52 4 103.333 12 154s18.667 100.667 32 150h200zm287.999 285.003h-222v203h222v-203zm338.001 0H790v203h222v-203zM843.999 1121h-223v203h223v-203z" glyph-name="uni063F.fina" horiz-adv-x="1710" unicode="ؿ"/><glyph d="M374 650c-5.333-22-9.83-42.334-13.496-61.001s-7-36.5-10-53.5-5.167-33.667-6.5-50-2-33.166-2-50.499c0-36 4.833-67.167 14.5-93.5s26.167-48.166 49.5-65.499 54.666-30.333 93.999-39 89.166-14.834 149.499-18.501 132.333-5.5 216-5.5h294.5c24 0 45 .167 63 .5s34.333.666 49 .999 27.834.666 39.5.999 22.5.833 32.5 1.5l3 8c-62.666 38.667-108.5 82.834-137.5 132.501s-43.5 104.834-43.5 165.501c0 33.333 4.168 67.333 12.5 102s20.167 68.334 35.5 101.001 33.5 63.167 54.5 91.5 44.333 53.166 70 74.499 53 38.166 82 50.499 59.167 18.5 90.5 18.5c34 0 66.667-7.667 98-23S1669.668 901.333 1697 874s52.333-59.166 75-95.499 42-75.5 58-117.5 28.5-85.833 37.5-131.5S1881 438.667 1881 394c0-64-9.167-119-27.5-165s-44.333-84.833-78-116.5-74.334-56.834-122.001-75.501-100.834-33-159.501-43-122-16.5-190-19.5-139.333-4.5-214-4.5h-116c-86 0-165 .5-237 1.5s-137.333 4.833-196 11.5-110.5 16.667-155.5 30-83.833 32.666-116.5 57.999c-25.333 19.333-46.333 41.333-63 66s-30 50.834-40 78.501-17 56.334-21 86.001-6 59.5-6 89.5c0 45.333 3.333 89.333 10 132s15.334 85 26 127h199zm1126 58.999c-18 0-35.335-5.998-52.002-17.998s-31.167-27-43.5-45-22.333-37.667-30-59-11.5-41.333-11.5-60c0-14 3.333-29.833 10-47.5s19.834-36.834 39.501-57.501 47.5-43.167 83.5-67.5 83.333-50.5 142-78.5c7.333 6 13.5 13.333 18.5 22s9.167 18 12.5 28 5.833 20 7.5 30 2.834 19.333 3.501 28c.667 9.333.5 19-.5 29s-2.167 20.667-3.5 32c-4 26.667-11.5 55.5-22.5 86.5s-24.5 59.667-40.5 86-33.667 48.166-53 65.499-39.333 26-60 26zM1594 1204h-223v203h223v-203z" arabic-form="isolated" glyph-name="afii57441" horiz-adv-x="2052" unicode="ف"/><glyph d="M370 310c-5.333-34-9.834-64.335-13.501-91.002s-6.5-51-8.5-73-3.5-41.833-4.5-59.5-1.5-34.167-1.5-49.5c0-52 5.667-97.5 17-136.5s31.666-71.667 60.999-98 69.5-46.166 120.5-59.499 116.5-20 196.5-20c60 0 111.833 3.667 155.5 11s81.167 17.333 112.5 30 56.833 28 76.5 46 35.5 37.833 47.5 59.5 20.667 44.5 26 68.5 9.333 49 12 75c-47.333-18.667-97.666-28-150.999-28-42.667 0-85.167 6.333-127.5 19s-80.5 32.667-114.5 60-61.5 62.333-82.5 105-31.5 93.667-31.5 153c0 52.667 8.667 105.334 26 158.001s41.333 100 72 142S824.333 698.167 865 724.5 949.667 764 997 764c51.333 0 98-15 140-45s80.667-74 116-132c39.333-64 68.333-136.667 87-218s28-168.666 28-261.999c0-110.667-13.167-205.667-39.5-285s-66-144.333-119-195-119.833-88-200.5-112-175-36-283-36c-104.667 0-194.167 10.833-268.5 32.5s-135 54.5-182 98.5-81.5 99.167-103.5 165.5S139-80.333 139 9c0 42.667 2.5 88 7.5 136s13.167 103 24.5 165h199zm614.999 202.998c-18 0-34.998-5.998-50.998-17.998s-29.833-26.833-41.5-44.5-20.834-36.834-27.501-57.501-10-40-10-58c0-20.667 4.833-38.5 14.5-53.5s22.5-27.333 38.5-37 34.5-16.834 55.5-21.501 43.167-7 66.5-7c22.667 0 45.5 1.833 68.5 5.5s44.167 10.167 63.5 19.5c-4 24.667-11.333 52.667-22 84s-23.667 61-39 89-32.833 51.5-52.5 70.5-40.834 28.5-63.501 28.5zM913.001 1013h-222v203h222v-203zm336.999 0h-222v203h222v-203z" arabic-form="isolated" glyph-name="afii57442" horiz-adv-x="1539" unicode="ق"/><glyph d="M374 650l-13.001-61.499c-4-19-7.333-37-10-54s-4.834-33.5-6.501-49.5-2.5-32.667-2.5-50c0-16 .833-31.167 2.5-45.5s4.834-28 9.501-41 11.167-25.333 19.5-37 19.166-22.5 32.499-32.5c17.333-13.333 39-24.333 65-33s58.5-15.5 97.5-20.5 86-8.333 141-10 120.167-2.5 195.5-2.5c84 0 153.833 1.333 209.5 4s100.334 9.5 134.001 20.5 57.334 28 71.001 51 20.5 54.833 20.5 95.5v1132h199v-1139c0-63.333-7.833-117.5-23.5-162.5s-38-82.5-67-112.5-63.667-53.833-104-71.5-84.833-31-133.5-40-101.167-14.667-157.5-17-114.5-3.5-174.5-3.5c-66 0-129.5.833-190.5 2.5s-117.833 6-170.5 13-100.667 17.667-144 32S293.667 51.667 263 77c-23.333 18.667-42.833 40-58.5 64s-28.334 49.5-38.001 76.5-16.667 55.333-21 85-6.5 59.167-6.5 88.5c0 45.333 3.333 89.333 10 132S164.333 608 175 650h199zm310.999 60.001C804.999 716.668 865 738.667 865 776c0 9.333-6.333 17-19 23s-29.667 14.667-51 26c-23.333 12.667-42.5 27.834-57.5 45.501S715 912.335 715 943.002c0 26.667 8.333 51 25 73s39.167 41.167 67.5 57.5 61.333 30.166 99 41.499 77.5 20 119.5 26v-120c-61.333-8-105.666-18.167-132.999-30.5s-41-27.166-41-44.499c0-10.667 6.167-19.334 18.5-26.001s29.166-15 50.499-25c25.333-12 45.166-26.333 59.499-43s21.5-39.334 21.5-68.001c0-22-6.5-43.833-19.5-65.5s-32.5-41.667-58.5-60-58.833-33.666-98.5-45.999-86.5-19.833-140.5-22.5v120z" arabic-form="isolated" glyph-name="afii57443" horiz-adv-x="1710" unicode="ك"/><glyph d="M371 492c-5.333-36-9.834-68.166-13.501-96.499s-6.667-53.833-9-76.5-4-43.334-5-62.001-1.5-36.334-1.5-53.001c0-53.333 4.5-99.166 13.5-137.499s24.833-69.833 47.5-94.5 53.167-43 91.5-55 86.833-18 145.5-18c67.333 0 123.833 8 169.5 24s82.5 41.167 110.5 75.5 48 78.5 60 132.5 18 119.333 18 196v1189h199V307c0-104-10.167-196.667-30.5-278S1113.333-121 1068-177s-104.166-98.5-176.499-127.5-160.5-43.5-264.5-43.5c-89.333 0-164.833 11.667-226.5 35s-111.5 57.5-149.5 102.5-65.5 100.5-82.5 166.5-25.5 142-25.5 228c0 22 .5 44.5 1.5 67.5s2.667 46.833 5 71.5 5.666 51 9.999 79 9.5 58 15.5 90h196z" arabic-form="isolated" glyph-name="afii57444" horiz-adv-x="1368" unicode="ل"/><glyph d="M693 779c36.667 0 71.165-7.331 103.498-21.998s61.833-34.334 88.5-59.001 50.334-53.167 71.001-85.5 38.167-66.166 52.5-101.499 25.333-71.333 33-108 11.5-71.334 11.5-104.001c0-46.667-7.167-89.667-21.5-129s-34.833-73.333-61.5-102-59-51-97-67-80.333-24-127-24c-32.667 0-65.667 3.333-99 10s-66 14-98 22-63 15.333-93 22-57.667 10-83 10-46.333-3.833-63-11.5-29.667-18.334-39-32.001-15.833-30.334-19.5-50.001-5.5-41.5-5.5-65.5c0-20.667 1.333-45.334 4-74.001s6.667-60.167 12-94.5 12.5-70.666 21.5-108.999 19.833-77.833 32.5-118.5h-210c-19.333 82-34.166 155.5-44.499 220.5S46-170.668 46-120.001c0 52 6 99.333 18 142s29 80 51 112 48.5 58.333 79.5 79S260.333 248.333 299 257c16 74.667 34.667 139.5 56 194.5s44.166 101.833 68.499 140.5 49.333 70.167 75 94.5 50.334 43.333 74.001 57 46 23 67 28 38.833 7.5 53.5 7.5zm46.998-564.998c14.667 0 29.001 1.164 43.001 3.497s26.333 6.833 37 13.5 19.167 15.667 25.5 27 9.5 26 9.5 44-4.333 40.5-13 67.5-20.834 52.833-36.501 77.5-34.5 45.834-56.5 63.501-46.333 26.5-73 26.5c-24 0-46-6.667-66-20s-38.167-32.166-54.5-56.499-31.333-53.666-45-87.999-26.167-72.5-37.5-114.5c44-8 88-17.333 132-28s89-16 135-16z" arabic-form="isolated" glyph-name="afii57445" horiz-adv-x="1197" unicode="م"/><glyph d="M1158 520c13.333-74.667 23.162-143.001 29.495-205.001s9.5-122.333 9.5-181c0-104-10.167-196.667-30.5-278s-53.166-150-98.499-206-104.333-98.5-177-127.5-161.334-43.5-266-43.5c-89.334 0-165.167 11.667-227.5 35s-112.833 57.5-151.5 102.5-66.667 100.5-84 166.5-26 142-26 228c0 45.333 2.667 93.166 8 143.499s14.333 108.5 27 174.5h195c-6-37.333-11-70.5-15-99.5s-7.167-55.333-9.5-79-4-45.167-5-64.5-1.5-37.666-1.5-54.999c0-53.333 4.667-99.166 14-137.499s25.5-69.833 48.5-94.5 53.833-43 92.5-55 87.334-18 146.001-18c68 0 124.833 8 170.5 24s82.334 41.167 110.001 75.5S963.832-96 975.5-42 993 77.333 993 154c0 22-.667 45.333-2 70s-3.666 51.667-6.999 81-7.5 61.5-12.5 96.5S960.333 476 953 520h205zM782.996 717.999h-223v203h223v-203z" arabic-form="isolated" glyph-name="afii57446" horiz-adv-x="1368" unicode="ن"/><glyph d="M411 1068c82-56 152.5-113.837 211.5-173.504S730 774.329 768 712.996s66-123.166 84-185.499 27-123.833 27-184.5c0-55.333-8.833-105.5-26.5-150.5s-42.667-83.5-75-115.5-71.666-56.833-117.999-74.5-98.5-26.5-156.5-26.5c-56.667 0-107 7.667-151 23s-81.167 37.333-111.5 66-53.333 63.334-69 104.001-23.5 86.667-23.5 138c0 56.667 7 110.834 21 162.501s32.167 99.334 54.5 143.001S271.167 695.667 299.5 731s56.833 65.333 85.5 90l-49.5 40.5c-17 13.667-35.167 27.167-54.5 40.5zm-69-726.004c0-23.333 4.499-42.669 13.499-58.002s21-27.666 36-36.999 32.5-15.833 52.5-19.5 41-5.5 63-5.5c60.667 0 105.334 10.667 134.001 32s43 51.333 43 90c0 52-13 106.833-39 164.5s-67.333 118.5-124 182.5c-24.667-19.333-47.834-42-69.501-68s-40.667-54.167-57-84.5-29.166-62.166-38.499-95.499-14-67-14-101z" arabic-form="isolated" glyph-name="afii57470" horiz-adv-x="1026" unicode="ه"/><glyph d="M0-196c70.667-28 133.169-47.664 187.502-58.997s106.5-17 156.5-17c58 0 106.167 8.167 144.5 24.5s69.166 37.666 92.499 63.999 40.333 56.666 51 90.999 17.667 69.5 21 105.5c-48-18.667-98-28-150-28-42.667 0-85.167 6.333-127.5 19s-80.5 32.667-114.5 60-61.5 62.5-82.5 105.5-31.5 94.833-31.5 155.5c0 34 4 68.5 12 103.5s19.333 68.833 34 101.5 32.167 63.334 52.5 92 43 53.5 68 74.5 51.667 37.668 80 50 58.166 18.5 89.499 18.5c51.333 0 97.5-14.5 138.5-43.5s80.5-73.5 118.5-133.5c39.333-61.332 68.333-133.832 87-217.5s28-172.833 28-267.5c0-85.333-9.833-165.833-29.5-241.5S775.166-280.333 733.499-337s-94.667-101.5-159-134.5S433.333-521 344-521c-28 0-55.667 1.5-83 4.5s-55 7.667-83 14S121.333-488 92-478s-60 21.667-92 35v247zm649.002 437.003c-4 24.667-11.331 52.67-21.998 84.003s-23.667 61-39 89-32.5 51.667-51.5 71-39.5 29-61.5 29c-18.667 0-36.167-6-52.5-18s-30.5-26.833-42.5-44.5-21.5-36.834-28.5-57.501-10.5-39.334-10.5-56.001c0-22 4.833-40.667 14.5-56s22.667-27.833 39-37.5 35.166-16.834 56.499-21.501 43.666-7 66.999-7c22 0 44.5 1.833 67.5 5.5s44.167 10.167 63.5 19.5z" arabic-form="isolated" glyph-name="afii57448" horiz-adv-x="1026" unicode="و"/><glyph d="M414 754c-12-44-22.5-84.169-31.5-120.502s-16.5-70-22.5-101-10.5-60-13.5-87-4.5-53.5-4.5-79.5c0-38 4-74.833 12-110.5s24.333-67.334 49-95.001 59.667-50 105-67 105-25.5 179-25.5c64 0 125.167 6.167 183.5 18.5s109.833 28.333 154.5 48 80.334 42 107.001 67 40 50.167 40 75.5c0 14-4.333 26.667-13 38s-20.5 21.833-35.5 31.5-32.333 19.334-52 29.001l-61.5 31.5c-29.333 15.333-56.166 32.166-80.499 50.499s-45.333 38.833-63 61.5-31.5 48.167-41.5 76.5-15 60.5-15 96.5c0 60.667 14.5 115 43.5 163s70.333 89.833 124 125.5 118.667 65.334 195 89.001 162.166 42.167 257.499 55.5v-241c-68-9.333-128.667-19-182-29s-98.333-21.667-135-35-64.5-28.5-83.5-45.5-28.5-36.833-28.5-59.5c0-14 3.667-26.333 11-37s18-21 32-31 31-20 51-30l67-33c33.333-16.667 62.833-33.5 88.5-50.5s47.167-35.667 64.5-56 30.5-42.833 39.5-67.5 13.5-53 13.5-85c0-39.333-7.167-79.166-21.5-119.499s-35.333-79.166-63-116.499-61.667-72.333-102-105-86.333-61-138-85-108.667-43-171-57-129.5-21-201.5-21c-98.667 0-181.834 13-249.501 39S299-77.833 257-31.5s-72.167 101.333-90.5 165S139 267 139 343c0 66.667 7 133.667 21 201s33 137.333 57 210h197z" arabic-form="isolated" glyph-name="afii57449" horiz-adv-x="1539" unicode="ى"/><glyph d="M414 754c-12-44-22.5-84.169-31.5-120.502s-16.5-70-22.5-101-10.5-60-13.5-87-4.5-53.5-4.5-79.5c0-38 4-74.833 12-110.5s24.333-67.334 49-95.001 59.667-50 105-67 105-25.5 179-25.5c64 0 125.167 6.167 183.5 18.5s109.833 28.333 154.5 48 80.334 42 107.001 67 40 50.167 40 75.5c0 14-4.333 26.667-13 38s-20.5 21.833-35.5 31.5-32.333 19.334-52 29.001l-61.5 31.5c-29.333 15.333-56.166 32.166-80.499 50.499s-45.333 38.833-63 61.5-31.5 48.167-41.5 76.5-15 60.5-15 96.5c0 60.667 14.5 115 43.5 163s70.333 89.833 124 125.5 118.667 65.334 195 89.001 162.166 42.167 257.499 55.5v-241c-68-9.333-128.667-19-182-29s-98.333-21.667-135-35-64.5-28.5-83.5-45.5-28.5-36.833-28.5-59.5c0-14 3.667-26.333 11-37s18-21 32-31 31-20 51-30l67-33c33.333-16.667 62.833-33.5 88.5-50.5s47.167-35.667 64.5-56 30.5-42.833 39.5-67.5 13.5-53 13.5-85c0-39.333-7.167-79.166-21.5-119.499s-35.333-79.166-63-116.499-61.667-72.333-102-105-86.333-61-138-85-108.667-43-171-57-129.5-21-201.5-21c-98.667 0-181.834 13-249.501 39S299-77.833 257-31.5s-72.167 101.333-90.5 165S139 267 139 343c0 66.667 7 133.667 21 201s33 137.333 57 210h197zM712-538.002H490v203h222v-203zm337 0H827v203h222v-203z" arabic-form="isolated" glyph-name="afii57450" horiz-adv-x="1539" unicode="ي"/><glyph d="M513 837l-.001-474.001c0-80-10.333-145-31-195s-48.334-89.167-83.001-117.5-74.5-47.5-119.5-57.5-91.833-15-140.5-15h-139c-23.333 0-40.833 11.333-52.5 34s-17.5 52.334-17.5 89.001 5.833 66.167 17.5 88.5S-23.335 223-.002 223h149c28 0 52.333 1.333 73 4s37.834 9 51.501 19 23.834 24.833 30.501 44.5 10 46.167 10 79.5v467h199z" glyph-name="uni066E.init" horiz-adv-x="684" unicode="ٮ"/><glyph d="M513 439c0-37.333 1.001-69.496 3.001-96.496s8.5-49.333 19.5-67 28-30.834 51-39.501 55.5-13 97.5-13v-245h-36c-60.667 0-111.5 9.5-152.5 28.5s-71.167 48.5-90.5 88.5h-5c-17.333-23.333-36.833-42.5-58.5-57.5s-44.334-27-68.001-36-47.5-15.167-71.5-18.5-46.333-5-67-5H0c-23.333 0-40.833 11.167-52.5 33.5S-70 63.669-70 101.002c0 36.667 5.833 66.167 17.5 88.5s29.167 33.5 52.5 33.5h149c26 0 49.333 1.667 70 5s38 10.166 52 20.499 24.667 25.166 32 44.499 11 45 11 77v467h199V439z" glyph-name="uni066E.medi" horiz-adv-x="684" unicode="ٮ"/><glyph d="M374 650l-12.995-61c-4-18.667-7.333-36.5-10-53.5s-4.834-33.667-6.501-50-2.5-33.166-2.5-50.499c0-16 .833-31.167 2.5-45.5s4.834-28 9.5-41 11.168-25.333 19.5-37 19.167-22.5 32.5-32.5c20-15.333 45-27.333 75-36s68-15.167 114-19.5 101.333-7.166 166-8.499 141.667-2 231-2c99.333 0 182.333 1.333 249 4s120 9.5 160 20.5 68.333 28 85 51 25 54.833 25 95.5v453h199v-398c0-37.333 1-69.5 3-96.5s8.5-49.333 19.5-67 28-30.834 51-39.501 55.5-13 97.5-13v-245h-40c-58.667 0-106.834 9.833-144.501 29.5s-66.5 49.5-86.5 89.5h-6c-32-30-70.333-53.5-115-70.5s-95.334-29.667-152.001-38-118.834-13.5-186.501-15.5-140.5-3-218.5-3c-72.667 0-142.334.667-209.001 2s-128.667 5.333-186 12S427.667 1.335 381 16.002s-86 35-118 61c-23.333 18.667-42.833 40-58.5 64s-28.334 49.667-38.001 77-16.667 55.666-21 84.999-6.5 58.666-6.5 87.999c0 45.333 3.333 89.333 10 132s15.334 85 26 127h199z" glyph-name="uni066E.fina" horiz-adv-x="1881" unicode="ٮ"/><glyph d="M474 709c-18 0-34.998-5.999-50.998-17.999s-30-27.167-42-45.5-21.5-38.166-28.5-59.499-10.5-41-10.5-59c0-14 3.167-29.667 9.5-47s19-36.5 38-57.5 46.167-43.667 81.5-68 82.333-50.5 141-78.5c14 14.667 24.5 31.5 31.5 50.5s10.5 39.5 10.5 61.5c0 9.333-.333 18.666-1 27.999s-2 21.666-4 36.999c-3.333 24.667-10.5 52-21.5 82s-24.333 57.833-40 83.5-33.334 47.167-53.001 64.5-39.834 26-60.501 26zM321.002 225.001C258.335 263.668 213.333 307.836 186 357.503s-41 104.834-41 165.501c0 33.333 4 67.333 12 102s19.5 68.334 34.5 101.001 32.833 63.167 53.5 91.5 43.667 53.166 69 74.499 52.333 38.166 81 50.499 58.667 18.5 90 18.5c33.333 0 65.833-7.667 97.5-23s61.167-36.5 88.5-63.5 52.333-58.667 75-95 42-75.5 58-117.5 28.5-85.833 37.5-131.5 13.5-91.167 13.5-136.5c0-65.333-9.833-121.166-29.5-167.499s-46.167-84.833-79.5-115.5-72.166-54.834-116.499-72.501-91.5-31-141.5-40-101.167-14.667-153.5-17-103.166-3.5-152.499-3.5h-182c-23.333 0-40.833 11.167-52.5 33.5s-17.5 52.166-17.5 89.499c0 36.667 5.833 66.167 17.5 88.5s29.167 33.5 52.5 33.5h129c13.333 0 29-.333 47-1l54-2c18-.667 34.833-1.334 50.5-2.001s28.167-1 37.5-1z" glyph-name="uni066F.init" horiz-adv-x="1026" unicode="ٯ"/><glyph d="M475 709c-18 0-35.001-6-51.001-18s-30.167-27.167-42.5-45.5-22-38.166-29-59.499-10.5-41-10.5-59c0-14 3.167-29.833 9.5-47.5s19-37 38-58 46.333-43.667 82-68 82.834-50.5 141.501-78.5c7.333 6 13.5 13.333 18.5 22s9.167 18 12.5 28 5.833 20.167 7.5 30.5 2.5 19.833 2.5 28.5c.667 9.333.5 19-.5 29s-2.167 20.667-3.5 32c-4 26.667-11.5 55.5-22.5 86.5s-24.333 59.667-40 86S554.333 665.667 535 683s-39.333 26-60 26zM321.999 225c-62.667 38.667-107.829 82.834-135.496 132.501s-41.5 104.834-41.5 165.501c0 33.333 4.167 67.333 12.5 102s19.833 68.334 34.5 101.001 32.5 63.167 53.5 91.5 44 53.166 69 74.499 52 38.166 81 50.499 59.167 18.5 90.5 18.5c34 0 66.667-7.667 98-23s60.666-36.5 87.999-63.5 52.166-58.833 74.499-95.5 41.666-76 57.999-118 28.833-85.667 37.5-131 13-90.666 13-135.999c0-32-2.667-61.5-8-88.5s-13-51.833-23-74.5c14.667-2 29.167-3.5 43.5-4.5s29.333-1.667 45-2 32.667-.666 51-.999 39.166-.5 62.499-.5v-245h-32c-29.333 0-60 1.167-92 3.5s-64.333 5.833-97 10.5-64.667 10.667-96 18-60.666 16.333-87.999 27c-36-14.667-74-26-114-34s-79.833-13.833-119.5-17.5-78.334-5.834-116.001-6.501-72.5-1-104.5-1h-167c-23.333 0-40.833 11.167-52.5 33.5s-17.5 52.166-17.5 89.499c0 36.667 5.833 66.167 17.5 88.5s29.167 33.5 52.5 33.5h130c13.333 0 29-.333 47-1l54-2c18-.667 34.833-1.334 50.5-2.001s28.167-1 37.5-1z" glyph-name="uni066F.medi" horiz-adv-x="1026" unicode="ٯ"/><glyph d="M1068-19c-130 0-230.498 29.668-301.498 89.001s-106.5 144.333-106.5 255c0 34 4.167 68.5 12.5 103.5s19.833 68.833 34.5 101.5 32.5 63.167 53.5 91.5 44 53 69 74 51.833 37.667 80.5 50 58.334 18.5 89.001 18.5c51.333 0 97.666-14.5 138.999-43.5s81-73.833 119-134.5c30-48 54-102.667 72-164s30.333-127.666 37-198.999h173v-245h-173c-10-88-30.5-163.333-61.5-226s-73-114.334-126-155.001-116.833-70.5-191.5-89.5-160.334-28.5-257.001-28.5c-104.667 0-194.334 10.833-269.001 32.5s-135.834 54.5-183.501 98.5-82.667 99.167-105 165.5S138.999-80.333 138.999 9c0 42.667 2.5 88 7.5 136s13.167 103 24.5 165h199c-5.333-34-9.833-64.333-13.5-91s-6.5-51-8.5-73-3.5-41.833-4.5-59.5-1.5-34.167-1.5-49.5c0-52 5.833-97.5 17.5-136.5s32.5-71.667 62.5-98 70.667-46.166 122-59.499 117-20 197-20c84 0 152.5 7 205.5 21s95.167 32.667 126.5 56 53.833 50.666 67.5 81.999 22.834 64.333 27.501 99h-100zm78 335.001c-8 24.667-17.669 48.667-29.002 72s-23.5 44.333-36.5 63-27.167 33.667-42.5 45-31 17-47 17c-18 0-35.167-5.833-51.5-17.5s-30.666-26.167-42.999-43.5-22.333-36-30-56-11.5-38.333-11.5-55c0-45.333 17.333-77 52-95s86.334-27 155.001-27h105l-8.5 48.5c-3 17-7.167 33.167-12.5 48.5z" glyph-name="uni066F.fina" horiz-adv-x="1539" unicode="ٯ"/><glyph d="M142 0v1516h199V0H142zm-276 1740c18 12 34.665 22.498 49.998 31.498s30.166 16.5 44.499 22.5 28.666 10.333 42.999 13 29.5 4 45.5 4h11.5c5 0 9.833-.667 14.5-2 24 74.667 56.5 129.5 97.5 164.5s88.167 52.5 141.5 52.5c28 0 52.833-4.667 74.5-14s40-21.666 55-36.999 26.333-33.166 34-53.499 11.5-41.5 11.5-63.5c0-27.333-5.833-53.5-17.5-78.5s-27.5-46.833-47.5-65.5-43.167-33.5-69.5-44.5-54.166-16.5-83.499-16.5c-22 0-43.5 2.667-64.5 8s-41.167 11.333-60.5 18-37.666 12.667-54.999 18-33.333 8-48 8c-13.333 0-29.166-3.667-47.499-11s-42.166-22-71.499-44zm399.998 19c16 0 30.334 2.834 43.001 8.501s23.167 13.167 31.5 22.5 14.833 19.666 19.5 30.999 7 23 7 35c0 19.333-5.833 34.833-17.5 46.5s-26.834 17.5-45.501 17.5c-24 0-47.5-10.667-70.5-32s-44.167-57-63.5-107c17.333-6.667 34.333-12 51-16s31.667-6 45-6z" arabic-form="isolated" glyph-name="uni0671" horiz-adv-x="513" unicode="ٱ"/><glyph d="M342 1516l-.002-1077c0-39.333 1.333-72.666 4-99.999s9.834-49.5 21.501-66.5 28.834-29.5 51.501-37.5 54-12 94-12v-245h-39c-68 0-123.5 10.833-166.5 32.5s-76.667 50.834-101 87.501-41 79.334-50 128.001-13.5 100-13.5 154v1136h199zm33.998 389c-13.333 3.333-26.332 5.832-38.999 7.499s-23.334 2.5-32.001 2.5c-26 0-47.833-5.333-65.5-16s-26.5-28.667-26.5-54c0-28 10-48.5 30-61.5s49-19.5 87-19.5h92v-110h-219c-34 0-61.667 2.333-83 7s-39.166 10-53.499 16-26.5 11.333-36.5 16-20.667 7-32 7c-12.667 0-25.334-3.333-38.001-10s-27.667-17.667-45-33l-3 1v97c19.333 16 36.5 27.167 51.5 33.5s29.833 9.5 44.5 9.5c10.667 0 20.5-1.5 29.5-4.5s18.167-6.5 27.5-10.5l30.5-13c11-4.667 24.167-8.667 39.5-12l1 5c-28 34.667-42 69.334-42 104.001 0 23.333 4.833 45 14.5 65s23.5 37.167 41.5 51.5 39.667 25.5 65 33.5 53.333 12 84 12c22 0 47.667-3 77-9v-115z" glyph-name="uni0672.fina" horiz-adv-x="513" unicode="ٲ"/><glyph d="M342 1516l-.002-1077c0-39.333 1.333-72.666 4-99.999s9.834-49.5 21.501-66.5 28.834-29.5 51.501-37.5 54-12 94-12v-245h-39c-68 0-123.5 10.833-166.5 32.5s-76.667 50.834-101 87.501-41 79.334-50 128.001-13.5 100-13.5 154v1136h199zm33.998-1785.003c-13.333 3.333-26.332 5.832-38.999 7.499s-23.334 2.5-32.001 2.5c-26 0-47.833-5.333-65.5-16s-26.5-28.667-26.5-54c0-28 10-48.5 30-61.5s49-19.5 87-19.5h92v-110h-219c-34 0-61.667 2.333-83 7s-39.166 10-53.499 16-26.5 11.333-36.5 16-20.667 7-32 7c-12.667 0-25.334-3.333-38.001-10s-27.667-17.667-45-33l-3 1v97c19.333 16 36.5 27.167 51.5 33.5s29.833 9.5 44.5 9.5c10.667 0 20.5-1.5 29.5-4.5s18.167-6.5 27.5-10.5l30.5-13c11-4.667 24.167-8.667 39.5-12l1 5c-28 34.667-42 69.334-42 104.001 0 23.333 4.833 45 14.5 65s23.5 37.167 41.5 51.5 39.667 25.5 65 33.5 53.333 12 84 12c22 0 47.667-3 77-9v-115z" glyph-name="uni0673.fina" horiz-adv-x="513" unicode="ٳ"/><glyph d="M342 1516l-.002-1077c0-39.333 1.333-72.666 4-99.999s9.834-49.5 21.501-66.5 28.834-29.5 51.501-37.5 54-12 94-12v-245h-39c-68 0-123.5 10.833-166.5 32.5s-76.667 50.834-101 87.501-41 79.334-50 128.001-13.5 100-13.5 154v1136h199zM512.998-22.003c-23.333 0-40.833 11.168-52.5 33.501s-17.5 52.166-17.5 89.5c0 36.666 5.833 66.166 17.5 88.5s29.167 33.5 52.5 33.5h342v-245h-342zm235 1411.003c-13.333 3.333-26.333 5.833-39 7.5s-23.334 2.5-32.001 2.5c-26 0-47.833-5.333-65.5-16s-26.5-29-26.5-55c0-26.667 10-46.5 30-59.5s49-19.5 87-19.5h92v-111h-369v105h82l1 4c-28 34.667-42 69.667-42 105 0 23.333 4.833 44.833 14.5 64.5s23.5 36.667 41.5 51 39.667 25.5 65 33.5 53.333 12 84 12c20.667 0 46.334-2.667 77.001-8v-116z" glyph-name="uni0675.fina" horiz-adv-x="855" unicode="ٵ"/><glyph d="M0-196c36.667-14 70.834-25.832 102.501-35.499s61.667-17.5 90-23.5 55.5-10.333 81.5-13 51.667-4 77-4c46 0 85.333 5.333 118 16s60 25 82 43 39.5 38.5 52.5 61.5 22.833 46.5 29.5 70.5c2 6.667 4.167 15.667 6.5 27s4.166 23 5.499 35h-97c-130 0-230 29.667-300 89s-105 144.333-105 255c0 51.333 8.833 103.166 26.5 155.499S211.334 580 242.001 622s66.334 76.333 107.001 103 84 40 130 40c51.333 0 97.666-14.5 138.999-43.5s81-74.167 119-135.5c30-48 54-102.667 72-164s30.333-127.666 37-198.999h180v-245h-182c-8-71.333-23.833-137.333-47.5-198S740.667-333.333 700-378s-89.834-79.667-147.501-105-124.5-38-200.5-38c-28.667 0-56.834 1.333-84.501 4s-55.667 7.167-84 13.5S125.832-489 95.499-479 33.333-457 0-443v247zm626 512.001c-8 24.667-17.668 48.832-29.001 72.499s-23.5 44.834-36.5 63.501-27.167 33.667-42.5 45-31 17-47 17c-18 0-35-6-51-18s-30.167-26.667-42.5-44-22.166-36-29.499-56-11-38.333-11-55c0-45.333 16.833-77 50.5-95s85.167-27 154.5-27h105l-8.5 48.5c-3 17-7.167 33.167-12.5 48.5zM908.999 1312c-13.333 3.333-26.333 5.833-39 7.5s-23.334 2.5-32.001 2.5c-26 0-47.833-5.333-65.5-16s-26.5-29-26.5-55c0-26.667 10-46.5 30-59.5s49-19.5 87-19.5h92v-111h-369v105h82l1 4c-28 34.667-42 69.667-42 105 0 23.333 4.833 44.833 14.5 64.5s23.5 36.667 41.5 51 39.667 25.5 65 33.5 53.333 12 84 12c20.667 0 46.334-2.667 77.001-8v-116z" glyph-name="uni0676.fina" horiz-adv-x="1026" unicode="ٶ"/><glyph d="M0-196c70.667-28 133.169-47.664 187.502-58.997s106.5-17 156.5-17c58 0 106.167 8.167 144.5 24.5s69.166 37.666 92.499 63.999 40.333 56.666 51 90.999 17.667 69.5 21 105.5c-48-18.667-98-28-150-28-42.667 0-85.167 6.333-127.5 19s-80.5 32.667-114.5 60-61.5 62.5-82.5 105.5-31.5 94.833-31.5 155.5c0 34 4 68.5 12 103.5s19.333 68.833 34 101.5 32.167 63.334 52.5 92 43 53.5 68 74.5 51.667 37.668 80 50 58.166 18.5 89.499 18.5c51.333 0 97.5-14.5 138.5-43.5s80.5-73.5 118.5-133.5c39.333-61.332 68.333-133.832 87-217.5s28-172.833 28-267.5c0-85.333-9.833-165.833-29.5-241.5S775.166-280.333 733.499-337s-94.667-101.5-159-134.5S433.333-521 344-521c-28 0-55.667 1.5-83 4.5s-55 7.667-83 14S121.333-488 92-478s-60 21.667-92 35v247zm649.002 437.003c-4 24.667-11.331 52.67-21.998 84.003s-23.667 61-39 89-32.5 51.667-51.5 71-39.5 29-61.5 29c-18.667 0-36.167-6-52.5-18s-30.5-26.833-42.5-44.5-21.5-36.834-28.5-57.501-10.5-39.334-10.5-56.001c0-22 4.833-40.667 14.5-56s22.667-27.833 39-37.5 35.166-16.834 56.499-21.501 43.666-7 66.999-7c22 0 44.5 1.833 67.5 5.5s44.167 10.167 63.5 19.5zM909.004 1312.01c-13.333 3.333-26.333 5.833-39 7.5s-23.334 2.5-32.001 2.5c-26 0-47.833-5.333-65.5-16s-26.5-29-26.5-55c0-26.667 10-46.5 30-59.5s49-19.5 87-19.5h92v-111h-369v105h82l1 4c-28 34.667-42 69.667-42 105 0 23.333 4.833 44.833 14.5 64.5s23.5 36.667 41.5 51 39.667 25.5 65 33.5 53.333 12 84 12c20.667 0 46.334-2.667 77.001-8v-116zm-559-294l-51.003 39.999c-14.667 12-27 22.667-37 32-6.667-1.333-13.834-2.333-21.5-3l-22.5-2c-7.334-.667-14-1-20-1h-13c-42.668 0-81.668 2.5-117 7.5s-72.667 12.833-112 23.5l21 98c32-8.667 61.5-15.667 88.5-21s55.167-8.666 84.5-9.999c5.333 0 10.833-.167 16.5-.5s11.5-.5 17.5-.5c-.667.667-1 1.167-1 1.5s-.333.833-1 1.5c-30 42-45 83.667-45 125 0 26.667 5.333 50.167 16 70.5s24.834 37.5 42.501 51.5 37.834 24.667 60.501 32 45.667 11 69 11c22 0 43.667-3.333 65-10s40.333-17 57-31 30-31.667 40-53 15-46.333 15-75c0-42.667-11-78.667-33-108s-52.667-53-92-71c3.333-4.667 7.333-9 12-13s13.334-10.667 26.001-20zM388.001 1304c0 24-6.667 41.501-20 52.501s-28.666 16.5-45.999 16.5-33.333-5.333-48-16-22-27.334-22-50.001c0-17.333 4.667-35 14-53s21.666-35.667 36.999-53c25.333 9.333 45.833 22.5 61.5 39.5s23.5 38.167 23.5 63.5z" arabic-form="isolated" glyph-name="uni0677" horiz-adv-x="1026" unicode="ٷ"/><glyph d="M513 837l-.001-474.001c0-80-10.333-145-31-195s-48.334-89.167-83.001-117.5-74.5-47.5-119.5-57.5-91.833-15-140.5-15h-139c-23.333 0-40.833 11.333-52.5 34s-17.5 52.334-17.5 89.001 5.833 66.167 17.5 88.5S-23.335 223-.002 223h149c28 0 52.333 1.333 73 4s37.834 9 51.501 19 23.834 24.833 30.501 44.5 10 46.167 10 79.5v467h199zm395.999 471c-13.333 3.333-26.333 5.833-39 7.5s-23.334 2.5-32.001 2.5c-26 0-47.833-5.333-65.5-16s-26.5-29-26.5-55c0-26.667 10-46.5 30-59.5s49-19.5 87-19.5h92v-111h-369v105h82l1 4c-28 34.667-42 69.667-42 105 0 23.333 4.833 44.833 14.5 64.5s23.5 36.667 41.5 51 39.667 25.5 65 33.5 53.333 12 84 12c20.667 0 46.334-2.667 77.001-8v-116z" glyph-name="uni0678.init" horiz-adv-x="1026" unicode="ٸ"/><glyph d="M513 439c0-37.333 1.001-69.496 3.001-96.496s8.5-49.333 19.5-67 28-30.834 51-39.501 55.5-13 97.5-13v-245h-36c-60.667 0-111.5 9.5-152.5 28.5s-71.167 48.5-90.5 88.5h-5c-17.333-23.333-36.833-42.5-58.5-57.5s-44.334-27-68.001-36-47.5-15.167-71.5-18.5-46.333-5-67-5H0c-23.333 0-40.833 11.167-52.5 33.5S-70 63.669-70 101.002c0 36.667 5.833 66.167 17.5 88.5s29.167 33.5 52.5 33.5h149c26 0 49.333 1.667 70 5s38 10.166 52 20.499 24.667 25.166 32 44.499 11 45 11 77v467h199V439zm396.001 869c-13.333 3.333-26.333 5.833-39 7.5S846.667 1318 838 1318c-26 0-47.833-5.333-65.5-16s-26.5-29-26.5-55c0-26.667 10-46.5 30-59.5s49-19.5 87-19.5h92v-111H586v105h82l1 4c-28 34.667-42 69.667-42 105 0 23.333 4.833 44.833 14.5 64.5s23.5 36.667 41.5 51 39.667 25.5 65 33.5 53.333 12 84 12c20.667 0 46.334-2.667 77.001-8v-116zm-225-1329.996c-23.333 0-40.833 11.168-52.5 33.5s-17.5 52.167-17.5 89.5c0 36.667 5.833 66.167 17.5 88.5s29.167 33.5 52.5 33.5h342v-245h-342z" glyph-name="uni0678.medi" horiz-adv-x="1026" unicode="ٸ"/><glyph d="M386 556c-13.333-49.333-24.001-95.663-32.001-138.996s-12-89.333-12-138c0-43.333 5.167-83.5 15.5-120.5s29.5-69.167 57.5-96.5 66.333-48.833 115-64.5 111.667-23.5 189-23.5c48.667 0 92.667 1.833 132 5.5s73 9.834 101 18.501 49.667 19.667 65 33 23 30 23 50c0 22-5.667 42.167-17 60.5S999.333 178.671 986 198.004c-13.333 20.667-23.666 42.167-30.999 64.5s-11 45.833-11 70.5c0 34.667 6.5 67.167 19.5 97.5s30.833 56.666 53.5 78.999 49.5 39.833 80.5 52.5 64.833 19 101.5 19c24.667 0 47.667-2.667 69-8s41.166-13.833 59.499-25.5 36-27 53-46 33.5-41.833 49.5-68.5l56.5-92c16.333-26 34.333-47.833 54-65.5s42.5-30.834 68.5-39.501 59.667-13 101-13v-245h-21c-53.333 0-98.666 6.167-135.999 18.5s-70.5 30.666-99.5 54.999-55.667 54.5-80 90.5-50.166 77.333-77.499 124c-19.333 32.667-36.833 55-52.5 67s-32.834 18-51.501 18c-16.667 0-30-5.333-40-16s-15-24.667-15-42c0-15.333 4.5-30 13.5-44s20.167-29.667 33.5-47c33.333-43.333 50-90.333 50-141 0-60-16.333-110.833-49-152.5S1109.667-167.333 1057-194s-112-46-178-58-132.333-18-199-18c-105.333 0-192.5 14.5-261.5 43.5s-124 67.5-165 115.5S183.667-7.5 167 55.5 142 184 142 252c0 52 4 103.333 12 154s18.667 100.667 32 150h200zm1358 752c-13.333 3.333-26.333 5.833-39 7.5s-23.334 2.5-32.001 2.5c-26 0-47.833-5.333-65.5-16s-26.5-29-26.5-55c0-26.667 10-46.5 30-59.5s49-19.5 87-19.5h92v-111h-369v105h82l1 4c-28 34.667-42 69.667-42 105 0 23.333 4.833 44.833 14.5 64.5s23.5 36.667 41.5 51 39.667 25.5 65 33.5 53.333 12 84 12c20.667 0 46.334-2.667 77.001-8v-116z" glyph-name="uni0678.fina" horiz-adv-x="1710" unicode="ٸ"/><glyph d="M374 650c-5.333-22-9.837-42.336-13.504-61.003s-7-36.5-10-53.5-5.167-33.667-6.5-50-2-33.166-2-50.499c0-16 .833-31.167 2.5-45.5s4.834-28 9.501-41 11.167-25.333 19.5-37 19.166-22.5 32.5-32.5c20-15.333 45-27.333 75-36s68-15.167 114-19.5 101.332-7.166 166-8.499 141.666-2 231-2c99.332 0 182.332 1.333 249 4s120 9.5 160 20.5 68.332 28 85 51 25 54.833 25 95.5v453h199V377c0-63.333-9-117.5-27-162.5s-43.668-82.5-77-112.5-73.167-53.833-119.5-71.5-97.666-31-153.999-40-117.166-14.667-182.499-17S1017-30 947-30c-80 0-154.5.667-223.5 2S591.332-22.668 534-16 425.333 1.333 380 16s-84.333 35-117 61c-23.333 18.667-42.833 40-58.5 64s-28.334 49.5-38 76.5-16.668 55.167-21 84.5-6.5 59-6.5 89c0 45.333 3.332 89.333 10 132s15.333 85 26 127h199zm238.996 376c20.667-2.667 41.332-4.5 61.999-5.5s42.334-1.5 65.001-1.5v494h116v-322l3-1c25.333 34.667 53.5 63 84.5 85s68.167 33 111.5 33c34 0 63.167-6.5 87.5-19.5s44.5-30.333 60.5-52 27.667-46.5 35-74.5 11-57 11-87c0-44-6.833-78-20.5-102s-32.334-41.667-56.001-53-51.5-18-83.5-20-66.667-3-104-3c-47.333 0-89.166.333-125.499 1s-68.5 1.5-96.5 2.5-52.833 2.333-74.5 4-41.5 3.5-59.5 5.5zm359.998-10c32 0 58.5.333 79.5 1s38 3 51 7 22.167 10 27.5 18 8 19.667 8 35c0 37.333-9.333 65.5-28 84.5s-41 28.5-67 28.5c-20 0-39.167-5-57.5-15s-35.5-23.167-51.5-39.5-30.5-34.833-43.5-55.5-24.5-42-34.5-64h116z" arabic-form="isolated" glyph-name="afii57511" horiz-adv-x="1881" unicode="ٹ"/><glyph d="M374 650c-5.333-22-9.837-42.336-13.504-61.003s-7-36.5-10-53.5-5.167-33.667-6.5-50-2-33.166-2-50.499c0-16 .833-31.167 2.5-45.5s4.834-28 9.501-41 11.167-25.333 19.5-37 19.166-22.5 32.5-32.5c20-15.333 45-27.333 75-36s68-15.167 114-19.5 101.332-7.166 166-8.499 141.666-2 231-2c99.332 0 182.332 1.333 249 4s120 9.5 160 20.5 68.332 28 85 51 25 54.833 25 95.5v453h199V377c0-63.333-9-117.5-27-162.5s-43.668-82.5-77-112.5-73.167-53.833-119.5-71.5-97.666-31-153.999-40-117.166-14.667-182.499-17S1017-30 947-30c-80 0-154.5.667-223.5 2S591.332-22.668 534-16 425.333 1.333 380 16s-84.333 35-117 61c-23.333 18.667-42.833 40-58.5 64s-28.334 49.5-38 76.5-16.668 55.167-21 84.5-6.5 59-6.5 89c0 45.333 3.332 89.333 10 132s15.333 85 26 127h199zm679 410H830v203h223v-203zm0 280H830v203h223v-203z" arabic-form="isolated" glyph-name="uni067A" horiz-adv-x="1881" unicode="ٺ"/><glyph d="M374 650c-5.333-22-9.837-42.336-13.504-61.003s-7-36.5-10-53.5-5.167-33.667-6.5-50-2-33.166-2-50.499c0-16 .833-31.167 2.5-45.5s4.834-28 9.501-41 11.167-25.333 19.5-37 19.166-22.5 32.5-32.5c20-15.333 45-27.333 75-36s68-15.167 114-19.5 101.332-7.166 166-8.499 141.666-2 231-2c99.332 0 182.332 1.333 249 4s120 9.5 160 20.5 68.332 28 85 51 25 54.833 25 95.5v453h199V377c0-63.333-9-117.5-27-162.5s-43.668-82.5-77-112.5-73.167-53.833-119.5-71.5-97.666-31-153.999-40-117.166-14.667-182.499-17S1017-30 947-30c-80 0-154.5.667-223.5 2S591.332-22.668 534-16 425.333 1.333 380 16s-84.333 35-117 61c-23.333 18.667-42.833 40-58.5 64s-28.334 49.5-38 76.5-16.668 55.167-21 84.5-6.5 59-6.5 89c0 45.333 3.332 89.333 10 132s15.333 85 26 127h199zm679-1238.003H830v203h223v-203zm0 280H830v203h223v-203z" arabic-form="isolated" glyph-name="uni067B" horiz-adv-x="1881" unicode="ٻ"/><glyph d="M513 837l-.001-474.001c0-80-10.333-145-31-195s-48.334-89.167-83.001-117.5-74.5-47.5-119.5-57.5-91.833-15-140.5-15h-139c-23.333 0-40.833 11.333-52.5 34s-17.5 52.334-17.5 89.001 5.833 66.167 17.5 88.5S-23.335 223-.002 223h149c28 0 52.333 1.333 73 4s37.834 9 51.501 19 23.834 24.833 30.501 44.5 10 46.167 10 79.5v467h199zm-163.001 223h-222v203h222v-203zm337 0h-222v203h222v-203zm-402-993.001c23.333 0 45.166-4.333 65.499-13s38.166-20.5 53.499-35.5 27.333-33 36-54 13-43.5 13-67.5c0-23.333-4.333-45-13-65s-20.667-37.667-36-53-33.166-27.333-53.499-36-42.166-13-65.499-13c-24.667 0-47.5 4.333-68.5 13s-39.167 20.667-54.5 36-27.333 33-36 53-13 41.667-13 65c0 24 4.333 46.5 13 67.5s20.5 39 35.5 54 33 26.833 54 35.5 44.167 13 69.5 13zm0-254c22 0 40.333 8.167 55 24.5s22 36.166 22 59.499c0 25.333-7.333 46.166-22 62.499s-33 24.5-55 24.5c-24 0-43.5-8.167-58.5-24.5s-22.5-37.166-22.5-62.499c0-23.333 7.5-43.166 22.5-59.499s34.5-24.5 58.5-24.5z" glyph-name="uni067C.init" horiz-adv-x="684" unicode="ټ"/><glyph d="M513 439c0-37.333 1.001-69.496 3.001-96.496s8.5-49.333 19.5-67 28-30.834 51-39.501 55.5-13 97.5-13v-245h-36c-60.667 0-111.5 9.5-152.5 28.5s-71.167 48.5-90.5 88.5h-5c-17.333-23.333-36.833-42.5-58.5-57.5s-44.334-27-68.001-36-47.5-15.167-71.5-18.5-46.333-5-67-5H0c-23.333 0-40.833 11.167-52.5 33.5S-70 63.669-70 101.002c0 36.667 5.833 66.167 17.5 88.5s29.167 33.5 52.5 33.5h149c26 0 49.333 1.667 70 5s38 10.166 52 20.499 24.667 25.166 32 44.499 11 45 11 77v467h199V439zm-162.999 621h-222v203h222v-203zm337 0h-222v203h222v-203zm-431-992.996c23.333 0 45.166-4.333 65.499-13s38.166-20.5 53.499-35.5 27.333-33 36-54 13-43.5 13-67.5c0-23.333-4.333-45-13-65s-20.667-37.667-36-53-33.166-27.333-53.499-36-42.166-13-65.499-13c-24.667 0-47.5 4.333-68.5 13s-39.167 20.667-54.5 36-27.333 33-36 53-13 41.667-13 65c0 24 4.333 46.5 13 67.5s20.5 39 35.5 54 33 26.833 54 35.5 44.167 13 69.5 13zm0-254c22 0 40.333 8.167 55 24.5s22 36.166 22 59.499c0 25.333-7.333 46.166-22 62.499s-33 24.5-55 24.5c-24 0-43.5-8.167-58.5-24.5s-22.5-37.166-22.5-62.499c0-23.333 7.5-43.166 22.5-59.499s34.5-24.5 58.5-24.5z" glyph-name="uni067C.medi" horiz-adv-x="684" unicode="ټ"/><glyph d="M374 650l-12.995-61c-4-18.667-7.333-36.5-10-53.5s-4.834-33.667-6.501-50-2.5-33.166-2.5-50.499c0-16 .833-31.167 2.5-45.5s4.834-28 9.5-41 11.168-25.333 19.5-37 19.167-22.5 32.5-32.5c20-15.333 45-27.333 75-36s68-15.167 114-19.5 101.333-7.166 166-8.499 141.667-2 231-2c99.333 0 182.333 1.333 249 4s120 9.5 160 20.5 68.333 28 85 51 25 54.833 25 95.5v453h199v-398c0-37.333 1-69.5 3-96.5s8.5-49.333 19.5-67 28-30.834 51-39.501 55.5-13 97.5-13v-245h-40c-58.667 0-106.834 9.833-144.501 29.5s-66.5 49.5-86.5 89.5h-6c-32-30-70.333-53.5-115-70.5s-95.334-29.667-152.001-38-118.834-13.5-186.501-15.5-140.5-3-218.5-3c-72.667 0-142.334.667-209.001 2s-128.667 5.333-186 12S427.667 1.335 381 16.002s-86 35-118 61c-23.333 18.667-42.833 40-58.5 64s-28.334 49.667-38.001 77-16.667 55.666-21 84.999-6.5 58.666-6.5 87.999c0 45.333 3.333 89.333 10 132s15.334 85 26 127h199zm510.005 410h-222v203h222v-203zm336.995 0H999v203h222v-203zM944.005 43c23.333 0 45.166-4.333 65.499-13s38.166-20.5 53.499-35.5 27.333-33 36-54 13-43.5 13-67.5c0-23.333-4.333-45-13-65s-20.667-37.667-36-53-33.166-27.333-53.499-36-42.166-13-65.499-13c-24.667 0-47.5 4.333-68.5 13s-39.167 20.667-54.5 36-27.333 33-36 53-13 41.667-13 65c0 24 4.333 46.5 13 67.5s20.5 39 35.5 54 33 26.833 54 35.5 44.167 13 69.5 13zm0-254c22 0 40.333 8.167 55 24.5s22 36.166 22 59.499c0 25.333-7.333 46.166-22 62.499s-33 24.5-55 24.5c-24 0-43.5-8.167-58.5-24.5s-22.5-37.166-22.5-62.499c0-23.333 7.5-43.166 22.5-59.499s34.5-24.5 58.5-24.5z" glyph-name="uni067C.fina" horiz-adv-x="1881" unicode="ټ"/><glyph d="M513 837l-.001-474.001c0-80-10.333-145-31-195s-48.334-89.167-83.001-117.5-74.5-47.5-119.5-57.5-91.833-15-140.5-15h-139c-23.333 0-40.833 11.333-52.5 34s-17.5 52.334-17.5 89.001 5.833 66.167 17.5 88.5S-23.335 223-.002 223h149c28 0 52.333 1.333 73 4s37.834 9 51.501 19 23.834 24.833 30.501 44.5 10 46.167 10 79.5v467h199zm-164.001 503h-222v203h222v-203zm338 0h-222v203h222v-203zm-169-280h-223v203h223v-203z" glyph-name="uni067D.init" horiz-adv-x="684" unicode="ٽ"/><glyph d="M513 439c0-37.333 1.001-69.496 3.001-96.496s8.5-49.333 19.5-67 28-30.834 51-39.501 55.5-13 97.5-13v-245h-36c-60.667 0-111.5 9.5-152.5 28.5s-71.167 48.5-90.5 88.5h-5c-17.333-23.333-36.833-42.5-58.5-57.5s-44.334-27-68.001-36-47.5-15.167-71.5-18.5-46.333-5-67-5H0c-23.333 0-40.833 11.167-52.5 33.5S-70 63.669-70 101.002c0 36.667 5.833 66.167 17.5 88.5s29.167 33.5 52.5 33.5h149c26 0 49.333 1.667 70 5s38 10.166 52 20.499 24.667 25.166 32 44.499 11 45 11 77v467h199V439zm-163.999 901h-222v203h222v-203zm338 0h-222v203h222v-203zm-169-280h-223v203h223v-203z" glyph-name="uni067D.medi" horiz-adv-x="684" unicode="ٽ"/><glyph d="M374 650l-12.995-61c-4-18.667-7.333-36.5-10-53.5s-4.834-33.667-6.501-50-2.5-33.166-2.5-50.499c0-16 .833-31.167 2.5-45.5s4.834-28 9.5-41 11.168-25.333 19.5-37 19.167-22.5 32.5-32.5c20-15.333 45-27.333 75-36s68-15.167 114-19.5 101.333-7.166 166-8.499 141.667-2 231-2c99.333 0 182.333 1.333 249 4s120 9.5 160 20.5 68.333 28 85 51 25 54.833 25 95.5v453h199v-398c0-37.333 1-69.5 3-96.5s8.5-49.333 19.5-67 28-30.834 51-39.501 55.5-13 97.5-13v-245h-40c-58.667 0-106.834 9.833-144.501 29.5s-66.5 49.5-86.5 89.5h-6c-32-30-70.333-53.5-115-70.5s-95.334-29.667-152.001-38-118.834-13.5-186.501-15.5-140.5-3-218.5-3c-72.667 0-142.334.667-209.001 2s-128.667 5.333-186 12S427.667 1.335 381 16.002s-86 35-118 61c-23.333 18.667-42.833 40-58.5 64s-28.334 49.667-38.001 77-16.667 55.666-21 84.999-6.5 58.666-6.5 87.999c0 45.333 3.333 89.333 10 132s15.334 85 26 127h199zm509.005 690h-222v203h222v-203zm337.995 0H999v203h222v-203zm-169-280H829v203h223v-203z" glyph-name="uni067D.fina" horiz-adv-x="1881" unicode="ٽ"/><glyph d="M374 650c-5.333-22-9.837-42.336-13.504-61.003s-7-36.5-10-53.5-5.167-33.667-6.5-50-2-33.166-2-50.499c0-16 .833-31.167 2.5-45.5s4.834-28 9.501-41 11.167-25.333 19.5-37 19.166-22.5 32.5-32.5c20-15.333 45-27.333 75-36s68-15.167 114-19.5 101.332-7.166 166-8.499 141.666-2 231-2c99.332 0 182.332 1.333 249 4s120 9.5 160 20.5 68.332 28 85 51 25 54.833 25 95.5v453h199V377c0-63.333-9-117.5-27-162.5s-43.668-82.5-77-112.5-73.167-53.833-119.5-71.5-97.666-31-153.999-40-117.166-14.667-182.499-17S1017-30 947-30c-80 0-154.5.667-223.5 2S591.332-22.668 534-16 425.333 1.333 380 16s-84.333 35-117 61c-23.333 18.667-42.833 40-58.5 64s-28.334 49.5-38 76.5-16.668 55.167-21 84.5-6.5 59-6.5 89c0 45.333 3.332 89.333 10 132s15.333 85 26 127h199zm508.996-958.003h-222v203h222v-203zm338.004 0H999v203h222v-203zm-169-280H829v203h223v-203z" arabic-form="isolated" glyph-name="afii57506" horiz-adv-x="1881" unicode="پ"/><glyph d="M374 650c-5.333-22-9.837-42.336-13.504-61.003s-7-36.5-10-53.5-5.167-33.667-6.5-50-2-33.166-2-50.499c0-16 .833-31.167 2.5-45.5s4.834-28 9.501-41 11.167-25.333 19.5-37 19.166-22.5 32.5-32.5c20-15.333 45-27.333 75-36s68-15.167 114-19.5 101.332-7.166 166-8.499 141.666-2 231-2c99.332 0 182.332 1.333 249 4s120 9.5 160 20.5 68.332 28 85 51 25 54.833 25 95.5v453h199V377c0-63.333-9-117.5-27-162.5s-43.668-82.5-77-112.5-73.167-53.833-119.5-71.5-97.666-31-153.999-40-117.166-14.667-182.499-17S1017-30 947-30c-80 0-154.5.667-223.5 2S591.332-22.668 534-16 425.333 1.333 380 16s-84.333 35-117 61c-23.333 18.667-42.833 40-58.5 64s-28.334 49.5-38 76.5-16.668 55.167-21 84.5-6.5 59-6.5 89c0 45.333 3.332 89.333 10 132s15.333 85 26 127h199zm508.996 410h-222v203h222v-203zm338.004 0H999v203h222v-203zm-338.004 280h-222v203h222v-203zm338.004 0H999v203h222v-203z" arabic-form="isolated" glyph-name="uni067F" horiz-adv-x="1881" unicode="ٿ"/><glyph d="M374 650c-5.333-22-9.837-42.336-13.504-61.003s-7-36.5-10-53.5-5.167-33.667-6.5-50-2-33.166-2-50.499c0-16 .833-31.167 2.5-45.5s4.834-28 9.501-41 11.167-25.333 19.5-37 19.166-22.5 32.5-32.5c20-15.333 45-27.333 75-36s68-15.167 114-19.5 101.332-7.166 166-8.499 141.666-2 231-2c99.332 0 182.332 1.333 249 4s120 9.5 160 20.5 68.332 28 85 51 25 54.833 25 95.5v453h199V377c0-63.333-9-117.5-27-162.5s-43.668-82.5-77-112.5-73.167-53.833-119.5-71.5-97.666-31-153.999-40-117.166-14.667-182.499-17S1017-30 947-30c-80 0-154.5.667-223.5 2S591.332-22.668 534-16 425.333 1.333 380 16s-84.333 35-117 61c-23.333 18.667-42.833 40-58.5 64s-28.334 49.5-38 76.5-16.668 55.167-21 84.5-6.5 59-6.5 89c0 45.333 3.332 89.333 10 132s15.333 85 26 127h199zM882.996-588.003h-222v203h222v-203zm338.004 0H999v203h222v-203zm-338.004 280h-222v203h222v-203zm338.004 0H999v203h222v-203z" arabic-form="isolated" glyph-name="uni0680" horiz-adv-x="1881" unicode="ڀ"/><glyph d="M171 819c45.333 13.333 89.503 23.666 132.503 30.999s89.833 11 140.5 11c48 0 90.833-4 128.5-12s73-18.333 106-31 64.667-27.167 95-43.5l94.5-48.5c20.667-10.667 41.5-19.667 62.5-27s43.167-13.666 66.5-18.999 48.333-9.5 75-12.5 56.667-5.5 90-7.5l-45-268c-32-7.333-67.667-22.833-107-46.5l-131-81.5-158.5-96.5C662.836 133.833 599.669 103 531.002 75S387.668 23.833 307.001 5.5s-168-27.5-262-27.5h-45c-23.333 0-40.833 11.167-52.5 33.5s-17.5 52.166-17.5 89.499c0 36.667 5.833 66.167 17.5 88.5s29.167 33.5 52.5 33.5h54c78.667 0 153.334 8.167 224.001 24.5s138.167 37.833 202.5 64.5 125.666 56.834 183.999 90.501S779.667 470.667 835 506v7c-31.333 18-61.5 34-90.5 48s-59 25.667-90 35-64.333 16.5-100 21.5S478.333 625 433 625c-49.333 0-94.833-2.833-136.5-8.5S213 602.333 171 591v228zm577.003 474c-13.333 3.333-26.333 5.833-39 7.5s-23.334 2.5-32.001 2.5c-26 0-47.833-5.333-65.5-16s-26.5-29-26.5-55c0-26.667 10-46.5 30-59.5s49-19.5 87-19.5h92v-111h-369v105h82l1 4c-28 34.667-42 69.667-42 105 0 23.333 4.833 44.833 14.5 64.5s23.5 36.667 41.5 51 39.667 25.5 65 33.5 53.333 12 84 12c20.667 0 46.334-2.667 77.001-8v-116z" glyph-name="uni0681.init" horiz-adv-x="1197" unicode="ځ"/><glyph d="M171 819c45.333 13.333 89.501 23.669 132.501 31.002s89.833 11 140.5 11c46.667 0 88.834-3.833 126.501-11.5s72.834-17.834 105.501-30.501 64.334-27 95.001-43l96-49c22-11.333 43.667-20.833 65-28.5s43.666-14 66.999-19 48.166-9 74.499-12 55.833-5.5 88.5-7.5l-45-268c-24.667-6-51.667-17-81-33s-61-34.667-95-56c2-16 5.667-29.167 11-39.5s13.666-18.5 24.999-24.5 26.166-10.167 44.499-12.5 41.5-3.5 69.5-3.5h106v-245h-53c-60.667 0-111 6-151 18s-72.5 28.833-97.5 50.5-43.667 47.5-56 77.5-21.166 62.667-26.499 98c-46.667-28.667-97.167-57.334-151.5-86.001s-113.333-54.667-177-78-132-42.5-205-57.5S128.334-22 45.001-22h-45c-23.333 0-40.833 11.167-52.5 33.5s-17.5 52.166-17.5 89.499c0 36.667 5.833 66.167 17.5 88.5s29.167 33.5 52.5 33.5h54c78.667 0 153.334 8.167 224.001 24.5s138.167 37.833 202.5 64.5 125.666 56.834 183.999 90.501S779.667 470.667 835 506v7c-31.333 18-61.5 34-90.5 48s-59 25.667-90 35-64.333 16.5-100 21.5S478.333 625 433 625c-49.333 0-94.833-2.833-136.5-8.5S213 602.333 171 591v228zm577.001 474c-13.333 3.333-26.333 5.833-39 7.5S685.667 1303 677 1303c-26 0-47.833-5.333-65.5-16s-26.5-29-26.5-55c0-26.667 10-46.5 30-59.5s49-19.5 87-19.5h92v-111H425v105h82l1 4c-28 34.667-42 69.667-42 105 0 23.333 4.833 44.833 14.5 64.5s23.5 36.667 41.5 51 39.667 25.5 65 33.5 53.333 12 84 12c20.667 0 46.334-2.667 77.001-8v-116z" glyph-name="uni0681.medi" horiz-adv-x="1197" unicode="ځ"/><glyph d="M171 896c42 13.333 83.669 23.501 125.002 30.501s86 10.5 134 10.5c49.333 0 92.833-4 130.5-12s72.667-18.167 105-30.5 63.166-25.5 92.499-39.5 60.833-27.167 94.5-39.5 70.667-22.833 111-31.5S1050.667 770.667 1104 770l-46-262-55.5-16-54.5-16c6-54.667 15.167-98.667 27.5-132s28.5-59 48.5-77 44.333-29.833 73-35.5 62-8.5 100-8.5V-22h-29c-58 0-109 8.167-153 24.5s-81.5 42.333-112.5 78-55.833 81.667-74.5 138-31.667 124.166-39 203.499c-90.667-34-165.667-68.833-225-104.5s-106.5-71.667-141.5-108-59.667-72.666-74-108.999S327 28 327-8c0-34 6.167-67.667 18.5-101s33.333-63.333 63-90 69.167-48.334 118.5-65.001 111.333-25 186-25c62.667 0 126.667 6.667 192 20s136 33.666 212 60.999v-234c-40.667-14-78.834-26-114.501-36s-70-18.167-103-24.5-65.5-11-97.5-14-64.333-4.5-97-4.5c-98 0-183.333 12.167-256 36.5s-132.667 58-180 101-82.666 94.333-105.999 154-35 124.834-35 195.501c0 39.333 3.833 79.5 11.5 120.5s20.667 81.667 39 122 42.5 80 72.5 119 67.167 76.167 111.5 111.5 96.666 68.5 156.999 99.5 129.833 59.167 208.5 84.5v9c-23.333 12-45 22.5-65 31.5s-40.667 16.5-62 22.5-44.333 10.333-69 13-53 4-85 4c-49.333 0-97.666-3.167-144.999-9.5S211 678.333 171 667v229zm597.002 503c-13.333 3.333-26.333 5.833-39 7.5s-23.334 2.5-32.001 2.5c-26 0-47.833-5.333-65.5-16s-26.5-29-26.5-55c0-26.667 10-46.5 30-59.5s49-19.5 87-19.5h92v-111h-369v105h82l1 4c-28 34.667-42 69.667-42 105 0 23.333 4.833 44.833 14.5 64.5s23.5 36.667 41.5 51 39.667 25.5 65 33.5 53.333 12 84 12c20.667 0 46.334-2.667 77.001-8v-116z" glyph-name="uni0681.fina" horiz-adv-x="1197" unicode="ځ"/><glyph d="M171 819c45.333 13.333 89.503 23.666 132.503 30.999s89.833 11 140.5 11c48 0 90.833-4 128.5-12s73-18.333 106-31 64.667-27.167 95-43.5l94.5-48.5c20.667-10.667 41.5-19.667 62.5-27s43.167-13.666 66.5-18.999 48.333-9.5 75-12.5 56.667-5.5 90-7.5l-45-268c-32-7.333-67.667-22.833-107-46.5l-131-81.5-158.5-96.5C662.836 133.833 599.669 103 531.002 75S387.668 23.833 307.001 5.5s-168-27.5-262-27.5h-45c-23.333 0-40.833 11.167-52.5 33.5s-17.5 52.166-17.5 89.499c0 36.667 5.833 66.167 17.5 88.5s29.167 33.5 52.5 33.5h54c78.667 0 153.334 8.167 224.001 24.5s138.167 37.833 202.5 64.5 125.666 56.834 183.999 90.501S779.667 470.667 835 506v7c-31.333 18-61.5 34-90.5 48s-59 25.667-90 35-64.333 16.5-100 21.5S478.333 625 433 625c-49.333 0-94.833-2.833-136.5-8.5S213 602.333 171 591v228zm539.003 220h-223v203h223v-203zm0 280h-223v203h223v-203z" glyph-name="uni0682.init" horiz-adv-x="1197" unicode="ڂ"/><glyph d="M171 819c45.333 13.333 89.501 23.669 132.501 31.002s89.833 11 140.5 11c46.667 0 88.834-3.833 126.501-11.5s72.834-17.834 105.501-30.501 64.334-27 95.001-43l96-49c22-11.333 43.667-20.833 65-28.5s43.666-14 66.999-19 48.166-9 74.499-12 55.833-5.5 88.5-7.5l-45-268c-24.667-6-51.667-17-81-33s-61-34.667-95-56c2-16 5.667-29.167 11-39.5s13.666-18.5 24.999-24.5 26.166-10.167 44.499-12.5 41.5-3.5 69.5-3.5h106v-245h-53c-60.667 0-111 6-151 18s-72.5 28.833-97.5 50.5-43.667 47.5-56 77.5-21.166 62.667-26.499 98c-46.667-28.667-97.167-57.334-151.5-86.001s-113.333-54.667-177-78-132-42.5-205-57.5S128.334-22 45.001-22h-45c-23.333 0-40.833 11.167-52.5 33.5s-17.5 52.166-17.5 89.499c0 36.667 5.833 66.167 17.5 88.5s29.167 33.5 52.5 33.5h54c78.667 0 153.334 8.167 224.001 24.5s138.167 37.833 202.5 64.5 125.666 56.834 183.999 90.501S779.667 470.667 835 506v7c-31.333 18-61.5 34-90.5 48s-59 25.667-90 35-64.333 16.5-100 21.5S478.333 625 433 625c-49.333 0-94.833-2.833-136.5-8.5S213 602.333 171 591v228zm539.001 220h-223v203h223v-203zm0 280h-223v203h223v-203z" glyph-name="uni0682.medi" horiz-adv-x="1197" unicode="ڂ"/><glyph d="M171 896c42 13.333 83.669 23.501 125.002 30.501s86 10.5 134 10.5c49.333 0 92.833-4 130.5-12s72.667-18.167 105-30.5 63.166-25.5 92.499-39.5 60.833-27.167 94.5-39.5 70.667-22.833 111-31.5S1050.667 770.667 1104 770l-46-262-55.5-16-54.5-16c6-54.667 15.167-98.667 27.5-132s28.5-59 48.5-77 44.333-29.833 73-35.5 62-8.5 100-8.5V-22h-29c-58 0-109 8.167-153 24.5s-81.5 42.333-112.5 78-55.833 81.667-74.5 138-31.667 124.166-39 203.499c-90.667-34-165.667-68.833-225-104.5s-106.5-71.667-141.5-108-59.667-72.666-74-108.999S327 28 327-8c0-34 6.167-67.667 18.5-101s33.333-63.333 63-90 69.167-48.334 118.5-65.001 111.333-25 186-25c62.667 0 126.667 6.667 192 20s136 33.666 212 60.999v-234c-40.667-14-78.834-26-114.501-36s-70-18.167-103-24.5-65.5-11-97.5-14-64.333-4.5-97-4.5c-98 0-183.333 12.167-256 36.5s-132.667 58-180 101-82.666 94.333-105.999 154-35 124.834-35 195.501c0 39.333 3.833 79.5 11.5 120.5s20.667 81.667 39 122 42.5 80 72.5 119 67.167 76.167 111.5 111.5 96.666 68.5 156.999 99.5 129.833 59.167 208.5 84.5v9c-23.333 12-45 22.5-65 31.5s-40.667 16.5-62 22.5-44.333 10.333-69 13-53 4-85 4c-49.333 0-97.666-3.167-144.999-9.5S211 678.333 171 667v229zm571.002 254h-223v203h223v-203zm0 280h-223v203h223v-203z" glyph-name="uni0682.fina" horiz-adv-x="1197" unicode="ڂ"/><glyph d="M171 896c42 13.333 83.669 23.499 125.002 30.499s86 10.5 134 10.5c49.333 0 92.833-4 130.5-12s72.667-18.167 105-30.5 63.166-25.5 92.499-39.5 60.833-27.167 94.5-39.5 70.667-22.833 111-31.5 87.166-13.334 140.499-14.001l-46-262c-146-39.333-266.167-80.166-360.5-122.499s-169-85.5-224-129.5-93.167-88.167-114.5-132.5S327 35.333 327-8c0-34 6.167-67.667 18.5-101s33.333-63.333 63-90 69.167-48.334 118.5-65.001 111.333-25 186-25c62.667 0 126.667 6.667 192 20s136 33.666 212 60.999v-234c-40.667-14-78.834-26-114.501-36s-70-18.167-103-24.5-65.5-11-97.5-14-64.333-4.5-97-4.5c-98 0-183.333 12.167-256 36.5s-132.667 58-180 101-82.666 94.333-105.999 154-35 124.834-35 195.501c0 39.333 3.833 79.5 11.5 120.5s20.667 81.667 39 122 42.5 80 72.5 119 67.167 76.167 111.5 111.5 96.666 68.5 156.999 99.5 129.833 59.167 208.5 84.5v9c-23.333 12-45 22.5-65 31.5s-40.667 16.5-62 22.5-44.333 10.333-69 13-53 4-85 4c-49.333 0-97.666-3.167-144.999-9.5S211 678.333 171 667v229zM714.002-34.001h-222v203h222v-203zm336.998 0H829v203h222v-203z" arabic-form="isolated" glyph-name="uni0683" horiz-adv-x="1197" unicode="ڃ"/><glyph d="M833 78H652v179h181V78zm0-247H652V10h181v-179zM171 896c42 13.333 83.669 23.499 125.002 30.499s86 10.5 134 10.5c49.333 0 92.833-4 130.5-12s72.667-18.167 105-30.5 63.166-25.5 92.499-39.5 60.833-27.167 94.5-39.5 70.667-22.833 111-31.5 87.166-13.334 140.499-14.001l-46-262c-146-39.333-266.167-80.166-360.5-122.499s-169-85.5-224-129.5-93.167-88.167-114.5-132.5S327 35.333 327-8c0-34 6.167-67.667 18.5-101s33.333-63.333 63-90 69.167-48.334 118.5-65.001 111.333-25 186-25c62.667 0 126.667 6.667 192 20s136 33.666 212 60.999v-234c-40.667-14-78.834-26-114.501-36s-70-18.167-103-24.5-65.5-11-97.5-14-64.333-4.5-97-4.5c-98 0-183.333 12.167-256 36.5s-132.667 58-180 101-82.666 94.333-105.999 154-35 124.834-35 195.501c0 39.333 3.833 79.5 11.5 120.5s20.667 81.667 39 122 42.5 80 72.5 119 67.167 76.167 111.5 111.5 96.666 68.5 156.999 99.5 129.833 59.167 208.5 84.5v9c-23.333 12-45 22.5-65 31.5s-40.667 16.5-62 22.5-44.333 10.333-69 13-53 4-85 4c-49.333 0-97.666-3.167-144.999-9.5S211 678.333 171 667v229z" arabic-form="isolated" glyph-name="uni0684" horiz-adv-x="1197" unicode="ڄ"/><glyph d="M171 819c45.333 13.333 89.503 23.666 132.503 30.999s89.833 11 140.5 11c48 0 90.833-4 128.5-12s73-18.333 106-31 64.667-27.167 95-43.5l94.5-48.5c20.667-10.667 41.5-19.667 62.5-27s43.167-13.666 66.5-18.999 48.333-9.5 75-12.5 56.667-5.5 90-7.5l-45-268c-32-7.333-67.667-22.833-107-46.5l-131-81.5-158.5-96.5C662.836 133.833 599.669 103 531.002 75S387.668 23.833 307.001 5.5s-168-27.5-262-27.5h-45c-23.333 0-40.833 11.167-52.5 33.5s-17.5 52.166-17.5 89.499c0 36.667 5.833 66.167 17.5 88.5s29.167 33.5 52.5 33.5h54c78.667 0 153.334 8.167 224.001 24.5s138.167 37.833 202.5 64.5 125.666 56.834 183.999 90.501S779.667 470.667 835 506v7c-31.333 18-61.5 34-90.5 48s-59 25.667-90 35-64.333 16.5-100 21.5S478.333 625 433 625c-49.333 0-94.833-2.833-136.5-8.5S213 602.333 171 591v228zm369.003 220h-222v203h222v-203zm338 0h-222v203h222v-203zm-168 280h-223v203h223v-203z" glyph-name="uni0685.init" horiz-adv-x="1197" unicode="څ"/><glyph d="M171 819c45.333 13.333 89.501 23.669 132.501 31.002s89.833 11 140.5 11c46.667 0 88.834-3.833 126.501-11.5s72.834-17.834 105.501-30.501 64.334-27 95.001-43l96-49c22-11.333 43.667-20.833 65-28.5s43.666-14 66.999-19 48.166-9 74.499-12 55.833-5.5 88.5-7.5l-45-268c-24.667-6-51.667-17-81-33s-61-34.667-95-56c2-16 5.667-29.167 11-39.5s13.666-18.5 24.999-24.5 26.166-10.167 44.499-12.5 41.5-3.5 69.5-3.5h106v-245h-53c-60.667 0-111 6-151 18s-72.5 28.833-97.5 50.5-43.667 47.5-56 77.5-21.166 62.667-26.499 98c-46.667-28.667-97.167-57.334-151.5-86.001s-113.333-54.667-177-78-132-42.5-205-57.5S128.334-22 45.001-22h-45c-23.333 0-40.833 11.167-52.5 33.5s-17.5 52.166-17.5 89.499c0 36.667 5.833 66.167 17.5 88.5s29.167 33.5 52.5 33.5h54c78.667 0 153.334 8.167 224.001 24.5s138.167 37.833 202.5 64.5 125.666 56.834 183.999 90.501S779.667 470.667 835 506v7c-31.333 18-61.5 34-90.5 48s-59 25.667-90 35-64.333 16.5-100 21.5S478.333 625 433 625c-49.333 0-94.833-2.833-136.5-8.5S213 602.333 171 591v228zm369.001 220h-222v203h222v-203zm338 0h-222v203h222v-203zm-168 280h-223v203h223v-203z" glyph-name="uni0685.medi" horiz-adv-x="1197" unicode="څ"/><glyph d="M171 896c42 13.333 83.669 23.501 125.002 30.501s86 10.5 134 10.5c49.333 0 92.833-4 130.5-12s72.667-18.167 105-30.5 63.166-25.5 92.499-39.5 60.833-27.167 94.5-39.5 70.667-22.833 111-31.5S1050.667 770.667 1104 770l-46-262-55.5-16-54.5-16c6-54.667 15.167-98.667 27.5-132s28.5-59 48.5-77 44.333-29.833 73-35.5 62-8.5 100-8.5V-22h-29c-58 0-109 8.167-153 24.5s-81.5 42.333-112.5 78-55.833 81.667-74.5 138-31.667 124.166-39 203.499c-90.667-34-165.667-68.833-225-104.5s-106.5-71.667-141.5-108-59.667-72.666-74-108.999S327 28 327-8c0-34 6.167-67.667 18.5-101s33.333-63.333 63-90 69.167-48.334 118.5-65.001 111.333-25 186-25c62.667 0 126.667 6.667 192 20s136 33.666 212 60.999v-234c-40.667-14-78.834-26-114.501-36s-70-18.167-103-24.5-65.5-11-97.5-14-64.333-4.5-97-4.5c-98 0-183.333 12.167-256 36.5s-132.667 58-180 101-82.666 94.333-105.999 154-35 124.834-35 195.501c0 39.333 3.833 79.5 11.5 120.5s20.667 81.667 39 122 42.5 80 72.5 119 67.167 76.167 111.5 111.5 96.666 68.5 156.999 99.5 129.833 59.167 208.5 84.5v9c-23.333 12-45 22.5-65 31.5s-40.667 16.5-62 22.5-44.333 10.333-69 13-53 4-85 4c-49.333 0-97.666-3.167-144.999-9.5S211 678.333 171 667v229zm399.002 254h-222v203h222v-203zm338 0h-222v203h222v-203zm-168 280h-223v203h223v-203z" glyph-name="uni0685.fina" horiz-adv-x="1197" unicode="څ"/><glyph d="M696 54H515v179h181V54zm299 0H814v179h181V54zM845-208H664v179h181v-179zm214 723c-146-39.333-266.665-80.168-361.998-122.501s-171-85.5-227-129.5-95.167-88.667-117.5-134-33.5-91-33.5-137c0-36 6.5-71.167 19.5-105.5s34.833-65 65.5-92 71.167-48.833 121.5-65.5 112.833-25 187.5-25c62.667 0 126.667 6.5 192 19.5s136 33.167 212 60.5v-226c-40.667-14-78.834-26-114.501-36s-70-18.167-103-24.5-65.5-11-97.5-14-64.333-4.5-97-4.5c-98 0-183.333 12.167-256 36.5s-132.667 58-180 101-82.666 94.333-105.999 154-35 124.834-35 195.501c0 39.333 3.833 79.5 11.5 120.5s20.667 81.667 39 122 42.5 80 72.5 119 67.167 76.167 111.5 111.5 96.666 68.5 156.999 99.5 129.833 59.167 208.5 84.5v9c-23.333 12-45 22.5-65 31.5s-40.667 16.5-62 22.5-44.333 10.333-69 13-53 4-85 4c-49.333 0-97.666-3.167-144.999-9.5s-91-15.166-131-26.499v229c42 13.333 83.667 23.5 125 30.5s86 10.5 134 10.5c49.333 0 92.833-4 130.5-12s72.667-18.167 105-30.5 63.166-25.5 92.499-39.5 60.833-27.167 94.5-39.5 70.667-22.833 111-31.5S1050.667 770.667 1104 770z" arabic-form="isolated" glyph-name="afii57507" horiz-adv-x="1197" unicode="چ"/><glyph d="M701 67H520v179h181V67zm289 0H809v179h181V67zm69 448c-146-39.333-266.665-80.168-361.998-122.501s-171-85.5-227-129.5-95.167-88.667-117.5-134-33.5-91-33.5-137c0-36 6.5-71.167 19.5-105.5s34.833-65 65.5-92 71.167-48.833 121.5-65.5 112.833-25 187.5-25c62.667 0 126.667 6.5 192 19.5s136 33.167 212 60.5v-226c-40.667-14-78.834-26-114.501-36s-70-18.167-103-24.5-65.5-11-97.5-14-64.333-4.5-97-4.5c-98 0-183.333 12.167-256 36.5s-132.667 58-180 101-82.666 94.333-105.999 154-35 124.834-35 195.501c0 39.333 3.833 79.5 11.5 120.5s20.667 81.667 39 122 42.5 80 72.5 119 67.167 76.167 111.5 111.5 96.666 68.5 156.999 99.5 129.833 59.167 208.5 84.5v9c-23.333 12-45 22.5-65 31.5s-40.667 16.5-62 22.5-44.333 10.333-69 13-53 4-85 4c-49.333 0-97.666-3.167-144.999-9.5s-91-15.166-131-26.499v229c42 13.333 83.667 23.5 125 30.5s86 10.5 134 10.5c49.333 0 92.833-4 130.5-12s72.667-18.167 105-30.5 63.166-25.5 92.499-39.5 60.833-27.167 94.5-39.5 70.667-22.833 111-31.5S1050.667 770.667 1104 770zM701.002-198.002h-181v179h181v-179zm289 0h-181v179h181v-179z" arabic-form="isolated" glyph-name="uni0687" horiz-adv-x="1197" unicode="ڇ"/><glyph d="M519 1024c107.333-120 190.166-236.332 248.499-348.999s87.5-222.667 87.5-330c0-73.333-12-134-36-182s-56.667-86-98-114-89.833-47.667-145.5-59-115.167-17-178.5-17c-38 0-82.667 2.167-134 6.5S157.666-9.333 100.999 0l-48 248c72-9.333 137.667-16.5 197-21.5s112-7.5 158-7.5c77.333 0 134.833 10.333 172.5 31s56.5 56.667 56.5 108c0 47.333-9.5 96.166-28.5 146.499s-45.167 102.833-78.5 157.5S457.333 773.833 412 833.5L264 1024h255zM39 1390c20.667-2.667 41.332-4.5 61.999-5.5s42.334-1.5 65.001-1.5v494h116v-322l3-1c25.333 34.667 53.5 63 84.5 85s68.167 33 111.5 33c34 0 63.167-6.5 87.5-19.5s44.5-30.333 60.5-52 27.667-46.5 35-74.5 11-57 11-87c0-44-6.833-78-20.5-102s-32.334-41.667-56.001-53-51.5-18-83.5-20-66.667-3-104-3c-47.333 0-89.166.333-125.499 1s-68.5 1.5-96.5 2.5-52.833 2.333-74.5 4S73 1272 55 1274zm359.998-10c32 0 58.5.333 79.5 1s38 3 51 7 22.167 10 27.5 18 8 19.667 8 35c0 37.333-9.333 65.5-28 84.5s-41 28.5-67 28.5c-20 0-39.167-5-57.5-15s-35.5-23.167-51.5-39.5-30.5-34.833-43.5-55.5-24.5-42-34.5-64h116z" arabic-form="isolated" glyph-name="afii57512" horiz-adv-x="1026" unicode="ڈ"/><glyph d="M50 248c72.667-9.333 137.836-16.5 195.503-21.5s109.5-7.5 155.5-7.5c46.667 0 84.5 3.167 113.5 9.5s51.5 15.5 67.5 27.5 26.833 27.167 32.5 45.5 8.5 39.5 8.5 63.5c0 30.667-5 70.334-15 119.001s-23.167 102.334-39.5 161.001-35.5 120.667-57.5 186-45 129.666-69 192.999h231c38-112 69.667-215.333 95-310s47.666-184.667 66.999-270c6-24.667 12.5-50 19.5-76s17.167-49.833 30.5-71.5 31.166-39.334 53.499-53.001 51.5-20.5 87.5-20.5V-22h-28c-21.333 0-42 2.333-62 7s-39 12.334-57 23.001-34.833 25-50.5 43-29.5 40-41.5 66h-5c-20-28-44.167-51.167-72.5-69.5s-59.333-33-93-44-69.334-18.833-107.001-23.5-76.167-7-115.5-7c-38 0-82.667 2.167-134 6.5S154.667-9.333 98 0zM430.002 50c23.333 0 45.166-4.333 65.499-13S533.667 16.5 549 1.5s27.333-33 36-54S598-96 598-120c0-23.333-4.333-45-13-65s-20.667-37.667-36-53-33.166-27.333-53.499-36-42.166-13-65.499-13c-24.667 0-47.5 4.333-68.5 13s-39.167 20.667-54.5 36-27.333 33-36 53-13 41.667-13 65c0 24 4.333 46.5 13 67.5s20.5 39 35.5 54 33 26.833 54 35.5 44.167 13 69.5 13zm0-254c22 0 40.333 8.167 55 24.5s22 36.166 22 59.499c0 25.333-7.333 46.166-22 62.499s-33 24.5-55 24.5c-24 0-43.5-8.167-58.5-24.5s-22.5-37.166-22.5-62.499c0-23.333 7.5-43.166 22.5-59.499s34.5-24.5 58.5-24.5z" glyph-name="uni0689.fina" horiz-adv-x="1026" unicode="ډ"/><glyph d="M50 248c72.667-9.333 137.836-16.5 195.503-21.5s109.5-7.5 155.5-7.5c46.667 0 84.5 3.167 113.5 9.5s51.5 15.5 67.5 27.5 26.833 27.167 32.5 45.5 8.5 39.5 8.5 63.5c0 30.667-5 70.334-15 119.001s-23.167 102.334-39.5 161.001-35.5 120.667-57.5 186-45 129.666-69 192.999h231c38-112 69.667-215.333 95-310s47.666-184.667 66.999-270c6-24.667 12.5-50 19.5-76s17.167-49.833 30.5-71.5 31.166-39.334 53.499-53.001 51.5-20.5 87.5-20.5V-22h-28c-21.333 0-42 2.333-62 7s-39 12.334-57 23.001-34.833 25-50.5 43-29.5 40-41.5 66h-5c-20-28-44.167-51.167-72.5-69.5s-59.333-33-93-44-69.334-18.833-107.001-23.5-76.167-7-115.5-7c-38 0-82.667 2.167-134 6.5S154.667-9.333 98 0zm489.002-605h-223v203h223v-203z" glyph-name="uni068A.fina" horiz-adv-x="1026" unicode="ڊ"/><glyph d="M50 248c72.667-9.333 137.836-16.5 195.503-21.5s109.5-7.5 155.5-7.5c46.667 0 84.5 3.167 113.5 9.5s51.5 15.5 67.5 27.5 26.833 27.167 32.5 45.5 8.5 39.5 8.5 63.5c0 30.667-5 70.334-15 119.001s-23.167 102.334-39.5 161.001-35.5 120.667-57.5 186-45 129.666-69 192.999h231c38-112 69.667-215.333 95-310s47.666-184.667 66.999-270c6-24.667 12.5-50 19.5-76s17.167-49.833 30.5-71.5 31.166-39.334 53.499-53.001 51.5-20.5 87.5-20.5V-22h-28c-21.333 0-42 2.333-62 7s-39 12.334-57 23.001-34.833 25-50.5 43-29.5 40-41.5 66h-5c-20-28-44.167-51.167-72.5-69.5s-59.333-33-93-44-69.334-18.833-107.001-23.5-76.167-7-115.5-7c-38 0-82.667 2.167-134 6.5S154.667-9.333 98 0zm489.002-615h-223v203h223v-203zm-386 1757c20.667-2.667 41.332-4.5 61.999-5.5s42.334-1.5 65.001-1.5v494h116v-322l3-1c25.333 34.667 53.5 63 84.5 85s68.167 33 111.5 33c34 0 63.167-6.5 87.5-19.5s44.5-30.333 60.5-52 27.667-46.5 35-74.5 11-57 11-87c0-44-6.833-78-20.5-102s-32.334-41.667-56.001-53-51.5-18-83.5-20-66.667-3-104-3c-47.333 0-89.166.333-125.499 1s-68.5 1.5-96.5 2.5-52.833 2.333-74.5 4-41.5 3.5-59.5 5.5zM513 1380c32 0 58.5.333 79.5 1s38 3 51 7 22.167 10 27.5 18 8 19.667 8 35c0 37.333-9.333 65.5-28 84.5s-41 28.5-67 28.5c-20 0-39.167-5-57.5-15s-35.5-23.167-51.5-39.5-30.5-34.833-43.5-55.5-24.5-42-34.5-64h116z" glyph-name="uni068B.fina" horiz-adv-x="1026" unicode="ڋ"/><glyph d="M519 1024c107.333-120 190.166-236.332 248.499-348.999s87.5-222.667 87.5-330c0-73.333-12-134-36-182s-56.667-86-98-114-89.833-47.667-145.5-59-115.167-17-178.5-17c-38 0-82.667 2.167-134 6.5S157.666-9.333 100.999 0l-48 248c72-9.333 137.667-16.5 197-21.5s112-7.5 158-7.5c77.333 0 134.833 10.333 172.5 31s56.5 56.667 56.5 108c0 47.333-9.5 96.166-28.5 146.499s-45.167 102.833-78.5 157.5S457.333 773.833 412 833.5L264 1024h255zm-209 237H88v203h222v-203zm337 0H425v203h222v-203z" arabic-form="isolated" glyph-name="uni068C" horiz-adv-x="1026" unicode="ڌ"/><glyph d="M519 1024c107.333-120 190.166-236.332 248.499-348.999s87.5-222.667 87.5-330c0-73.333-12-134-36-182s-56.667-86-98-114-89.833-47.667-145.5-59-115.167-17-178.5-17c-38 0-82.667 2.167-134 6.5S157.666-9.333 100.999 0l-48 248c72-9.333 137.667-16.5 197-21.5s112-7.5 158-7.5c77.333 0 134.833 10.333 172.5 31s56.5 56.667 56.5 108c0 47.333-9.5 96.166-28.5 146.499s-45.167 102.833-78.5 157.5S457.333 773.833 412 833.5L264 1024h255zM370-356.999H148v203h222v-203zm337 0H485v203h222v-203z" arabic-form="isolated" glyph-name="uni068D" horiz-adv-x="1026" unicode="ڍ"/><glyph d="M519 1024c107.333-120 190.166-236.332 248.499-348.999s87.5-222.667 87.5-330c0-73.333-12-134-36-182s-56.667-86-98-114-89.833-47.667-145.5-59-115.167-17-178.5-17c-38 0-82.667 2.167-134 6.5S157.666-9.333 100.999 0l-48 248c72-9.333 137.667-16.5 197-21.5s112-7.5 158-7.5c77.333 0 134.833 10.333 172.5 31s56.5 56.667 56.5 108c0 47.333-9.5 96.166-28.5 146.499s-45.167 102.833-78.5 157.5S457.333 773.833 412 833.5L264 1024h255zm-210 237H87v203h222v-203zm338 0H425v203h222v-203zm-168 280H256v203h223v-203z" arabic-form="isolated" glyph-name="uni068E" horiz-adv-x="1026" unicode="ڎ"/><glyph d="M50 248c72.667-9.333 137.836-16.5 195.503-21.5s109.5-7.5 155.5-7.5c46.667 0 84.5 3.167 113.5 9.5s51.5 15.5 67.5 27.5 26.833 27.167 32.5 45.5 8.5 39.5 8.5 63.5c0 30.667-5 70.334-15 119.001s-23.167 102.334-39.5 161.001-35.5 120.667-57.5 186-45 129.666-69 192.999h231c38-112 69.667-215.333 95-310s47.666-184.667 66.999-270c6-24.667 12.5-50 19.5-76s17.167-49.833 30.5-71.5 31.166-39.334 53.499-53.001 51.5-20.5 87.5-20.5V-22h-28c-21.333 0-42 2.333-62 7s-39 12.334-57 23.001-34.833 25-50.5 43-29.5 40-41.5 66h-5c-20-28-44.167-51.167-72.5-69.5s-59.333-33-93-44-69.334-18.833-107.001-23.5-76.167-7-115.5-7c-38 0-82.667 2.167-134 6.5S154.667-9.333 98 0zm373.002 1293h-222v203h222v-203zm338 0h-222v203h222v-203zm-169-280h-223v203h223v-203z" glyph-name="uni068F.fina" horiz-adv-x="1026" unicode="ڏ"/><glyph d="M50 248c72.667-9.333 137.836-16.5 195.503-21.5s109.5-7.5 155.5-7.5c46.667 0 84.5 3.167 113.5 9.5s51.5 15.5 67.5 27.5 26.833 27.167 32.5 45.5 8.5 39.5 8.5 63.5c0 30.667-5 70.334-15 119.001s-23.167 102.334-39.5 161.001-35.5 120.667-57.5 186-45 129.666-69 192.999h231c38-112 69.667-215.333 95-310s47.666-184.667 66.999-270c6-24.667 12.5-50 19.5-76s17.167-49.833 30.5-71.5 31.166-39.334 53.499-53.001 51.5-20.5 87.5-20.5V-22h-28c-21.333 0-42 2.333-62 7s-39 12.334-57 23.001-34.833 25-50.5 43-29.5 40-41.5 66h-5c-20-28-44.167-51.167-72.5-69.5s-59.333-33-93-44-69.334-18.833-107.001-23.5-76.167-7-115.5-7c-38 0-82.667 2.167-134 6.5S154.667-9.333 98 0zm373.002 1013h-222v203h222v-203zm338 0h-222v203h222v-203zm-338 280h-222v203h222v-203zm338 0h-222v203h222v-203z" glyph-name="uni0690.fina" horiz-adv-x="1026" unicode="ڐ"/><glyph d="M0-234c45.333-13.333 83.831-23.001 115.498-29.001s61.167-9 88.5-9c54.667 0 99.834 9.667 135.501 29s63.834 45.5 84.501 78.5 35 71.333 43 115 12 90.167 12 139.5c0 46-3.167 91.667-9.5 137s-15.5 91.5-27.5 138.5-26.5 96-43.5 147l-56.5 163.5h218c19.333-49.333 36.666-99.666 51.999-150.999s28.333-102.666 39-153.999 18.834-101.833 24.501-151.5 8.5-97.167 8.5-142.5c0-102.667-12.667-191.5-38-266.5s-59.5-137-102.5-186-93.333-85.5-151-109.5-118.5-36-182.5-36c-32.667 0-65.5 3.167-98.5 9.5S41.333-494.333 0-479v245zm81.998 1290c20.667-2.667 41.332-4.5 61.999-5.5s42.334-1.5 65.001-1.5v494h116v-322l3-1c25.333 34.667 53.5 63 84.5 85s68.167 33 111.5 33c34 0 63.167-6.5 87.5-19.5s44.5-30.333 60.5-52 27.667-46.5 35-74.5 11-57 11-87c0-44-6.833-78-20.5-102s-32.334-41.667-56.001-53-51.5-18-83.5-20-66.667-3-104-3c-47.333 0-89.166.333-125.499 1s-68.5 1.5-96.5 2.5-52.833 2.333-74.5 4-41.5 3.5-59.5 5.5zm359.998-10c32 0 58.5.333 79.5 1s38 3 51 7 22.167 10 27.5 18 8 19.667 8 35c0 37.333-9.333 65.5-28 84.5s-41 28.5-67 28.5c-20 0-39.167-5-57.5-15s-35.5-23.167-51.5-39.5-30.5-34.833-43.5-55.5-24.5-42-34.5-64h116z" arabic-form="isolated" glyph-name="afii57513" horiz-adv-x="855" unicode="ڑ"/><glyph d="M855-22l-25.006.002c-39.333 0-69.666 5.167-90.999 15.5s-39.666 25.166-54.999 44.499c-1.333 0-2.166-.167-2.499-.5s-1.166-.5-2.499-.5c-4-96-19-179-45-249s-60-127.833-102-173.5-90.667-79.667-146-102-114-33.5-176-33.5c-32.667 0-65.5 3.167-98.5 9.5S41.331-494.333-.002-479v245c45.333-13.333 83.833-23 115.5-29s61.167-9 88.5-9c54.667 0 99.5 9.667 134.5 29s62.667 45.5 83 78.5 34.333 71.333 42 115 11.5 90.167 11.5 139.5c0 46-3 91.667-9 137s-14.833 91.5-26.5 138.5-25.667 96-42 147-34.833 105.5-55.5 163.5h218c22.667-56.667 41.834-114 57.501-172S646.333 387.667 657 329c2.667-16 7.667-30.5 15-43.5s18.333-24.167 33-33.5 34-16.5 58-21.5 54.667-7.5 92-7.5V-22zM563.994 1281h160l-236-362h-138l-243 362h166l147-218z" glyph-name="uni0692.fina" horiz-adv-x="855" unicode="ڒ"/><glyph d="M855-22l-25.006.002c-39.333 0-69.666 5.167-90.999 15.5s-39.666 25.166-54.999 44.499c-1.333 0-2.166-.167-2.499-.5s-1.166-.5-2.499-.5c-4-96-19-179-45-249s-60-127.833-102-173.5-90.667-79.667-146-102-114-33.5-176-33.5c-32.667 0-65.5 3.167-98.5 9.5S41.331-494.333-.002-479v245c45.333-13.333 83.833-23 115.5-29s61.167-9 88.5-9c54.667 0 99.5 9.667 134.5 29s62.667 45.5 83 78.5 34.333 71.333 42 115 11.5 90.167 11.5 139.5c0 46-3 91.667-9 137s-14.833 91.5-26.5 138.5-25.667 96-42 147-34.833 105.5-55.5 163.5h218c22.667-56.667 41.834-114 57.501-172S646.333 387.667 657 329c2.667-16 7.667-30.5 15-43.5s18.333-24.167 33-33.5 34-16.5 58-21.5 54.667-7.5 92-7.5V-22zM658.994-188.998c23.333 0 45.166-4.333 65.499-13s38.166-20.5 53.499-35.5 27.333-33 36-54 13-43.5 13-67.5c0-23.333-4.333-45-13-65s-20.667-37.667-36-53-33.166-27.333-53.499-36-42.166-13-65.499-13c-24.667 0-47.5 4.333-68.5 13s-39.167 20.667-54.5 36-27.333 33-36 53-13 41.667-13 65c0 24 4.333 46.5 13 67.5s20.5 39 35.5 54 33 26.833 54 35.5 44.167 13 69.5 13zm0-254c22 0 40.333 8.167 55 24.5s22 36.166 22 59.499c0 25.333-7.333 46.166-22 62.499s-33 24.5-55 24.5c-24 0-43.5-8.167-58.5-24.5s-22.5-37.166-22.5-62.499c0-23.333 7.5-43.166 22.5-59.499s34.5-24.5 58.5-24.5z" glyph-name="uni0693.fina" horiz-adv-x="855" unicode="ړ"/><glyph d="M855-22l-25.006.002c-39.333 0-69.666 5.167-90.999 15.5s-39.666 25.166-54.999 44.499c-1.333 0-2.166-.167-2.499-.5s-1.166-.5-2.499-.5c-4-96-19-179-45-249s-60-127.833-102-173.5-90.667-79.667-146-102-114-33.5-176-33.5c-32.667 0-65.5 3.167-98.5 9.5S41.331-494.333-.002-479v245c45.333-13.333 83.833-23 115.5-29s61.167-9 88.5-9c54.667 0 99.5 9.667 134.5 29s62.667 45.5 83 78.5 34.333 71.333 42 115 11.5 90.167 11.5 139.5c0 46-3 91.667-9 137s-14.833 91.5-26.5 138.5-25.667 96-42 147-34.833 105.5-55.5 163.5h218c22.667-56.667 41.834-114 57.501-172S646.333 387.667 657 329c2.667-16 7.667-30.5 15-43.5s18.333-24.167 33-33.5 34-16.5 58-21.5 54.667-7.5 92-7.5V-22zm10.994-515.998h-223v203h223v-203z" glyph-name="uni0694.fina" horiz-adv-x="855" unicode="ڔ"/><glyph d="M855-22l-25.006.002c-39.333 0-69.666 5.167-90.999 15.5s-39.666 25.166-54.999 44.499c-1.333 0-2.166-.167-2.499-.5s-1.166-.5-2.499-.5c-4-96-19-179-45-249s-60-127.833-102-173.5-90.667-79.667-146-102-114-33.5-176-33.5c-32.667 0-65.5 3.167-98.5 9.5S41.331-494.333-.002-479v245c45.333-13.333 83.833-23 115.5-29s61.167-9 88.5-9c54.667 0 99.5 9.667 134.5 29s62.667 45.5 83 78.5 34.333 71.333 42 115 11.5 90.167 11.5 139.5c0 46-3 91.667-9 137s-14.833 91.5-26.5 138.5-25.667 96-42 147-34.833 105.5-55.5 163.5h218c22.667-56.667 41.834-114 57.501-172S646.333 387.667 657 329c2.667-16 7.667-30.5 15-43.5s18.333-24.167 33-33.5 34-16.5 58-21.5 54.667-7.5 92-7.5V-22zm72.994-176.998h160l-236-362h-138l-243 362h166l147-218z" glyph-name="uni0695.fina" horiz-adv-x="855" unicode="ڕ"/><glyph d="M855-22l-25.006.002c-39.333 0-69.666 5.167-90.999 15.5s-39.666 25.166-54.999 44.499c-1.333 0-2.166-.167-2.499-.5s-1.166-.5-2.499-.5c-4-96-19-179-45-249s-60-127.833-102-173.5-90.667-79.667-146-102-114-33.5-176-33.5c-32.667 0-65.5 3.167-98.5 9.5S41.331-494.333-.002-479v245c45.333-13.333 83.833-23 115.5-29s61.167-9 88.5-9c54.667 0 99.5 9.667 134.5 29s62.667 45.5 83 78.5 34.333 71.333 42 115 11.5 90.167 11.5 139.5c0 46-3 91.667-9 137s-14.833 91.5-26.5 138.5-25.667 96-42 147-34.833 105.5-55.5 163.5h218c22.667-56.667 41.834-114 57.501-172S646.333 387.667 657 329c2.667-16 7.667-30.5 15-43.5s18.333-24.167 33-33.5 34-16.5 58-21.5 54.667-7.5 92-7.5V-22zm10.994-515.998h-223v203h223v-203zm-552 538h-223v203h223v-203z" glyph-name="uni0696.fina" horiz-adv-x="855" unicode="ږ"/><glyph d="M855-22l-25.006.002c-39.333 0-69.666 5.167-90.999 15.5s-39.666 25.166-54.999 44.499c-1.333 0-2.166-.167-2.499-.5s-1.166-.5-2.499-.5c-4-96-19-179-45-249s-60-127.833-102-173.5-90.667-79.667-146-102-114-33.5-176-33.5c-32.667 0-65.5 3.167-98.5 9.5S41.331-494.333-.002-479v245c45.333-13.333 83.833-23 115.5-29s61.167-9 88.5-9c54.667 0 99.5 9.667 134.5 29s62.667 45.5 83 78.5 34.333 71.333 42 115 11.5 90.167 11.5 139.5c0 46-3 91.667-9 137s-14.833 91.5-26.5 138.5-25.667 96-42 147-34.833 105.5-55.5 163.5h218c22.667-56.667 41.834-114 57.501-172S646.333 387.667 657 329c2.667-16 7.667-30.5 15-43.5s18.333-24.167 33-33.5 34-16.5 58-21.5 54.667-7.5 92-7.5V-22zM352.994 919.002h-222v203h222v-203zm337 0h-222v203h222v-203z" glyph-name="uni0697.fina" horiz-adv-x="855" unicode="ڗ"/><glyph d="M0-234c45.333-13.333 83.831-23.001 115.498-29.001s61.167-9 88.5-9c54.667 0 99.834 9.667 135.501 29s63.834 45.5 84.501 78.5 35 71.333 43 115 12 90.167 12 139.5c0 46-3.167 91.667-9.5 137s-15.5 91.5-27.5 138.5-26.5 96-43.5 147l-56.5 163.5h218c19.333-49.333 36.666-99.666 51.999-150.999s28.333-102.666 39-153.999 18.834-101.833 24.501-151.5 8.5-97.167 8.5-142.5c0-102.667-12.667-191.5-38-266.5s-59.5-137-102.5-186-93.333-85.5-151-109.5-118.5-36-182.5-36c-32.667 0-65.5 3.167-98.5 9.5S41.333-494.333 0-479v245zM351.998 918.999h-222v203h222v-203zm338 0h-222v203h222v-203zm-168 280.001h-223v203h223v-203z" arabic-form="isolated" glyph-name="afii57508" horiz-adv-x="855" unicode="ژ"/><glyph d="M855-22l-25.006.002c-39.333 0-69.666 5.167-90.999 15.5s-39.666 25.166-54.999 44.499c-1.333 0-2.166-.167-2.499-.5s-1.166-.5-2.499-.5c-4-96-19-179-45-249s-60-127.833-102-173.5-90.667-79.667-146-102-114-33.5-176-33.5c-32.667 0-65.5 3.167-98.5 9.5S41.331-494.333-.002-479v245c45.333-13.333 83.833-23 115.5-29s61.167-9 88.5-9c54.667 0 99.5 9.667 134.5 29s62.667 45.5 83 78.5 34.333 71.333 42 115 11.5 90.167 11.5 139.5c0 46-3 91.667-9 137s-14.833 91.5-26.5 138.5-25.667 96-42 147-34.833 105.5-55.5 163.5h218c22.667-56.667 41.834-114 57.501-172S646.333 387.667 657 329c2.667-16 7.667-30.5 15-43.5s18.333-24.167 33-33.5 34-16.5 58-21.5 54.667-7.5 92-7.5V-22zM351.994 919.002h-222v203h222v-203zm338 0h-222v203h222v-203zm-338 279.998h-222v203h222v-203zm338 0h-222v203h222v-203z" glyph-name="uni0699.fina" horiz-adv-x="855" unicode="ڙ"/><glyph d="M513 649V436.004c0-36.667 1.167-68.334 3.5-95.001s8.5-48.834 18.5-66.501 25.167-30.667 45.5-39 48.166-12.5 83.499-12.5c20.667 0 40.834 1.5 60.501 4.5s37 9.667 52 20 27.167 25.166 36.5 44.499 14 45.333 14 78v279h199v-210c0-37.333 1.167-69.5 3.5-96.5s8.833-49.333 19.5-67 26.834-30.834 48.501-39.501 51.834-13 90.501-13c22 0 42.333 1.5 61 4.5s34.667 9.5 48 19.5 23.833 24.667 31.5 44 11.5 45.666 11.5 78.999v467h199v-480c0-77.333-9.833-140.5-29.5-189.5s-45.834-87.5-78.501-115.5-70.334-47.333-113.001-58-86.667-16-132-16c-26.667 0-52.834 1.833-78.501 5.5s-49.667 9.834-72 18.501-43 20.5-62 35.5-35.167 33.5-48.5 55.5h-4c-18-22-38.167-40.333-60.5-55S815.333 11.5 792 2.5s-47-15.333-71-19-46.333-5.5-67-5.5c-62 0-113.167 9-153.5 27S428 52.333 404 93h-4c-18.667-22-39.334-40.333-62.001-55s-46-26.5-70-35.5-48-15.333-72-19-46.667-5.5-68-5.5h-128c-23.333 0-40.833 11.167-52.5 33.5s-17.5 52.166-17.5 89.499c0 36.667 5.833 66.167 17.5 88.5s29.167 33.5 52.5 33.5h138c17.333 0 36.333 1.833 57 5.5S234.833 239.333 252.5 250s32.5 25.5 44.5 44.5 18 44.167 18 75.5v279h198zm521 240.004H811v203h223v-203zm0-1256H811v203h223v-203z" glyph-name="uni069A.init" horiz-adv-x="1710" unicode="ښ"/><glyph d="M513 649l.001-212.996c0-36.667 1.167-68.334 3.5-95.001s8.5-48.834 18.5-66.501 25.167-30.667 45.5-39 48.166-12.5 83.499-12.5c20.667 0 40.834 1.5 60.501 4.5s37 9.667 52 20 27.167 25.166 36.5 44.499 14 45.333 14 78v279h199v-210c0-37.333 1.167-69.5 3.5-96.5s8.833-49.333 19.5-67 26.834-30.834 48.501-39.501 51.834-13 90.501-13c22 0 42.333 1.5 61 4.5s34.667 9.5 48 19.5 23.833 24.667 31.5 44 11.5 45.666 11.5 78.999v467h199v-392c0-37.333 1-70 3-98s8.5-51.167 19.5-69.5 28-32 51-41 55.5-13.5 97.5-13.5v-245h-36c-56.667 0-103.167 8.167-139.5 24.5s-66.166 43.166-89.499 80.499h-4c-16.667-21.333-35.167-38.666-55.5-51.999s-41.5-24-63.5-32-44.5-13.5-67.5-16.5-45.833-4.5-68.5-4.5c-26.667 0-52.834 1.833-78.501 5.5s-49.667 9.834-72 18.501-43 20.5-62 35.5-35.167 33.5-48.5 55.5h-4c-18-22-38.167-40.333-60.5-55s-45.166-26.5-68.499-35.5-47-15.333-71-19-46.333-5.5-67-5.5c-62.667 0-114 9-154 27s-72 47.333-96 88h-4c-18.667-22-39-40.333-61-55s-44.833-26.5-68.5-35.5-47.334-15.333-71.001-19-46.167-5.5-67.5-5.5h-132c-23.333 0-40.833 11.167-52.5 33.5s-17.5 52.166-17.5 89.499c0 36.667 5.833 66.167 17.5 88.5s29.167 33.5 52.5 33.5h142c17.333 0 36.166 1.833 56.499 5.5s39.166 10.834 56.499 21.501 31.666 25.5 42.999 44.5 17 44.167 17 75.5v279h198zm521 240.004H811v203h223v-203zm0-1256H811v203h223v-203z" glyph-name="uni069A.medi" horiz-adv-x="1710" unicode="ښ"/><glyph d="M373 329c-6-37.333-10.999-70.502-14.999-99.502s-7.167-55.333-9.5-79-4-45.167-5-64.5-1.5-37.666-1.5-54.999c0-53.333 4.5-99.166 13.5-137.499s24.833-69.833 47.5-94.5 53.334-43 92.001-55 87.667-18 147-18c68 0 125 8 171 24s83.167 40.833 111.5 74.5 48.5 77 60.5 130 18 116.5 18 190.5c0 28.667-.833 57.667-2.5 87s-4.334 61.833-8.001 97.5-8.167 75.167-13.5 118.5l-19 150h199l19-154.5c5.333-44.333 9.666-85.5 12.999-123.5 2-19.333 6.667-35.333 14-48s17.833-22.667 31.5-30 30.5-12.333 50.5-15 43.667-4 71-4c20 0 39.167 1.5 57.5 4.5s34.5 9.667 48.5 20 25.333 25.166 34 44.499 13 45.333 13 78v279h199v-210c0-37.333 1.167-69.5 3.5-96.5s8.833-49.333 19.5-67 26.834-30.834 48.501-39.501 51.834-13 90.501-13c22 0 42.333 1.5 61 4.5s34.667 9.5 48 19.5 23.833 24.667 31.5 44 11.5 45.666 11.5 78.999v467h199v-392c0-37.333 1-70 3-98s8.5-51.167 19.5-69.5 28-32 51-41 55.5-13.5 97.5-13.5v-245h-36c-56.667 0-103.834 8-141.5 24-37.667 16-66.834 43-87.5 81h-4c-16.667-21.333-35.167-38.666-55.5-51.999s-41.5-24-63.5-32-44.5-13.5-67.5-16.5-45.833-4.5-68.5-4.5c-26.667 0-52.834 1.833-78.501 5.5s-49.834 10-72.501 19-43.334 21.167-62.001 36.5-34.334 35-47.001 59h-6c-13.333-20-29-37.5-47-52.5s-37.5-27.5-58.5-37.5-42.833-17.5-65.5-22.5-44.667-7.5-66-7.5c-35.333 0-67.166 4.333-95.499 13s-53.166 23.667-74.499 45l-7-1c-5.333-91.333-20-171.666-44-240.999s-58.5-127.333-103.5-174-101-81.834-168-105.501-146.167-35.5-237.5-35.5-168.333 11.667-231 35-113.5 57.5-152.5 102.5-67.167 100.333-84.5 166S143-76.668 143 7.999c0 23.333.667 46.833 2 70.5s3.333 48.334 6 74.001 6.167 53 10.5 82S171.333 295 178 329h195zm1345 559.998h-223v203h223v-203zm0-1256h-223v203h223v-203z" glyph-name="uni069A.fina" horiz-adv-x="2394" unicode="ښ"/><glyph d="M513 649V436.004c0-36.667 1.167-68.334 3.5-95.001s8.5-48.834 18.5-66.501 25.167-30.667 45.5-39 48.166-12.5 83.499-12.5c20.667 0 40.834 1.5 60.501 4.5s37 9.667 52 20 27.167 25.166 36.5 44.499 14 45.333 14 78v279h199v-210c0-37.333 1.167-69.5 3.5-96.5s8.833-49.333 19.5-67 26.834-30.834 48.501-39.501 51.834-13 90.501-13c22 0 42.333 1.5 61 4.5s34.667 9.5 48 19.5 23.833 24.667 31.5 44 11.5 45.666 11.5 78.999v467h199v-480c0-77.333-9.833-140.5-29.5-189.5s-45.834-87.5-78.501-115.5-70.334-47.333-113.001-58-86.667-16-132-16c-26.667 0-52.834 1.833-78.501 5.5s-49.667 9.834-72 18.501-43 20.5-62 35.5-35.167 33.5-48.5 55.5h-4c-18-22-38.167-40.333-60.5-55S815.333 11.5 792 2.5s-47-15.333-71-19-46.333-5.5-67-5.5c-62 0-113.167 9-153.5 27S428 52.333 404 93h-4c-18.667-22-39.334-40.333-62.001-55s-46-26.5-70-35.5-48-15.333-72-19-46.667-5.5-68-5.5h-128c-23.333 0-40.833 11.167-52.5 33.5s-17.5 52.166-17.5 89.499c0 36.667 5.833 66.167 17.5 88.5s29.167 33.5 52.5 33.5h138c17.333 0 36.333 1.833 57 5.5S234.833 239.333 252.5 250s32.5 25.5 44.5 44.5 18 44.167 18 75.5v279h198zm351-956.996H642v203h222v-203zm338 0H980v203h222v-203zm-169-280H810v203h223v-203z" glyph-name="uni069B.init" horiz-adv-x="1710" unicode="ڛ"/><glyph d="M513 649l.001-212.996c0-36.667 1.167-68.334 3.5-95.001s8.5-48.834 18.5-66.501 25.167-30.667 45.5-39 48.166-12.5 83.499-12.5c20.667 0 40.834 1.5 60.501 4.5s37 9.667 52 20 27.167 25.166 36.5 44.499 14 45.333 14 78v279h199v-210c0-37.333 1.167-69.5 3.5-96.5s8.833-49.333 19.5-67 26.834-30.834 48.501-39.501 51.834-13 90.501-13c22 0 42.333 1.5 61 4.5s34.667 9.5 48 19.5 23.833 24.667 31.5 44 11.5 45.666 11.5 78.999v467h199v-392c0-37.333 1-70 3-98s8.5-51.167 19.5-69.5 28-32 51-41 55.5-13.5 97.5-13.5v-245h-36c-56.667 0-103.167 8.167-139.5 24.5s-66.166 43.166-89.499 80.499h-4c-16.667-21.333-35.167-38.666-55.5-51.999s-41.5-24-63.5-32-44.5-13.5-67.5-16.5-45.833-4.5-68.5-4.5c-26.667 0-52.834 1.833-78.501 5.5s-49.667 9.834-72 18.501-43 20.5-62 35.5-35.167 33.5-48.5 55.5h-4c-18-22-38.167-40.333-60.5-55s-45.166-26.5-68.499-35.5-47-15.333-71-19-46.333-5.5-67-5.5c-62.667 0-114 9-154 27s-72 47.333-96 88h-4c-18.667-22-39-40.333-61-55s-44.833-26.5-68.5-35.5-47.334-15.333-71.001-19-46.167-5.5-67.5-5.5h-132c-23.333 0-40.833 11.167-52.5 33.5s-17.5 52.166-17.5 89.499c0 36.667 5.833 66.167 17.5 88.5s29.167 33.5 52.5 33.5h142c17.333 0 36.166 1.833 56.499 5.5s39.166 10.834 56.499 21.501 31.666 25.5 42.999 44.5 17 44.167 17 75.5v279h198zm351.001-956.996h-222v203h222v-203zm337.999 0H980v203h222v-203zm-169-280H810v203h223v-203z" glyph-name="uni069B.medi" horiz-adv-x="1710" unicode="ڛ"/><glyph d="M373 329c-6-37.333-10.999-70.502-14.999-99.502s-7.167-55.333-9.5-79-4-45.167-5-64.5-1.5-37.666-1.5-54.999c0-53.333 4.5-99.166 13.5-137.499s24.833-69.833 47.5-94.5 53.334-43 92.001-55 87.667-18 147-18c68 0 125 8 171 24s83.167 40.833 111.5 74.5 48.5 77 60.5 130 18 116.5 18 190.5c0 28.667-.833 57.667-2.5 87s-4.334 61.833-8.001 97.5-8.167 75.167-13.5 118.5l-19 150h199l19-154.5c5.333-44.333 9.666-85.5 12.999-123.5 2-19.333 6.667-35.333 14-48s17.833-22.667 31.5-30 30.5-12.333 50.5-15 43.667-4 71-4c20 0 39.167 1.5 57.5 4.5s34.5 9.667 48.5 20 25.333 25.166 34 44.499 13 45.333 13 78v279h199v-210c0-37.333 1.167-69.5 3.5-96.5s8.833-49.333 19.5-67 26.834-30.834 48.501-39.501 51.834-13 90.501-13c22 0 42.333 1.5 61 4.5s34.667 9.5 48 19.5 23.833 24.667 31.5 44 11.5 45.666 11.5 78.999v467h199v-392c0-37.333 1-70 3-98s8.5-51.167 19.5-69.5 28-32 51-41 55.5-13.5 97.5-13.5v-245h-36c-56.667 0-103.834 8-141.5 24-37.667 16-66.834 43-87.5 81h-4c-16.667-21.333-35.167-38.666-55.5-51.999s-41.5-24-63.5-32-44.5-13.5-67.5-16.5-45.833-4.5-68.5-4.5c-26.667 0-52.834 1.833-78.501 5.5s-49.834 10-72.501 19-43.334 21.167-62.001 36.5-34.334 35-47.001 59h-6c-13.333-20-29-37.5-47-52.5s-37.5-27.5-58.5-37.5-42.833-17.5-65.5-22.5-44.667-7.5-66-7.5c-35.333 0-67.166 4.333-95.499 13s-53.166 23.667-74.499 45l-7-1c-5.333-91.333-20-171.666-44-240.999s-58.5-127.333-103.5-174-101-81.834-168-105.501-146.167-35.5-237.5-35.5-168.333 11.667-231 35-113.5 57.5-152.5 102.5-67.167 100.333-84.5 166S143-76.668 143 7.999c0 23.333.667 46.833 2 70.5s3.333 48.334 6 74.001 6.167 53 10.5 82S171.333 295 178 329h195zm1175-637.002h-222v203h222v-203zm338 0h-222v203h222v-203zm-169-280h-223v203h223v-203z" glyph-name="uni069B.fina" horiz-adv-x="2394" unicode="ڛ"/><glyph d="M513 649V436.004c0-36.667 1.167-68.334 3.5-95.001s8.5-48.834 18.5-66.501 25.167-30.667 45.5-39 48.166-12.5 83.499-12.5c20.667 0 40.834 1.5 60.501 4.5s37 9.667 52 20 27.167 25.166 36.5 44.499 14 45.333 14 78v279h199v-210c0-37.333 1.167-69.5 3.5-96.5s8.833-49.333 19.5-67 26.834-30.834 48.501-39.501 51.834-13 90.501-13c22 0 42.333 1.5 61 4.5s34.667 9.5 48 19.5 23.833 24.667 31.5 44 11.5 45.666 11.5 78.999v467h199v-480c0-77.333-9.833-140.5-29.5-189.5s-45.834-87.5-78.501-115.5-70.334-47.333-113.001-58-86.667-16-132-16c-26.667 0-52.834 1.833-78.501 5.5s-49.667 9.834-72 18.501-43 20.5-62 35.5-35.167 33.5-48.5 55.5h-4c-18-22-38.167-40.333-60.5-55S815.333 11.5 792 2.5s-47-15.333-71-19-46.333-5.5-67-5.5c-62 0-113.167 9-153.5 27S428 52.333 404 93h-4c-18.667-22-39.334-40.333-62.001-55s-46-26.5-70-35.5-48-15.333-72-19-46.667-5.5-68-5.5h-128c-23.333 0-40.833 11.167-52.5 33.5s-17.5 52.166-17.5 89.499c0 36.667 5.833 66.167 17.5 88.5s29.167 33.5 52.5 33.5h138c17.333 0 36.333 1.833 57 5.5S234.833 239.333 252.5 250s32.5 25.5 44.5 44.5 18 44.167 18 75.5v279h198zm351-956.996H642v203h222v-203zm338 0H980v203h222v-203zm-169-280H810v203h223v-203zm-169 1477H642v203h222v-203zm338 0H980v203h222v-203zM1034 1169H811v203h223v-203z" glyph-name="uni069C.init" horiz-adv-x="1710" unicode="ڜ"/><glyph d="M513 649l.001-212.996c0-36.667 1.167-68.334 3.5-95.001s8.5-48.834 18.5-66.501 25.167-30.667 45.5-39 48.166-12.5 83.499-12.5c20.667 0 40.834 1.5 60.501 4.5s37 9.667 52 20 27.167 25.166 36.5 44.499 14 45.333 14 78v279h199v-210c0-37.333 1.167-69.5 3.5-96.5s8.833-49.333 19.5-67 26.834-30.834 48.501-39.501 51.834-13 90.501-13c22 0 42.333 1.5 61 4.5s34.667 9.5 48 19.5 23.833 24.667 31.5 44 11.5 45.666 11.5 78.999v467h199v-392c0-37.333 1-70 3-98s8.5-51.167 19.5-69.5 28-32 51-41 55.5-13.5 97.5-13.5v-245h-36c-56.667 0-103.167 8.167-139.5 24.5s-66.166 43.166-89.499 80.499h-4c-16.667-21.333-35.167-38.666-55.5-51.999s-41.5-24-63.5-32-44.5-13.5-67.5-16.5-45.833-4.5-68.5-4.5c-26.667 0-52.834 1.833-78.501 5.5s-49.667 9.834-72 18.501-43 20.5-62 35.5-35.167 33.5-48.5 55.5h-4c-18-22-38.167-40.333-60.5-55s-45.166-26.5-68.499-35.5-47-15.333-71-19-46.333-5.5-67-5.5c-62.667 0-114 9-154 27s-72 47.333-96 88h-4c-18.667-22-39-40.333-61-55s-44.833-26.5-68.5-35.5-47.334-15.333-71.001-19-46.167-5.5-67.5-5.5h-132c-23.333 0-40.833 11.167-52.5 33.5s-17.5 52.166-17.5 89.499c0 36.667 5.833 66.167 17.5 88.5s29.167 33.5 52.5 33.5h142c17.333 0 36.166 1.833 56.499 5.5s39.166 10.834 56.499 21.501 31.666 25.5 42.999 44.5 17 44.167 17 75.5v279h198zm351.001-956.996h-222v203h222v-203zm337.999 0H980v203h222v-203zm-169-280H810v203h223v-203zm-168.999 1477h-222v203h222v-203zm337.999 0H980v203h222v-203zM1034 1169H811v203h223v-203z" glyph-name="uni069C.medi" horiz-adv-x="1710" unicode="ڜ"/><glyph d="M373 329c-6-37.333-10.999-70.502-14.999-99.502s-7.167-55.333-9.5-79-4-45.167-5-64.5-1.5-37.666-1.5-54.999c0-53.333 4.5-99.166 13.5-137.499s24.833-69.833 47.5-94.5 53.334-43 92.001-55 87.667-18 147-18c68 0 125 8 171 24s83.167 40.833 111.5 74.5 48.5 77 60.5 130 18 116.5 18 190.5c0 28.667-.833 57.667-2.5 87s-4.334 61.833-8.001 97.5-8.167 75.167-13.5 118.5l-19 150h199l19-154.5c5.333-44.333 9.666-85.5 12.999-123.5 2-19.333 6.667-35.333 14-48s17.833-22.667 31.5-30 30.5-12.333 50.5-15 43.667-4 71-4c20 0 39.167 1.5 57.5 4.5s34.5 9.667 48.5 20 25.333 25.166 34 44.499 13 45.333 13 78v279h199v-210c0-37.333 1.167-69.5 3.5-96.5s8.833-49.333 19.5-67 26.834-30.834 48.501-39.501 51.834-13 90.501-13c22 0 42.333 1.5 61 4.5s34.667 9.5 48 19.5 23.833 24.667 31.5 44 11.5 45.666 11.5 78.999v467h199v-392c0-37.333 1-70 3-98s8.5-51.167 19.5-69.5 28-32 51-41 55.5-13.5 97.5-13.5v-245h-36c-56.667 0-103.834 8-141.5 24-37.667 16-66.834 43-87.5 81h-4c-16.667-21.333-35.167-38.666-55.5-51.999s-41.5-24-63.5-32-44.5-13.5-67.5-16.5-45.833-4.5-68.5-4.5c-26.667 0-52.834 1.833-78.501 5.5s-49.834 10-72.501 19-43.334 21.167-62.001 36.5-34.334 35-47.001 59h-6c-13.333-20-29-37.5-47-52.5s-37.5-27.5-58.5-37.5-42.833-17.5-65.5-22.5-44.667-7.5-66-7.5c-35.333 0-67.166 4.333-95.499 13s-53.166 23.667-74.499 45l-7-1c-5.333-91.333-20-171.666-44-240.999s-58.5-127.333-103.5-174-101-81.834-168-105.501-146.167-35.5-237.5-35.5-168.333 11.667-231 35-113.5 57.5-152.5 102.5-67.167 100.333-84.5 166S143-76.668 143 7.999c0 23.333.667 46.833 2 70.5s3.333 48.334 6 74.001 6.167 53 10.5 82S171.333 295 178 329h195zm1175-637.002h-222v203h222v-203zm338 0h-222v203h222v-203zm-169-280h-223v203h223v-203zm-179 1477h-222v203h222v-203zm338 0h-222v203h222v-203zM1708 1169h-223v203h223v-203z" glyph-name="uni069C.fina" horiz-adv-x="2394" unicode="ڜ"/><glyph d="M467 598c9.333-56 17.335-106.827 24.002-152.494l18-126.5c1.333-8 3.666-17.167 6.999-27.5s9.166-20 17.499-29 20-17 35-24 34.833-11.5 59.5-13.5c17.333 46 39.166 95.167 65.499 147.5s57 104.166 92 155.499 74.167 100.666 117.5 147.999 90.833 89 142.5 125 107.167 64.667 166.5 86 122.666 32 189.999 32c80.667 0 151-13.333 211-40s109.833-63.5 149.5-110.5 69.334-103 89.001-168 29.5-135.5 29.5-211.5c0-67.333-7.667-124.333-23-171s-36.833-85.5-64.5-116.5-60.834-55.333-99.501-73-81.5-30.834-128.5-39.501-97.167-14-150.5-16-108.666-3-165.999-3c-120 0-222.833.167-308.5.5s-157.834 1.666-216.501 3.999-105.5 5.666-140.5 9.999-61.833 10.5-80.5 18.5c-22 9.333-40.667 21.666-56 36.999s-29.333 34.666-42 57.999h-4c-16-23.333-34.667-42.666-56-57.999s-43.666-27.666-66.999-36.999-46.666-15.833-69.999-19.5-45.333-5.5-66-5.5H0c-23.333 0-40.833 11.167-52.5 33.5S-70 63.667-70 101c0 36.667 5.833 66.167 17.5 88.5S-23.333 223 0 223h149c22 0 42.333 2.333 61 7s35 11.5 49 20.5 24.833 19.667 32.5 32S303 309 303 325c0 28-3.333 63.5-10 106.5S276 530 262 598h205zm916 74.006c-69.333 0-133.001-13.003-191.001-39.003s-110.333-60.167-157-102.5-87.5-90.666-122.5-144.999-64.167-109.833-87.5-166.5c20-1.333 48.5-2.166 85.5-2.499s76.833-.666 119.5-.999 85.667-.5 129-.5h114c82 0 149.333 1.333 202 4s94.334 9.5 125.001 20.5 52 27.333 64 49 18 51.5 18 89.5c0 50-7.167 93.5-21.5 130.5s-34.5 67.5-60.5 91.5-57.333 42-94 54-77.667 18-123 18zM1101-366.997H879v203h222v-203zm337 0h-222v203h222v-203z" glyph-name="uni069D.init" horiz-adv-x="2052" unicode="ڝ"/><glyph d="M467 598c9.333-56 17.338-106.827 24.005-152.494l18-126.5c1.333-8 3.666-17.167 6.999-27.5s9.166-20 17.499-29 20-17 35-24 34.833-11.5 59.5-13.5c17.333 46 39.166 95.167 65.499 147.5s57 104.166 92 155.499 74.167 100.666 117.5 147.999 90.833 89 142.5 125 107.167 64.667 166.5 86 122.666 32 189.999 32c78.667 0 147.667-12.833 207-38.5s108.833-61.334 148.5-107.001 69.667-99.834 90-162.501 31.5-130.667 33.5-204c.667-30 2.667-56.5 6-79.5s10.833-42.333 22.5-58 28.667-27.334 51-35.001 52.833-11.5 91.5-11.5v-245h-36c-28 0-54 2-78 6s-45.833 10.833-65.5 20.5-37 22.5-52 38.5-27.167 35.667-36.5 59h-6c-26-32-58.167-57-96.5-75s-80.666-31.167-127-39.5-95.5-13.333-147.5-15-104.666-2.5-158-2.5c-120 0-222.832.167-308.5.5s-157.833 1.5-216.5 3.5-105.5 5.333-140.5 10-61.833 11-80.5 19C481.668 12.334 463.168 24.667 447.5 40S417.667 74.666 405 97.999h-4C384.333 74.666 365.333 55.333 344 40s-43.5-27.666-66.5-36.999-46.167-15.833-69.5-19.5-45.333-5.5-66-5.5H0c-23.333 0-40.833 11.167-52.5 33.5S-70 63.667-70 101c0 36.667 5.833 66.167 17.5 88.5S-23.333 223 0 223h149c22 0 42.333 2.333 61 7s35 11.5 49 20.5 24.833 19.667 32.5 32S303 309 303 325c0 28-3.333 63.5-10 106.5S276 530 262 598h205zm916 74.006c-69.333 0-133.001-13.003-191.001-39.003s-110.333-60.167-157-102.5-87.5-90.666-122.5-144.999-64.167-109.833-87.5-166.5c20-1.333 48.5-2.166 85.5-2.499s76.833-.666 119.5-.999 85.667-.5 129-.5h114c82 0 149.333 1.333 202 4s94.334 9.5 125.001 20.5 52 27.333 64 49 18 51.5 18 89.5c0 50-7.167 93.5-21.5 130.5s-34.5 67.5-60.5 91.5-57.333 42-94 54-77.667 18-123 18zM1101-366.997H879v203h222v-203zm337 0h-222v203h222v-203z" glyph-name="uni069D.medi" horiz-adv-x="2052" unicode="ڝ"/><glyph d="M373 329l-14.003-99.994c-4-29.333-7.333-55.666-10-79s-4.5-44.832-5.5-64.5-1.5-38.833-1.5-57.5c0-52 4.667-97 14-135s25.5-69.333 48.5-94 54-43 93-55 88.167-18 147.5-18c68 0 125 8 171 24s82.667 41.167 110 75.5 46.833 78.5 58.5 132.5 17.5 119 17.5 195c0 27.333-.833 56.333-2.5 87s-4.667 64-9 100-10.166 75.167-17.499 117.5S956.332 546.672 945 598.005h205c10-56 18.167-106.333 24.5-151s12.166-84 17.5-118c2-14 4.5-26.5 7.5-37.5s8.5-20.833 16.5-29.5 19.332-16.167 34-22.5 35-11.166 61-14.5c17.332 46 39.165 95.168 65.498 147.5s57 104.167 92 155.5 74.167 100.666 117.5 147.999 90.833 89 142.5 125 107.334 64.667 167.001 86 123.167 32 190.5 32c78.667 0 147.667-12.833 207-38.5s108.666-61.334 148-107.001c39.333-45.667 69.333-99.834 90-162.501s32-130.667 34-204c.667-30 2.667-56.5 6-79.5s10.666-42.333 22-58c11.333-15.667 28.166-27.334 50.5-35.001 22.333-7.667 53.166-11.5 92.5-11.5V-22h-37c-28 0-54 2-78 6s-45.833 10.833-65.5 20.5-37 22.5-52 38.5-27.167 35.667-36.5 59h-6c-26-32-58.167-57-96.5-75S2283.832-4.166 2237.5-12.5s-95.5-13.333-147.5-15-104.667-2.5-158-2.5c-114.667 0-210.167.167-286.5.5S1506.333-28 1457-26s-88.166 5-116.499 9-51.5 9.667-69.5 17c-14.667 5.333-28.167 12.666-40.5 21.999s-23.5 19.666-33.5 30.999c-1.333-.667-2.166-1-2.499-1s-1.166-.333-2.499-1c-4-94-17.833-176.667-41.5-248s-58.334-131-104-179-102.668-84.167-171-108.5-148.834-36.5-241.5-36.5c-90.668 0-167.335 11.667-230.002 35s-113.334 57.333-152 102-66.5 99.834-83.5 165.5S143-77.332 143 8c0 23.334.666 46.834 2 70.5s3.332 48.5 6 74.5 6.166 53.334 10.5 82 9.832 60 16.5 94h195zm1693 343.006c-69.333 0-133-13.003-191-39.003s-110.333-60.167-157-102.5-87.5-90.666-122.5-144.999-64.167-109.833-87.5-166.5c20.667-1.333 49.5-2.166 86.5-2.499s76.833-.666 119.5-.999 85.667-.5 129-.5h114c82 0 149.333 1.333 202 4s94.167 9.5 124.5 20.5 51.5 27.333 63.5 49 18 51.5 18 89.5c0 50-7.167 93.5-21.5 130.5s-34.5 67.5-60.5 91.5-57.333 42-94 54-77.667 18-123 18zM1795-366.997h-222v203h222v-203zm337 0h-222v203h222v-203z" glyph-name="uni069D.fina" horiz-adv-x="2736" unicode="ڝ"/><glyph d="M467 598c9.333-56 17.335-106.827 24.002-152.494l18-126.5c1.333-8 3.666-17.167 6.999-27.5s9.166-20 17.499-29 20-17 35-24 34.833-11.5 59.5-13.5c17.333 46 39.166 95.167 65.499 147.5s57 104.166 92 155.499 74.167 100.666 117.5 147.999 90.833 89 142.5 125 107.167 64.667 166.5 86 122.666 32 189.999 32c80.667 0 151-13.333 211-40s109.833-63.5 149.5-110.5 69.334-103 89.001-168 29.5-135.5 29.5-211.5c0-67.333-7.667-124.333-23-171s-36.833-85.5-64.5-116.5-60.834-55.333-99.501-73-81.5-30.834-128.5-39.501-97.167-14-150.5-16-108.666-3-165.999-3c-120 0-222.833.167-308.5.5s-157.834 1.666-216.501 3.999-105.5 5.666-140.5 9.999-61.833 10.5-80.5 18.5c-22 9.333-40.667 21.666-56 36.999s-29.333 34.666-42 57.999h-4c-16-23.333-34.667-42.666-56-57.999s-43.666-27.666-66.999-36.999-46.666-15.833-69.999-19.5-45.333-5.5-66-5.5H0c-23.333 0-40.833 11.167-52.5 33.5S-70 63.667-70 101c0 36.667 5.833 66.167 17.5 88.5S-23.333 223 0 223h149c22 0 42.333 2.333 61 7s35 11.5 49 20.5 24.833 19.667 32.5 32S303 309 303 325c0 28-3.333 63.5-10 106.5S276 530 262 598h205zm916 74.006c-69.333 0-133.001-13.003-191.001-39.003s-110.333-60.167-157-102.5-87.5-90.666-122.5-144.999-64.167-109.833-87.5-166.5c20-1.333 48.5-2.166 85.5-2.499s76.833-.666 119.5-.999 85.667-.5 129-.5h114c82 0 149.333 1.333 202 4s94.334 9.5 125.001 20.5 52 27.333 64 49 18 51.5 18 89.5c0 50-7.167 93.5-21.5 130.5s-34.5 67.5-60.5 91.5-57.333 42-94 54-77.667 18-123 18zM986.001 1090h-222v203h222v-203zm337.999 0h-222v203h222v-203zm-168 280H933v203h223v-203z" glyph-name="uni069E.init" horiz-adv-x="2052" unicode="ڞ"/><glyph d="M467 598c9.333-56 17.338-106.827 24.005-152.494l18-126.5c1.333-8 3.666-17.167 6.999-27.5s9.166-20 17.499-29 20-17 35-24 34.833-11.5 59.5-13.5c17.333 46 39.166 95.167 65.499 147.5s57 104.166 92 155.499 74.167 100.666 117.5 147.999 90.833 89 142.5 125 107.167 64.667 166.5 86 122.666 32 189.999 32c78.667 0 147.667-12.833 207-38.5s108.833-61.334 148.5-107.001 69.667-99.834 90-162.501 31.5-130.667 33.5-204c.667-30 2.667-56.5 6-79.5s10.833-42.333 22.5-58 28.667-27.334 51-35.001 52.833-11.5 91.5-11.5v-245h-36c-28 0-54 2-78 6s-45.833 10.833-65.5 20.5-37 22.5-52 38.5-27.167 35.667-36.5 59h-6c-26-32-58.167-57-96.5-75s-80.666-31.167-127-39.5-95.5-13.333-147.5-15-104.666-2.5-158-2.5c-120 0-222.832.167-308.5.5s-157.833 1.5-216.5 3.5-105.5 5.333-140.5 10-61.833 11-80.5 19C481.668 12.334 463.168 24.667 447.5 40S417.667 74.666 405 97.999h-4C384.333 74.666 365.333 55.333 344 40s-43.5-27.666-66.5-36.999-46.167-15.833-69.5-19.5-45.333-5.5-66-5.5H0c-23.333 0-40.833 11.167-52.5 33.5S-70 63.667-70 101c0 36.667 5.833 66.167 17.5 88.5S-23.333 223 0 223h149c22 0 42.333 2.333 61 7s35 11.5 49 20.5 24.833 19.667 32.5 32S303 309 303 325c0 28-3.333 63.5-10 106.5S276 530 262 598h205zm916 74.006c-69.333 0-133.001-13.003-191.001-39.003s-110.333-60.167-157-102.5-87.5-90.666-122.5-144.999-64.167-109.833-87.5-166.5c20-1.333 48.5-2.166 85.5-2.499s76.833-.666 119.5-.999 85.667-.5 129-.5h114c82 0 149.333 1.333 202 4s94.334 9.5 125.001 20.5 52 27.333 64 49 18 51.5 18 89.5c0 50-7.167 93.5-21.5 130.5s-34.5 67.5-60.5 91.5-57.333 42-94 54-77.667 18-123 18zM986.004 1090h-222v203h222v-203zm337.996 0h-222v203h222v-203zm-168 280H933v203h223v-203z" glyph-name="uni069E.medi" horiz-adv-x="2052" unicode="ڞ"/><glyph d="M373 329l-14.003-99.994c-4-29.333-7.333-55.666-10-79s-4.5-44.832-5.5-64.5-1.5-38.833-1.5-57.5c0-52 4.667-97 14-135s25.5-69.333 48.5-94 54-43 93-55 88.167-18 147.5-18c68 0 125 8 171 24s82.667 41.167 110 75.5 46.833 78.5 58.5 132.5 17.5 119 17.5 195c0 27.333-.833 56.333-2.5 87s-4.667 64-9 100-10.166 75.167-17.499 117.5S956.332 546.672 945 598.005h205c10-56 18.167-106.333 24.5-151s12.166-84 17.5-118c2-14 4.5-26.5 7.5-37.5s8.5-20.833 16.5-29.5 19.332-16.167 34-22.5 35-11.166 61-14.5c17.332 46 39.165 95.168 65.498 147.5s57 104.167 92 155.5 74.167 100.666 117.5 147.999 90.833 89 142.5 125 107.334 64.667 167.001 86 123.167 32 190.5 32c78.667 0 147.667-12.833 207-38.5s108.666-61.334 148-107.001c39.333-45.667 69.333-99.834 90-162.501s32-130.667 34-204c.667-30 2.667-56.5 6-79.5s10.666-42.333 22-58c11.333-15.667 28.166-27.334 50.5-35.001 22.333-7.667 53.166-11.5 92.5-11.5V-22h-37c-28 0-54 2-78 6s-45.833 10.833-65.5 20.5-37 22.5-52 38.5-27.167 35.667-36.5 59h-6c-26-32-58.167-57-96.5-75S2283.832-4.166 2237.5-12.5s-95.5-13.333-147.5-15-104.667-2.5-158-2.5c-114.667 0-210.167.167-286.5.5S1506.333-28 1457-26s-88.166 5-116.499 9-51.5 9.667-69.5 17c-14.667 5.333-28.167 12.666-40.5 21.999s-23.5 19.666-33.5 30.999c-1.333-.667-2.166-1-2.499-1s-1.166-.333-2.499-1c-4-94-17.833-176.667-41.5-248s-58.334-131-104-179-102.668-84.167-171-108.5-148.834-36.5-241.5-36.5c-90.668 0-167.335 11.667-230.002 35s-113.334 57.333-152 102-66.5 99.834-83.5 165.5S143-77.332 143 8c0 23.334.666 46.834 2 70.5s3.332 48.5 6 74.5 6.166 53.334 10.5 82 9.832 60 16.5 94h195zm1693 343.006c-69.333 0-133-13.003-191-39.003s-110.333-60.167-157-102.5-87.5-90.666-122.5-144.999-64.167-109.833-87.5-166.5c20.667-1.333 49.5-2.166 86.5-2.499s76.833-.666 119.5-.999 85.667-.5 129-.5h114c82 0 149.333 1.333 202 4s94.167 9.5 124.5 20.5 51.5 27.333 63.5 49 18 51.5 18 89.5c0 50-7.167 93.5-21.5 130.5s-34.5 67.5-60.5 91.5-57.333 42-94 54-77.667 18-123 18zM1670 1090h-222v203h222v-203zm338 0h-222v203h222v-203zm-168 280h-223v203h223v-203z" glyph-name="uni069E.fina" horiz-adv-x="2736" unicode="ڞ"/><glyph d="M512 1516V612.005l5-1c31.333 43.333 66.5 84.166 105.5 122.499s81.333 71.666 127 99.999 94.5 50.833 146.5 67.5 106.667 25 164 25c80.667 0 151-13.5 211-40.5s109.833-64.333 149.5-112 69.334-104.334 89.001-170.001 29.5-137.167 29.5-214.5c0-67.333-7.667-124.333-23-171s-36.833-85.5-64.5-116.5-60.834-55.333-99.501-73-81.5-30.834-128.5-39.501-97.167-14-150.5-16-108.666-3-165.999-3c-59.333 0-124.333.333-195 1s-143.834 1.5-219.501 2.5l-228 3c-76.333 1-149.833 1.5-220.5 1.5H0c-23.333 0-40.833 11.167-52.5 33.5S-70 63.667-70 101c0 36.667 5.833 66.167 17.5 88.5S-23.333 223 0 223h301c2.667 8.667 6.667 18.667 12 30v1263h199zM484 219.005c20-1.333 48.499-2.169 85.499-2.502s76.833-.666 119.5-.999 85.5-.5 128.5-.5h113.5c82 0 149.333 1.333 202 4s94.334 9.5 125.001 20.5 52 27.333 64 49 18 51.5 18 89.5c0 51.333-7.167 95.833-21.5 133.5s-34.5 69-60.5 94-57.333 43.5-94 55.5-77.667 18-123 18c-69.333 0-133-13.167-191-39.5s-110.167-61-156.5-104-87-92.167-122-147.5-64.167-111.666-87.5-168.999zM938.999 1100h-222v203h222v-203zm338.001 0h-222v203h222v-203zm-168 280H886v203h223v-203z" glyph-name="uni069F.init" horiz-adv-x="1710" unicode="ڟ"/><glyph d="M512 1516l-.001-903.997 5-1c31.333 43.333 66.5 84.166 105.5 122.499s81.333 71.666 127 99.999 94.5 50.833 146.5 67.5 106.667 25 164 25c78.667 0 147.667-13 207-39s108.833-62.167 148.5-108.5 69.667-101.166 90-164.499 31.5-132.333 33.5-207c.667-30 2.834-56.5 6.501-79.5s11.167-42.333 22.5-58 28.166-27.334 50.499-35.001 52.833-11.5 91.5-11.5v-245h-24c-58.667 0-108.167 9-148.5 27s-71.166 49-92.499 93h-6c-27.333-31.333-60.333-55.5-99-72.5s-81.167-29.667-127.5-38-95.333-13.333-147-15-104.5-2.5-158.5-2.5c-59.333 0-124.166.333-194.499 1s-143 1.5-218 2.5l-226.5 3c-76 1-149.333 1.5-220 1.5h-48c-23.333 0-40.833 11.167-52.5 33.5s-17.5 52.166-17.5 89.499c0 36.667 5.833 66.167 17.5 88.5S-23.332 223 .001 223h298c2 6 4.167 11.667 6.5 17s5.166 11.333 8.499 18v1258h199zM483.999 219.003c20-1.333 48.499-2.169 85.499-2.502s76.833-.666 119.5-.999 85.5-.5 128.5-.5h113.5c82 0 149.333 1.333 202 4s94.334 9.5 125.001 20.5 52 27.333 64 49 18 51.5 18 89.5c0 51.333-7.167 95.833-21.5 133.5s-34.5 69-60.5 94-57.333 43.5-94 55.5-77.667 18-123 18c-69.333 0-133-13.167-191-39.5s-110.167-61-156.5-104-87-92.167-122-147.5-64.167-111.666-87.5-168.999zM938.998 1100h-222v203h222v-203zm338.002 0h-222v203h222v-203zm-168 280H886v203h223v-203z" glyph-name="uni069F.medi" horiz-adv-x="1710" unicode="ڟ"/><glyph d="M512 1516l-.002-904.002 5-1c31.333 43.333 66.5 84.166 105.5 122.499s81.333 71.666 127 99.999 94.5 50.833 146.5 67.5 106.667 25 164 25c78.667 0 147.667-13 207-39s108.833-62.167 148.5-108.5 69.667-101.166 90-164.499 31.5-132.333 33.5-207c.667-30 2.667-56.5 6-79.5s10.833-42.333 22.5-58 28.667-27.334 51-35.001 52.833-11.5 91.5-11.5v-245h-28c-58.667 0-107.5 8.833-146.5 26.5s-69.167 48.834-90.5 93.501h-6c-27.333-31.333-60.333-55.666-99-72.999s-81.167-30-127.5-38-95.5-12.833-147.5-14.5-104.667-2.5-158-2.5c-119.333 0-222.833.667-310.5 2s-164.667 3.333-231 6-124.5 5.834-174.5 9.501-97 7.834-141 12.501l-47 248c20.667-4 43.167-7.333 67.5-10s49.5-5 75.5-7 52.333-3.667 79-5 52.334-2.333 77.001-3c1.333 4.667 2.833 9 4.5 13s3.834 8.667 6.501 14v1266h199zM483.998 218.998c20.667-1.333 49.331-2.169 85.998-2.502s76.334-.666 119.001-.999 85.5-.5 128.5-.5h113.5c82 0 149.333 1.333 202 4s94.334 9.5 125.001 20.5 52 27.333 64 49 18 51.5 18 89.5c0 51.333-7.167 95.833-21.5 133.5s-34.5 69-60.5 94-57.333 43.5-94 55.5-77.667 18-123 18c-69.333 0-133-13.167-191-39.5s-110.167-61-156.5-104-87-92.167-122-147.5-64.167-111.666-87.5-168.999zM938.995 1100h-222v203h222v-203zm338.005 0h-222v203h222v-203zm-168 280H886v203h223v-203z" glyph-name="uni069F.fina" horiz-adv-x="1710" unicode="ڟ"/><glyph d="M1086 160c-82-36-159.502-65.835-232.502-89.502s-143.5-42.334-211.5-56.001-135-23.167-201-28.5-133.333-8-202-8h-239c-23.333 0-40.833 11.167-52.5 33.5s-17.5 52.166-17.5 89.499c0 36.667 5.833 66.167 17.5 88.5s29.167 33.5 52.5 33.5h288l2 6c-31.333 28-56.666 55.5-75.999 82.5s-34.666 53.5-45.999 79.5-19 51.333-23 76-6 48.334-6 71.001c0 62.667 13 119.834 39 171.501s62.667 95.834 110 132.501 103.833 65.167 169.5 85.5 138.167 30.5 217.5 30.5c25.333 0 52.5-1.167 81.5-3.5s61.833-6.833 98.5-13.5v-248c-36 6-70.333 10.667-103 14s-65.667 5-99 5c-40 0-78.833-1.833-116.5-5.5s-71.167-12-100.5-25-53-31.833-71-56.5-27-57.667-27-99c0-13.333 2.833-29.833 8.5-49.5s16.5-41.5 32.5-65.5 38.833-49.667 68.5-77S516 278.333 564 249c41.333 8 82.5 17.5 123.5 28.5s82.667 23.5 125 37.5 86 30 131 48 92.5 38.333 142.5 61V160zm-603.002 980h-222v203h222v-203zm338 0h-222v203h222v-203zm-168 280h-223v203h223v-203z" glyph-name="uni06A0.init" horiz-adv-x="1198" unicode="ڠ"/><glyph d="M156 874c32 6 68.169 12.332 108.502 18.999s82.166 12.834 125.499 18.501 87 10.5 131 14.5 86 6 126 6 82.167-3 126.5-9 85.333-17.667 123-35 68.667-42 93-74 36.5-74.333 36.5-127c0-26.667-3.667-56.5-11-89.5s-18-67.167-32-102.5-31.5-71-52.5-107-45.167-70.333-72.5-103c50-20.667 102.333-36.167 157-46.5s115.334-15.5 182.001-15.5V-22h-67c-90 0-174 11.833-252 35.5s-149 59.5-213 107.5h-6c-68-44-145.833-78.833-233.5-104.5S236.668-22 122.001-22h-122c-23.333 0-40.833 11.167-52.5 33.5s-17.5 52.166-17.5 89.499c0 36.667 5.833 66.167 17.5 88.5s29.167 33.5 52.5 33.5h132c70 0 132.167 4.667 186.5 14s104.166 22.333 149.499 39c-61.333 53.333-117 109.333-167 168S202.667 567.333 156 638v236zm220.002-199.001c40-56.667 83.666-108.501 130.999-155.501s100.333-90.833 159-131.5h4c24.667 20 46.834 41.667 66.501 65s36.167 46.166 49.5 68.499 23.5 43 30.5 62 10.5 34.5 10.5 46.5c0 28.667-16.5 48.834-49.5 60.501s-78.833 17.5-137.5 17.5c-41.333 0-85.5-2.167-132.5-6.5s-90.833-10.166-131.5-17.499v-9zM540.001 1140h-222v203h222v-203zm338 0h-222v203h222v-203zm-168 280h-223v203h223v-203z" glyph-name="uni06A0.medi" horiz-adv-x="1197" unicode="ڠ"/><glyph d="M1197-22l-52.002-.002c-58.667 0-115.667 6.167-171 18.5s-109 30-161 53-102.167 50.333-150.5 82-94.5 67.167-138.5 106.5c-54-24-98.333-48.333-133-73s-62-49.334-82-74.001-33.833-48.834-41.5-72.501-11.5-46.5-11.5-68.5c0-35.333 7.833-68.166 23.5-98.499s40-56.5 73-78.5 75.5-39.333 127.5-52 114.333-19 187-19c32.667 0 64.834 1.333 96.501 4s63.667 6.834 96 12.501 65.833 13 100.5 22 71 20.167 109 33.5v-234c-38.667-12.667-75-23.5-109-32.5s-67.333-16.167-100-21.5-64.834-9.333-96.501-12-64.5-4-98.5-4c-101.333 0-189.833 10.5-265.5 31.5s-138.667 51.5-189 91.5-88 88.667-113 146-37.5 122.333-37.5 195c0 44.667 5.333 87.834 16 129.501s28 81.834 52 120.501 55.667 75.667 95 111 88 69.666 146 102.999c-38 45.333-75 94.166-111 146.499s-70 106.833-102 163.5v234c28.667 4.667 62.334 10.5 101.001 17.5s79.834 13.667 123.501 20 88.167 11.666 133.5 15.999 88.666 6.5 129.999 6.5c27.333 0 55.5-1.167 84.5-3.5s57.5-6.666 85.5-12.999 54.667-15.166 80-26.499 47.5-26 66.5-44 34-39.833 45-65.5 16.5-56.167 16.5-91.5c0-25.333-3.833-54.666-11.5-87.999s-21.5-68.333-41.5-105-47.667-73.5-83-110.5S805.333 382.667 750 350c62-42 129.5-73.667 202.5-95s151.167-32 234.5-32h10V-22zM375.998 744.998c30-48.667 61.334-93.832 94.001-135.499s67-81.167 103-118.5c49.333 23.333 90.166 45.666 122.499 66.999s57.833 41.333 76.5 60 31.667 35.5 39 50.5 11 27.5 11 37.5c0 25.333-15.833 43.666-47.5 54.999s-77.5 17-137.5 17c-42 0-86-2.167-132-6.5s-89-10.166-129-17.499v-9zM539.999 1204h-222v203h222v-203zm338 0h-222v203h222v-203zm-168 280h-223v203h223v-203z" glyph-name="uni06A0.fina" horiz-adv-x="1197" unicode="ڠ"/><glyph d="M474 709c-18 0-34.998-5.999-50.998-17.999s-30-27.167-42-45.5-21.5-38.166-28.5-59.499-10.5-41-10.5-59c0-14 3.167-29.667 9.5-47s19-36.5 38-57.5 46.167-43.667 81.5-68 82.333-50.5 141-78.5c14 14.667 24.5 31.5 31.5 50.5s10.5 39.5 10.5 61.5c0 9.333-.333 18.666-1 27.999s-2 21.666-4 36.999c-3.333 24.667-10.5 52-21.5 82s-24.333 57.833-40 83.5-33.334 47.167-53.001 64.5-39.834 26-60.501 26zM321.002 225.001C258.335 263.668 213.333 307.836 186 357.503s-41 104.834-41 165.501c0 33.333 4 67.333 12 102s19.5 68.334 34.5 101.001 32.833 63.167 53.5 91.5 43.667 53.166 69 74.499 52.333 38.166 81 50.499 58.667 18.5 90 18.5c33.333 0 65.833-7.667 97.5-23s61.167-36.5 88.5-63.5 52.333-58.667 75-95 42-75.5 58-117.5 28.5-85.833 37.5-131.5 13.5-91.167 13.5-136.5c0-65.333-9.833-121.166-29.5-167.499s-46.167-84.833-79.5-115.5-72.166-54.834-116.499-72.501-91.5-31-141.5-40-101.167-14.667-153.5-17-103.166-3.5-152.499-3.5h-182c-23.333 0-40.833 11.167-52.5 33.5s-17.5 52.166-17.5 89.499c0 36.667 5.833 66.167 17.5 88.5s29.167 33.5 52.5 33.5h129c13.333 0 29-.333 47-1l54-2c18-.667 34.833-1.334 50.5-2.001s28.167-1 37.5-1z" glyph-name="uni06A1.init" horiz-adv-x="1026" unicode="ڡ"/><glyph d="M475 709c-18 0-35.001-6-51.001-18s-30.167-27.167-42.5-45.5-22-38.166-29-59.499-10.5-41-10.5-59c0-14 3.167-29.833 9.5-47.5s19-37 38-58 46.333-43.667 82-68 82.834-50.5 141.501-78.5c7.333 6 13.5 13.333 18.5 22s9.167 18 12.5 28 5.833 20.167 7.5 30.5 2.5 19.833 2.5 28.5c.667 9.333.5 19-.5 29s-2.167 20.667-3.5 32c-4 26.667-11.5 55.5-22.5 86.5s-24.333 59.667-40 86S554.333 665.667 535 683s-39.333 26-60 26zM321.999 225c-62.667 38.667-107.829 82.834-135.496 132.501s-41.5 104.834-41.5 165.501c0 33.333 4.167 67.333 12.5 102s19.833 68.334 34.5 101.001 32.5 63.167 53.5 91.5 44 53.166 69 74.499 52 38.166 81 50.499 59.167 18.5 90.5 18.5c34 0 66.667-7.667 98-23s60.666-36.5 87.999-63.5 52.166-58.833 74.499-95.5 41.666-76 57.999-118 28.833-85.667 37.5-131 13-90.666 13-135.999c0-32-2.667-61.5-8-88.5s-13-51.833-23-74.5c14.667-2 29.167-3.5 43.5-4.5s29.333-1.667 45-2 32.667-.666 51-.999 39.166-.5 62.499-.5v-245h-32c-29.333 0-60 1.167-92 3.5s-64.333 5.833-97 10.5-64.667 10.667-96 18-60.666 16.333-87.999 27c-36-14.667-74-26-114-34s-79.833-13.833-119.5-17.5-78.334-5.834-116.001-6.501-72.5-1-104.5-1h-167c-23.333 0-40.833 11.167-52.5 33.5s-17.5 52.166-17.5 89.499c0 36.667 5.833 66.167 17.5 88.5s29.167 33.5 52.5 33.5h130c13.333 0 29-.333 47-1l54-2c18-.667 34.833-1.334 50.5-2.001s28.167-1 37.5-1z" glyph-name="uni06A1.medi" horiz-adv-x="1026" unicode="ڡ"/><glyph d="M1500 709c-18 0-35-5.999-51-17.999s-30-27-42-45-21.5-37.667-28.5-59-10.5-41.333-10.5-60c0-14 3.167-29.667 9.5-47s19-36.5 38-57.5 46.167-43.667 81.5-68 82.333-50.5 141-78.5c7.333 6 13.666 13.333 18.999 22s9.5 18 12.5 28 5.333 20 7 30 2.834 19.333 3.501 28c.667 9.333.5 19-.5 29s-2.167 20.667-3.5 32c-4 26.667-11.5 55.5-22.5 86.5s-24.5 59.667-40.5 86-33.667 48.166-53 65.499-39.333 26-60 26zM374 650.001c-5.333-22-9.833-42.332-13.5-60.999s-7-36.5-10-53.5-5.167-33.667-6.5-50-2-33.166-2-50.499c0-32.667 3.833-61.334 11.5-86.001s21.167-45.334 40.5-62.001c18.667-18 43.5-31.833 74.5-41.5s69.667-17 116-22 101.833-8 166.5-9 140-1.5 226-1.5h188c24 0 45 .167 63 .5s34.333.666 49 .999 27.834.666 39.501.999 22.5.833 32.5 1.5l3 8c-62.667 38.667-108.5 82.834-137.5 132.501s-43.5 104.834-43.5 165.501c0 33.333 4 67.333 12 102s19.5 68.334 34.5 101.001 32.833 63.167 53.5 91.5 43.667 53.166 69 74.499 52.333 38.166 81 50.499 58.667 18.5 90 18.5c34 0 66.667-7.667 98-23s60.666-36.5 87.999-63.5 52.333-58.833 75-95.5 42-76 58-118 28.5-85.667 37.5-131 13.5-90.666 13.5-135.999c0-32-2.667-61.333-8-88s-13.333-51.667-24-75c14.667-2 29.167-3.5 43.5-4.5s29.5-1.667 45.5-2 33.167-.666 51.5-.999 39.166-.5 62.499-.5v-245h-32c-29.333 0-60.333 1.167-93 3.5s-65.5 5.833-98.5 10.5-65.167 10.667-96.5 18-60 16-86 26c-35.333-15.333-74.666-27.333-117.999-36s-88.833-15.167-136.5-19.5-97-7.166-148-8.499-102.167-2-153.5-2H974c-86 0-165 .5-237 1.5s-137.333 4.833-196 11.5-110.5 16.667-155.5 30S301.667 45.669 269 71.002c-24.667 19.333-45.334 41.166-62.001 65.499s-30 50.333-40 78-17.167 56.5-21.5 86.5-6.5 60-6.5 90c0 45.333 3.333 89.333 10 132s15.334 85 26.001 127h199z" glyph-name="uni06A1.fina" horiz-adv-x="2052" unicode="ڡ"/><glyph d="M474 709c-18 0-34.998-5.999-50.998-17.999s-30-27.167-42-45.5-21.5-38.166-28.5-59.499-10.5-41-10.5-59c0-14 3.167-29.667 9.5-47s19-36.5 38-57.5 46.167-43.667 81.5-68 82.333-50.5 141-78.5c14 14.667 24.5 31.5 31.5 50.5s10.5 39.5 10.5 61.5c0 9.333-.333 18.666-1 27.999s-2 21.666-4 36.999c-3.333 24.667-10.5 52-21.5 82s-24.333 57.833-40 83.5-33.334 47.167-53.001 64.5-39.834 26-60.501 26zM321.002 225.001C258.335 263.668 213.333 307.836 186 357.503s-41 104.834-41 165.501c0 33.333 4 67.333 12 102s19.5 68.334 34.5 101.001 32.833 63.167 53.5 91.5 43.667 53.166 69 74.499 52.333 38.166 81 50.499 58.667 18.5 90 18.5c33.333 0 65.833-7.667 97.5-23s61.167-36.5 88.5-63.5 52.333-58.667 75-95 42-75.5 58-117.5 28.5-85.833 37.5-131.5 13.5-91.167 13.5-136.5c0-65.333-9.833-121.166-29.5-167.499s-46.167-84.833-79.5-115.5-72.166-54.834-116.499-72.501-91.5-31-141.5-40-101.167-14.667-153.5-17-103.166-3.5-152.499-3.5h-182c-23.333 0-40.833 11.167-52.5 33.5s-17.5 52.166-17.5 89.499c0 36.667 5.833 66.167 17.5 88.5s29.167 33.5 52.5 33.5h129c13.333 0 29-.333 47-1l54-2c18-.667 34.833-1.334 50.5-2.001s28.167-1 37.5-1zM638-366.998H415v203h223v-203z" glyph-name="uni06A2.init" horiz-adv-x="1026" unicode="ڢ"/><glyph d="M475 709c-18 0-35.001-6-51.001-18s-30.167-27.167-42.5-45.5-22-38.166-29-59.499-10.5-41-10.5-59c0-14 3.167-29.833 9.5-47.5s19-37 38-58 46.333-43.667 82-68 82.834-50.5 141.501-78.5c7.333 6 13.5 13.333 18.5 22s9.167 18 12.5 28 5.833 20.167 7.5 30.5 2.5 19.833 2.5 28.5c.667 9.333.5 19-.5 29s-2.167 20.667-3.5 32c-4 26.667-11.5 55.5-22.5 86.5s-24.333 59.667-40 86S554.333 665.667 535 683s-39.333 26-60 26zM321.999 225c-62.667 38.667-107.829 82.834-135.496 132.501s-41.5 104.834-41.5 165.501c0 33.333 4.167 67.333 12.5 102s19.833 68.334 34.5 101.001 32.5 63.167 53.5 91.5 44 53.166 69 74.499 52 38.166 81 50.499 59.167 18.5 90.5 18.5c34 0 66.667-7.667 98-23s60.666-36.5 87.999-63.5 52.166-58.833 74.499-95.5 41.666-76 57.999-118 28.833-85.667 37.5-131 13-90.666 13-135.999c0-32-2.667-61.5-8-88.5s-13-51.833-23-74.5c14.667-2 29.167-3.5 43.5-4.5s29.333-1.667 45-2 32.667-.666 51-.999 39.166-.5 62.499-.5v-245h-32c-29.333 0-60 1.167-92 3.5s-64.333 5.833-97 10.5-64.667 10.667-96 18-60.666 16.333-87.999 27c-36-14.667-74-26-114-34s-79.833-13.833-119.5-17.5-78.334-5.834-116.001-6.501-72.5-1-104.5-1h-167c-23.333 0-40.833 11.167-52.5 33.5s-17.5 52.166-17.5 89.499c0 36.667 5.833 66.167 17.5 88.5s29.167 33.5 52.5 33.5h130c13.333 0 29-.333 47-1l54-2c18-.667 34.833-1.334 50.5-2.001s28.167-1 37.5-1zm316.005-592h-223v203h223v-203z" glyph-name="uni06A2.medi" horiz-adv-x="1026" unicode="ڢ"/><glyph d="M1500 709c-18 0-35-5.999-51-17.999s-30-27-42-45-21.5-37.667-28.5-59-10.5-41.333-10.5-60c0-14 3.167-29.667 9.5-47s19-36.5 38-57.5 46.167-43.667 81.5-68 82.333-50.5 141-78.5c7.333 6 13.666 13.333 18.999 22s9.5 18 12.5 28 5.333 20 7 30 2.834 19.333 3.501 28c.667 9.333.5 19-.5 29s-2.167 20.667-3.5 32c-4 26.667-11.5 55.5-22.5 86.5s-24.5 59.667-40.5 86-33.667 48.166-53 65.499-39.333 26-60 26zM374 650.001c-5.333-22-9.833-42.332-13.5-60.999s-7-36.5-10-53.5-5.167-33.667-6.5-50-2-33.166-2-50.499c0-32.667 3.833-61.334 11.5-86.001s21.167-45.334 40.5-62.001c18.667-18 43.5-31.833 74.5-41.5s69.667-17 116-22 101.833-8 166.5-9 140-1.5 226-1.5h188c24 0 45 .167 63 .5s34.333.666 49 .999 27.834.666 39.501.999 22.5.833 32.5 1.5l3 8c-62.667 38.667-108.5 82.834-137.5 132.501s-43.5 104.834-43.5 165.501c0 33.333 4 67.333 12 102s19.5 68.334 34.5 101.001 32.833 63.167 53.5 91.5 43.667 53.166 69 74.499 52.333 38.166 81 50.499 58.667 18.5 90 18.5c34 0 66.667-7.667 98-23s60.666-36.5 87.999-63.5 52.333-58.833 75-95.5 42-76 58-118 28.5-85.667 37.5-131 13.5-90.666 13.5-135.999c0-32-2.667-61.333-8-88s-13.333-51.667-24-75c14.667-2 29.167-3.5 43.5-4.5s29.5-1.667 45.5-2 33.167-.666 51.5-.999 39.166-.5 62.499-.5v-245h-32c-29.333 0-60.333 1.167-93 3.5s-65.5 5.833-98.5 10.5-65.167 10.667-96.5 18-60 16-86 26c-35.333-15.333-74.666-27.333-117.999-36s-88.833-15.167-136.5-19.5-97-7.166-148-8.499-102.167-2-153.5-2H974c-86 0-165 .5-237 1.5s-137.333 4.833-196 11.5-110.5 16.667-155.5 30S301.667 45.669 269 71.002c-24.667 19.333-45.334 41.166-62.001 65.499s-30 50.333-40 78-17.167 56.5-21.5 86.5-6.5 60-6.5 90c0 45.333 3.333 89.333 10 132s15.334 85 26.001 127h199zM1664-366.998h-223v203h223v-203z" glyph-name="uni06A2.fina" horiz-adv-x="2052" unicode="ڢ"/><glyph d="M474 709c-18 0-34.998-5.999-50.998-17.999s-30-27.167-42-45.5-21.5-38.166-28.5-59.499-10.5-41-10.5-59c0-14 3.167-29.667 9.5-47s19-36.5 38-57.5 46.167-43.667 81.5-68 82.333-50.5 141-78.5c14 14.667 24.5 31.5 31.5 50.5s10.5 39.5 10.5 61.5c0 9.333-.333 18.666-1 27.999s-2 21.666-4 36.999c-3.333 24.667-10.5 52-21.5 82s-24.333 57.833-40 83.5-33.334 47.167-53.001 64.5-39.834 26-60.501 26zM321.002 225.001C258.335 263.668 213.333 307.836 186 357.503s-41 104.834-41 165.501c0 33.333 4 67.333 12 102s19.5 68.334 34.5 101.001 32.833 63.167 53.5 91.5 43.667 53.166 69 74.499 52.333 38.166 81 50.499 58.667 18.5 90 18.5c33.333 0 65.833-7.667 97.5-23s61.167-36.5 88.5-63.5 52.333-58.667 75-95 42-75.5 58-117.5 28.5-85.833 37.5-131.5 13.5-91.167 13.5-136.5c0-65.333-9.833-121.166-29.5-167.499s-46.167-84.833-79.5-115.5-72.166-54.834-116.499-72.501-91.5-31-141.5-40-101.167-14.667-153.5-17-103.166-3.5-152.499-3.5h-182c-23.333 0-40.833 11.167-52.5 33.5s-17.5 52.166-17.5 89.499c0 36.667 5.833 66.167 17.5 88.5s29.167 33.5 52.5 33.5h129c13.333 0 29-.333 47-1l54-2c18-.667 34.833-1.334 50.5-2.001s28.167-1 37.5-1zM638-366.998H415v203h223v-203zM571 1204H348v203h223v-203z" glyph-name="uni06A3.init" horiz-adv-x="1026" unicode="ڣ"/><glyph d="M475 709c-18 0-35.001-6-51.001-18s-30.167-27.167-42.5-45.5-22-38.166-29-59.499-10.5-41-10.5-59c0-14 3.167-29.833 9.5-47.5s19-37 38-58 46.333-43.667 82-68 82.834-50.5 141.501-78.5c7.333 6 13.5 13.333 18.5 22s9.167 18 12.5 28 5.833 20.167 7.5 30.5 2.5 19.833 2.5 28.5c.667 9.333.5 19-.5 29s-2.167 20.667-3.5 32c-4 26.667-11.5 55.5-22.5 86.5s-24.333 59.667-40 86S554.333 665.667 535 683s-39.333 26-60 26zM321.999 225c-62.667 38.667-107.829 82.834-135.496 132.501s-41.5 104.834-41.5 165.501c0 33.333 4.167 67.333 12.5 102s19.833 68.334 34.5 101.001 32.5 63.167 53.5 91.5 44 53.166 69 74.499 52 38.166 81 50.499 59.167 18.5 90.5 18.5c34 0 66.667-7.667 98-23s60.666-36.5 87.999-63.5 52.166-58.833 74.499-95.5 41.666-76 57.999-118 28.833-85.667 37.5-131 13-90.666 13-135.999c0-32-2.667-61.5-8-88.5s-13-51.833-23-74.5c14.667-2 29.167-3.5 43.5-4.5s29.333-1.667 45-2 32.667-.666 51-.999 39.166-.5 62.499-.5v-245h-32c-29.333 0-60 1.167-92 3.5s-64.333 5.833-97 10.5-64.667 10.667-96 18-60.666 16.333-87.999 27c-36-14.667-74-26-114-34s-79.833-13.833-119.5-17.5-78.334-5.834-116.001-6.501-72.5-1-104.5-1h-167c-23.333 0-40.833 11.167-52.5 33.5s-17.5 52.166-17.5 89.499c0 36.667 5.833 66.167 17.5 88.5s29.167 33.5 52.5 33.5h130c13.333 0 29-.333 47-1l54-2c18-.667 34.833-1.334 50.5-2.001s28.167-1 37.5-1zm316.005-592h-223v203h223v-203zm-67 1571h-223v203h223v-203z" glyph-name="uni06A3.medi" horiz-adv-x="1026" unicode="ڣ"/><glyph d="M1500 709c-18 0-35-5.999-51-17.999s-30-27-42-45-21.5-37.667-28.5-59-10.5-41.333-10.5-60c0-14 3.167-29.667 9.5-47s19-36.5 38-57.5 46.167-43.667 81.5-68 82.333-50.5 141-78.5c7.333 6 13.666 13.333 18.999 22s9.5 18 12.5 28 5.333 20 7 30 2.834 19.333 3.501 28c.667 9.333.5 19-.5 29s-2.167 20.667-3.5 32c-4 26.667-11.5 55.5-22.5 86.5s-24.5 59.667-40.5 86-33.667 48.166-53 65.499-39.333 26-60 26zM374 650.001c-5.333-22-9.833-42.332-13.5-60.999s-7-36.5-10-53.5-5.167-33.667-6.5-50-2-33.166-2-50.499c0-32.667 3.833-61.334 11.5-86.001s21.167-45.334 40.5-62.001c18.667-18 43.5-31.833 74.5-41.5s69.667-17 116-22 101.833-8 166.5-9 140-1.5 226-1.5h188c24 0 45 .167 63 .5s34.333.666 49 .999 27.834.666 39.501.999 22.5.833 32.5 1.5l3 8c-62.667 38.667-108.5 82.834-137.5 132.501s-43.5 104.834-43.5 165.501c0 33.333 4 67.333 12 102s19.5 68.334 34.5 101.001 32.833 63.167 53.5 91.5 43.667 53.166 69 74.499 52.333 38.166 81 50.499 58.667 18.5 90 18.5c34 0 66.667-7.667 98-23s60.666-36.5 87.999-63.5 52.333-58.833 75-95.5 42-76 58-118 28.5-85.667 37.5-131 13.5-90.666 13.5-135.999c0-32-2.667-61.333-8-88s-13.333-51.667-24-75c14.667-2 29.167-3.5 43.5-4.5s29.5-1.667 45.5-2 33.167-.666 51.5-.999 39.166-.5 62.499-.5v-245h-32c-29.333 0-60.333 1.167-93 3.5s-65.5 5.833-98.5 10.5-65.167 10.667-96.5 18-60 16-86 26c-35.333-15.333-74.666-27.333-117.999-36s-88.833-15.167-136.5-19.5-97-7.166-148-8.499-102.167-2-153.5-2H974c-86 0-165 .5-237 1.5s-137.333 4.833-196 11.5-110.5 16.667-155.5 30S301.667 45.669 269 71.002c-24.667 19.333-45.334 41.166-62.001 65.499s-30 50.333-40 78-17.167 56.5-21.5 86.5-6.5 60-6.5 90c0 45.333 3.333 89.333 10 132s15.334 85 26.001 127h199zm736-1016.999H887v203h223v-203zM1594 1204h-223v203h223v-203z" glyph-name="uni06A3.fina" horiz-adv-x="2052" unicode="ڣ"/><glyph d="M374 650c-5.333-22-9.83-42.334-13.496-61.001s-7-36.5-10-53.5-5.167-33.667-6.5-50-2-33.166-2-50.499c0-36 4.833-67.167 14.5-93.5s26.167-48.166 49.5-65.499 54.666-30.333 93.999-39 89.166-14.834 149.499-18.501 132.333-5.5 216-5.5h294.5c24 0 45 .167 63 .5s34.333.666 49 .999 27.834.666 39.5.999 22.5.833 32.5 1.5l3 8c-62.666 38.667-108.5 82.834-137.5 132.501s-43.5 104.834-43.5 165.501c0 33.333 4.168 67.333 12.5 102s20.167 68.334 35.5 101.001 33.5 63.167 54.5 91.5 44.333 53.166 70 74.499 53 38.166 82 50.499 59.167 18.5 90.5 18.5c34 0 66.667-7.667 98-23S1669.668 901.333 1697 874s52.333-59.166 75-95.499 42-75.5 58-117.5 28.5-85.833 37.5-131.5S1881 438.667 1881 394c0-64-9.167-119-27.5-165s-44.333-84.833-78-116.5-74.334-56.834-122.001-75.501-100.834-33-159.501-43-122-16.5-190-19.5-139.333-4.5-214-4.5h-116c-86 0-165 .5-237 1.5s-137.333 4.833-196 11.5-110.5 16.667-155.5 30-83.833 32.666-116.5 57.999c-25.333 19.333-46.333 41.333-63 66s-30 50.834-40 78.501-17 56.334-21 86.001-6 59.5-6 89.5c0 45.333 3.333 89.333 10 132s15.334 85 26 127h199zm1126 58.999c-18 0-35.335-5.998-52.002-17.998s-31.167-27-43.5-45-22.333-37.667-30-59-11.5-41.333-11.5-60c0-14 3.333-29.833 10-47.5s19.834-36.834 39.501-57.501 47.5-43.167 83.5-67.5 83.333-50.5 142-78.5c7.333 6 13.5 13.333 18.5 22s9.167 18 12.5 28 5.833 20 7.5 30 2.834 19.333 3.501 28c.667 9.333.5 19-.5 29s-2.167 20.667-3.5 32c-4 26.667-11.5 55.5-22.5 86.5s-24.5 59.667-40.5 86-33.667 48.166-53 65.499-39.333 26-60 26zM1424 1204h-222v203h222v-203zm338 0h-222v203h222v-203zm-168 280h-223v203h223v-203z" arabic-form="isolated" glyph-name="afii57505" horiz-adv-x="2052" unicode="ڤ"/><glyph d="M474 709c-18 0-34.998-5.999-50.998-17.999s-30-27.167-42-45.5-21.5-38.166-28.5-59.499-10.5-41-10.5-59c0-14 3.167-29.667 9.5-47s19-36.5 38-57.5 46.167-43.667 81.5-68 82.333-50.5 141-78.5c14 14.667 24.5 31.5 31.5 50.5s10.5 39.5 10.5 61.5c0 9.333-.333 18.666-1 27.999s-2 21.666-4 36.999c-3.333 24.667-10.5 52-21.5 82s-24.333 57.833-40 83.5-33.334 47.167-53.001 64.5-39.834 26-60.501 26zM321.002 225.001C258.335 263.668 213.333 307.836 186 357.503s-41 104.834-41 165.501c0 33.333 4 67.333 12 102s19.5 68.334 34.5 101.001 32.833 63.167 53.5 91.5 43.667 53.166 69 74.499 52.333 38.166 81 50.499 58.667 18.5 90 18.5c33.333 0 65.833-7.667 97.5-23s61.167-36.5 88.5-63.5 52.333-58.667 75-95 42-75.5 58-117.5 28.5-85.833 37.5-131.5 13.5-91.167 13.5-136.5c0-65.333-9.833-121.166-29.5-167.499s-46.167-84.833-79.5-115.5-72.166-54.834-116.499-72.501-91.5-31-141.5-40-101.167-14.667-153.5-17-103.166-3.5-152.499-3.5h-182c-23.333 0-40.833 11.167-52.5 33.5s-17.5 52.166-17.5 89.499c0 36.667 5.833 66.167 17.5 88.5s29.167 33.5 52.5 33.5h129c13.333 0 29-.333 47-1l54-2c18-.667 34.833-1.334 50.5-2.001s28.167-1 37.5-1zM468-307.998H246v203h222v-203zm338 0H584v203h222v-203zm-169-280H414v203h223v-203z" glyph-name="uni06A5.init" horiz-adv-x="1026" unicode="ڥ"/><glyph d="M475 709c-18 0-35.001-6-51.001-18s-30.167-27.167-42.5-45.5-22-38.166-29-59.499-10.5-41-10.5-59c0-14 3.167-29.833 9.5-47.5s19-37 38-58 46.333-43.667 82-68 82.834-50.5 141.501-78.5c7.333 6 13.5 13.333 18.5 22s9.167 18 12.5 28 5.833 20.167 7.5 30.5 2.5 19.833 2.5 28.5c.667 9.333.5 19-.5 29s-2.167 20.667-3.5 32c-4 26.667-11.5 55.5-22.5 86.5s-24.333 59.667-40 86S554.333 665.667 535 683s-39.333 26-60 26zM321.999 225c-62.667 38.667-107.829 82.834-135.496 132.501s-41.5 104.834-41.5 165.501c0 33.333 4.167 67.333 12.5 102s19.833 68.334 34.5 101.001 32.5 63.167 53.5 91.5 44 53.166 69 74.499 52 38.166 81 50.499 59.167 18.5 90.5 18.5c34 0 66.667-7.667 98-23s60.666-36.5 87.999-63.5 52.166-58.833 74.499-95.5 41.666-76 57.999-118 28.833-85.667 37.5-131 13-90.666 13-135.999c0-32-2.667-61.5-8-88.5s-13-51.833-23-74.5c14.667-2 29.167-3.5 43.5-4.5s29.333-1.667 45-2 32.667-.666 51-.999 39.166-.5 62.499-.5v-245h-32c-29.333 0-60 1.167-92 3.5s-64.333 5.833-97 10.5-64.667 10.667-96 18-60.666 16.333-87.999 27c-36-14.667-74-26-114-34s-79.833-13.833-119.5-17.5-78.334-5.834-116.001-6.501-72.5-1-104.5-1h-167c-23.333 0-40.833 11.167-52.5 33.5s-17.5 52.166-17.5 89.499c0 36.667 5.833 66.167 17.5 88.5s29.167 33.5 52.5 33.5h130c13.333 0 29-.333 47-1l54-2c18-.667 34.833-1.334 50.5-2.001s28.167-1 37.5-1zm146.005-533h-222v203h222v-203zm338 0h-222v203h222v-203zm-169-280h-223v203h223v-203z" glyph-name="uni06A5.medi" horiz-adv-x="1026" unicode="ڥ"/><glyph d="M1500 709c-18 0-35-5.999-51-17.999s-30-27-42-45-21.5-37.667-28.5-59-10.5-41.333-10.5-60c0-14 3.167-29.667 9.5-47s19-36.5 38-57.5 46.167-43.667 81.5-68 82.333-50.5 141-78.5c7.333 6 13.666 13.333 18.999 22s9.5 18 12.5 28 5.333 20 7 30 2.834 19.333 3.501 28c.667 9.333.5 19-.5 29s-2.167 20.667-3.5 32c-4 26.667-11.5 55.5-22.5 86.5s-24.5 59.667-40.5 86-33.667 48.166-53 65.499-39.333 26-60 26zM374 650.001c-5.333-22-9.833-42.332-13.5-60.999s-7-36.5-10-53.5-5.167-33.667-6.5-50-2-33.166-2-50.499c0-32.667 3.833-61.334 11.5-86.001s21.167-45.334 40.5-62.001c18.667-18 43.5-31.833 74.5-41.5s69.667-17 116-22 101.833-8 166.5-9 140-1.5 226-1.5h188c24 0 45 .167 63 .5s34.333.666 49 .999 27.834.666 39.501.999 22.5.833 32.5 1.5l3 8c-62.667 38.667-108.5 82.834-137.5 132.501s-43.5 104.834-43.5 165.501c0 33.333 4 67.333 12 102s19.5 68.334 34.5 101.001 32.833 63.167 53.5 91.5 43.667 53.166 69 74.499 52.333 38.166 81 50.499 58.667 18.5 90 18.5c34 0 66.667-7.667 98-23s60.666-36.5 87.999-63.5 52.333-58.833 75-95.5 42-76 58-118 28.5-85.667 37.5-131 13.5-90.666 13.5-135.999c0-32-2.667-61.333-8-88s-13.333-51.667-24-75c14.667-2 29.167-3.5 43.5-4.5s29.5-1.667 45.5-2 33.167-.666 51.5-.999 39.166-.5 62.499-.5v-245h-32c-29.333 0-60.333 1.167-93 3.5s-65.5 5.833-98.5 10.5-65.167 10.667-96.5 18-60 16-86 26c-35.333-15.333-74.666-27.333-117.999-36s-88.833-15.167-136.5-19.5-97-7.166-148-8.499-102.167-2-153.5-2H974c-86 0-165 .5-237 1.5s-137.333 4.833-196 11.5-110.5 16.667-155.5 30S301.667 45.669 269 71.002c-24.667 19.333-45.334 41.166-62.001 65.499s-30 50.333-40 78-17.167 56.5-21.5 86.5-6.5 60-6.5 90c0 45.333 3.333 89.333 10 132s15.334 85 26.001 127h199zm1120-957.999h-222v203h222v-203zm338 0h-222v203h222v-203zm-169-280h-223v203h223v-203z" glyph-name="uni06A5.fina" horiz-adv-x="2052" unicode="ڥ"/><glyph d="M374 650c-5.333-22-9.83-42.334-13.496-61.001s-7-36.5-10-53.5-5.167-33.667-6.5-50-2-33.166-2-50.499c0-36 4.833-67.167 14.5-93.5s26.167-48.166 49.5-65.499 54.666-30.333 93.999-39 89.166-14.834 149.499-18.501 132.333-5.5 216-5.5h294.5c24 0 45 .167 63 .5s34.333.666 49 .999 27.834.666 39.5.999 22.5.833 32.5 1.5l3 8c-62.666 38.667-108.5 82.834-137.5 132.501s-43.5 104.834-43.5 165.501c0 33.333 4.168 67.333 12.5 102s20.167 68.334 35.5 101.001 33.5 63.167 54.5 91.5 44.333 53.166 70 74.499 53 38.166 82 50.499 59.167 18.5 90.5 18.5c34 0 66.667-7.667 98-23S1669.668 901.333 1697 874s52.333-59.166 75-95.499 42-75.5 58-117.5 28.5-85.833 37.5-131.5S1881 438.667 1881 394c0-64-9.167-119-27.5-165s-44.333-84.833-78-116.5-74.334-56.834-122.001-75.501-100.834-33-159.501-43-122-16.5-190-19.5-139.333-4.5-214-4.5h-116c-86 0-165 .5-237 1.5s-137.333 4.833-196 11.5-110.5 16.667-155.5 30-83.833 32.666-116.5 57.999c-25.333 19.333-46.333 41.333-63 66s-30 50.834-40 78.501-17 56.334-21 86.001-6 59.5-6 89.5c0 45.333 3.333 89.333 10 132s15.334 85 26 127h199zm1126 58.999c-18 0-35.335-5.998-52.002-17.998s-31.167-27-43.5-45-22.333-37.667-30-59-11.5-41.333-11.5-60c0-14 3.333-29.833 10-47.5s19.834-36.834 39.501-57.501 47.5-43.167 83.5-67.5 83.333-50.5 142-78.5c7.333 6 13.5 13.333 18.5 22s9.167 18 12.5 28 5.833 20 7.5 30 2.834 19.333 3.501 28c.667 9.333.5 19-.5 29s-2.167 20.667-3.5 32c-4 26.667-11.5 55.5-22.5 86.5s-24.5 59.667-40.5 86-33.667 48.166-53 65.499-39.333 26-60 26zM1424 1204h-222v203h222v-203zm338 0h-222v203h222v-203zm-338 280h-222v203h222v-203zm338 0h-222v203h222v-203z" arabic-form="isolated" glyph-name="uni06A6" horiz-adv-x="2052" unicode="ڦ"/><glyph d="M474 709c-18 0-34.998-5.999-50.998-17.999s-30-27.167-42-45.5-21.5-38.166-28.5-59.499-10.5-41-10.5-59c0-14 3.167-29.667 9.5-47s19-36.5 38-57.5 46.167-43.667 81.5-68 82.333-50.5 141-78.5c14 14.667 24.5 31.5 31.5 50.5s10.5 39.5 10.5 61.5c0 9.333-.333 18.666-1 27.999s-2 21.666-4 36.999c-3.333 24.667-10.5 52-21.5 82s-24.333 57.833-40 83.5-33.334 47.167-53.001 64.5-39.834 26-60.501 26zM321.002 225.001C258.335 263.668 213.333 307.836 186 357.503s-41 104.834-41 165.501c0 33.333 4 67.333 12 102s19.5 68.334 34.5 101.001 32.833 63.167 53.5 91.5 43.667 53.166 69 74.499 52.333 38.166 81 50.499 58.667 18.5 90 18.5c33.333 0 65.833-7.667 97.5-23s61.167-36.5 88.5-63.5 52.333-58.667 75-95 42-75.5 58-117.5 28.5-85.833 37.5-131.5 13.5-91.167 13.5-136.5c0-65.333-9.833-121.166-29.5-167.499s-46.167-84.833-79.5-115.5-72.166-54.834-116.499-72.501-91.5-31-141.5-40-101.167-14.667-153.5-17-103.166-3.5-152.499-3.5h-182c-23.333 0-40.833 11.167-52.5 33.5s-17.5 52.166-17.5 89.499c0 36.667 5.833 66.167 17.5 88.5s29.167 33.5 52.5 33.5h129c13.333 0 29-.333 47-1l54-2c18-.667 34.833-1.334 50.5-2.001s28.167-1 37.5-1zM571 1204H348v203h223v-203z" glyph-name="uni06A7.init" horiz-adv-x="1026" unicode="ڧ"/><glyph d="M475 709c-18 0-35.001-6-51.001-18s-30.167-27.167-42.5-45.5-22-38.166-29-59.499-10.5-41-10.5-59c0-14 3.167-29.833 9.5-47.5s19-37 38-58 46.333-43.667 82-68 82.834-50.5 141.501-78.5c7.333 6 13.5 13.333 18.5 22s9.167 18 12.5 28 5.833 20.167 7.5 30.5 2.5 19.833 2.5 28.5c.667 9.333.5 19-.5 29s-2.167 20.667-3.5 32c-4 26.667-11.5 55.5-22.5 86.5s-24.333 59.667-40 86S554.333 665.667 535 683s-39.333 26-60 26zM321.999 225c-62.667 38.667-107.829 82.834-135.496 132.501s-41.5 104.834-41.5 165.501c0 33.333 4.167 67.333 12.5 102s19.833 68.334 34.5 101.001 32.5 63.167 53.5 91.5 44 53.166 69 74.499 52 38.166 81 50.499 59.167 18.5 90.5 18.5c34 0 66.667-7.667 98-23s60.666-36.5 87.999-63.5 52.166-58.833 74.499-95.5 41.666-76 57.999-118 28.833-85.667 37.5-131 13-90.666 13-135.999c0-32-2.667-61.5-8-88.5s-13-51.833-23-74.5c14.667-2 29.167-3.5 43.5-4.5s29.333-1.667 45-2 32.667-.666 51-.999 39.166-.5 62.499-.5v-245h-32c-29.333 0-60 1.167-92 3.5s-64.333 5.833-97 10.5-64.667 10.667-96 18-60.666 16.333-87.999 27c-36-14.667-74-26-114-34s-79.833-13.833-119.5-17.5-78.334-5.834-116.001-6.501-72.5-1-104.5-1h-167c-23.333 0-40.833 11.167-52.5 33.5s-17.5 52.166-17.5 89.499c0 36.667 5.833 66.167 17.5 88.5s29.167 33.5 52.5 33.5h130c13.333 0 29-.333 47-1l54-2c18-.667 34.833-1.334 50.5-2.001s28.167-1 37.5-1zm249.005 979h-223v203h223v-203z" glyph-name="uni06A7.medi" horiz-adv-x="1026" unicode="ڧ"/><glyph d="M1068-19c-130 0-230.498 29.668-301.498 89.001s-106.5 144.333-106.5 255c0 34 4.167 68.5 12.5 103.5s19.833 68.833 34.5 101.5 32.5 63.167 53.5 91.5 44 53 69 74 51.833 37.667 80.5 50 58.334 18.5 89.001 18.5c51.333 0 97.666-14.5 138.999-43.5s81-73.833 119-134.5c30-48 54-102.667 72-164s30.333-127.666 37-198.999h173v-245h-173c-10-88-30.5-163.333-61.5-226s-73-114.334-126-155.001-116.833-70.5-191.5-89.5-160.334-28.5-257.001-28.5c-104.667 0-194.334 10.833-269.001 32.5s-135.834 54.5-183.501 98.5-82.667 99.167-105 165.5S138.999-80.333 138.999 9c0 42.667 2.5 88 7.5 136s13.167 103 24.5 165h199c-5.333-34-9.833-64.333-13.5-91s-6.5-51-8.5-73-3.5-41.833-4.5-59.5-1.5-34.167-1.5-49.5c0-52 5.833-97.5 17.5-136.5s32.5-71.667 62.5-98 70.667-46.166 122-59.499 117-20 197-20c84 0 152.5 7 205.5 21s95.167 32.667 126.5 56 53.833 50.666 67.5 81.999 22.834 64.333 27.501 99h-100zm78 335.001c-8 24.667-17.669 48.667-29.002 72s-23.5 44.333-36.5 63-27.167 33.667-42.5 45-31 17-47 17c-18 0-35.167-5.833-51.5-17.5s-30.666-26.167-42.999-43.5-22.333-36-30-56-11.5-38.333-11.5-55c0-45.333 17.333-77 52-95s86.334-27 155.001-27h105l-8.5 48.5c-3 17-7.167 33.167-12.5 48.5zM1082 1013H859v203h223v-203z" glyph-name="uni06A7.fina" horiz-adv-x="1539" unicode="ڧ"/><glyph d="M474 709c-18 0-34.998-5.999-50.998-17.999s-30-27.167-42-45.5-21.5-38.166-28.5-59.499-10.5-41-10.5-59c0-14 3.167-29.667 9.5-47s19-36.5 38-57.5 46.167-43.667 81.5-68 82.333-50.5 141-78.5c14 14.667 24.5 31.5 31.5 50.5s10.5 39.5 10.5 61.5c0 9.333-.333 18.666-1 27.999s-2 21.666-4 36.999c-3.333 24.667-10.5 52-21.5 82s-24.333 57.833-40 83.5-33.334 47.167-53.001 64.5-39.834 26-60.501 26zM321.002 225.001C258.335 263.668 213.333 307.836 186 357.503s-41 104.834-41 165.501c0 33.333 4 67.333 12 102s19.5 68.334 34.5 101.001 32.833 63.167 53.5 91.5 43.667 53.166 69 74.499 52.333 38.166 81 50.499 58.667 18.5 90 18.5c33.333 0 65.833-7.667 97.5-23s61.167-36.5 88.5-63.5 52.333-58.667 75-95 42-75.5 58-117.5 28.5-85.833 37.5-131.5 13.5-91.167 13.5-136.5c0-65.333-9.833-121.166-29.5-167.499s-46.167-84.833-79.5-115.5-72.166-54.834-116.499-72.501-91.5-31-141.5-40-101.167-14.667-153.5-17-103.166-3.5-152.499-3.5h-182c-23.333 0-40.833 11.167-52.5 33.5s-17.5 52.166-17.5 89.499c0 36.667 5.833 66.167 17.5 88.5s29.167 33.5 52.5 33.5h129c13.333 0 29-.333 47-1l54-2c18-.667 34.833-1.334 50.5-2.001s28.167-1 37.5-1zM401 1204H179v203h222v-203zm338 0H517v203h222v-203zm-168 280H348v203h223v-203z" glyph-name="uni06A8.init" horiz-adv-x="1026" unicode="ڨ"/><glyph d="M475 709c-18 0-35.001-6-51.001-18s-30.167-27.167-42.5-45.5-22-38.166-29-59.499-10.5-41-10.5-59c0-14 3.167-29.833 9.5-47.5s19-37 38-58 46.333-43.667 82-68 82.834-50.5 141.501-78.5c7.333 6 13.5 13.333 18.5 22s9.167 18 12.5 28 5.833 20.167 7.5 30.5 2.5 19.833 2.5 28.5c.667 9.333.5 19-.5 29s-2.167 20.667-3.5 32c-4 26.667-11.5 55.5-22.5 86.5s-24.333 59.667-40 86S554.333 665.667 535 683s-39.333 26-60 26zM321.999 225c-62.667 38.667-107.829 82.834-135.496 132.501s-41.5 104.834-41.5 165.501c0 33.333 4.167 67.333 12.5 102s19.833 68.334 34.5 101.001 32.5 63.167 53.5 91.5 44 53.166 69 74.499 52 38.166 81 50.499 59.167 18.5 90.5 18.5c34 0 66.667-7.667 98-23s60.666-36.5 87.999-63.5 52.166-58.833 74.499-95.5 41.666-76 57.999-118 28.833-85.667 37.5-131 13-90.666 13-135.999c0-32-2.667-61.5-8-88.5s-13-51.833-23-74.5c14.667-2 29.167-3.5 43.5-4.5s29.333-1.667 45-2 32.667-.666 51-.999 39.166-.5 62.499-.5v-245h-32c-29.333 0-60 1.167-92 3.5s-64.333 5.833-97 10.5-64.667 10.667-96 18-60.666 16.333-87.999 27c-36-14.667-74-26-114-34s-79.833-13.833-119.5-17.5-78.334-5.834-116.001-6.501-72.5-1-104.5-1h-167c-23.333 0-40.833 11.167-52.5 33.5s-17.5 52.166-17.5 89.499c0 36.667 5.833 66.167 17.5 88.5s29.167 33.5 52.5 33.5h130c13.333 0 29-.333 47-1l54-2c18-.667 34.833-1.334 50.5-2.001s28.167-1 37.5-1zm79.005 979h-222v203h222v-203zm338 0h-222v203h222v-203zm-168 280h-223v203h223v-203z" glyph-name="uni06A8.medi" horiz-adv-x="1026" unicode="ڨ"/><glyph d="M1068-19c-130 0-230.498 29.668-301.498 89.001s-106.5 144.333-106.5 255c0 34 4.167 68.5 12.5 103.5s19.833 68.833 34.5 101.5 32.5 63.167 53.5 91.5 44 53 69 74 51.833 37.667 80.5 50 58.334 18.5 89.001 18.5c51.333 0 97.666-14.5 138.999-43.5s81-73.833 119-134.5c30-48 54-102.667 72-164s30.333-127.666 37-198.999h173v-245h-173c-10-88-30.5-163.333-61.5-226s-73-114.334-126-155.001-116.833-70.5-191.5-89.5-160.334-28.5-257.001-28.5c-104.667 0-194.334 10.833-269.001 32.5s-135.834 54.5-183.501 98.5-82.667 99.167-105 165.5S138.999-80.333 138.999 9c0 42.667 2.5 88 7.5 136s13.167 103 24.5 165h199c-5.333-34-9.833-64.333-13.5-91s-6.5-51-8.5-73-3.5-41.833-4.5-59.5-1.5-34.167-1.5-49.5c0-52 5.833-97.5 17.5-136.5s32.5-71.667 62.5-98 70.667-46.166 122-59.499 117-20 197-20c84 0 152.5 7 205.5 21s95.167 32.667 126.5 56 53.833 50.666 67.5 81.999 22.834 64.333 27.501 99h-100zm78 335.001c-8 24.667-17.669 48.667-29.002 72s-23.5 44.333-36.5 63-27.167 33.667-42.5 45-31 17-47 17c-18 0-35.167-5.833-51.5-17.5s-30.666-26.167-42.999-43.5-22.333-36-30-56-11.5-38.333-11.5-55c0-45.333 17.333-77 52-95s86.334-27 155.001-27h105l-8.5 48.5c-3 17-7.167 33.167-12.5 48.5zM912 1013H690v203h222v-203zm338 0h-222v203h222v-203zm-168 280H859v203h223v-203z" glyph-name="uni06A8.fina" horiz-adv-x="1539" unicode="ڨ"/><glyph d="M1726 1623l-.006-260.009-623-383c83.333-41.333 159.666-84.166 229-128.499s128.832-91.666 178.5-141.999 88.333-104.333 116-162 41.5-120.167 41.5-187.5c0-27.333-3.167-57.666-9.5-90.999s-18.833-66.333-37.5-99-45.167-63.167-79.5-91.5-79.5-50.833-135.5-67.5c-60.667-18-135.667-29.333-225-34s-195-7-317-7c-64 0-125.5.833-184.5 2.5s-114.167 6-165.5 13-98.166 17.667-140.499 32S294.33 51.66 262.996 76.993c-23.333 18.667-42.833 39.834-58.5 63.501s-28.334 49.334-38 77.001-16.668 56.334-21 86.001-6.5 59.834-6.5 90.501c0 43.333 3.332 86.833 10 130.5s15.333 85.5 26 125.5h199c-5.333-22-9.833-42.333-13.5-61s-7-36.5-10-53.5-5.167-33.667-6.5-50-2-33.166-2-50.499c0-34.667 4.5-64.5 13.5-89.5s24.167-46.167 45.5-63.5c18.667-16 43.334-28.5 74.001-37.5s68.5-15.833 113.5-20.5 98.167-7.5 159.5-8.5 132-1.5 212-1.5c84.667 0 160 1.167 226 3.5s121 9.5 165 21.5c26.667 7.333 47.834 15.5 63.501 24.5s27.334 18.5 35.001 28.5 12.5 20.333 14.5 31 3 21 3 31c0 38.667-13 77.834-39 117.501s-64.667 80.334-116 122.001-115.166 84.667-191.499 129S955.667 813.333 855 862v206z" arabic-form="isolated" glyph-name="uni06A9" horiz-adv-x="1881" unicode="ک"/><glyph d="M999 932c-84.667-14.667-165.667-32.5-243-53.5S610.5 834.667 551.5 810s-106-50-141-76-52.5-51.333-52.5-76c0-9.333 3.5-16.5 10.5-21.5s21.833-9 44.5-12 55.167-4.833 97.5-5.5 98.833-1 169.5-1h895c48 0 94-7.5 138-22.5s83-36.667 117-65 61-63 81-104 30-87.5 30-139.5c0-26-2.667-52.833-8-80.5s-13.5-54.667-24.5-81-25-51.166-42-74.499-36.833-43-59.5-59c-37.333-3.333-86.333-6.333-147-9s-130-5-208-7-162.667-3.5-254-4.5-186.333-1.5-285-1.5c-54 0-111.167.167-171.5.5s-120.333.833-180 1.5l-174.5 2c-56.667.667-108.5 1.334-155.5 2.001s-87.5 1.167-121.5 1.5-58.667.5-74 .5H0c-23.333 0-40.833 11.167-52.5 33.5S-70 63.668-70 101.001c0 36.667 5.833 66.167 17.5 88.5s29.167 33.5 52.5 33.5h48c21.333 0 60.5-.5 117.5-1.5s127.333-2.333 211-4 178.5-3 284.5-4 219-1.5 339-1.5c88 0 168.667.167 242 .5s140.333 1.166 201 2.499 115.667 2.833 165 4.5 94.333 4.167 135 7.5c0 6 .333 11.667 1 17s1 10.666 1 15.999c0 22.667-5.167 42-15.5 58s-24.333 29-42 39-37.834 17.333-60.501 22-46 7-70 7h-1012c-61.333 0-115.333 3-162 9s-85.667 17-117 33-55 37.833-71 65.5-24 62.834-24 105.501c0 64.667 18.5 127 55.5 187s90.833 115.167 161.5 165.5 157.334 95 260.001 134 219.667 69.5 351 91.5V932z" glyph-name="uni06AA.init" horiz-adv-x="2052" unicode="ڪ"/><glyph d="M999 932c-84.667-14.667-165.668-32.499-243.001-53.499s-145.5-43.833-204.5-68.5-106-50-141-76-52.5-51.333-52.5-76c0-9.333 3.5-16.5 10.5-21.5s21.833-9 44.5-12 55.167-4.833 97.5-5.5 98.833-1 169.5-1h895c48 0 94-7.5 138-22.5s83-36.667 117-65 61-63 81-104 30-87.5 30-139.5c0-9.333-.5-19-1.5-29s-2.167-20-3.5-30c18-2 36-3.333 54-4s38.667-1 62-1v-245h-24c-36 0-65.167 7-87.5 21s-42.833 35.333-61.5 64h-6c-18.667-28.667-40.667-52.334-66-71.001-37.333-3.333-86.333-6.333-147-9s-130-5-208-7-162.667-3.5-254-4.5-186.333-1.5-285-1.5c-54 0-111.167.167-171.5.5s-120.333.833-180 1.5l-174.5 2c-56.667.667-108.5 1.334-155.5 2.001s-87.5 1.167-121.5 1.5-58.667.5-74 .5h-36c-23.333 0-40.833 11.167-52.5 33.5s-17.5 52.166-17.5 89.499c0 36.667 5.833 66.167 17.5 88.5S-23.334 223-.001 223h48c21.333 0 60.5-.5 117.5-1.5s127.333-2.333 211-4 178.5-3 284.5-4 219-1.5 339-1.5c88 0 168.667.167 242 .5s140.333 1.166 201 2.499 115.667 2.833 165 4.5 94.333 4.167 135 7.5c.667 5.333 1.167 10 1.5 14s.5 8.333.5 13c0 26-5.167 47.5-15.5 64.5s-24.166 30.5-41.499 40.5-37.333 17-60 21-46.334 6-71.001 6h-1012c-61.333 0-115.333 3-162 9s-85.667 17-117 33-55 37.833-71 65.5-24 62.834-24 105.501c0 64.667 18.5 127 55.5 187s90.833 115.167 161.5 165.5 157.334 95 260.001 134 219.667 69.5 351 91.5V932z" glyph-name="uni06AA.medi" horiz-adv-x="2052" unicode="ڪ"/><glyph d="M1170 932c-84.667-14.667-165.669-32.503-243.002-53.503s-145.5-43.833-204.5-68.5-106-50-141-76-52.5-51.333-52.5-76c0-9.333 3.5-16.5 10.5-21.5s21.833-9 44.5-12 55.167-4.833 97.5-5.5 98.833-1 169.5-1h895c48 0 94-7.5 138-22.5s83-36.667 117-65 61-63 81-104 30-87.5 30-139.5c0-9.333-.5-19-1.5-29s-2.167-20-3.5-30c18.667-2 36.834-3.333 54.501-4s38.167-1 61.5-1v-245h-24c-36 0-65.167 7-87.5 21s-42.833 35.333-61.5 64h-6c-17.333-28-39.333-51.667-66-71-38-3.333-87.333-6.333-148-9s-130-5-208-7-163.167-3.5-255.5-4.5-189.5-1.5-291.5-1.5c-51.333 0-107.666.167-168.999.5s-124.333 1-189 2-129.334 2.333-194.001 4-126 3.5-184 5.5-111.333 4.5-160 7.5-89 6.5-121 10.5l-49 243c52.667-6.667 119-12 199-16s169.833-7.167 269.5-9.5 207.5-3.833 323.5-4.5 236-1 360-1c90 0 171.833.167 245.5.5s141 1 202 2 116.5 2.5 166.5 4.5 96.333 4.667 139 8c.667 4 1.167 7.833 1.5 11.5s.5 7.834.5 12.501c0 22-5.167 41.333-15.5 58s-24 30.667-41 42-37 20-60 26-46.833 9-71.5 9h-1012c-61.333 0-115.333 3-162 9s-85.667 17-117 33-55 37.833-71 65.5-24 62.834-24 105.501c0 64.667 18.5 127 55.5 187s90.833 115.333 161.5 166S716.333 1047.333 819 1086s219.667 69 351 91V932z" glyph-name="uni06AA.fina" horiz-adv-x="2223" unicode="ڪ"/><glyph d="M871 1623v-260L248 980c82.667-40.667 158.667-83.167 228-127.5s129-91.666 179-141.999 88.833-104.333 116.5-162S813 428.667 813 362c0-26.667-2.5-54.667-7.5-84s-14.333-58.333-28-87-32.5-55.834-56.5-81.501-55.333-48.167-94-67.5-85.5-34.833-140.5-46.5-120.167-17.5-195.5-17.5H0c-23.333 0-40.833 11.167-52.5 33.5S-70 63.665-70 100.998c0 36.667 5.833 66.167 17.5 88.5s29.167 33.5 52.5 33.5h294c62 0 113.333 2 154 6s73.167 10.833 97.5 20.5 41.5 22.834 51.5 39.501 15 37.667 15 63c0 40-13 79.833-39 119.5S508.167 551.833 456.5 593.5s-115.667 84.667-192 129S100 813.333 0 862v206zm-247-349c23.333 0 45.166-4.333 65.499-13s38.166-20.5 53.499-35.5 27.333-33 36-54 13-43.5 13-67.5c0-23.333-4.333-45-13-65s-20.667-37.667-36-53-33.166-27.333-53.499-36-42.166-13-65.499-13c-24.667 0-47.5 4.333-68.5 13s-39.167 20.667-54.5 36-27.333 33-36 53-13 41.667-13 65c0 24 4.333 46.5 13 67.5s20.5 39 35.5 54 33 26.833 54 35.5 44.167 13 69.5 13zm0-254c22 0 40.333 8.167 55 24.5s22 36.166 22 59.499c0 25.333-7.333 46.166-22 62.499s-33 24.5-55 24.5c-24 0-43.5-8.167-58.5-24.5s-22.5-37.166-22.5-62.499c0-23.333 7.5-43.166 22.5-59.499S600 1020 624 1020z" glyph-name="uni06AB.init" horiz-adv-x="1026" unicode="ګ"/><glyph d="M871 1623l-.001-260.002-623-383c84.667-42 160-84.167 226-126.5s122.5-86.5 169.5-132.5 84.5-94.333 112.5-145 46-105.334 54-164.001c3.333-19.333 7.666-38.833 12.999-58.5s15.666-39.167 30.999-58.5c6.667-9.333 14.667-18.166 24-26.499s20.833-16 34.5-23 29.834-12.5 48.501-16.5 40.334-6 65.001-6v-245h-22c-25.333 0-50.666 2.833-75.999 8.5s-49.5 14.5-72.5 26.5-44.5 27.5-64.5 46.5-37.333 42.167-52 69.5h-6c-16.667-22-37.667-42.167-63-60.5s-56-34.166-92-47.499-77.667-23.833-125-31.5-101.333-11.5-162-11.5H0c-23.333 0-40.833 11.167-52.5 33.5S-70 63.665-70 100.998c0 36.667 5.833 66.167 17.5 88.5s29.167 33.5 52.5 33.5h294c62 0 113.333 2 154 6s73.167 10.833 97.5 20.5 41.5 22.834 51.5 39.501 15 37.667 15 63c0 40-13 79.833-39 119.5S508.167 551.833 456.5 593.5s-115.667 84.667-192 129S100 813.333 0 862v206zm-247.001-349c23.333 0 45.166-4.333 65.499-13s38.166-20.5 53.499-35.5 27.333-33 36-54 13-43.5 13-67.5c0-23.333-4.333-45-13-65s-20.667-37.667-36-53-33.166-27.333-53.499-36-42.166-13-65.499-13c-24.667 0-47.5 4.333-68.5 13s-39.167 20.667-54.5 36-27.333 33-36 53-13 41.667-13 65c0 24 4.333 46.5 13 67.5s20.5 39 35.5 54 33 26.833 54 35.5 44.167 13 69.5 13zm0-254c22 0 40.333 8.167 55 24.5s22 36.166 22 59.499c0 25.333-7.333 46.166-22 62.499s-33 24.5-55 24.5c-24 0-43.5-8.167-58.5-24.5s-22.5-37.166-22.5-62.499c0-23.333 7.5-43.166 22.5-59.499s34.5-24.5 58.5-24.5z" glyph-name="uni06AB.medi" horiz-adv-x="1026" unicode="ګ"/><glyph d="M1726 1623l-.002-260.002-623-383c84.667-41.333 160-83.333 226-126s122.5-87 169.5-133 84.333-94.5 112-145.5 45.834-105.5 54.501-163.5c4-26 10.5-50.333 19.5-73s22-42.5 39-59.5 38.333-30.5 64-40.5 56.834-15.333 93.501-16v-245h-22c-25.333 0-50.666 2.833-75.999 8.5s-49.5 14.5-72.5 26.5-44.5 27.5-64.5 46.5-37.333 42.167-52 69.5h-6c-23.333-28.667-49.833-52.5-79.5-71.5s-64.5-34.5-104.5-46.5C1373.334 1.665 1339.667-5.668 1303-11.001s-77.167-9.5-121.5-12.5-92.833-4.833-145.5-5.5-110-1-172-1c-64 0-125.5.833-184.5 2.5s-114.167 6-165.5 13-98.333 17.667-141 32-79.334 34.166-110.001 59.499c-23.333 18.667-42.833 39.834-58.5 63.501s-28.334 49.167-38.001 76.5-16.667 56-21 86-6.5 60.333-6.5 91c0 43.333 3.333 86.833 10 130.5s15.334 85.5 26.001 125.5h199l-13-61.5c-4-19-7.333-37-10-54s-4.834-33.5-6.5-49.5-2.5-32.667-2.5-50c0-36 4.832-67 14.5-93s26.166-47.667 49.5-65c20-14.667 45.332-26.167 76-34.5s68.333-14.666 113-18.999 97-7 157-8 129.333-1.5 208-1.5c85.333 0 160.833 1.167 226.5 3.5S1307 227 1351 239c26.667 7.333 47.834 15.5 63.501 24.5s27.334 18.5 35.001 28.5 12.5 20.333 14.5 31 3 21 3 31c0 78-51.833 158-155.5 240s-255.834 171.333-456.5 268v206zm-247-349c23.333 0 45.166-4.333 65.499-13s38.166-20.5 53.499-35.5 27.333-33 36-54 13-43.5 13-67.5c0-23.333-4.333-45-13-65s-20.667-37.667-36-53-33.166-27.333-53.499-36-42.166-13-65.499-13c-24.667 0-47.5 4.333-68.5 13s-39.167 20.667-54.5 36-27.333 33-36 53-13 41.667-13 65c0 24 4.333 46.5 13 67.5s20.5 39 35.5 54 33 26.833 54 35.5 44.167 13 69.5 13zm0-254c22 0 40.333 8.167 55 24.5s22 36.166 22 59.499c0 25.333-7.333 46.166-22 62.499s-33 24.5-55 24.5c-24 0-43.5-8.167-58.5-24.5s-22.5-37.166-22.5-62.499c0-23.333 7.5-43.166 22.5-59.499s34.5-24.5 58.5-24.5z" glyph-name="uni06AB.fina" horiz-adv-x="1881" unicode="ګ"/><glyph d="M871 1623v-260L248 980c82.667-40.667 158.667-83.167 228-127.5s129-91.666 179-141.999 88.833-104.333 116.5-162S813 428.667 813 362c0-26.667-2.5-54.667-7.5-84s-14.333-58.333-28-87-32.5-55.834-56.5-81.501-55.333-48.167-94-67.5-85.5-34.833-140.5-46.5-120.167-17.5-195.5-17.5H0c-23.333 0-40.833 11.167-52.5 33.5S-70 63.665-70 100.998c0 36.667 5.833 66.167 17.5 88.5s29.167 33.5 52.5 33.5h294c62 0 113.333 2 154 6s73.167 10.833 97.5 20.5 41.5 22.834 51.5 39.501 15 37.667 15 63c0 40-13 79.833-39 119.5S508.167 551.833 456.5 593.5s-115.667 84.667-192 129S100 813.333 0 862v206zm-456-100H192v203h223v-203z" glyph-name="uni06AC.init" horiz-adv-x="1026" unicode="ڬ"/><glyph d="M871 1623l-.001-260.002-623-383c84.667-42 160-84.167 226-126.5s122.5-86.5 169.5-132.5 84.5-94.333 112.5-145 46-105.334 54-164.001c3.333-19.333 7.666-38.833 12.999-58.5s15.666-39.167 30.999-58.5c6.667-9.333 14.667-18.166 24-26.499s20.833-16 34.5-23 29.834-12.5 48.501-16.5 40.334-6 65.001-6v-245h-22c-25.333 0-50.666 2.833-75.999 8.5s-49.5 14.5-72.5 26.5-44.5 27.5-64.5 46.5-37.333 42.167-52 69.5h-6c-16.667-22-37.667-42.167-63-60.5s-56-34.166-92-47.499-77.667-23.833-125-31.5-101.333-11.5-162-11.5H0c-23.333 0-40.833 11.167-52.5 33.5S-70 63.665-70 100.998c0 36.667 5.833 66.167 17.5 88.5s29.167 33.5 52.5 33.5h294c62 0 113.333 2 154 6s73.167 10.833 97.5 20.5 41.5 22.834 51.5 39.501 15 37.667 15 63c0 40-13 79.833-39 119.5S508.167 551.833 456.5 593.5s-115.667 84.667-192 129S100 813.333 0 862v206zm-456.001-100h-223v203h223v-203z" glyph-name="uni06AC.medi" horiz-adv-x="1026" unicode="ڬ"/><glyph d="M684 710c120 6.667 179.999 28.666 179.999 65.999 0 5.333-4 11.833-12 19.5s-24 16.834-48 27.501c-28.667 13.333-50.834 29-66.501 47s-23.5 42.333-23.5 73c0 26.667 8.333 51 25 73s39.334 41.167 68.001 57.5 61.834 30.166 99.501 41.499 77.5 20 119.5 26v-120c-61.333-8-105.833-18.167-133.5-30.5s-41.5-26.833-41.5-43.5c0-8 4.667-15.833 14-23.5s28.333-17.5 57-29.5c26.667-12 46.5-26 59.5-42s19.5-38.667 19.5-68c0-22-6.5-43.833-19.5-65.5s-32.5-41.667-58.5-60-58.833-33.666-98.5-45.999S738 592.667 684 590v120zm-310.001-60.001L360.997 588.5c-4-19-7.333-37-10-54s-4.834-33.5-6.501-49.5-2.5-32.667-2.5-50c0-16 .833-31.167 2.5-45.5s4.834-28 9.501-41 11.167-25.333 19.5-37 19.166-22.5 32.499-32.5c17.333-13.333 39-24.333 65-33s58.5-15.5 97.5-20.5 85.833-8.333 140.5-10 120-2.5 196-2.5c84 0 153.833 1.333 209.5 4s100.334 9.5 134.001 20.5 57.334 28 71.001 51 20.5 54.833 20.5 95.5v1132h199V439c0-37.333 1-69.5 3-96.5s8.5-49.333 19.5-67 28-30.834 51-39.501 55.5-13 97.5-13v-245h-40c-59.333 0-108 9.667-146 29s-67 49.333-87 90h-6c-28-30-61.5-53.5-100.5-70.5s-82.167-29.667-129.5-38-98.166-13.5-152.499-15.5-110.833-3-169.5-3c-66 0-129.5.833-190.5 2.5s-118 6-171 13-101.167 17.5-144.5 31.5-80.333 33.667-111 59c-23.333 18.667-42.833 40-58.5 64s-28.334 49.667-38.001 77-16.5 55.833-20.5 85.5-6 59.167-6 88.5c0 45.333 3.333 89.333 10 132s15.334 85 26.001 127h199zM994.997 1523h-223v203h223v-203z" glyph-name="uni06AC.fina" horiz-adv-x="1710" unicode="ڬ"/><glyph d="M374 650l-13.001-61.499c-4-19-7.333-37-10-54s-4.834-33.5-6.501-49.5-2.5-32.667-2.5-50c0-16 .833-31.167 2.5-45.5s4.834-28 9.501-41 11.167-25.333 19.5-37 19.166-22.5 32.499-32.5c17.333-13.333 39-24.333 65-33s58.5-15.5 97.5-20.5 86-8.333 141-10 120.167-2.5 195.5-2.5c84 0 153.833 1.333 209.5 4s100.334 9.5 134.001 20.5 57.334 28 71.001 51 20.5 54.833 20.5 95.5v1132h199v-1139c0-63.333-7.833-117.5-23.5-162.5s-38-82.5-67-112.5-63.667-53.833-104-71.5-84.833-31-133.5-40-101.167-14.667-157.5-17-114.5-3.5-174.5-3.5c-66 0-129.5.833-190.5 2.5s-117.833 6-170.5 13-100.667 17.667-144 32S293.667 51.667 263 77c-23.333 18.667-42.833 40-58.5 64s-28.334 49.5-38.001 76.5-16.667 55.333-21 85-6.5 59.167-6.5 88.5c0 45.333 3.333 89.333 10 132S164.333 608 175 650h199zm310.999 60.001C804.999 716.668 865 738.667 865 776c0 9.333-6.333 17-19 23s-29.667 14.667-51 26c-23.333 12.667-42.5 27.834-57.5 45.501S715 912.335 715 943.002c0 26.667 8.333 51 25 73s39.167 41.167 67.5 57.5 61.333 30.166 99 41.499 77.5 20 119.5 26v-120c-61.333-8-105.666-18.167-132.999-30.5s-41-27.166-41-44.499c0-10.667 6.167-19.334 18.5-26.001s29.166-15 50.499-25c25.333-12 45.166-26.333 59.499-43s21.5-39.334 21.5-68.001c0-22-6.5-43.833-19.5-65.5s-32.5-41.667-58.5-60-58.833-33.666-98.5-45.999-86.5-19.833-140.5-22.5v120zM825 1523H603v203h222v-203zm338 0H941v203h222v-203zm-168 280H772v203h223v-203z" arabic-form="isolated" glyph-name="uni06AD" horiz-adv-x="1710" unicode="ڭ"/><glyph d="M871 1623v-260L248 980c82.667-40.667 158.667-83.167 228-127.5s129-91.666 179-141.999 88.833-104.333 116.5-162S813 428.667 813 362c0-26.667-2.5-54.667-7.5-84s-14.333-58.333-28-87-32.5-55.834-56.5-81.501-55.333-48.167-94-67.5-85.5-34.833-140.5-46.5-120.167-17.5-195.5-17.5H0c-23.333 0-40.833 11.167-52.5 33.5S-70 63.665-70 100.998c0 36.667 5.833 66.167 17.5 88.5s29.167 33.5 52.5 33.5h294c62 0 113.333 2 154 6s73.167 10.833 97.5 20.5 41.5 22.834 51.5 39.501 15 37.667 15 63c0 40-13 79.833-39 119.5S508.167 551.833 456.5 593.5s-115.667 84.667-192 129S100 813.333 0 862v206zM369-308H147v203h222v-203zm338 0H485v203h222v-203zM538-588H315v203h223v-203z" glyph-name="uni06AE.init" horiz-adv-x="1026" unicode="ڮ"/><glyph d="M871 1623l-.001-260.002-623-383c84.667-42 160-84.167 226-126.5s122.5-86.5 169.5-132.5 84.5-94.333 112.5-145 46-105.334 54-164.001c3.333-19.333 7.666-38.833 12.999-58.5s15.666-39.167 30.999-58.5c6.667-9.333 14.667-18.166 24-26.499s20.833-16 34.5-23 29.834-12.5 48.501-16.5 40.334-6 65.001-6v-245h-22c-25.333 0-50.666 2.833-75.999 8.5s-49.5 14.5-72.5 26.5-44.5 27.5-64.5 46.5-37.333 42.167-52 69.5h-6c-16.667-22-37.667-42.167-63-60.5s-56-34.166-92-47.499-77.667-23.833-125-31.5-101.333-11.5-162-11.5H0c-23.333 0-40.833 11.167-52.5 33.5S-70 63.665-70 100.998c0 36.667 5.833 66.167 17.5 88.5s29.167 33.5 52.5 33.5h294c62 0 113.333 2 154 6s73.167 10.833 97.5 20.5 41.5 22.834 51.5 39.501 15 37.667 15 63c0 40-13 79.833-39 119.5S508.167 551.833 456.5 593.5s-115.667 84.667-192 129S100 813.333 0 862v206zM368.999-308.002h-222v203h222v-203zm338 0h-222v203h222v-203zm-169-280h-223v203h223v-203z" glyph-name="uni06AE.medi" horiz-adv-x="1026" unicode="ڮ"/><glyph d="M684 710c120 6.667 179.999 28.666 179.999 65.999 0 5.333-4 11.833-12 19.5s-24 16.834-48 27.501c-28.667 13.333-50.834 29-66.501 47s-23.5 42.333-23.5 73c0 26.667 8.333 51 25 73s39.334 41.167 68.001 57.5 61.834 30.166 99.501 41.499 77.5 20 119.5 26v-120c-61.333-8-105.833-18.167-133.5-30.5s-41.5-26.833-41.5-43.5c0-8 4.667-15.833 14-23.5s28.333-17.5 57-29.5c26.667-12 46.5-26 59.5-42s19.5-38.667 19.5-68c0-22-6.5-43.833-19.5-65.5s-32.5-41.667-58.5-60-58.833-33.666-98.5-45.999S738 592.667 684 590v120zm-310.001-60.001L360.997 588.5c-4-19-7.333-37-10-54s-4.834-33.5-6.501-49.5-2.5-32.667-2.5-50c0-16 .833-31.167 2.5-45.5s4.834-28 9.501-41 11.167-25.333 19.5-37 19.166-22.5 32.499-32.5c17.333-13.333 39-24.333 65-33s58.5-15.5 97.5-20.5 85.833-8.333 140.5-10 120-2.5 196-2.5c84 0 153.833 1.333 209.5 4s100.334 9.5 134.001 20.5 57.334 28 71.001 51 20.5 54.833 20.5 95.5v1132h199V439c0-37.333 1-69.5 3-96.5s8.5-49.333 19.5-67 28-30.834 51-39.501 55.5-13 97.5-13v-245h-40c-59.333 0-108 9.667-146 29s-67 49.333-87 90h-6c-28-30-61.5-53.5-100.5-70.5s-82.167-29.667-129.5-38-98.166-13.5-152.499-15.5-110.833-3-169.5-3c-66 0-129.5.833-190.5 2.5s-118 6-171 13-101.167 17.5-144.5 31.5-80.333 33.667-111 59c-23.333 18.667-42.833 40-58.5 64s-28.334 49.667-38.001 77-16.5 55.833-20.5 85.5-6 59.167-6 88.5c0 45.333 3.333 89.333 10 132s15.334 85 26.001 127h199zM825.997-308h-222v203h222v-203zM1164-308H942v203h222v-203zM994.997-588h-223v203h223v-203z" glyph-name="uni06AE.fina" horiz-adv-x="1710" unicode="ڮ"/><glyph d="M1726 1623l-.006-260.009-623-383c83.333-41.333 159.666-84.166 229-128.499s128.832-91.666 178.5-141.999 88.333-104.333 116-162 41.5-120.167 41.5-187.5c0-27.333-3.167-57.666-9.5-90.999s-18.833-66.333-37.5-99-45.167-63.167-79.5-91.5-79.5-50.833-135.5-67.5c-60.667-18-135.667-29.333-225-34s-195-7-317-7c-64 0-125.5.833-184.5 2.5s-114.167 6-165.5 13-98.166 17.667-140.499 32S294.33 51.66 262.996 76.993c-23.333 18.667-42.833 39.834-58.5 63.501s-28.334 49.334-38 77.001-16.668 56.334-21 86.001-6.5 59.834-6.5 90.501c0 43.333 3.332 86.833 10 130.5s15.333 85.5 26 125.5h199c-5.333-22-9.833-42.333-13.5-61s-7-36.5-10-53.5-5.167-33.667-6.5-50-2-33.166-2-50.499c0-34.667 4.5-64.5 13.5-89.5s24.167-46.167 45.5-63.5c18.667-16 43.334-28.5 74.001-37.5s68.5-15.833 113.5-20.5 98.167-7.5 159.5-8.5 132-1.5 212-1.5c84.667 0 160 1.167 226 3.5s121 9.5 165 21.5c26.667 7.333 47.834 15.5 63.501 24.5s27.334 18.5 35.001 28.5 12.5 20.333 14.5 31 3 21 3 31c0 38.667-13 77.834-39 117.501s-64.667 80.334-116 122.001-115.166 84.667-191.499 129S955.667 813.333 855 862v206zm-.01 309.99v-171l-871-554v170z" arabic-form="isolated" glyph-name="afii57509" horiz-adv-x="1881" unicode="گ"/><glyph d="M871 1623v-260L248 980c82.667-40.667 158.667-83.167 228-127.5s129-91.666 179-141.999 88.833-104.333 116.5-162S813 428.667 813 362c0-26.667-2.5-54.667-7.5-84s-14.333-58.333-28-87-32.5-55.834-56.5-81.501-55.333-48.167-94-67.5-85.5-34.833-140.5-46.5-120.167-17.5-195.5-17.5H0c-23.333 0-40.833 11.167-52.5 33.5S-70 63.665-70 100.998c0 36.667 5.833 66.167 17.5 88.5s29.167 33.5 52.5 33.5h294c62 0 113.333 2 154 6s73.167 10.833 97.5 20.5 41.5 22.834 51.5 39.501 15 37.667 15 63c0 40-13 79.833-39 119.5S508.167 551.833 456.5 593.5s-115.667 84.667-192 129S100 813.333 0 862v206zm-247-349c23.333 0 45.166-4.333 65.499-13s38.166-20.5 53.499-35.5 27.333-33 36-54 13-43.5 13-67.5c0-23.333-4.333-45-13-65s-20.667-37.667-36-53-33.166-27.333-53.499-36-42.166-13-65.499-13c-24.667 0-47.5 4.333-68.5 13s-39.167 20.667-54.5 36-27.333 33-36 53-13 41.667-13 65c0 24 4.333 46.5 13 67.5s20.5 39 35.5 54 33 26.833 54 35.5 44.167 13 69.5 13zm0-254c22 0 40.333 8.167 55 24.5s22 36.166 22 59.499c0 25.333-7.333 46.166-22 62.499s-33 24.5-55 24.5c-24 0-43.5-8.167-58.5-24.5s-22.5-37.166-22.5-62.499c0-23.333 7.5-43.166 22.5-59.499S600 1020 624 1020zm247 913v-171L0 1208v170z" glyph-name="uni06B0.init" horiz-adv-x="1026" unicode="ڰ"/><glyph d="M871 1623l-.001-260.002-623-383c84.667-42 160-84.167 226-126.5s122.5-86.5 169.5-132.5 84.5-94.333 112.5-145 46-105.334 54-164.001c3.333-19.333 7.666-38.833 12.999-58.5s15.666-39.167 30.999-58.5c6.667-9.333 14.667-18.166 24-26.499s20.833-16 34.5-23 29.834-12.5 48.501-16.5 40.334-6 65.001-6v-245h-22c-25.333 0-50.666 2.833-75.999 8.5s-49.5 14.5-72.5 26.5-44.5 27.5-64.5 46.5-37.333 42.167-52 69.5h-6c-16.667-22-37.667-42.167-63-60.5s-56-34.166-92-47.499-77.667-23.833-125-31.5-101.333-11.5-162-11.5H0c-23.333 0-40.833 11.167-52.5 33.5S-70 63.665-70 100.998c0 36.667 5.833 66.167 17.5 88.5s29.167 33.5 52.5 33.5h294c62 0 113.333 2 154 6s73.167 10.833 97.5 20.5 41.5 22.834 51.5 39.501 15 37.667 15 63c0 40-13 79.833-39 119.5S508.167 551.833 456.5 593.5s-115.667 84.667-192 129S100 813.333 0 862v206zm-247.001-349c23.333 0 45.166-4.333 65.499-13s38.166-20.5 53.499-35.5 27.333-33 36-54 13-43.5 13-67.5c0-23.333-4.333-45-13-65s-20.667-37.667-36-53-33.166-27.333-53.499-36-42.166-13-65.499-13c-24.667 0-47.5 4.333-68.5 13s-39.167 20.667-54.5 36-27.333 33-36 53-13 41.667-13 65c0 24 4.333 46.5 13 67.5s20.5 39 35.5 54 33 26.833 54 35.5 44.167 13 69.5 13zm0-254c22 0 40.333 8.167 55 24.5s22 36.166 22 59.499c0 25.333-7.333 46.166-22 62.499s-33 24.5-55 24.5c-24 0-43.5-8.167-58.5-24.5s-22.5-37.166-22.5-62.499c0-23.333 7.5-43.166 22.5-59.499s34.5-24.5 58.5-24.5zm247 913v-171l-871-554v170z" glyph-name="uni06B0.medi" horiz-adv-x="1026" unicode="ڰ"/><glyph d="M1726 1623l-.002-260.002-623-383c84.667-41.333 160-83.333 226-126s122.5-87 169.5-133 84.333-94.5 112-145.5 45.834-105.5 54.501-163.5c4-26 10.5-50.333 19.5-73s22-42.5 39-59.5 38.333-30.5 64-40.5 56.834-15.333 93.501-16v-245h-22c-25.333 0-50.666 2.833-75.999 8.5s-49.5 14.5-72.5 26.5-44.5 27.5-64.5 46.5-37.333 42.167-52 69.5h-6c-23.333-28.667-49.833-52.5-79.5-71.5s-64.5-34.5-104.5-46.5C1373.334 1.665 1339.667-5.668 1303-11.001s-77.167-9.5-121.5-12.5-92.833-4.833-145.5-5.5-110-1-172-1c-64 0-125.5.833-184.5 2.5s-114.167 6-165.5 13-98.333 17.667-141 32-79.334 34.166-110.001 59.499c-23.333 18.667-42.833 39.834-58.5 63.501s-28.334 49.167-38.001 76.5-16.667 56-21 86-6.5 60.333-6.5 91c0 43.333 3.333 86.833 10 130.5s15.334 85.5 26.001 125.5h199l-13-61.5c-4-19-7.333-37-10-54s-4.834-33.5-6.5-49.5-2.5-32.667-2.5-50c0-36 4.832-67 14.5-93s26.166-47.667 49.5-65c20-14.667 45.332-26.167 76-34.5s68.333-14.666 113-18.999 97-7 157-8 129.333-1.5 208-1.5c85.333 0 160.833 1.167 226.5 3.5S1307 227 1351 239c26.667 7.333 47.834 15.5 63.501 24.5s27.334 18.5 35.001 28.5 12.5 20.333 14.5 31 3 21 3 31c0 78-51.833 158-155.5 240s-255.834 171.333-456.5 268v206zm-247-349c23.333 0 45.166-4.333 65.499-13s38.166-20.5 53.499-35.5 27.333-33 36-54 13-43.5 13-67.5c0-23.333-4.333-45-13-65s-20.667-37.667-36-53-33.166-27.333-53.499-36-42.166-13-65.499-13c-24.667 0-47.5 4.333-68.5 13s-39.167 20.667-54.5 36-27.333 33-36 53-13 41.667-13 65c0 24 4.333 46.5 13 67.5s20.5 39 35.5 54 33 26.833 54 35.5 44.167 13 69.5 13zm0-254c22 0 40.333 8.167 55 24.5s22 36.166 22 59.499c0 25.333-7.333 46.166-22 62.499s-33 24.5-55 24.5c-24 0-43.5-8.167-58.5-24.5s-22.5-37.166-22.5-62.499c0-23.333 7.5-43.166 22.5-59.499s34.5-24.5 58.5-24.5zm247 913v-171l-871-554v170z" glyph-name="uni06B0.fina" horiz-adv-x="1881" unicode="ڰ"/><glyph d="M1726 1623l-.006-260.009-623-383c83.333-41.333 159.666-84.166 229-128.499s128.832-91.666 178.5-141.999 88.333-104.333 116-162 41.5-120.167 41.5-187.5c0-27.333-3.167-57.666-9.5-90.999s-18.833-66.333-37.5-99-45.167-63.167-79.5-91.5-79.5-50.833-135.5-67.5c-60.667-18-135.667-29.333-225-34s-195-7-317-7c-64 0-125.5.833-184.5 2.5s-114.167 6-165.5 13-98.166 17.667-140.499 32S294.33 51.66 262.996 76.993c-23.333 18.667-42.833 39.834-58.5 63.501s-28.334 49.334-38 77.001-16.668 56.334-21 86.001-6.5 59.834-6.5 90.501c0 43.333 3.332 86.833 10 130.5s15.333 85.5 26 125.5h199c-5.333-22-9.833-42.333-13.5-61s-7-36.5-10-53.5-5.167-33.667-6.5-50-2-33.166-2-50.499c0-34.667 4.5-64.5 13.5-89.5s24.167-46.167 45.5-63.5c18.667-16 43.334-28.5 74.001-37.5s68.5-15.833 113.5-20.5 98.167-7.5 159.5-8.5 132-1.5 212-1.5c84.667 0 160 1.167 226 3.5s121 9.5 165 21.5c26.667 7.333 47.834 15.5 63.501 24.5s27.334 18.5 35.001 28.5 12.5 20.333 14.5 31 3 21 3 31c0 38.667-13 77.834-39 117.501s-64.667 80.334-116 122.001-115.166 84.667-191.499 129S955.667 813.333 855 862v206zm-.01 309.99v-171l-871-554v170zm-640-118h-222v203h222v-203zm337 0h-222v203h222v-203z" arabic-form="isolated" glyph-name="uni06B1" horiz-adv-x="1881" unicode="ڱ"/><glyph d="M871 1623v-260L248 980c82.667-40.667 158.667-83.167 228-127.5s129-91.666 179-141.999 88.833-104.333 116.5-162S813 428.667 813 362c0-26.667-2.5-54.667-7.5-84s-14.333-58.333-28-87-32.5-55.834-56.5-81.501-55.333-48.167-94-67.5-85.5-34.833-140.5-46.5-120.167-17.5-195.5-17.5H0c-23.333 0-40.833 11.167-52.5 33.5S-70 63.665-70 100.998c0 36.667 5.833 66.167 17.5 88.5s29.167 33.5 52.5 33.5h294c62 0 113.333 2 154 6s73.167 10.833 97.5 20.5 41.5 22.834 51.5 39.501 15 37.667 15 63c0 40-13 79.833-39 119.5S508.167 551.833 456.5 593.5s-115.667 84.667-192 129S100 813.333 0 862v206zm0 310v-171L0 1208v170zM370-367H148v203h222v-203zm337 0H485v203h222v-203z" glyph-name="uni06B2.init" horiz-adv-x="1026" unicode="ڲ"/><glyph d="M871 1623l-.001-260.002-623-383c84.667-42 160-84.167 226-126.5s122.5-86.5 169.5-132.5 84.5-94.333 112.5-145 46-105.334 54-164.001c3.333-19.333 7.666-38.833 12.999-58.5s15.666-39.167 30.999-58.5c6.667-9.333 14.667-18.166 24-26.499s20.833-16 34.5-23 29.834-12.5 48.501-16.5 40.334-6 65.001-6v-245h-22c-25.333 0-50.666 2.833-75.999 8.5s-49.5 14.5-72.5 26.5-44.5 27.5-64.5 46.5-37.333 42.167-52 69.5h-6c-16.667-22-37.667-42.167-63-60.5s-56-34.166-92-47.499-77.667-23.833-125-31.5-101.333-11.5-162-11.5H0c-23.333 0-40.833 11.167-52.5 33.5S-70 63.665-70 100.998c0 36.667 5.833 66.167 17.5 88.5s29.167 33.5 52.5 33.5h294c62 0 113.333 2 154 6s73.167 10.833 97.5 20.5 41.5 22.834 51.5 39.501 15 37.667 15 63c0 40-13 79.833-39 119.5S508.167 551.833 456.5 593.5s-115.667 84.667-192 129S100 813.333 0 862v206zm-.001 310v-171l-871-554v170zm-501-2300.002h-222v203h222v-203zm337 0h-222v203h222v-203z" glyph-name="uni06B2.medi" horiz-adv-x="1026" unicode="ڲ"/><glyph d="M1726 1623l-.002-260.002-623-383c84.667-41.333 160-83.333 226-126s122.5-87 169.5-133 84.333-94.5 112-145.5 45.834-105.5 54.501-163.5c4-26 10.5-50.333 19.5-73s22-42.5 39-59.5 38.333-30.5 64-40.5 56.834-15.333 93.501-16v-245h-22c-25.333 0-50.666 2.833-75.999 8.5s-49.5 14.5-72.5 26.5-44.5 27.5-64.5 46.5-37.333 42.167-52 69.5h-6c-23.333-28.667-49.833-52.5-79.5-71.5s-64.5-34.5-104.5-46.5C1373.334 1.665 1339.667-5.668 1303-11.001s-77.167-9.5-121.5-12.5-92.833-4.833-145.5-5.5-110-1-172-1c-64 0-125.5.833-184.5 2.5s-114.167 6-165.5 13-98.333 17.667-141 32-79.334 34.166-110.001 59.499c-23.333 18.667-42.833 39.834-58.5 63.501s-28.334 49.167-38.001 76.5-16.667 56-21 86-6.5 60.333-6.5 91c0 43.333 3.333 86.833 10 130.5s15.334 85.5 26.001 125.5h199l-13-61.5c-4-19-7.333-37-10-54s-4.834-33.5-6.5-49.5-2.5-32.667-2.5-50c0-36 4.832-67 14.5-93s26.166-47.667 49.5-65c20-14.667 45.332-26.167 76-34.5s68.333-14.666 113-18.999 97-7 157-8 129.333-1.5 208-1.5c85.333 0 160.833 1.167 226.5 3.5S1307 227 1351 239c26.667 7.333 47.834 15.5 63.501 24.5s27.334 18.5 35.001 28.5 12.5 20.333 14.5 31 3 21 3 31c0 78-51.833 158-155.5 240s-255.834 171.333-456.5 268v206zm0 310v-171l-871-554v170zM883.998-367.002h-222v203h222v-203zm337.002 0H999v203h222v-203z" glyph-name="uni06B2.fina" horiz-adv-x="1881" unicode="ڲ"/><glyph d="M1726 1623l-.006-260.009-623-383c83.333-41.333 159.666-84.166 229-128.499s128.832-91.666 178.5-141.999 88.333-104.333 116-162 41.5-120.167 41.5-187.5c0-27.333-3.167-57.666-9.5-90.999s-18.833-66.333-37.5-99-45.167-63.167-79.5-91.5-79.5-50.833-135.5-67.5c-60.667-18-135.667-29.333-225-34s-195-7-317-7c-64 0-125.5.833-184.5 2.5s-114.167 6-165.5 13-98.166 17.667-140.499 32S294.33 51.66 262.996 76.993c-23.333 18.667-42.833 39.834-58.5 63.501s-28.334 49.334-38 77.001-16.668 56.334-21 86.001-6.5 59.834-6.5 90.501c0 43.333 3.332 86.833 10 130.5s15.333 85.5 26 125.5h199c-5.333-22-9.833-42.333-13.5-61s-7-36.5-10-53.5-5.167-33.667-6.5-50-2-33.166-2-50.499c0-34.667 4.5-64.5 13.5-89.5s24.167-46.167 45.5-63.5c18.667-16 43.334-28.5 74.001-37.5s68.5-15.833 113.5-20.5 98.167-7.5 159.5-8.5 132-1.5 212-1.5c84.667 0 160 1.167 226 3.5s121 9.5 165 21.5c26.667 7.333 47.834 15.5 63.501 24.5s27.334 18.5 35.001 28.5 12.5 20.333 14.5 31 3 21 3 31c0 38.667-13 77.834-39 117.501s-64.667 80.334-116 122.001-115.166 84.667-191.499 129S955.667 813.333 855 862v206zM1052.99-588.009h-223v203h223v-203zm0 280h-223v203h223v-203zm673 2240.999v-171l-871-554v170z" arabic-form="isolated" glyph-name="uni06B3" horiz-adv-x="1881" unicode="ڳ"/></font>
</defs>
</svg>
